<svg width="597" height="595" viewBox="0 0 597 595" fill="none" xmlns="http://www.w3.org/2000/svg">
<path d="M265.486 8.64727C316.984 19.2521 350.589 64.8076 394.661 93.4809C441.691 124.079 500.479 137.319 533.256 182.859C570.434 234.515 615.801 304.658 587.781 361.803C557.738 423.072 457.24 400.489 405.01 444.403C361.298 481.155 371.286 566.507 318.471 588.234C266.879 609.458 210.03 570.321 160.28 545.08C115.478 522.349 75.3553 491.872 46.9175 450.457C19.5204 410.558 -5.49499 363.042 2.50646 315.307C10.1829 269.512 72.035 252.293 87.4754 208.501C107.374 152.064 62.1676 77.8944 101.97 33.2078C139.387 -8.80069 210.386 -2.69934 265.486 8.64727Z" fill="url(#paint0_radial)"/>
<defs>
<radialGradient id="paint0_radial" cx="0" cy="0" r="1" gradientUnits="userSpaceOnUse" gradientTransform="translate(338.798 306.325) rotate(-146.878) scale(847.684 1550.5)">
<stop offset="0.153142" stop-color="#0B0238"/>
<stop offset="1" stop-color="#E6217F"/>
</radialGradient>
</defs>
</svg>
