<svg width="1440" height="1024" viewBox="0 0 1440 1024" fill="none" xmlns="http://www.w3.org/2000/svg">
<rect y="0.0546875" width="1440" height="1024" fill="url(#paint0_radial)"/>
<circle cx="662.48" cy="677.099" r="0.473168" transform="rotate(101.821 662.48 677.099)" fill="white"/>
<circle cx="539.526" cy="811.861" r="0.473168" transform="rotate(101.821 539.526 811.861)" fill="white"/>
<circle cx="333.208" cy="929.177" r="0.473168" transform="rotate(101.821 333.208 929.177)" fill="white"/>
<circle cx="264.315" cy="620.84" r="0.473168" transform="rotate(101.821 264.315 620.84)" fill="white"/>
<circle cx="536.722" cy="585.034" r="0.473168" transform="rotate(101.821 536.722 585.034)" fill="white"/>
<circle cx="825.921" cy="383.694" r="0.473168" transform="rotate(14.4191 825.921 383.694)" fill="white"/>
<circle cx="675.491" cy="695.775" r="0.946335" transform="rotate(101.821 675.491 695.775)" fill="white"/>
<circle cx="529.447" cy="963.963" r="0.946335" transform="rotate(101.821 529.447 963.963)" fill="white"/>
<circle cx="259.186" cy="509.063" r="0.946335" transform="rotate(101.821 259.186 509.063)" fill="white"/>
<circle cx="1202.48" cy="346.158" r="0.946335" transform="rotate(14.4191 1202.48 346.158)" fill="white"/>
<circle cx="272.31" cy="848.27" r="0.946335" transform="rotate(101.821 272.31 848.27)" fill="white"/>
<circle cx="143.82" cy="958.67" r="0.946335" transform="rotate(101.821 143.82 958.67)" fill="white"/>
<circle cx="162.689" cy="923.945" r="0.946335" transform="rotate(101.821 162.689 923.945)" fill="white"/>
<circle cx="222.097" cy="797.154" r="0.946335" transform="rotate(101.821 222.097 797.154)" fill="white"/>
<circle cx="585.129" cy="838.809" r="1.4195" transform="rotate(101.821 585.129 838.809)" fill="white"/>
<circle cx="781.536" cy="396.71" r="1.4195" transform="rotate(14.4191 781.536 396.71)" fill="white"/>
<circle cx="495.342" cy="625.683" r="1.4195" transform="rotate(101.821 495.342 625.683)" fill="white"/>
<circle cx="267.847" cy="599.342" r="1.4195" transform="rotate(101.821 267.847 599.342)" fill="white"/>
<circle cx="542.257" cy="526.249" r="1.4195" transform="rotate(101.821 542.257 526.249)" fill="white"/>
<circle cx="51.1016" cy="595.554" r="1.4195" transform="rotate(101.821 51.1016 595.554)" fill="white"/>
<circle cx="1184.93" cy="378.289" r="1.4195" transform="rotate(14.4191 1184.93 378.289)" fill="white"/>
<circle cx="580.711" cy="688.99" r="2.36584" transform="rotate(101.821 580.711 688.99)" fill="white"/>
<circle cx="961.146" cy="344.201" r="2.36584" transform="rotate(14.4191 961.146 344.201)" fill="white"/>
<circle cx="288.226" cy="645.181" r="2.36584" transform="rotate(101.821 288.226 645.181)" fill="white"/>
<circle cx="702.854" cy="1021.94" r="2.36584" transform="rotate(71.2393 702.854 1021.94)" fill="white"/>
<circle cx="736.343" cy="911.618" r="2.36584" transform="rotate(71.2393 736.343 911.618)" fill="white"/>
<circle cx="226.966" cy="813.159" r="2.36584" transform="rotate(101.821 226.966 813.159)" fill="white"/>
<circle cx="767.126" cy="639.056" r="2.36584" transform="rotate(101.821 767.126 639.056)" fill="white"/>
<circle cx="520.372" cy="524.568" r="2.36584" transform="rotate(101.821 520.372 524.568)" fill="white"/>
<circle cx="1122.35" cy="367.084" r="2.36584" transform="rotate(14.4191 1122.35 367.084)" fill="white"/>
<path d="M233.968 252.918L107.901 108.418" stroke="url(#paint1_radial)" stroke-width="2" stroke-linecap="round"/>
<path d="M201.693 882.577L129.684 954.577" stroke="url(#paint2_radial)" stroke-width="2" stroke-linecap="round"/>
<path d="M132.939 201.918L63.1618 115.238" stroke="url(#paint3_radial)" stroke-width="2" stroke-linecap="round"/>
<path d="M0 0.4375H1440V1024.44H0V0.4375Z" fill="url(#paint4_linear)" fill-opacity="0.8"/>
<path d="M1440 1023.35H0V566.976H1440V1023.35Z" fill="url(#paint5_linear)"/>
<path d="M950.69 711.379L1020.47 798.059" stroke="url(#paint6_radial)" stroke-width="2" stroke-linecap="round"/>
<defs>
<radialGradient id="paint0_radial" cx="0" cy="0" r="1" gradientUnits="userSpaceOnUse" gradientTransform="translate(882.488 788.144) rotate(-138.507) scale(2200.28 4357.47)">
<stop offset="0.339769" stop-color="#0B0238"/>
<stop offset="1" stop-color="#4122FF"/>
</radialGradient>
<radialGradient id="paint1_radial" cx="0" cy="0" r="1" gradientUnits="userSpaceOnUse" gradientTransform="translate(233.18 251.451) rotate(-55.4286) scale(248.791 68.2499)">
<stop stop-color="white"/>
<stop offset="1" stop-color="white" stop-opacity="0"/>
</radialGradient>
<radialGradient id="paint2_radial" cx="0" cy="0" r="1" gradientUnits="userSpaceOnUse" gradientTransform="translate(201.094 884.131) rotate(48.2586) scale(248.791 68.2499)">
<stop stop-color="white"/>
<stop offset="1" stop-color="white" stop-opacity="0"/>
</radialGradient>
<radialGradient id="paint3_radial" cx="0" cy="0" r="1" gradientUnits="userSpaceOnUse" gradientTransform="translate(134.999 201.852) rotate(-129.473) scale(112.837 30.9542)">
<stop stop-color="white"/>
<stop offset="1" stop-color="white" stop-opacity="0"/>
</radialGradient>
<linearGradient id="paint4_linear" x1="1066.02" y1="729.774" x2="2248.37" y2="320.191" gradientUnits="userSpaceOnUse">
<stop stop-color="#FF3389" stop-opacity="0"/>
<stop offset="1" stop-color="#FF3389"/>
</linearGradient>
<linearGradient id="paint5_linear" x1="348.304" y1="784.395" x2="-153.924" y2="1481.47" gradientUnits="userSpaceOnUse">
<stop stop-color="#001AFF" stop-opacity="0"/>
<stop offset="1" stop-color="#1A00BB"/>
</linearGradient>
<radialGradient id="paint6_radial" cx="0" cy="0" r="1" gradientUnits="userSpaceOnUse" gradientTransform="translate(948.629 711.446) rotate(50.5274) scale(112.837 30.9542)">
<stop stop-color="white"/>
<stop offset="1" stop-color="white" stop-opacity="0"/>
</radialGradient>
</defs>
</svg>
