<svg width="1440" height="1024" viewBox="0 0 1440 1024" fill="none" xmlns="http://www.w3.org/2000/svg">
<rect y="0.0546875" width="1440" height="1024" fill="url(#paint0_radial)"/>
<circle cx="662.48" cy="677.099" r="0.473168" transform="rotate(101.821 662.48 677.099)" fill="white"/>
<circle cx="539.526" cy="811.861" r="0.473168" transform="rotate(101.821 539.526 811.861)" fill="white"/>
<circle cx="333.208" cy="929.177" r="0.473168" transform="rotate(101.821 333.208 929.177)" fill="white"/>
<circle cx="264.315" cy="620.84" r="0.473168" transform="rotate(101.821 264.315 620.84)" fill="white"/>
<circle cx="536.722" cy="585.034" r="0.473168" transform="rotate(101.821 536.722 585.034)" fill="white"/>
<circle cx="825.921" cy="383.694" r="0.473168" transform="rotate(14.4191 825.921 383.694)" fill="white"/>
<circle cx="675.491" cy="695.775" r="0.946335" transform="rotate(101.821 675.491 695.775)" fill="white"/>
<circle cx="529.447" cy="963.963" r="0.946335" transform="rotate(101.821 529.447 963.963)" fill="white"/>
<circle cx="259.186" cy="509.063" r="0.946335" transform="rotate(101.821 259.186 509.063)" fill="white"/>
<circle cx="1202.48" cy="346.158" r="0.946335" transform="rotate(14.4191 1202.48 346.158)" fill="white"/>
<circle cx="272.31" cy="848.27" r="0.946335" transform="rotate(101.821 272.31 848.27)" fill="white"/>
<circle cx="143.82" cy="958.67" r="0.946335" transform="rotate(101.821 143.82 958.67)" fill="white"/>
<circle cx="162.689" cy="923.945" r="0.946335" transform="rotate(101.821 162.689 923.945)" fill="white"/>
<circle cx="222.097" cy="797.154" r="0.946335" transform="rotate(101.821 222.097 797.154)" fill="white"/>
<circle cx="585.129" cy="838.809" r="1.4195" transform="rotate(101.821 585.129 838.809)" fill="white"/>
<circle cx="781.536" cy="396.71" r="1.4195" transform="rotate(14.4191 781.536 396.71)" fill="white"/>
<circle cx="495.342" cy="625.683" r="1.4195" transform="rotate(101.821 495.342 625.683)" fill="white"/>
<circle cx="267.847" cy="599.342" r="1.4195" transform="rotate(101.821 267.847 599.342)" fill="white"/>
<circle cx="542.257" cy="526.249" r="1.4195" transform="rotate(101.821 542.257 526.249)" fill="white"/>
<circle cx="51.1016" cy="595.554" r="1.4195" transform="rotate(101.821 51.1016 595.554)" fill="white"/>
<circle cx="1184.93" cy="378.289" r="1.4195" transform="rotate(14.4191 1184.93 378.289)" fill="white"/>
<circle cx="580.711" cy="688.99" r="2.36584" transform="rotate(101.821 580.711 688.99)" fill="white"/>
<circle cx="961.146" cy="344.201" r="2.36584" transform="rotate(14.4191 961.146 344.201)" fill="white"/>
<circle cx="288.226" cy="645.181" r="2.36584" transform="rotate(101.821 288.226 645.181)" fill="white"/>
<circle cx="702.854" cy="1021.94" r="2.36584" transform="rotate(71.2393 702.854 1021.94)" fill="white"/>
<circle cx="736.343" cy="911.618" r="2.36584" transform="rotate(71.2393 736.343 911.618)" fill="white"/>
<circle cx="226.966" cy="813.159" r="2.36584" transform="rotate(101.821 226.966 813.159)" fill="white"/>
<circle cx="767.126" cy="639.056" r="2.36584" transform="rotate(101.821 767.126 639.056)" fill="white"/>
<circle cx="520.372" cy="524.568" r="2.36584" transform="rotate(101.821 520.372 524.568)" fill="white"/>
<circle cx="1122.35" cy="367.084" r="2.36584" transform="rotate(14.4191 1122.35 367.084)" fill="white"/>
<defs>
<radialGradient id="paint0_radial" cx="0" cy="0" r="1" gradientUnits="userSpaceOnUse" gradientTransform="translate(882.488 788.144) rotate(-138.507) scale(2200.28 4357.47)">
<stop offset="0.339769" stop-color="#0B0238"/>
<stop offset="1" stop-color="#4122FF"/>
</radialGradient>
</defs>
</svg>
