<svg width="1101" height="943" viewBox="0 0 1101 943" fill="none" xmlns="http://www.w3.org/2000/svg">
<circle cx="666.5" cy="268.5" r="55.5" fill="url(#paint0_radial)"/>
<path fill-rule="evenodd" clip-rule="evenodd" d="M624.879 262.051C625.818 260.056 626.647 258.221 626.995 255.992C627.223 254.623 627.796 252.574 626.294 251.734C624.565 250.781 622.021 253.685 621.171 255.112C620.759 255.789 620.342 256.532 619.941 257.25C619.514 258.04 619.268 258.847 619.158 259.748C618.89 261.869 619.536 263.788 620.081 265.821C620.408 267.041 620.574 268.565 621.163 269.694C621.692 270.685 623.171 272.098 624.129 272.8C626.362 274.402 626.601 272.007 626.463 270.344C626.326 268.354 625.805 266.575 626.007 264.538C626.063 264.087 625.937 263.62 625.992 263.169C626.024 262.877 626.308 262.54 626.335 262.314C626.427 261.505 625.907 260.468 625.694 259.675L624.879 262.051Z" fill="#1E074F"/>
<path fill-rule="evenodd" clip-rule="evenodd" d="M621.867 281.927C622.192 282.319 623.598 283.381 622.781 283.861C622.439 284.062 621.691 283.979 621.353 283.786C620.308 283.173 619.959 281.457 619.655 280.406C619.389 279.496 619.432 278.918 620.404 279.508C620.929 279.825 621.8 280.528 622.03 281.142L621.867 281.927Z" fill="#1E074F"/>
<path fill-rule="evenodd" clip-rule="evenodd" d="M631.876 251.546C632.777 252.198 633.263 252.7 634.34 252.695C634.912 252.694 635.594 252.533 636.196 252.48C638.461 252.31 640.145 250.551 641.81 249.211C643.338 248.017 645.033 246.953 646.619 245.809C648.53 244.403 649.839 242.309 650.61 240.097C651.545 237.428 652.074 234.475 652.373 231.649C652.54 230.057 652.748 227.386 651.857 225.946C650.897 224.417 649.138 223.929 647.439 224.319C645.76 224.703 643.931 225.106 642.349 225.77C641.479 226.134 640.73 226.705 639.854 227.049C639.137 227.328 638.386 227.398 637.658 227.637C636.915 227.902 636.282 228.333 635.533 228.577C634.124 229.063 633.075 229.911 632.034 230.953C631.023 231.943 630.328 233.371 629.521 234.546C628.492 236.043 627.31 237.623 627.027 239.443C626.791 240.944 627.202 242.229 627.583 243.652C627.888 244.791 628.052 246.142 628.557 247.205C628.801 247.706 629.095 248.063 629.263 248.607C629.414 249.089 629.447 249.625 629.64 250.097C630.008 250.979 630.833 251.346 631.876 251.546Z" fill="#1E074F"/>
<path fill-rule="evenodd" clip-rule="evenodd" d="M635.296 258.889C634.857 259.879 634.148 261.42 632.783 260.761C632.078 260.427 631.626 259.153 631.91 258.489C632.408 257.309 634.77 257.832 635.296 258.889Z" fill="#1E074F"/>
<path fill-rule="evenodd" clip-rule="evenodd" d="M696.383 280.049C694.664 282.253 693.252 284.701 691.747 287.131C690.564 289.039 689.215 290.817 688.026 292.705C686.974 294.36 686.204 296.658 686.33 298.608C686.456 300.557 686.876 302.123 687.792 303.817C688.522 305.147 689.042 306.184 690.479 306.867C691.916 307.55 693.105 307.144 694.593 306.702C696.537 306.159 697.862 305.107 699.279 303.746C701.576 301.562 703.217 298.986 705.29 296.622C707.16 294.487 707.717 292.049 706.387 290.945C707.4 289.388 708.027 288.283 708.366 286.427C708.803 283.869 708.794 281.125 708.185 278.608C707.785 276.95 707.316 275.201 705.736 274.23C703.412 272.782 700.024 276.066 698.538 277.662C697.919 278.308 697.383 279.018 696.821 279.713C696.068 280.678 695.184 281.895 693.819 281.891C692.237 281.9 690.679 280.683 691.005 279.027C691.486 276.632 694.026 277.411 695.401 278.437L696.383 280.049Z" fill="#1E074F"/>
<path fill-rule="evenodd" clip-rule="evenodd" d="M681.709 314.12C681.94 313.012 682.246 312.429 681.375 311.725C680.478 311.007 679.267 310.263 678.116 310.071C677.052 309.876 675.613 310.174 674.56 310.348C672.699 310.628 670.89 311.266 669.063 311.755C667.462 312.184 665.866 312.634 664.26 313.042C663.064 313.341 661.82 313.543 660.833 314.375C659.128 315.812 658.374 317.431 659.807 319.248C663.177 323.532 669.713 323.131 674.403 321.831C676.312 321.32 678.315 320.914 679.914 319.657C681.748 318.207 684.088 315.858 681.709 314.12Z" fill="#1E074F"/>
<path fill-rule="evenodd" clip-rule="evenodd" d="M651.984 311.646C651.603 313.099 650.802 314.295 649.126 313.872C647.994 313.587 646.883 312.643 646.813 311.397C646.776 310.601 647.414 309.863 648.135 309.517C649.399 308.896 650.934 309.944 652.045 310.562L651.984 311.646Z" fill="#1E074F"/>
<path fill-rule="evenodd" clip-rule="evenodd" d="M632.804 268.557C633.295 266.857 633.396 266.742 632.955 265.095C632.742 264.302 632.59 262.665 631.52 262.451C630.848 262.325 630.49 262.792 630.165 263.141C629.632 263.697 629.213 264.267 629.116 265.056C628.958 266.188 629.023 267.5 629.507 268.569C630.337 270.352 631.773 269.226 632.609 267.912L632.784 268.563L632.804 268.557Z" fill="#1E074F"/>
<path fill-rule="evenodd" clip-rule="evenodd" d="M668.101 226.715C669.243 226.3 672.03 225.946 672.581 224.469C672.824 223.815 672.966 223.363 672.863 222.65C672.535 220.602 670.656 219.34 668.843 218.649C666.072 217.583 662.007 217.604 659.947 220.096C658.423 221.964 658.971 224.912 661.164 225.871C662.834 226.601 666.887 227.934 668.336 226.282L668.101 226.715Z" fill="#1E074F"/>
<path fill-rule="evenodd" clip-rule="evenodd" d="M660.435 232.016C658.93 230.916 658.654 230.707 657.501 231.822C657.043 232.25 656.674 232.349 656.679 233.023C656.687 233.217 656.89 234.056 657.03 234.171C657.484 234.551 658.45 234.379 659.019 234.205C659.829 233.944 660.327 233.418 660.179 232.456L660.435 232.016Z" fill="#1E074F"/>
<path d="M671.125 216.257C686.984 216.257 701.928 219.85 711.078 225.858C721.627 232.795 726.937 246.186 725.286 261.705C723.259 280.71 709.302 307.403 676.597 320.097C671.61 322.028 666.443 323.012 661.222 323.012C648.969 323.012 636.967 317.63 627.423 307.832C615.224 295.317 608.55 276.973 609.106 257.539C609.931 229.04 640.86 216.257 671.125 216.257ZM671.125 215.81C641.47 215.81 609.519 228.164 608.658 257.539C607.563 295.478 633.2 323.476 661.222 323.476C666.371 323.476 671.61 322.529 676.758 320.526C728.282 300.52 738.688 243.468 711.329 225.482C701.857 219.278 686.823 215.81 671.125 215.81Z" fill="url(#paint1_radial)"/>
<path d="M642.69 218.402C636.303 223.373 629.971 228.432 624.176 234.064C618.453 239.732 613.035 245.811 609.268 252.783C605.518 259.756 604.209 267.676 605.572 275.311C607.061 282.945 610.38 290.311 614.291 297.195C622.095 310.89 635.424 321.563 650.727 326.57C658.352 329.09 666.479 330.199 674.48 329.681C682.481 329.216 690.375 326.838 697.103 322.672C703.902 318.506 709.499 312.642 713.661 305.973C717.823 299.268 720.443 291.706 721.878 283.946C723.313 276.169 723.546 268.177 722.972 260.257C722.362 252.336 721.142 244.434 719.133 236.692C717.375 229.04 713.966 221.835 708.494 216.364C703.059 210.893 695.739 207.407 687.953 206.101C680.149 204.778 671.968 205.547 664.236 207.693C656.486 209.856 649.149 213.557 642.69 218.402ZM642.475 218.116C648.933 213.182 656.217 209.355 663.949 206.745C671.681 204.153 679.988 202.901 688.276 203.777C696.528 204.635 704.781 207.979 710.916 213.915C717.142 219.761 720.891 227.771 722.847 235.78C726.829 251.603 728.372 268.338 725.197 284.59C723.6 292.671 720.622 300.574 716.065 307.511C711.544 314.466 705.319 320.312 698.125 324.37C690.931 328.536 682.715 330.503 674.552 330.95C666.353 331.361 658.155 330.11 650.369 327.678C642.583 325.247 635.119 321.599 628.5 316.736C621.88 311.873 616.085 305.794 611.743 298.732C610.559 297.016 609.662 295.174 608.712 293.351C607.707 291.563 606.9 289.668 606.092 287.754C604.424 283.982 603.24 279.959 602.486 275.847C601.015 267.551 602.953 258.701 607.33 251.675C611.69 244.613 617.502 238.766 623.566 233.385C629.648 228.039 636.052 223.051 642.475 218.116Z" fill="url(#paint2_linear)"/>
<path d="M714.074 306.527C715.653 298.535 717.716 290.633 719.904 282.784C720.981 278.851 722.093 274.935 723.062 270.984C724.031 267.033 724.91 263.046 725.251 259.005C725.448 256.985 725.394 254.964 725.161 252.962C724.802 250.995 724.192 249.047 723.475 247.169C722.757 245.274 721.842 243.486 720.748 241.77C719.671 240.053 718.469 238.391 717.411 236.639C716.334 234.886 715.384 233.063 714.558 231.186C713.697 229.326 713.033 227.359 712.19 225.554C710.522 221.888 708.19 218.527 705.588 215.416C700.368 209.248 693.819 203.974 686.213 201.131C682.428 199.754 678.283 199.057 674.283 199.754C673.296 199.933 672.327 200.255 671.341 200.487C670.354 200.738 669.439 201.203 668.488 201.56C667.537 201.918 666.658 202.436 665.725 202.865C664.846 203.384 663.967 203.867 663.16 204.474C659.805 206.817 657.724 210.446 655.159 213.611C652.629 216.829 649.651 219.689 646.44 222.228C644.879 223.551 643.175 224.678 641.524 225.893L636.393 229.255C632.967 231.454 629.773 234.01 626.831 236.817C620.965 242.449 615.995 249.029 612.282 256.252C608.586 263.457 606.11 271.359 605.734 279.441C605.321 287.504 607.33 295.693 611.672 302.504C616.031 309.334 622.31 314.769 629.289 318.917C636.16 323.226 643.641 326.677 651.553 328.5C659.464 330.342 667.77 330.342 675.754 328.751C683.773 327.249 691.362 324.031 698.789 320.652C702.485 318.899 706.342 317.505 710.037 315.789C710.934 315.324 711.867 314.877 712.71 314.322C713.572 313.786 714.415 313.16 714.935 312.32C715.24 311.909 715.276 311.39 715.222 310.908C715.114 310.425 714.917 309.96 714.684 309.495C714.235 308.583 713.823 307.564 714.074 306.527ZM714.164 306.545C713.948 307.546 714.343 308.548 714.791 309.442C715.025 309.888 715.222 310.371 715.348 310.872C715.401 311.39 715.366 311.945 715.061 312.374C714.522 313.268 713.661 313.911 712.8 314.448C711.939 315.02 711.024 315.467 710.127 315.949C706.431 317.719 702.592 319.132 698.914 320.92C691.523 324.37 683.934 327.642 675.861 329.269C667.842 330.968 659.428 331.075 651.373 329.287C643.3 327.553 635.765 323.959 628.822 319.632C621.79 315.449 615.385 309.906 610.954 302.934C606.523 295.961 604.496 287.576 604.926 279.387C605.303 271.163 607.886 263.153 611.69 255.912C615.493 248.653 620.552 242.074 626.508 236.442C629.486 233.635 632.715 231.078 636.178 228.879L641.309 225.554C642.959 224.356 644.664 223.229 646.224 221.924C649.436 219.421 652.396 216.596 654.943 213.414C657.509 210.285 659.536 206.584 662.963 204.17C663.77 203.545 664.685 203.044 665.564 202.508C666.497 202.061 667.376 201.542 668.345 201.167C669.313 200.809 670.228 200.327 671.215 200.076C672.22 199.826 673.206 199.486 674.211 199.307C678.301 198.557 682.535 199.254 686.392 200.613C694.142 203.455 700.798 208.73 706.126 214.934C708.782 218.062 711.168 221.442 712.908 225.196C713.805 227.073 714.451 228.986 715.312 230.828C716.155 232.669 717.052 234.493 718.092 236.227C719.115 237.962 720.299 239.624 721.376 241.376C722.47 243.129 723.385 244.988 724.102 246.919C724.802 248.85 725.412 250.799 725.771 252.855C725.986 254.911 726.04 256.985 725.807 259.023C725.43 263.117 724.497 267.104 723.492 271.055C722.488 275.007 721.34 278.922 720.227 282.838C717.931 290.687 715.814 298.553 714.164 306.545Z" fill="url(#paint3_linear)"/>
<path d="M674.426 212.556C666.748 213.557 659.052 214.308 651.409 215.416C643.785 216.561 636.124 217.848 628.822 220.244C625.199 221.459 621.664 222.979 618.507 225.053C616.946 226.108 615.511 227.306 614.273 228.7C613.071 230.113 612.084 231.686 611.403 233.385C610.685 235.083 610.38 236.889 610.219 238.784L609.985 241.627C609.932 242.574 609.967 243.522 609.949 244.47C609.985 248.26 610.488 252.032 611.636 255.626C613.86 262.903 618.525 269.178 622.92 275.472C625.163 278.618 627.369 281.783 629.504 285.019C630.563 286.628 631.567 288.309 632.733 289.81L634.438 292.117C635.066 292.832 635.747 293.511 636.411 294.209C641.739 299.733 648.646 303.613 655.966 305.955C663.285 308.369 671.018 309.334 678.696 309.316C694.124 309.191 709.23 304.775 722.865 297.784C726.273 296.032 729.628 294.155 732.642 291.884C735.584 289.614 738.329 286.807 738.939 283.285C739.603 279.798 738.311 276.097 737.019 272.539C735.692 268.946 734.256 265.316 733.144 261.58C732.014 257.861 731.278 253.945 730.758 250.155C730.184 246.347 729.628 242.539 728.892 238.802C728.139 235.065 727.17 231.364 725.591 227.932C724.031 224.517 721.842 221.352 718.918 218.974C716.047 216.525 712.513 214.898 708.871 213.771C705.211 212.663 701.39 212.073 697.551 211.751C693.712 211.411 689.837 211.447 685.98 211.626C682.105 211.751 678.265 212.144 674.426 212.556ZM674.408 212.377C682.087 211.429 689.837 210.804 697.587 211.25C701.462 211.465 705.337 211.948 709.104 212.985C712.854 214.022 716.55 215.577 719.653 218.062C722.793 220.476 725.251 223.748 726.937 227.306C728.659 230.864 729.718 234.654 730.543 238.462C731.386 242.27 731.942 246.096 732.534 249.905C733.072 253.749 733.79 257.414 734.902 261.079C735.997 264.726 737.414 268.284 738.759 271.914C739.441 273.737 740.087 275.597 740.536 277.545C740.984 279.494 741.163 281.604 740.751 283.66C740.356 285.734 739.351 287.629 738.06 289.203C736.768 290.776 735.261 292.117 733.682 293.315C730.507 295.675 727.063 297.552 723.6 299.304C709.732 306.313 694.25 310.425 678.66 310.318C670.874 310.21 663.106 309.012 655.733 306.581C648.359 304.149 641.434 300.198 635.945 294.673C635.281 293.976 634.563 293.297 633.935 292.564L632.177 290.204C630.957 288.666 629.989 287.021 628.876 285.43C626.67 282.266 624.409 279.155 622.095 276.062C617.574 269.858 612.658 263.636 610.201 256.091C608.981 252.354 608.425 248.403 608.353 244.505C608.371 243.522 608.335 242.539 608.371 241.573L608.586 238.659C608.73 236.71 609.124 234.672 609.932 232.83C610.703 230.971 611.815 229.255 613.143 227.753C614.506 226.269 616.067 225.017 617.718 223.927C621.036 221.745 624.732 220.333 628.464 219.207C635.945 216.99 643.641 215.917 651.319 214.987L674.408 212.377Z" fill="url(#paint4_radial)"/>
<path d="M879.66 637L1005.73 781.5" stroke="url(#paint5_radial)" stroke-width="2" stroke-linecap="round"/>
<path d="M1016.05 537L1088.06 609" stroke="url(#paint6_radial)" stroke-width="2" stroke-linecap="round"/>
<path d="M528.69 125L598.466 211.68" stroke="url(#paint7_radial)" stroke-width="2" stroke-linecap="round"/>
<path d="M980.689 688L1050.47 774.68" stroke="url(#paint8_radial)" stroke-width="2" stroke-linecap="round"/>
<path d="M498.143 346L485.012 396" stroke="url(#paint9_radial)" stroke-width="2" stroke-linecap="round"/>
<path d="M418.653 353L342.347 484" stroke="url(#paint10_radial)" stroke-width="2" stroke-linecap="round"/>
<path d="M238.653 760L162.347 891" stroke="url(#paint11_radial)" stroke-width="2" stroke-linecap="round"/>
<path d="M928 464L1101 540.5" stroke="url(#paint12_radial)" stroke-width="2" stroke-linecap="round"/>
<path d="M363.424 384.906L189 483.856" stroke="url(#paint13_radial)" stroke-width="2" stroke-linecap="round"/>
<circle cx="475" cy="278" r="1" fill="white"/>
<circle cx="576" cy="338" r="1" fill="white"/>
<circle cx="556" cy="202" r="1" fill="white"/>
<circle cx="556.5" cy="181.5" r="0.5" fill="white"/>
<circle cx="606.5" cy="141.5" r="0.5" fill="white"/>
<circle cx="538.5" cy="291.5" r="0.5" fill="white"/>
<circle cx="704.5" cy="389.5" r="0.5" fill="white"/>
<circle cx="870.5" cy="577.5" r="0.5" fill="white"/>
<circle cx="566.5" cy="715.5" r="0.5" fill="white"/>
<circle cx="470.5" cy="441.5" r="0.5" fill="white"/>
<circle cx="237.5" cy="138.5" r="0.5" fill="white"/>
<circle cx="555" cy="274" r="1" fill="white"/>
<circle cx="864" cy="367" r="1" fill="white"/>
<circle cx="452" cy="745" r="1" fill="white"/>
<circle cx="613" cy="1" r="1" fill="white"/>
<circle cx="800" cy="658" r="1" fill="white"/>
<circle cx="942" cy="767" r="1" fill="white"/>
<circle cx="902" cy="755" r="1" fill="white"/>
<circle cx="758" cy="721" r="1" fill="white"/>
<circle cx="722.5" cy="336.5" r="1.5" fill="white"/>
<circle cx="195.5" cy="163.5" r="1.5" fill="white"/>
<circle cx="521.5" cy="475.5" r="1.5" fill="white"/>
<circle cx="543.5" cy="716.5" r="1.5" fill="white"/>
<circle cx="408.5" cy="448.5" r="1.5" fill="white"/>
<circle cx="586.5" cy="941.5" r="1.5" fill="white"/>
<circle cx="603.5" cy="38.5" r="1.5" fill="white"/>
<circle cx="568.5" cy="373.5" r="2.5" fill="white"/>
<circle cx="2.99994" cy="64.6011" r="2.5" fill="white"/>
<circle cx="586.5" cy="685.5" r="2.5" fill="white"/>
<circle cx="1035.5" cy="591.5" r="2.5" fill="white"/>
<circle cx="936.5" cy="520.5" r="2.5" fill="white"/>
<circle cx="773.5" cy="712.5" r="2.5" fill="white"/>
<circle cx="476.5" cy="191.5" r="2.5" fill="white"/>
<circle cx="411.5" cy="471.5" r="2.5" fill="white"/>
<circle cx="626.5" cy="93.5" r="2.5" fill="white"/>
<defs>
<radialGradient id="paint0_radial" cx="0" cy="0" r="1" gradientUnits="userSpaceOnUse" gradientTransform="translate(611 324) rotate(-45) scale(156.978 100.083)">
<stop stop-color="#00C2DC"/>
<stop offset="0.512921" stop-color="#4815B5"/>
<stop offset="1"/>
</radialGradient>
<radialGradient id="paint1_radial" cx="0" cy="0" r="1" gradientUnits="userSpaceOnUse" gradientTransform="translate(671.962 323.562) rotate(-96.3312) scale(71.5428 125.304)">
<stop stop-color="#7B2978"/>
<stop offset="1" stop-color="#2A1CD0"/>
</radialGradient>
<linearGradient id="paint2_linear" x1="703.466" y1="300.012" x2="668.272" y2="250.582" gradientUnits="userSpaceOnUse">
<stop stop-color="#46007E"/>
<stop offset="0.520833" stop-color="#1D5FE0"/>
<stop offset="1" stop-color="#CD1B9B"/>
</linearGradient>
<linearGradient id="paint3_linear" x1="703.241" y1="298.583" x2="666.244" y2="249.76" gradientUnits="userSpaceOnUse">
<stop stop-color="#46007E"/>
<stop offset="0.520833" stop-color="#1D5FE0"/>
<stop offset="1" stop-color="#CD1B9B"/>
</linearGradient>
<radialGradient id="paint4_radial" cx="0" cy="0" r="1" gradientUnits="userSpaceOnUse" gradientTransform="translate(740.963 211.082) rotate(143.122) scale(165.756 567.11)">
<stop stop-color="#078FE1"/>
<stop offset="1" stop-color="#2A1BD0"/>
</radialGradient>
<radialGradient id="paint5_radial" cx="0" cy="0" r="1" gradientUnits="userSpaceOnUse" gradientTransform="translate(880.448 638.468) rotate(124.571) scale(248.791 68.2499)">
<stop stop-color="white"/>
<stop offset="1" stop-color="white" stop-opacity="0"/>
</radialGradient>
<radialGradient id="paint6_radial" cx="0" cy="0" r="1" gradientUnits="userSpaceOnUse" gradientTransform="translate(1016.65 538.555) rotate(131.741) scale(248.791 68.2499)">
<stop stop-color="white"/>
<stop offset="1" stop-color="white" stop-opacity="0"/>
</radialGradient>
<radialGradient id="paint7_radial" cx="0" cy="0" r="1" gradientUnits="userSpaceOnUse" gradientTransform="translate(526.629 125.067) rotate(50.5274) scale(112.837 30.9542)">
<stop stop-color="white"/>
<stop offset="1" stop-color="white" stop-opacity="0"/>
</radialGradient>
<radialGradient id="paint8_radial" cx="0" cy="0" r="1" gradientUnits="userSpaceOnUse" gradientTransform="translate(978.629 688.067) rotate(50.5274) scale(112.837 30.9542)">
<stop stop-color="white"/>
<stop offset="1" stop-color="white" stop-opacity="0"/>
</radialGradient>
<radialGradient id="paint9_radial" cx="0" cy="0" r="1" gradientUnits="userSpaceOnUse" gradientTransform="translate(498.012 346) rotate(102.057) scale(52.6617 83.2334)">
<stop stop-color="white"/>
<stop offset="1" stop-color="white" stop-opacity="0"/>
</radialGradient>
<radialGradient id="paint10_radial" cx="0" cy="0" r="1" gradientUnits="userSpaceOnUse" gradientTransform="translate(418.386 354.645) rotate(120.89) scale(150.736 83.0836)">
<stop stop-color="white"/>
<stop offset="1" stop-color="white" stop-opacity="0"/>
</radialGradient>
<radialGradient id="paint11_radial" cx="0" cy="0" r="1" gradientUnits="userSpaceOnUse" gradientTransform="translate(238.386 761.645) rotate(120.89) scale(150.736 83.0836)">
<stop stop-color="white"/>
<stop offset="1" stop-color="white" stop-opacity="0"/>
</radialGradient>
<radialGradient id="paint12_radial" cx="0" cy="0" r="1" gradientUnits="userSpaceOnUse" gradientTransform="translate(928.974 465.352) rotate(35.9806) scale(186.632 113.033)">
<stop stop-color="white"/>
<stop offset="0.941699" stop-color="white" stop-opacity="0"/>
</radialGradient>
<radialGradient id="paint13_radial" cx="0" cy="0" r="1" gradientUnits="userSpaceOnUse" gradientTransform="translate(362.829 386.462) rotate(149.55) scale(201.061 279.768)">
<stop stop-color="white"/>
<stop offset="1" stop-color="white" stop-opacity="0"/>
</radialGradient>
</defs>
</svg>
