<svg width="1440" height="1024" viewBox="0 0 1440 1024" fill="none" xmlns="http://www.w3.org/2000/svg">
<rect width="1440" height="1024" fill="url(#paint0_radial)"/>
<circle cx="1005.5" cy="303.5" r="55.5" fill="url(#paint1_radial)"/>
<path fill-rule="evenodd" clip-rule="evenodd" d="M963.879 297.051C964.818 295.056 965.647 293.221 965.995 290.992C966.223 289.623 966.796 287.574 965.294 286.734C963.565 285.781 961.021 288.685 960.171 290.112C959.759 290.789 959.342 291.532 958.941 292.25C958.514 293.04 958.268 293.847 958.158 294.748C957.89 296.869 958.536 298.788 959.081 300.821C959.408 302.041 959.574 303.565 960.163 304.694C960.692 305.685 962.171 307.098 963.129 307.8C965.362 309.402 965.601 307.007 965.463 305.344C965.326 303.354 964.805 301.575 965.007 299.538C965.063 299.087 964.937 298.62 964.992 298.169C965.024 297.877 965.308 297.54 965.335 297.314C965.427 296.505 964.907 295.468 964.694 294.675L963.879 297.051Z" fill="#1E074F"/>
<path fill-rule="evenodd" clip-rule="evenodd" d="M960.867 316.927C961.192 317.319 962.598 318.381 961.781 318.861C961.439 319.062 960.691 318.979 960.353 318.786C959.308 318.173 958.959 316.457 958.655 315.406C958.389 314.496 958.432 313.918 959.404 314.508C959.929 314.825 960.8 315.528 961.03 316.142L960.867 316.927Z" fill="#1E074F"/>
<path fill-rule="evenodd" clip-rule="evenodd" d="M970.876 286.546C971.777 287.198 972.263 287.7 973.34 287.695C973.912 287.694 974.594 287.533 975.196 287.48C977.461 287.31 979.145 285.551 980.81 284.211C982.338 283.017 984.033 281.953 985.619 280.809C987.53 279.403 988.839 277.309 989.61 275.097C990.545 272.428 991.074 269.475 991.373 266.649C991.54 265.057 991.748 262.386 990.857 260.946C989.897 259.417 988.138 258.929 986.439 259.319C984.76 259.703 982.931 260.106 981.349 260.77C980.479 261.134 979.73 261.705 978.854 262.049C978.137 262.328 977.386 262.398 976.658 262.637C975.915 262.902 975.282 263.333 974.533 263.577C973.124 264.063 972.075 264.911 971.034 265.953C970.023 266.943 969.328 268.371 968.521 269.546C967.492 271.043 966.31 272.623 966.027 274.443C965.791 275.944 966.202 277.229 966.583 278.652C966.888 279.791 967.052 281.142 967.557 282.205C967.801 282.706 968.095 283.063 968.263 283.607C968.414 284.089 968.447 284.625 968.64 285.097C969.008 285.979 969.833 286.346 970.876 286.546Z" fill="#1E074F"/>
<path fill-rule="evenodd" clip-rule="evenodd" d="M974.296 293.889C973.857 294.879 973.148 296.42 971.783 295.761C971.078 295.427 970.626 294.153 970.91 293.489C971.408 292.309 973.77 292.832 974.296 293.889Z" fill="#1E074F"/>
<path fill-rule="evenodd" clip-rule="evenodd" d="M1035.38 315.049C1033.66 317.253 1032.25 319.701 1030.75 322.131C1029.56 324.039 1028.21 325.817 1027.03 327.705C1025.97 329.36 1025.2 331.658 1025.33 333.608C1025.46 335.557 1025.88 337.123 1026.79 338.817C1027.52 340.147 1028.04 341.184 1029.48 341.867C1030.92 342.55 1032.11 342.144 1033.59 341.702C1035.54 341.159 1036.86 340.107 1038.28 338.746C1040.58 336.562 1042.22 333.986 1044.29 331.622C1046.16 329.487 1046.72 327.049 1045.39 325.945C1046.4 324.388 1047.03 323.283 1047.37 321.427C1047.8 318.869 1047.79 316.125 1047.19 313.608C1046.78 311.95 1046.32 310.201 1044.74 309.23C1042.41 307.782 1039.02 311.066 1037.54 312.662C1036.92 313.308 1036.38 314.018 1035.82 314.713C1035.07 315.678 1034.18 316.895 1032.82 316.891C1031.24 316.9 1029.68 315.683 1030.01 314.027C1030.49 311.632 1033.03 312.411 1034.4 313.437L1035.38 315.049Z" fill="#1E074F"/>
<path fill-rule="evenodd" clip-rule="evenodd" d="M1020.71 349.12C1020.94 348.012 1021.25 347.429 1020.38 346.725C1019.48 346.007 1018.27 345.263 1017.12 345.071C1016.05 344.876 1014.61 345.174 1013.56 345.348C1011.7 345.628 1009.89 346.266 1008.06 346.755C1006.46 347.184 1004.87 347.634 1003.26 348.042C1002.06 348.341 1000.82 348.543 999.833 349.375C998.128 350.812 997.374 352.431 998.807 354.248C1002.18 358.532 1008.71 358.131 1013.4 356.831C1015.31 356.32 1017.32 355.914 1018.91 354.657C1020.75 353.207 1023.09 350.858 1020.71 349.12Z" fill="#1E074F"/>
<path fill-rule="evenodd" clip-rule="evenodd" d="M990.984 346.646C990.603 348.099 989.802 349.295 988.126 348.872C986.994 348.587 985.883 347.643 985.813 346.397C985.776 345.601 986.414 344.863 987.135 344.517C988.399 343.896 989.934 344.944 991.045 345.562L990.984 346.646Z" fill="#1E074F"/>
<path fill-rule="evenodd" clip-rule="evenodd" d="M971.804 303.557C972.295 301.857 972.396 301.742 971.955 300.095C971.742 299.302 971.59 297.665 970.52 297.451C969.848 297.325 969.49 297.792 969.165 298.141C968.632 298.697 968.213 299.267 968.116 300.056C967.958 301.188 968.023 302.5 968.507 303.569C969.337 305.352 970.773 304.226 971.609 302.912L971.784 303.563L971.804 303.557Z" fill="#1E074F"/>
<path fill-rule="evenodd" clip-rule="evenodd" d="M1007.1 261.715C1008.24 261.3 1011.03 260.946 1011.58 259.469C1011.82 258.815 1011.97 258.363 1011.86 257.65C1011.53 255.602 1009.66 254.34 1007.84 253.649C1005.07 252.583 1001.01 252.604 998.947 255.096C997.423 256.964 997.971 259.912 1000.16 260.871C1001.83 261.601 1005.89 262.934 1007.34 261.282L1007.1 261.715Z" fill="#1E074F"/>
<path fill-rule="evenodd" clip-rule="evenodd" d="M999.435 267.016C997.93 265.916 997.654 265.707 996.501 266.822C996.043 267.25 995.674 267.349 995.679 268.023C995.687 268.217 995.89 269.056 996.03 269.171C996.484 269.551 997.45 269.379 998.019 269.205C998.829 268.944 999.327 268.418 999.179 267.456L999.435 267.016Z" fill="#1E074F"/>
<path d="M1010.13 251.257C1025.98 251.257 1040.93 254.85 1050.08 260.858C1060.63 267.795 1065.94 281.186 1064.29 296.705C1062.26 315.71 1048.3 342.403 1015.6 355.097C1010.61 357.028 1005.44 358.012 1000.22 358.012C987.969 358.012 975.967 352.63 966.423 342.832C954.224 330.317 947.55 311.973 948.106 292.539C948.931 264.04 979.86 251.257 1010.13 251.257ZM1010.13 250.81C980.47 250.81 948.519 263.164 947.658 292.539C946.563 330.478 972.2 358.476 1000.22 358.476C1005.37 358.476 1010.61 357.529 1015.76 355.526C1067.28 335.52 1077.69 278.468 1050.33 260.482C1040.86 254.278 1025.82 250.81 1010.13 250.81Z" fill="url(#paint2_radial)"/>
<path d="M981.69 253.402C975.303 258.373 968.971 263.432 963.176 269.064C957.453 274.732 952.035 280.811 948.268 287.783C944.518 294.756 943.209 302.676 944.572 310.311C946.061 317.945 949.38 325.311 953.291 332.195C961.095 345.89 974.424 356.563 989.727 361.57C997.352 364.09 1005.48 365.199 1013.48 364.681C1021.48 364.216 1029.37 361.838 1036.1 357.672C1042.9 353.506 1048.5 347.642 1052.66 340.973C1056.82 334.268 1059.44 326.706 1060.88 318.946C1062.31 311.169 1062.55 303.177 1061.97 295.257C1061.36 287.336 1060.14 279.434 1058.13 271.692C1056.37 264.04 1052.97 256.835 1047.49 251.364C1042.06 245.893 1034.74 242.407 1026.95 241.101C1019.15 239.778 1010.97 240.547 1003.24 242.693C995.486 244.856 988.149 248.557 981.69 253.402ZM981.475 253.116C987.933 248.182 995.217 244.355 1002.95 241.745C1010.68 239.153 1018.99 237.901 1027.28 238.777C1035.53 239.635 1043.78 242.979 1049.92 248.915C1056.14 254.761 1059.89 262.771 1061.85 270.78C1065.83 286.603 1067.37 303.338 1064.2 319.59C1062.6 327.671 1059.62 335.574 1055.07 342.511C1050.54 349.466 1044.32 355.312 1037.13 359.37C1029.93 363.536 1021.71 365.503 1013.55 365.95C1005.35 366.361 997.155 365.11 989.369 362.678C981.583 360.247 974.119 356.599 967.5 351.736C960.88 346.873 955.085 340.794 950.743 333.732C949.559 332.016 948.662 330.174 947.712 328.351C946.707 326.563 945.9 324.668 945.092 322.754C943.424 318.982 942.24 314.959 941.486 310.847C940.015 302.551 941.953 293.701 946.33 286.675C950.69 279.613 956.502 273.766 962.566 268.385C968.648 263.039 975.052 258.051 981.475 253.116Z" fill="url(#paint3_linear)"/>
<path d="M1053.07 341.527C1054.65 333.535 1056.72 325.633 1058.9 317.784C1059.98 313.851 1061.09 309.935 1062.06 305.984C1063.03 302.033 1063.91 298.046 1064.25 294.005C1064.45 291.985 1064.39 289.964 1064.16 287.962C1063.8 285.995 1063.19 284.047 1062.47 282.169C1061.76 280.274 1060.84 278.486 1059.75 276.77C1058.67 275.053 1057.47 273.391 1056.41 271.639C1055.33 269.886 1054.38 268.063 1053.56 266.186C1052.7 264.326 1052.03 262.359 1051.19 260.554C1049.52 256.888 1047.19 253.527 1044.59 250.416C1039.37 244.248 1032.82 238.974 1025.21 236.131C1021.43 234.754 1017.28 234.057 1013.28 234.754C1012.3 234.933 1011.33 235.255 1010.34 235.487C1009.35 235.738 1008.44 236.203 1007.49 236.56C1006.54 236.918 1005.66 237.436 1004.73 237.865C1003.85 238.384 1002.97 238.867 1002.16 239.474C998.805 241.817 996.724 245.446 994.159 248.611C991.629 251.829 988.651 254.689 985.44 257.228C983.879 258.551 982.175 259.678 980.524 260.893L975.393 264.255C971.967 266.454 968.773 269.01 965.831 271.817C959.965 277.449 954.995 284.029 951.282 291.252C947.586 298.457 945.11 306.359 944.734 314.441C944.321 322.504 946.33 330.693 950.672 337.504C955.031 344.334 961.31 349.769 968.289 353.917C975.16 358.226 982.641 361.677 990.553 363.5C998.464 365.342 1006.77 365.342 1014.75 363.751C1022.77 362.249 1030.36 359.031 1037.79 355.652C1041.48 353.899 1045.34 352.505 1049.04 350.789C1049.93 350.324 1050.87 349.877 1051.71 349.322C1052.57 348.786 1053.41 348.16 1053.94 347.32C1054.24 346.909 1054.28 346.39 1054.22 345.908C1054.11 345.425 1053.92 344.96 1053.68 344.495C1053.24 343.583 1052.82 342.564 1053.07 341.527ZM1053.16 341.545C1052.95 342.546 1053.34 343.548 1053.79 344.442C1054.02 344.888 1054.22 345.371 1054.35 345.872C1054.4 346.39 1054.37 346.945 1054.06 347.374C1053.52 348.268 1052.66 348.911 1051.8 349.448C1050.94 350.02 1050.02 350.467 1049.13 350.949C1045.43 352.719 1041.59 354.132 1037.91 355.92C1030.52 359.37 1022.93 362.642 1014.86 364.269C1006.84 365.968 998.428 366.075 990.373 364.287C982.3 362.553 974.765 358.959 967.822 354.632C960.79 350.449 954.385 344.906 949.954 337.934C945.523 330.961 943.496 322.576 943.926 314.387C944.303 306.163 946.886 298.153 950.69 290.912C954.493 283.653 959.552 277.074 965.508 271.442C968.486 268.635 971.715 266.078 975.178 263.879L980.309 260.554C981.959 259.356 983.664 258.229 985.224 256.924C988.436 254.421 991.396 251.596 993.943 248.414C996.509 245.285 998.536 241.584 1001.96 239.17C1002.77 238.545 1003.68 238.044 1004.56 237.508C1005.5 237.061 1006.38 236.542 1007.34 236.167C1008.31 235.809 1009.23 235.327 1010.21 235.076C1011.22 234.826 1012.21 234.486 1013.21 234.307C1017.3 233.557 1021.54 234.254 1025.39 235.613C1033.14 238.455 1039.8 243.73 1045.13 249.934C1047.78 253.062 1050.17 256.442 1051.91 260.196C1052.8 262.073 1053.45 263.986 1054.31 265.828C1055.15 267.669 1056.05 269.493 1057.09 271.227C1058.12 272.962 1059.3 274.624 1060.38 276.377C1061.47 278.129 1062.38 279.988 1063.1 281.919C1063.8 283.85 1064.41 285.799 1064.77 287.855C1064.99 289.911 1065.04 291.985 1064.81 294.023C1064.43 298.117 1063.5 302.104 1062.49 306.055C1061.49 310.007 1060.34 313.922 1059.23 317.838C1056.93 325.687 1054.81 333.553 1053.16 341.545Z" fill="url(#paint4_linear)"/>
<path d="M1013.43 247.556C1005.75 248.557 998.052 249.308 990.409 250.416C982.785 251.561 975.124 252.848 967.822 255.244C964.199 256.459 960.664 257.979 957.507 260.053C955.946 261.108 954.511 262.306 953.273 263.7C952.071 265.113 951.084 266.686 950.403 268.385C949.685 270.083 949.38 271.889 949.219 273.784L948.985 276.627C948.932 277.574 948.967 278.522 948.949 279.47C948.985 283.26 949.488 287.032 950.636 290.626C952.86 297.903 957.525 304.178 961.92 310.472C964.163 313.618 966.369 316.783 968.504 320.019C969.563 321.628 970.567 323.309 971.733 324.81L973.438 327.117C974.066 327.832 974.747 328.511 975.411 329.209C980.739 334.733 987.646 338.613 994.966 340.955C1002.29 343.369 1010.02 344.334 1017.7 344.316C1033.12 344.191 1048.23 339.775 1061.86 332.784C1065.27 331.032 1068.63 329.155 1071.64 326.884C1074.58 324.614 1077.33 321.807 1077.94 318.285C1078.6 314.798 1077.31 311.097 1076.02 307.539C1074.69 303.946 1073.26 300.316 1072.14 296.58C1071.01 292.861 1070.28 288.945 1069.76 285.155C1069.18 281.347 1068.63 277.539 1067.89 273.802C1067.14 270.065 1066.17 266.364 1064.59 262.932C1063.03 259.517 1060.84 256.352 1057.92 253.974C1055.05 251.525 1051.51 249.898 1047.87 248.771C1044.21 247.663 1040.39 247.073 1036.55 246.751C1032.71 246.411 1028.84 246.447 1024.98 246.626C1021.1 246.751 1017.27 247.144 1013.43 247.556ZM1013.41 247.377C1021.09 246.429 1028.84 245.804 1036.59 246.25C1040.46 246.465 1044.34 246.948 1048.1 247.985C1051.85 249.022 1055.55 250.577 1058.65 253.062C1061.79 255.476 1064.25 258.748 1065.94 262.306C1067.66 265.864 1068.72 269.654 1069.54 273.462C1070.39 277.27 1070.94 281.096 1071.53 284.905C1072.07 288.749 1072.79 292.414 1073.9 296.079C1075 299.726 1076.41 303.284 1077.76 306.914C1078.44 308.737 1079.09 310.597 1079.54 312.545C1079.98 314.494 1080.16 316.604 1079.75 318.66C1079.36 320.734 1078.35 322.629 1077.06 324.203C1075.77 325.776 1074.26 327.117 1072.68 328.315C1069.51 330.675 1066.06 332.552 1062.6 334.304C1048.73 341.313 1033.25 345.425 1017.66 345.318C1009.87 345.21 1002.11 344.012 994.733 341.581C987.359 339.149 980.434 335.198 974.945 329.673C974.281 328.976 973.563 328.297 972.935 327.564L971.177 325.204C969.957 323.666 968.989 322.021 967.876 320.43C965.67 317.266 963.409 314.155 961.095 311.062C956.574 304.858 951.658 298.636 949.201 291.091C947.981 287.354 947.425 283.403 947.353 279.505C947.371 278.522 947.335 277.539 947.371 276.573L947.586 273.659C947.73 271.71 948.124 269.672 948.932 267.83C949.703 265.971 950.815 264.255 952.143 262.753C953.506 261.269 955.067 260.017 956.718 258.927C960.036 256.745 963.732 255.333 967.464 254.207C974.945 251.99 982.641 250.917 990.319 249.987L1013.41 247.377Z" fill="url(#paint5_radial)"/>
<rect width="1440" height="1024" fill="url(#paint6_linear)"/>
<path d="M1218.66 672L1344.73 816.5" stroke="url(#paint7_radial)" stroke-width="2" stroke-linecap="round"/>
<path d="M1355.05 572L1427.06 644" stroke="url(#paint8_radial)" stroke-width="2" stroke-linecap="round"/>
<path d="M867.69 160L937.466 246.68" stroke="url(#paint9_radial)" stroke-width="2" stroke-linecap="round"/>
<path d="M1319.69 723L1389.47 809.68" stroke="url(#paint10_radial)" stroke-width="2" stroke-linecap="round"/>
<path d="M837.143 381L824.012 431" stroke="url(#paint11_radial)" stroke-width="2" stroke-linecap="round"/>
<path d="M757.653 388L681.347 519" stroke="url(#paint12_radial)" stroke-width="2" stroke-linecap="round"/>
<path d="M577.653 795L501.347 926" stroke="url(#paint13_radial)" stroke-width="2" stroke-linecap="round"/>
<path d="M1267 499L1440 575.5" stroke="url(#paint14_radial)" stroke-width="2" stroke-linecap="round"/>
<path d="M702.424 419.906L528 518.856" stroke="url(#paint15_radial)" stroke-width="2" stroke-linecap="round"/>
<circle cx="814" cy="313" r="1" fill="white"/>
<circle cx="915" cy="373" r="1" fill="white"/>
<circle cx="895" cy="237" r="1" fill="white"/>
<circle cx="895.5" cy="216.5" r="0.5" fill="white"/>
<circle cx="945.5" cy="176.5" r="0.5" fill="white"/>
<circle cx="877.5" cy="326.5" r="0.5" fill="white"/>
<circle cx="1043.5" cy="424.5" r="0.5" fill="white"/>
<circle cx="1209.5" cy="612.5" r="0.5" fill="white"/>
<circle cx="905.5" cy="750.5" r="0.5" fill="white"/>
<circle cx="809.5" cy="476.5" r="0.5" fill="white"/>
<circle cx="576.5" cy="173.5" r="0.5" fill="white"/>
<circle cx="894" cy="309" r="1" fill="white"/>
<circle cx="1203" cy="402" r="1" fill="white"/>
<circle cx="791" cy="780" r="1" fill="white"/>
<circle cx="952" cy="36" r="1" fill="white"/>
<circle cx="1139" cy="693" r="1" fill="white"/>
<circle cx="1281" cy="802" r="1" fill="white"/>
<circle cx="1241" cy="790" r="1" fill="white"/>
<circle cx="1097" cy="756" r="1" fill="white"/>
<circle cx="1061.5" cy="371.5" r="1.5" fill="white"/>
<circle cx="534.5" cy="198.5" r="1.5" fill="white"/>
<circle cx="860.5" cy="510.5" r="1.5" fill="white"/>
<circle cx="882.5" cy="751.5" r="1.5" fill="white"/>
<circle cx="747.5" cy="483.5" r="1.5" fill="white"/>
<circle cx="925.5" cy="976.5" r="1.5" fill="white"/>
<circle cx="942.5" cy="73.5" r="1.5" fill="white"/>
<circle cx="907.5" cy="408.5" r="2.5" fill="white"/>
<circle cx="342" cy="99.6011" r="2.5" fill="white"/>
<circle cx="925.5" cy="720.5" r="2.5" fill="white"/>
<circle cx="1374.5" cy="626.5" r="2.5" fill="white"/>
<circle cx="1275.5" cy="555.5" r="2.5" fill="white"/>
<circle cx="1112.5" cy="747.5" r="2.5" fill="white"/>
<circle cx="815.5" cy="226.5" r="2.5" fill="white"/>
<circle cx="750.5" cy="506.5" r="2.5" fill="white"/>
<circle cx="965.5" cy="128.5" r="2.5" fill="white"/>
<defs>
<radialGradient id="paint0_radial" cx="0" cy="0" r="1" gradientUnits="userSpaceOnUse" gradientTransform="translate(956 512) rotate(46.6912) scale(826.614 1637.04)">
<stop offset="0.170367" stop-color="#0B0238"/>
<stop offset="1" stop-color="#E6217F"/>
</radialGradient>
<radialGradient id="paint1_radial" cx="0" cy="0" r="1" gradientUnits="userSpaceOnUse" gradientTransform="translate(950 359) rotate(-45) scale(156.978 100.083)">
<stop stop-color="#00C2DC"/>
<stop offset="0.512921" stop-color="#4815B5"/>
<stop offset="1"/>
</radialGradient>
<radialGradient id="paint2_radial" cx="0" cy="0" r="1" gradientUnits="userSpaceOnUse" gradientTransform="translate(1010.96 358.562) rotate(-96.3312) scale(71.5428 125.304)">
<stop stop-color="#7B2978"/>
<stop offset="1" stop-color="#2A1CD0"/>
</radialGradient>
<linearGradient id="paint3_linear" x1="1042.47" y1="335.012" x2="1007.27" y2="285.582" gradientUnits="userSpaceOnUse">
<stop stop-color="#46007E"/>
<stop offset="0.520833" stop-color="#1D5FE0"/>
<stop offset="1" stop-color="#CD1B9B"/>
</linearGradient>
<linearGradient id="paint4_linear" x1="1042.24" y1="333.583" x2="1005.24" y2="284.76" gradientUnits="userSpaceOnUse">
<stop stop-color="#46007E"/>
<stop offset="0.520833" stop-color="#1D5FE0"/>
<stop offset="1" stop-color="#CD1B9B"/>
</linearGradient>
<radialGradient id="paint5_radial" cx="0" cy="0" r="1" gradientUnits="userSpaceOnUse" gradientTransform="translate(1079.96 246.082) rotate(143.122) scale(165.756 567.11)">
<stop stop-color="#078FE1"/>
<stop offset="1" stop-color="#2A1BD0"/>
</radialGradient>
<linearGradient id="paint6_linear" x1="782.5" y1="672" x2="-1.57169e-05" y2="1.83012e-05" gradientUnits="userSpaceOnUse">
<stop stop-color="#001AFF" stop-opacity="0"/>
<stop offset="1" stop-color="#1A00BB"/>
</linearGradient>
<radialGradient id="paint7_radial" cx="0" cy="0" r="1" gradientUnits="userSpaceOnUse" gradientTransform="translate(1219.45 673.468) rotate(124.571) scale(248.791 68.2499)">
<stop stop-color="white"/>
<stop offset="1" stop-color="white" stop-opacity="0"/>
</radialGradient>
<radialGradient id="paint8_radial" cx="0" cy="0" r="1" gradientUnits="userSpaceOnUse" gradientTransform="translate(1355.65 573.555) rotate(131.741) scale(248.791 68.2499)">
<stop stop-color="white"/>
<stop offset="1" stop-color="white" stop-opacity="0"/>
</radialGradient>
<radialGradient id="paint9_radial" cx="0" cy="0" r="1" gradientUnits="userSpaceOnUse" gradientTransform="translate(865.629 160.067) rotate(50.5274) scale(112.837 30.9542)">
<stop stop-color="white"/>
<stop offset="1" stop-color="white" stop-opacity="0"/>
</radialGradient>
<radialGradient id="paint10_radial" cx="0" cy="0" r="1" gradientUnits="userSpaceOnUse" gradientTransform="translate(1317.63 723.067) rotate(50.5274) scale(112.837 30.9542)">
<stop stop-color="white"/>
<stop offset="1" stop-color="white" stop-opacity="0"/>
</radialGradient>
<radialGradient id="paint11_radial" cx="0" cy="0" r="1" gradientUnits="userSpaceOnUse" gradientTransform="translate(837.012 381) rotate(102.057) scale(52.6617 83.2334)">
<stop stop-color="white"/>
<stop offset="1" stop-color="white" stop-opacity="0"/>
</radialGradient>
<radialGradient id="paint12_radial" cx="0" cy="0" r="1" gradientUnits="userSpaceOnUse" gradientTransform="translate(757.386 389.645) rotate(120.89) scale(150.736 83.0836)">
<stop stop-color="white"/>
<stop offset="1" stop-color="white" stop-opacity="0"/>
</radialGradient>
<radialGradient id="paint13_radial" cx="0" cy="0" r="1" gradientUnits="userSpaceOnUse" gradientTransform="translate(577.386 796.645) rotate(120.89) scale(150.736 83.0836)">
<stop stop-color="white"/>
<stop offset="1" stop-color="white" stop-opacity="0"/>
</radialGradient>
<radialGradient id="paint14_radial" cx="0" cy="0" r="1" gradientUnits="userSpaceOnUse" gradientTransform="translate(1267.97 500.352) rotate(35.9806) scale(186.632 113.033)">
<stop stop-color="white"/>
<stop offset="0.941699" stop-color="white" stop-opacity="0"/>
</radialGradient>
<radialGradient id="paint15_radial" cx="0" cy="0" r="1" gradientUnits="userSpaceOnUse" gradientTransform="translate(701.829 421.462) rotate(149.55) scale(201.061 279.768)">
<stop stop-color="white"/>
<stop offset="1" stop-color="white" stop-opacity="0"/>
</radialGradient>
</defs>
</svg>
