<svg width="871" height="646" viewBox="0 0 871 646" fill="none" xmlns="http://www.w3.org/2000/svg">
<path d="M510.678 228.532L671.104 166.91C681.247 163.013 686.44 151.745 682.813 141.503L505.395 202.952L505.449 203.449L510.678 228.532Z" fill="#301270"/>
<path d="M192.075 328.398L196.183 301.299L352.292 238.133L365.152 259.372L192.075 328.398Z" fill="#180F44"/>
<path d="M378.779 283.043L217.497 340.577C207.111 344.282 195.697 338.813 192.075 328.398L364.655 259.426L378.779 283.043Z" fill="#301270"/>
<path d="M809.278 36.7851L661.35 96.5513L645.764 82.6479L793.315 32.2016C799.071 30.2338 805.443 32.0635 809.278 36.7851Z" fill="#180F44"/>
<path d="M777.676 37.5483L793.315 32.2016C799.071 30.2338 805.443 32.0635 809.278 36.7851L784.222 46.9084L777.676 37.5483Z" fill="#0070C0"/>
<path d="M804.386 43.6076L809.278 36.7851L659.913 97.2098L657.886 111.008L797.871 48.9096C800.476 47.754 802.725 45.9236 804.386 43.6076Z" fill="#301270"/>
<path d="M804.386 43.6076L809.278 36.7851L784.223 46.9209L776.896 58.2143L797.871 48.9096C800.476 47.754 802.725 45.9236 804.386 43.6076Z" fill="#18BBFF"/>
<path d="M26.8498 335.219L178.902 281.041L187.914 257.434L36.7764 321.058C31.7461 323.175 28.1421 327.711 27.2162 333.09L26.8498 335.219Z" fill="#180F44"/>
<path d="M27.2162 333.09L26.8498 335.219L57.8414 324.176L58.0436 312.105L36.7764 321.058C31.7461 323.175 28.1421 327.711 27.2162 333.09Z" fill="#0070C0"/>
<path d="M180.53 291.426L179.4 280.987L26.8498 335.219L33.8785 337.411C37.0915 338.413 40.5387 338.376 43.7296 337.306L180.53 291.426Z" fill="#301270"/>
<path d="M26.8498 335.219L33.8786 337.411C37.0915 338.413 40.5387 338.376 43.7296 337.306L69.3951 328.698L57.844 324.2L26.8498 335.219Z" fill="#18BBFF"/>
<path d="M682.813 141.503L661.394 120.184L497.68 178.138L502.023 204.323L682.813 141.503Z" fill="#180F44"/>
<path d="M188.312 258.18L189.436 255.322L187.775 252.738L183.405 245.944L235.538 203.423L278.657 182.988L331.988 163.125L337.206 218.933L183.201 275.283L184.22 268.583L188.312 258.18Z" fill="#180F44" stroke="url(#paint0_linear)" stroke-width="12"/>
<path d="M643.098 79.3697L642.554 82.9025L645.402 85.0629L654.568 92.017L655.828 93.7358L497.811 151.799L477.637 107.154L574.139 71.8626L643.197 70.9297L644.043 73.2299L643.098 79.3697Z" fill="#180F44" stroke="url(#paint1_linear)" stroke-width="12"/>
<path d="M671.026 111.597L665.381 96.6179L494.641 159.356L500.422 184.882L660.723 123.274L669.414 115.292L671.026 111.597Z" fill="#301270"/>
<path d="M452.873 70.8371L442.849 61.8637L476.756 138.158L496.683 159.638L471.888 102.475L452.873 70.8371Z" fill="#301270"/>
<path d="M473.356 129.976L444.827 65.2011C441.386 57.3896 432.42 53.6542 424.451 56.7127L342.775 88.0605C335.871 90.7104 331.682 97.7465 332.644 105.079L342.517 180.349L473.356 129.976Z" fill="#180F44"/>
<path d="M344.695 191.177L332.524 101.969L330.241 108.754L342.778 224.578L344.695 191.177Z" fill="#301270"/>
<path d="M180.558 300.979L175.746 284.4L343.611 222.979L354.106 240.954L196.237 301.796L180.558 300.979Z" fill="#301270"/>
<path d="M615.072 40.7072L479.416 134.852L468.436 112.404L597.225 37.4632C603.162 34.0084 610.73 35.384 615.072 40.7072Z" fill="#180F44"/>
<path d="M581.512 46.6064L597.225 37.4632C603.162 34.0084 610.73 35.384 615.072 40.7072L589.812 58.2377L581.512 46.6064Z" fill="#FF557E"/>
<path d="M608.629 53.9565L490.381 140.214C488.113 141.868 484.95 141.479 483.151 139.324C481.144 136.922 481.631 133.315 484.202 131.531L604.447 48.0806C607.447 45.9991 611.285 49.1813 609.796 52.5144C609.539 53.0887 609.137 53.5858 608.629 53.9565Z" fill="#301270"/>
<path d="M615.072 40.7072L611.142 49.5023C610.003 52.0503 608.218 54.2561 605.963 55.9008L585.927 70.5168L589.812 58.2377L615.072 40.7072Z" fill="#FF8484"/>
<path d="M174.97 207.537L341.779 187.47L337.543 162.279L187.855 193.078C181.654 194.354 176.788 199.166 175.444 205.353L174.97 207.537Z" fill="#180F44"/>
<path d="M175.444 205.353L174.97 207.537L208.729 203.476L209.633 188.597L187.855 193.078C181.654 194.354 176.788 199.166 175.444 205.353Z" fill="#FF557E"/>
<path d="M184.421 212.673L174.97 207.537L341.779 187.47L341.364 197.573L193.885 214.509C190.616 214.885 187.312 214.243 184.421 212.673Z" fill="#301270"/>
<path d="M184.421 212.673L174.97 207.537L208.729 203.476L220.654 211.435L193.885 214.509C190.616 214.885 187.312 214.243 184.421 212.673Z" fill="#FF8484"/>
<path d="M375.415 47.5373L344.101 69.535L341.846 85.8725L342.881 90.7897L352.449 104.842L360.564 105.472L422.416 82.1805L427.736 75.5697L427.572 55.4706L414.081 42.3462L375.415 47.5373Z" fill="#301270"/>
<path d="M347.245 70.7034L344.775 85.0526L358.588 101.16L359.703 97.5185L386.369 79.0415L417.686 75.6516L421.327 76.7663L423.649 56.3982L413.464 45.9335L376.679 49.9152L347.245 70.7034Z" fill="url(#paint2_radial)"/>
<path d="M413.464 45.9335L376.679 49.9152L386.369 79.0415L417.686 75.6517L421.327 76.7663L423.649 56.3982L413.464 45.9335Z" fill="url(#paint3_radial)"/>
<path d="M473.356 129.976L476.541 136.17L481.822 143.142L463.004 141.206L358.096 180.241L343.07 199.4L343.109 185.817L342.517 180.349L473.356 129.976Z" fill="#301270"/>
<path d="M466.085 140.06L353.434 181.975C347.216 184.289 343.071 190.2 343.015 196.834L342.778 224.578L378.779 283.043L461.986 303.709L510.679 228.532L496.683 159.638L483.806 144.635C479.441 139.548 472.367 137.722 466.085 140.06Z" fill="#180F44"/>
<path d="M460.505 155.356L368.213 190.328C361.4 192.91 357.192 199.768 357.976 207.012L359.723 223.156L386.328 264.981C388.147 267.842 391.013 269.878 394.313 270.657L448.882 283.525C454.123 284.761 459.584 282.638 462.613 278.186L493.966 232.114C495.911 229.255 496.637 225.74 495.984 222.345L485.646 168.578L478.399 159.996C474.022 154.811 466.85 152.952 460.505 155.356Z" fill="url(#paint4_radial)"/>
<path d="M456.745 161.784L374.535 192.869C367.716 195.447 363.502 202.309 364.286 209.557L365.753 223.106L392.583 265.178L454.958 279.826L490.915 227.151L480.576 173.452L474.615 166.411C470.238 161.242 463.081 159.389 456.745 161.784Z" fill="url(#paint5_linear)"/>
<path d="M462.646 183.675L459.217 180.852C456.423 178.551 452.797 177.52 449.21 178.005L420.602 181.876C418.666 182.138 416.813 182.833 415.183 183.909L391.987 199.223C388.639 201.433 386.5 205.066 386.189 209.065L385.703 215.32C385.518 217.698 385.992 220.081 387.071 222.209L403.321 254.235L448.021 262.975L474.739 226.387L467.09 190.967C466.472 188.105 464.906 185.536 462.646 183.675Z" fill="url(#paint6_diamond)"/>
<path d="M460.424 192.526L450.922 184.708L419.662 188.937L393.61 206.125L392.549 219.762L407.599 249.403L445.186 256.744L467.656 225.999L460.424 192.526Z" fill="url(#paint7_radial)"/>
<path d="M460.239 185.41L458.881 184.383C456.239 182.386 452.935 181.473 449.643 181.829L421.706 184.853C419.588 185.083 417.559 185.829 415.797 187.026L394.823 201.281C391.433 203.585 389.328 207.354 389.144 211.45L388.989 214.914C388.895 216.996 389.304 219.069 390.18 220.96L404.597 252.085L508.774 452.538L472.092 225.165L465.103 193.018C464.443 189.982 462.717 187.283 460.239 185.41Z" fill="url(#paint8_diamond)"/>
<g style="mix-blend-mode:hard-light" filter="url(#filter0_f)">
<path d="M466.479 182.128L460.184 177.631C457.798 175.927 454.907 175.08 451.979 175.226L420.651 176.792C417.951 176.927 415.36 177.901 413.239 179.577L389.182 198.59C386.803 200.471 385.155 203.124 384.526 206.091L382.871 213.893C382.305 216.563 382.593 219.344 383.696 221.841L399 256.5L567.5 638.5L479.5 224.5L471.598 189.818C470.891 186.714 469.069 183.978 466.479 182.128Z" fill="url(#paint9_diamond)"/>
</g>
<path d="M437.742 149.422L379.315 171.84L369.279 123.991C367.273 114.427 372.473 104.814 381.575 101.257L397.715 94.9505C408.419 90.7682 420.437 96.4453 424.006 107.369L437.742 149.422Z" fill="#301270"/>
<g style="mix-blend-mode:color-dodge" filter="url(#filter1_f)">
<path d="M369.276 193.134L461.568 158.162C466.723 156.208 472.55 157.719 476.107 161.931L482.848 169.914L493.038 222.912C493.54 225.523 492.982 228.227 491.485 230.426L460.133 276.498C457.803 279.923 453.602 281.556 449.57 280.605L395.001 267.737C392.463 267.138 390.259 265.571 388.859 263.371L362.631 222.137L360.958 206.689C360.321 200.804 363.741 195.231 369.276 193.134Z" stroke="url(#paint10_radial)" stroke-width="6"/>
</g>
<path d="M249.457 324.199L228.719 332.34C222.104 334.936 214.57 332.962 210.078 327.456L243.302 313.801L249.457 324.199Z" fill="url(#paint11_linear)"/>
<path d="M255.314 322.559L249.106 311.664L291.559 294.999L298.264 305.84L255.314 322.559Z" fill="url(#paint12_linear)"/>
<path d="M304.068 303.703L296.812 292.418L341.275 275.131C344.572 273.849 348.312 275.159 350.089 278.219C352.343 282.1 350.524 287.075 346.298 288.587L304.068 303.703Z" fill="url(#paint13_linear)"/>
<g style="mix-blend-mode:color-dodge" filter="url(#filter2_f)">
<path d="M250.533 334.141L229.795 342.282C223.18 344.878 215.646 342.904 211.155 337.397L244.378 323.743L250.533 334.141Z" fill="url(#paint14_linear)"/>
<path d="M256.39 332.501L250.182 321.606L292.635 304.941L299.341 315.782L256.39 332.501Z" fill="url(#paint15_linear)"/>
<path d="M305.144 313.645L297.888 302.36L348.079 282.846L355.497 295.622L305.144 313.645Z" fill="url(#paint16_linear)"/>
</g>
<path d="M638.674 173.926L663.537 165.044C670.23 162.653 674.616 156.216 674.39 149.111L637.487 161.934L638.674 173.926Z" fill="url(#paint17_linear)"/>
<path d="M634.173 176.426L632.7 164.023L583.875 180.955L586.04 194.53L634.173 176.426Z" fill="url(#paint18_linear)"/>
<path d="M580.259 196.727L578.326 183.45L528.846 200.866C525.483 202.049 523.493 205.516 524.166 209.017C525.01 213.409 529.614 215.977 533.795 214.388L580.259 196.727Z" fill="url(#paint19_linear)"/>
<g style="mix-blend-mode:color-dodge" filter="url(#filter3_f)">
<path d="M639.75 183.868L664.613 174.986C671.307 172.595 675.692 166.157 675.466 159.053L638.563 171.876L639.75 183.868Z" fill="url(#paint20_linear)"/>
<path d="M635.249 186.368L633.776 173.965L584.952 190.897L587.116 204.472L635.249 186.368Z" fill="url(#paint21_linear)"/>
<path d="M581.335 206.669L579.403 193.392L524.071 212.867L526.86 227.375L581.335 206.669Z" fill="url(#paint22_linear)"/>
</g>
<path d="M624.724 131.222L645.696 123.706C652.386 121.309 656.76 114.864 656.519 107.762L622.516 119.342L624.724 131.222Z" fill="url(#paint23_linear)"/>
<path d="M619.234 133.841L616.74 121.552L573.807 136.938L575.891 149.514L619.234 133.841Z" fill="url(#paint24_linear)"/>
<path d="M570.115 151.724L568.153 138.451L519.668 155.852C516.326 157.052 514.359 160.511 515.037 163.997C515.893 168.396 520.52 170.95 524.698 169.33L570.115 151.724Z" fill="url(#paint25_linear)"/>
<g style="mix-blend-mode:color-dodge" filter="url(#filter4_f)">
<path d="M625.8 141.164L646.772 133.648C653.462 131.251 657.836 124.806 657.595 117.704L623.592 129.284L625.8 141.164Z" fill="url(#paint26_linear)"/>
<path d="M620.31 143.783L617.816 131.494L574.883 146.88L576.967 159.456L620.31 143.783Z" fill="url(#paint27_linear)"/>
<path d="M571.191 161.665L569.229 148.393L514.934 167.88L517.755 182.381L571.191 161.665Z" fill="url(#paint28_linear)"/>
</g>
<path d="M223.219 285.704L202.429 293.711C195.798 296.265 188.276 294.243 183.82 288.707L217.131 275.267L223.219 285.704Z" fill="url(#paint29_linear)"/>
<path d="M229.087 284.102L222.948 273.167L265.508 256.775L272.144 267.659L229.087 284.102Z" fill="url(#paint30_linear)"/>
<path d="M277.961 265.56L271.629 254.91L319.649 236.528C322.556 235.416 325.835 236.658 327.275 239.418C328.971 242.67 327.452 246.673 324.026 247.98L277.961 265.56Z" fill="url(#paint31_linear)"/>
<g style="mix-blend-mode:color-dodge" filter="url(#filter5_f)">
<path d="M224.295 295.646L203.505 303.653C196.874 306.207 189.352 304.185 184.897 298.649L218.207 285.209L224.295 295.646Z" fill="url(#paint32_linear)"/>
<path d="M230.163 294.044L224.025 283.109L266.584 266.717L273.22 277.601L230.163 294.044Z" fill="url(#paint33_linear)"/>
<path d="M279.037 275.502L272.705 264.852L325.825 244.518L331.537 255.467L279.037 275.502Z" fill="url(#paint34_linear)"/>
</g>
<defs>
<filter id="filter0_f" x="374.588" y="167.21" width="200.912" height="479.29" filterUnits="userSpaceOnUse" color-interpolation-filters="sRGB">
<feFlood flood-opacity="0" result="BackgroundImageFix"/>
<feBlend mode="normal" in="SourceGraphic" in2="BackgroundImageFix" result="shape"/>
<feGaussianBlur stdDeviation="4" result="effect1_foregroundBlur"/>
</filter>
<filter id="filter1_f" x="341.882" y="138.317" width="170.336" height="161.556" filterUnits="userSpaceOnUse" color-interpolation-filters="sRGB">
<feFlood flood-opacity="0" result="BackgroundImageFix"/>
<feBlend mode="normal" in="SourceGraphic" in2="BackgroundImageFix" result="shape"/>
<feGaussianBlur stdDeviation="8" result="effect1_foregroundBlur"/>
</filter>
<filter id="filter2_f" x="195.155" y="266.846" width="176.343" height="92.5674" filterUnits="userSpaceOnUse" color-interpolation-filters="sRGB">
<feFlood flood-opacity="0" result="BackgroundImageFix"/>
<feBlend mode="normal" in="SourceGraphic" in2="BackgroundImageFix" result="shape"/>
<feGaussianBlur stdDeviation="8" result="effect1_foregroundBlur"/>
</filter>
<filter id="filter3_f" x="508.071" y="143.053" width="183.403" height="100.321" filterUnits="userSpaceOnUse" color-interpolation-filters="sRGB">
<feFlood flood-opacity="0" result="BackgroundImageFix"/>
<feBlend mode="normal" in="SourceGraphic" in2="BackgroundImageFix" result="shape"/>
<feGaussianBlur stdDeviation="8" result="effect1_foregroundBlur"/>
</filter>
<filter id="filter4_f" x="498.934" y="101.704" width="174.67" height="96.6767" filterUnits="userSpaceOnUse" color-interpolation-filters="sRGB">
<feFlood flood-opacity="0" result="BackgroundImageFix"/>
<feBlend mode="normal" in="SourceGraphic" in2="BackgroundImageFix" result="shape"/>
<feGaussianBlur stdDeviation="8" result="effect1_foregroundBlur"/>
</filter>
<filter id="filter5_f" x="168.897" y="228.518" width="178.64" height="92.2287" filterUnits="userSpaceOnUse" color-interpolation-filters="sRGB">
<feFlood flood-opacity="0" result="BackgroundImageFix"/>
<feBlend mode="normal" in="SourceGraphic" in2="BackgroundImageFix" result="shape"/>
<feGaussianBlur stdDeviation="8" result="effect1_foregroundBlur"/>
</filter>
<linearGradient id="paint0_linear" x1="250.49" y1="164.158" x2="278.373" y2="252.169" gradientUnits="userSpaceOnUse">
<stop offset="0.0989583" stop-color="#5422A2"/>
<stop offset="1" stop-color="#4D0FFF"/>
</linearGradient>
<linearGradient id="paint1_linear" x1="563.84" y1="66.8724" x2="580.884" y2="135.507" gradientUnits="userSpaceOnUse">
<stop offset="0.0989583" stop-color="#5422A2"/>
<stop offset="1" stop-color="#4D0FFF"/>
</linearGradient>
<radialGradient id="paint2_radial" cx="0" cy="0" r="1" gradientUnits="userSpaceOnUse" gradientTransform="translate(341 66.5) rotate(5.78724) scale(74.3791 75.9392)">
<stop stop-color="#30B1FF"/>
<stop offset="0.859375" stop-color="#6700CD"/>
</radialGradient>
<radialGradient id="paint3_radial" cx="0" cy="0" r="1" gradientUnits="userSpaceOnUse" gradientTransform="translate(426 81.0001) rotate(-148.1) scale(57.717 49.6949)">
<stop stop-color="#9C1F98"/>
<stop offset="1" stop-color="#3A2BE7"/>
</radialGradient>
<radialGradient id="paint4_radial" cx="0" cy="0" r="1" gradientUnits="userSpaceOnUse" gradientTransform="translate(424.271 187.593) rotate(72.6214) scale(102.961 121.472)">
<stop stop-color="#04FEFE"/>
<stop offset="1" stop-color="#5C23FF"/>
</radialGradient>
<linearGradient id="paint5_linear" x1="402.659" y1="157.626" x2="442.9" y2="266.376" gradientUnits="userSpaceOnUse">
<stop stop-color="#171824"/>
<stop offset="1" stop-color="#313351"/>
</linearGradient>
<radialGradient id="paint6_diamond" cx="0" cy="0" r="1" gradientUnits="userSpaceOnUse" gradientTransform="translate(421.276 192.444) rotate(69.8938) scale(64.3933 50.9909)">
<stop stop-color="#E02A1E"/>
<stop offset="1" stop-color="#7824E3" stop-opacity="0.51"/>
</radialGradient>
<radialGradient id="paint7_radial" cx="0" cy="0" r="1" gradientUnits="userSpaceOnUse" gradientTransform="translate(432.35 220.414) rotate(71.2934) scale(36.8782 45.4359)">
<stop stop-color="#FFD600"/>
<stop offset="1" stop-color="#9216CC"/>
</radialGradient>
<radialGradient id="paint8_diamond" cx="0" cy="0" r="1" gradientUnits="userSpaceOnUse" gradientTransform="translate(431.692 218.977) rotate(70.9472) scale(233.367 134.764)">
<stop stop-color="#FFB084"/>
<stop offset="0.483887" stop-color="#FF2459" stop-opacity="0.24"/>
<stop offset="1" stop-color="#1524DA" stop-opacity="0.1"/>
</radialGradient>
<radialGradient id="paint9_diamond" cx="0" cy="0" r="1" gradientUnits="userSpaceOnUse" gradientTransform="translate(438.263 233.513) rotate(72.7384) scale(401.622 201.429)">
<stop stop-color="#FFAD62"/>
<stop offset="0.483887" stop-color="#FF2459" stop-opacity="0"/>
<stop offset="1" stop-color="#1524DA" stop-opacity="0"/>
</radialGradient>
<radialGradient id="paint10_radial" cx="0" cy="0" r="1" gradientUnits="userSpaceOnUse" gradientTransform="translate(425.401 198.032) rotate(71.3604) scale(92.6836 90.9579)">
<stop stop-color="#00CCFF"/>
<stop offset="1" stop-color="#684EF4"/>
</radialGradient>
<linearGradient id="paint11_linear" x1="288.331" y1="316.342" x2="279.617" y2="278.985" gradientUnits="userSpaceOnUse">
<stop stop-color="#684EF4"/>
<stop offset="1" stop-color="#00CCFF"/>
</linearGradient>
<linearGradient id="paint12_linear" x1="288.331" y1="316.342" x2="279.617" y2="278.985" gradientUnits="userSpaceOnUse">
<stop stop-color="#684EF4"/>
<stop offset="1" stop-color="#00CCFF"/>
</linearGradient>
<linearGradient id="paint13_linear" x1="288.331" y1="316.342" x2="279.617" y2="278.985" gradientUnits="userSpaceOnUse">
<stop stop-color="#684EF4"/>
<stop offset="1" stop-color="#00CCFF"/>
</linearGradient>
<linearGradient id="paint14_linear" x1="289.407" y1="326.284" x2="280.693" y2="288.927" gradientUnits="userSpaceOnUse">
<stop stop-color="#684EF4"/>
<stop offset="1" stop-color="#00CCFF"/>
</linearGradient>
<linearGradient id="paint15_linear" x1="289.407" y1="326.284" x2="280.693" y2="288.927" gradientUnits="userSpaceOnUse">
<stop stop-color="#684EF4"/>
<stop offset="1" stop-color="#00CCFF"/>
</linearGradient>
<linearGradient id="paint16_linear" x1="289.407" y1="326.284" x2="280.693" y2="288.927" gradientUnits="userSpaceOnUse">
<stop stop-color="#684EF4"/>
<stop offset="1" stop-color="#00CCFF"/>
</linearGradient>
<linearGradient id="paint17_linear" x1="601.952" y1="195.459" x2="582.849" y2="159.662" gradientUnits="userSpaceOnUse">
<stop stop-color="#684EF4"/>
<stop offset="1" stop-color="#00CCFF"/>
</linearGradient>
<linearGradient id="paint18_linear" x1="601.952" y1="195.459" x2="582.849" y2="159.662" gradientUnits="userSpaceOnUse">
<stop stop-color="#684EF4"/>
<stop offset="1" stop-color="#00CCFF"/>
</linearGradient>
<linearGradient id="paint19_linear" x1="601.952" y1="195.459" x2="582.849" y2="159.662" gradientUnits="userSpaceOnUse">
<stop stop-color="#684EF4"/>
<stop offset="1" stop-color="#00CCFF"/>
</linearGradient>
<linearGradient id="paint20_linear" x1="603.028" y1="205.401" x2="583.925" y2="169.604" gradientUnits="userSpaceOnUse">
<stop stop-color="#684EF4"/>
<stop offset="1" stop-color="#00CCFF"/>
</linearGradient>
<linearGradient id="paint21_linear" x1="603.028" y1="205.401" x2="583.925" y2="169.604" gradientUnits="userSpaceOnUse">
<stop stop-color="#684EF4"/>
<stop offset="1" stop-color="#00CCFF"/>
</linearGradient>
<linearGradient id="paint22_linear" x1="603.028" y1="205.401" x2="583.925" y2="169.604" gradientUnits="userSpaceOnUse">
<stop stop-color="#684EF4"/>
<stop offset="1" stop-color="#00CCFF"/>
</linearGradient>
<linearGradient id="paint23_linear" x1="588.512" y1="151.765" x2="570.066" y2="117.115" gradientUnits="userSpaceOnUse">
<stop stop-color="#684EF4"/>
<stop offset="1" stop-color="#00CCFF"/>
</linearGradient>
<linearGradient id="paint24_linear" x1="588.512" y1="151.765" x2="570.066" y2="117.115" gradientUnits="userSpaceOnUse">
<stop stop-color="#684EF4"/>
<stop offset="1" stop-color="#00CCFF"/>
</linearGradient>
<linearGradient id="paint25_linear" x1="588.512" y1="151.765" x2="570.066" y2="117.115" gradientUnits="userSpaceOnUse">
<stop stop-color="#684EF4"/>
<stop offset="1" stop-color="#00CCFF"/>
</linearGradient>
<linearGradient id="paint26_linear" x1="589.588" y1="161.707" x2="571.142" y2="127.057" gradientUnits="userSpaceOnUse">
<stop stop-color="#684EF4"/>
<stop offset="1" stop-color="#00CCFF"/>
</linearGradient>
<linearGradient id="paint27_linear" x1="589.588" y1="161.707" x2="571.142" y2="127.057" gradientUnits="userSpaceOnUse">
<stop stop-color="#684EF4"/>
<stop offset="1" stop-color="#00CCFF"/>
</linearGradient>
<linearGradient id="paint28_linear" x1="589.588" y1="161.707" x2="571.142" y2="127.057" gradientUnits="userSpaceOnUse">
<stop stop-color="#684EF4"/>
<stop offset="1" stop-color="#00CCFF"/>
</linearGradient>
<linearGradient id="paint29_linear" x1="263.339" y1="277.953" x2="254.909" y2="240.453" gradientUnits="userSpaceOnUse">
<stop stop-color="#684EF4"/>
<stop offset="1" stop-color="#00CCFF"/>
</linearGradient>
<linearGradient id="paint30_linear" x1="263.339" y1="277.953" x2="254.909" y2="240.453" gradientUnits="userSpaceOnUse">
<stop stop-color="#684EF4"/>
<stop offset="1" stop-color="#00CCFF"/>
</linearGradient>
<linearGradient id="paint31_linear" x1="263.339" y1="277.953" x2="254.909" y2="240.453" gradientUnits="userSpaceOnUse">
<stop stop-color="#684EF4"/>
<stop offset="1" stop-color="#00CCFF"/>
</linearGradient>
<linearGradient id="paint32_linear" x1="264.415" y1="287.895" x2="255.985" y2="250.395" gradientUnits="userSpaceOnUse">
<stop stop-color="#684EF4"/>
<stop offset="1" stop-color="#00CCFF"/>
</linearGradient>
<linearGradient id="paint33_linear" x1="264.415" y1="287.895" x2="255.985" y2="250.395" gradientUnits="userSpaceOnUse">
<stop stop-color="#684EF4"/>
<stop offset="1" stop-color="#00CCFF"/>
</linearGradient>
<linearGradient id="paint34_linear" x1="264.415" y1="287.895" x2="255.985" y2="250.395" gradientUnits="userSpaceOnUse">
<stop stop-color="#684EF4"/>
<stop offset="1" stop-color="#00CCFF"/>
</linearGradient>
</defs>
</svg>
