<svg width="1864" height="1380" viewBox="0 0 1864 1380" fill="none" xmlns="http://www.w3.org/2000/svg">
<circle cx="999.5" cy="457.5" r="114.5" fill="url(#paint0_radial)"/>
<path fill-rule="evenodd" clip-rule="evenodd" d="M1102.07 393.562L1097.92 398.957L1096.41 396.544C1096.41 396.544 953.583 376.755 892.451 415.466L888.081 414.111C888.081 414.111 888.081 414.111 888.108 414.083L893.27 405.381C893.27 405.381 926.213 382.827 1003.41 384.779C1003.41 384.779 978.494 376.836 912.582 382.963L912.856 374.017C912.856 374.017 964.891 338.992 1059.32 354.037C1059.32 354.037 1089.04 370.276 1102.07 393.562Z" fill="url(#paint1_linear)"/>
<path fill-rule="evenodd" clip-rule="evenodd" d="M886.687 477.735L883.108 484.946L895.1 510.211C895.1 510.211 990.348 462.147 1113.54 450.951L1116 446.261L1114.99 433.168C1114.99 433.168 1012.97 431.107 886.687 477.735Z" fill="url(#paint2_linear)"/>
<path fill-rule="evenodd" clip-rule="evenodd" d="M915.697 541.929C915.697 541.929 998.763 508.883 1110.95 500.181L1107.5 510.211C1107.5 510.211 1012.91 514.25 927.032 552.013L915.697 541.929Z" fill="url(#paint3_linear)"/>
<path fill-rule="evenodd" clip-rule="evenodd" d="M927.032 552.013C927.032 552.013 934.735 548.001 951.562 542.227C951.562 542.227 1015.51 548.353 1102.07 520.16L1093.6 537.049C1093.6 537.049 1044.24 559.061 972.54 567.98C972.54 567.98 951.698 569.227 927.032 552.013Z" fill="url(#paint4_linear)"/>
<path fill-rule="evenodd" clip-rule="evenodd" d="M1102.07 393.562L1097.92 398.956L1096.41 396.544C1096.41 396.544 953.583 376.754 892.451 415.466L888.081 414.11C888.081 414.11 888.081 414.11 888.108 414.083C889.801 413.053 954.02 375.724 1102.07 393.562Z" fill="#2E0068"/>
<path fill-rule="evenodd" clip-rule="evenodd" d="M912.856 374.016C912.856 374.016 979.751 374.45 1017.01 384.779H1003.41C1003.41 384.779 973.496 376.998 912.583 382.962L912.856 374.016Z" fill="#2E0068"/>
<path fill-rule="evenodd" clip-rule="evenodd" d="M895.101 510.211C895.101 510.211 1016.41 448.484 1114.14 446.424L1113.51 450.951C1113.54 450.951 1029.44 452.659 895.101 510.211Z" fill="#2E0068"/>
<path fill-rule="evenodd" clip-rule="evenodd" d="M1102.1 520.187L1095.62 518.859C1095.62 518.859 1046.84 541.223 949.677 542.877C949.649 542.877 1050.93 547.702 1102.1 520.187Z" fill="#2E0068"/>
<path d="M1094.53 383.179C1032.25 356.179 914.112 374.152 912.91 374.342L912.801 373.664C914.003 373.474 1032.33 355.474 1094.78 382.556L1094.53 383.179Z" fill="#00E7F4"/>
<path d="M1086.2 374.315C1050.36 361.302 947 360.083 945.935 360.083V359.405C946.973 359.405 1050.47 360.625 1086.42 373.691L1086.2 374.315Z" fill="#00E7F4"/>
<path d="M895.292 510.509L894.909 509.94C895.784 509.371 983.903 452.93 1079.34 434.388L1079.48 435.066C984.149 453.554 896.166 509.94 895.292 510.509Z" fill="#00E7F4"/>
<path d="M883.246 485.271L883 484.62C883.574 484.404 941.755 463.069 1019.28 441.978L1019.47 442.629C941.974 463.72 883.819 485.054 883.246 485.271Z" fill="#00E7F4"/>
<mask id="mask0" mask-type="alpha" maskUnits="userSpaceOnUse" x="883" y="343" width="233" height="229">
<circle cx="999.5" cy="457.5" r="114.5" fill="url(#paint5_radial)"/>
<path fill-rule="evenodd" clip-rule="evenodd" d="M1102.07 393.562L1097.92 398.957L1096.41 396.544C1096.41 396.544 953.583 376.755 892.451 415.466L888.081 414.111C888.081 414.111 888.081 414.111 888.108 414.083L893.27 405.381C893.27 405.381 926.213 382.827 1003.41 384.779C1003.41 384.779 978.494 376.836 912.582 382.963L912.856 374.017C912.856 374.017 964.891 338.992 1059.32 354.037C1059.32 354.037 1089.04 370.276 1102.07 393.562Z" fill="url(#paint6_linear)"/>
<path fill-rule="evenodd" clip-rule="evenodd" d="M886.687 477.735L883.108 484.946L895.1 510.211C895.1 510.211 990.348 462.147 1113.54 450.951L1116 446.261L1114.99 433.168C1114.99 433.168 1012.97 431.107 886.687 477.735Z" fill="url(#paint7_linear)"/>
<path fill-rule="evenodd" clip-rule="evenodd" d="M915.697 541.929C915.697 541.929 998.763 508.883 1110.95 500.181L1107.5 510.211C1107.5 510.211 1012.91 514.25 927.032 552.013L915.697 541.929Z" fill="url(#paint8_linear)"/>
<path fill-rule="evenodd" clip-rule="evenodd" d="M927.032 552.013C927.032 552.013 934.735 548.001 951.562 542.227C951.562 542.227 1015.51 548.353 1102.07 520.16L1093.6 537.049C1093.6 537.049 1044.24 559.061 972.54 567.98C972.54 567.98 951.698 569.227 927.032 552.013Z" fill="url(#paint9_linear)"/>
<path fill-rule="evenodd" clip-rule="evenodd" d="M1102.07 393.562L1097.92 398.956L1096.41 396.544C1096.41 396.544 953.583 376.754 892.451 415.466L888.081 414.11C888.081 414.11 888.081 414.11 888.108 414.083C889.801 413.053 954.02 375.724 1102.07 393.562Z" fill="#2E0068"/>
<path fill-rule="evenodd" clip-rule="evenodd" d="M912.856 374.016C912.856 374.016 979.751 374.45 1017.01 384.779H1003.41C1003.41 384.779 973.496 376.998 912.583 382.962L912.856 374.016Z" fill="#2E0068"/>
<path fill-rule="evenodd" clip-rule="evenodd" d="M895.101 510.211C895.101 510.211 1016.41 448.484 1114.14 446.424L1113.51 450.951C1113.54 450.951 1029.44 452.659 895.101 510.211Z" fill="#2E0068"/>
<path fill-rule="evenodd" clip-rule="evenodd" d="M1102.1 520.187L1095.62 518.859C1095.62 518.859 1046.84 541.223 949.677 542.877C949.649 542.877 1050.93 547.702 1102.1 520.187Z" fill="#2E0068"/>
<path d="M1094.53 383.179C1032.25 356.179 914.112 374.152 912.91 374.342L912.801 373.664C914.003 373.474 1032.33 355.474 1094.78 382.556L1094.53 383.179Z" fill="#00E7F4"/>
<path d="M1086.2 374.315C1050.36 361.302 947 360.083 945.935 360.083V359.405C946.973 359.405 1050.47 360.625 1086.42 373.691L1086.2 374.315Z" fill="#00E7F4"/>
<path d="M895.292 510.509L894.909 509.94C895.784 509.371 983.903 452.93 1079.34 434.388L1079.48 435.066C984.149 453.554 896.166 509.94 895.292 510.509Z" fill="#00E7F4"/>
<path d="M883.246 485.271L883 484.62C883.574 484.404 941.755 463.069 1019.28 441.978L1019.47 442.629C941.974 463.72 883.819 485.054 883.246 485.271Z" fill="#00E7F4"/>
</mask>
<g mask="url(#mask0)">
<g style="mix-blend-mode:multiply" opacity="0.46">
<circle cx="772.5" cy="655.5" r="293.5" fill="url(#paint10_radial)"/>
</g>
</g>
<circle cx="548" cy="835" r="545" fill="url(#paint11_radial)"/>
<circle cx="548" cy="835" r="545" fill="url(#paint12_radial)"/>
<path fill-rule="evenodd" clip-rule="evenodd" d="M1090 775.645C1088.14 779.177 1086.38 782.708 1085.07 786.612C1083.03 792.374 1080.43 797.021 1077.36 802.319C1073.83 808.546 1071.69 815.795 1068.81 822.301C1062.49 836.985 1057.75 853.064 1052.45 868.12C1046.59 885.035 1041.02 901.857 1033.77 918.214C1030.51 925.649 1025.77 932.248 1022.43 939.497C1019.17 946.839 1015.92 953.81 1011.92 960.78C1001.98 977.881 992.962 995.354 982.366 1012.18C963.405 1042.47 940.54 1069.43 918.418 1097.4C907.264 1111.53 894.066 1123.8 881.239 1136.53C866.739 1150.84 854.098 1166.83 839.134 1180.86C827.515 1191.83 815.525 1202.79 802.233 1211.62C794.705 1216.64 787.455 1222.13 779.833 1227.05C770.166 1233.28 758.827 1236.9 748.509 1241.92C714.212 1258.37 677.59 1268.69 641.526 1280.31C606.206 1291.55 572.187 1306.98 536.216 1315.99C528.781 1317.85 521.345 1318.6 513.816 1320.08C505.73 1321.66 497.922 1323.99 489.65 1324.92C473.105 1326.78 457.118 1332.35 440.387 1333.19C428.769 1333.75 417.894 1331.52 406.461 1330.96C391.775 1330.21 377.276 1331.89 362.59 1332.91C346.417 1334.12 330.244 1333.19 314.071 1331.05C300.129 1324.55 286.558 1317.39 273.267 1309.77C273.732 1309.95 274.289 1310.05 274.754 1310.23C284.235 1313.3 293.065 1318.78 302.638 1321.01C312.863 1323.34 323.459 1325.01 333.962 1326.78C348.369 1329.29 361.381 1329.19 375.788 1327.05C383.224 1325.85 390.66 1325.01 398.096 1323.43C406.182 1321.76 414.269 1323.8 422.262 1321.94C433.416 1319.25 445.871 1321.39 457.211 1321.01C476.823 1320.36 496.156 1313.11 515.117 1309.3C536.216 1305.03 556.2 1297.41 577.671 1294.8C589.94 1293.32 599.514 1289.14 611.132 1285.51C621.078 1282.44 627.491 1276.87 635.764 1270.64C651.658 1258.74 667.738 1246.48 686.327 1238.76C704.824 1231.05 724.343 1225.66 743.955 1221.75C760.035 1218.59 777.695 1210.79 790.15 1199.82C795.634 1194.89 800.839 1189.78 806.23 1184.76C812.922 1178.63 819.986 1173.24 825.935 1166.46C832.72 1158.74 840.435 1151.68 847.127 1143.96C854.563 1135.32 860.512 1125.75 867.855 1117.1C879.473 1103.35 897.319 1096.19 908.752 1082.16C911.168 1079.28 912.748 1075.75 915.258 1072.87C917.953 1069.89 920.649 1068.4 922.229 1064.69C924.181 1060.13 928.921 1049.44 926.319 1044.33C921.207 1033.92 893.88 1060.69 889.604 1064.87C882.819 1071.19 877.335 1077.7 869.156 1082.44C864.23 1085.23 859.396 1088.29 854.191 1090.43C845.547 1093.96 835.416 1094.33 826.307 1096.29C800.839 1101.77 774.814 1104.74 749.067 1108.74C714.212 1114.13 678.984 1121.47 644.78 1129.84C612.713 1137.64 580.924 1146.66 548.857 1154.28C531.848 1158.37 514.745 1162.64 497.643 1166.46C476.73 1171.1 456.188 1177.51 435.275 1181.6C400.884 1188.3 365.936 1195.92 330.802 1196.85C303.103 1197.59 275.683 1198.98 248.078 1198.98C210.806 1198.98 170.745 1202.79 134.217 1193.97C133.752 1193.87 133.287 1193.69 132.823 1193.59C118.23 1176.86 104.752 1159.21 92.3902 1140.8C105.868 1146.66 119.81 1151.31 134.217 1153.91C144.627 1155.77 155.781 1158.18 164.425 1164.41C170.188 1168.59 175.579 1172.5 182.55 1174.63C206.344 1182.25 227.536 1181.79 251.424 1174.82C260.347 1172.12 269.177 1169.43 278.007 1166.55C284.514 1164.41 290.462 1160.51 296.969 1158.74C315.558 1153.82 334.612 1150.38 353.202 1146.1C362.032 1144.06 371.327 1142.38 379.971 1139.78C389.824 1136.71 398.932 1131.7 408.32 1127.89C426.352 1120.45 443.083 1112.83 462.323 1109.58C474.499 1107.53 488.534 1106.04 499.595 1100.38C503.22 1098.61 508.611 1096.1 508.053 1091.27C507.403 1085.32 499.595 1086.9 495.319 1087.64C482.864 1089.78 470.13 1090.9 457.768 1094.24C435.554 1100.19 413.897 1103.07 390.939 1104.56C357.013 1106.79 322.436 1108.83 288.417 1107.07C261.37 1105.67 234.229 1103.26 207.181 1103.54C181.063 1103.81 155.595 1101.49 130.778 1093.31C102.707 1084.02 74.1724 1075.65 48.24 1061.34C17.2883 992.658 0 916.448 0 836.149C0 755.756 17.3813 679.36 48.6118 610.585C44.9868 620.529 41.9195 630.753 37.7368 640.418C29.5574 659.564 24.4453 678.895 24.4453 699.621C24.5382 707.428 25.3748 715.885 24.2594 723.599C22.8652 733.729 22.1216 740.235 25.003 750.458C27.1408 757.894 27.9773 765.143 31.1375 772.392C32.2529 775.087 33.6471 776.296 35.5061 778.433C37.3651 780.571 38.2016 782.987 39.7817 785.59C44.2432 792.839 50.5637 802.505 58.1854 806.687C62.9257 809.196 68.9673 811.241 74.0795 812.728C80.4929 814.587 83.0025 815.33 89.4159 813.007C94.1562 811.334 100.756 809.103 105.682 808.824C108.935 808.731 111.537 810.311 114.698 810.869C118.602 811.52 122.319 811.148 126.316 811.984C142.396 815.33 158.104 819.327 174.556 819.141C187.476 818.955 200.21 821.185 213.315 821.185C229.117 821.185 244.639 821.65 260.254 819.698C270.757 818.304 282.097 815.702 292.693 815.051C303.475 814.401 314.443 815.33 325.225 815.237C362.59 814.68 401.256 805.664 433.695 786.798C451.262 776.482 469.201 768.768 488.906 763.191C513.816 756.035 539.377 748.971 564.844 744.139C588.453 739.678 611.69 731.871 633.533 721.833C643.478 717.372 652.215 711.796 661.324 705.662C669.411 700.178 678.148 695.996 685.956 690.327C708.542 673.691 728.154 654.173 747.952 634.284C759.198 623.039 770.631 611.7 782.342 601.012C792.102 592.183 802.326 588.186 814.874 585.212C834.765 580.472 845.826 558.074 856.515 542.088C869.992 521.92 881.239 498.779 881.89 473.871C882.169 463.369 881.425 453.61 879.566 443.294C878.729 438.74 877.707 434.372 875.755 430.189C874.547 427.494 872.502 424.985 871.851 422.104C871.294 419.687 871.201 417.178 870.736 415.04C870.271 413.181 869.156 410.672 868.691 408.906C867.576 404.259 865.252 397.846 865.531 392.642V392.084C873.153 397.568 880.681 403.237 887.931 409.092C887.838 411.23 888.21 413.367 887.745 415.505C887.281 418.107 886.351 420.245 885.886 422.847C885.236 426.658 883.842 428.795 883.842 432.978C883.935 437.439 883.749 441.249 884.771 445.338C887.467 455.469 894.066 464.856 893.973 475.544C893.88 486.604 891.092 496.734 886.909 507.05C883.005 516.716 878.822 525.638 874.175 534.839C870.922 541.159 867.855 546.456 863.486 552.219C859.582 557.33 855.4 562.256 852.332 568.018C850.009 572.48 847.685 577.034 845.826 581.681C842.294 590.138 836.531 594.506 830.118 600.826C816.919 613.559 800.467 623.782 786.246 636.05C775.371 645.344 763.288 656.961 754.83 668.579C750.833 674.155 730.199 690.234 735.776 698.691C738.285 702.409 746.093 701.201 749.625 701.201C757.432 701.294 765.984 699.156 773.048 695.996C793.031 686.888 813.015 676.107 834.114 669.88C843.595 667.092 853.726 665.512 862.742 661.515C873.524 656.59 884.028 650.549 894.066 644.322C902.059 639.396 906.8 632.983 912.748 626.013C916.095 622.016 920.835 619.786 924.553 616.068C928.921 611.7 931.617 606.681 936.45 602.871C948.162 593.67 958.758 582.052 967.216 569.784C975.023 558.446 977.905 544.412 981.251 531.679C982.18 528.147 983.296 525.266 983.482 521.549C983.668 517.181 983.482 512.719 983.482 508.351V507.608C1041.11 583.818 1079.03 675.642 1090 775.645Z" fill="url(#paint13_linear)"/>
<path fill-rule="evenodd" clip-rule="evenodd" d="M840.807 419.315C838.762 431.676 837.554 443.944 835.137 456.305C832.72 468.573 832.07 482.421 827.05 493.853C818.592 513.556 815.99 535.397 802.605 552.776C796.935 560.212 792.567 568.111 785.317 574.338C782.528 576.662 779.647 577.219 776.673 579.078C773.884 580.937 770.91 583.725 768.121 585.77C753.807 596.179 738.564 606.96 726.016 619.507C712.446 632.89 699.433 645.995 683.353 656.497C678.52 659.657 673.5 661.887 668.481 664.582C664.299 666.813 660.86 669.787 656.398 671.46C650.728 673.598 647.103 674.713 642.084 678.245C638.18 680.94 633.812 683.728 629.443 685.401C621.729 688.468 614.2 692.093 606.485 695.067C602.953 696.554 599.235 697.297 595.61 698.598C585.386 702.502 577.95 702.13 564.844 703.152C560.662 701.294 564.194 701.108 567.54 699.621C570.142 698.319 570.886 697.669 573.024 695.438C575.719 692.743 579.251 689.118 582.319 686.888C588.081 682.706 595.703 680.661 601.931 676.85C609.924 671.832 617.732 665.791 625.539 660.4C632.046 655.939 636.972 648.783 642.363 643.206C648.126 637.072 655.19 631.589 661.51 625.92C668.946 619.321 675.266 611.793 682.702 605.287C690.882 598.41 696.552 590.789 701.478 581.681C703.523 577.777 706.962 574.989 709.1 571.085C711.144 567.368 713.561 563.929 715.234 560.026C717.093 555.472 719.51 551.196 721.462 546.735C723.692 541.624 723.599 535.583 724.715 530.099C728.061 514.021 731.314 497.756 734.288 481.585C736.798 468.109 736.984 453.796 737.356 440.041C737.82 426.843 741.538 414.018 741.631 400.635C741.631 395.43 741.91 390.969 739.679 386.229C736.891 380.002 733.731 374.519 731.5 368.013C724.622 348.124 711.888 330.001 694.971 317.547C692.369 315.688 684.282 310.762 676.196 304.907C734.288 319.034 788.384 342.269 837.461 373.217H837.554C841.829 388.274 843.316 404.352 840.807 419.315Z" fill="url(#paint14_radial)"/>
<path fill-rule="evenodd" clip-rule="evenodd" d="M682.423 420.244C681.215 427.122 677.032 432.419 675.08 439.018C672.85 446.546 671.177 454.074 670.061 461.881C668.481 473.592 669.504 485.302 668.109 497.105C665.414 519.225 658.164 541.159 648.311 561.141C638.459 581.122 621.728 597.573 603.418 609.934C584.456 622.852 563.357 632.797 542.63 642.37C530.825 647.76 518.37 649.991 506.287 654.638C496.156 658.448 486.21 662.723 476.172 666.72C466.227 670.623 457.025 677.408 447.079 680.661C440.852 682.705 434.81 684.75 428.583 686.98C417.987 690.791 408.32 696.367 397.91 700.828C383.317 707.148 368.167 712.074 352.551 715.699C337.215 719.323 322.343 717 306.914 715.048C294.087 713.468 280.888 712.353 268.248 709.379C244.825 703.802 219.636 705.382 195.748 705.382C177.623 705.382 156.71 707.148 140.723 697.297C136.169 694.509 131.056 691.534 128.454 686.702C125.294 680.754 124.922 673.225 123.528 666.72C120.739 653.429 108.098 644.414 99.4541 634.749C88.3004 621.923 84.0248 605.844 81.794 589.394C79.9351 576.568 79.6562 560.025 82.7235 546.828C110.329 502.589 143.976 462.718 182.735 428.237C173.534 445.617 166.655 464.019 158.569 481.956C146.393 508.816 135.704 538.092 136.819 568.111C137.191 579.821 138.213 593.019 144.441 603.242C149.274 611.142 157.268 616.811 164.982 621.458C177.623 628.986 190.264 637.351 203.928 642.648C219.264 648.504 234.693 654.173 249.937 660.028C258.86 663.374 267.504 667.277 277.078 668.486C288.603 669.88 301.244 669.136 312.677 668.764C354.782 667.649 393.541 647.946 433.137 636.05C445.871 632.146 459.07 630.38 471.618 626.198C479.518 623.503 486.21 619.971 493.46 616.254C511.027 607.146 530.268 600.361 546.812 589.022C563.171 577.684 578.322 563.929 591.056 548.78C600.908 537.069 605.277 525.266 610.11 510.86C619.591 482.421 623.216 455.004 625.818 425.263C626.933 412.623 631.302 401.378 634.276 389.11C636.228 381.024 635.113 371.637 628.606 365.782C615.594 354.257 596.354 347.101 579.716 343.105C569.585 340.688 559.918 337.435 549.508 337.435C539.191 337.528 528.966 337.435 518.742 337.528C508.89 337.621 499.223 335.391 489.278 335.391C477.659 335.391 466.784 338.644 455.259 339.573C443.268 340.502 431.092 341.896 419.288 344.034C405.16 346.543 391.589 352.12 377.926 356.302C351.343 364.388 324.202 377.399 302.452 394.407C296.783 398.775 290.741 402.214 284.792 406.025C279.68 409.463 277.821 413.46 274.475 418.571C267.318 429.631 263.414 439.018 259.975 451.937C257.744 460.673 258.023 469.038 258.116 478.053C258.302 489.577 256.536 502.031 254.677 513.37C251.982 529.82 236.088 554.17 253.469 567.275C258.395 570.992 264.251 572.014 270.292 571.178C278.844 570.063 288.324 567.367 296.504 565.044C320.577 558.259 345.766 550.267 370.676 547.107C378.205 546.177 385.362 546.735 392.891 544.783C397.538 543.482 402 541.995 406.74 541.066C417.708 539.021 428.583 531.958 437.227 524.801C441.131 521.548 444.384 517.459 448.381 514.206C453.864 509.745 460.464 506.771 465.669 501.938C473.105 495.061 480.262 487.533 487.326 480.19C501.733 465.041 512.143 446.174 524.319 429.445C532.034 418.943 540.678 407.419 542.723 394.314C544.303 384.184 531.941 378.793 524.412 375.541C517.069 372.381 506.473 370.429 498.386 371.916C486.117 374.053 474.778 381.396 463.438 386.321C438.249 397.381 410.179 400.077 388.336 417.735C380.343 424.055 380.807 430.189 378.298 439.018C377.09 443.015 374.115 447.383 372.07 451.286C368.817 457.42 368.352 458.907 370.025 465.413C371.606 471.733 373.279 480.469 380.529 483.257C386.849 485.767 397.073 483.536 402.557 480.097C405.81 478.053 408.692 475.357 412.596 473.963C414.919 473.034 420.682 470.432 422.913 471.268C426.91 472.755 423.935 475.264 422.262 477.495C420.682 479.819 419.66 481.213 418.637 483.722C417.801 485.767 417.708 488.183 416.221 489.949C409.807 497.291 396.98 501.009 388.057 504.076C380.25 506.771 374.394 510.024 365.843 510.117C354.317 510.21 358.965 501.659 357.292 493.388C355.061 482.7 342.699 478.703 341.398 467.551C340.096 456.862 343.442 444.13 347.997 434.464C349.949 430.189 352.551 426.657 355.154 422.847C359.429 416.341 365.657 412.437 372.163 408.162C391.311 395.522 415.198 389.481 436.855 382.232C458.605 374.797 482.214 373.589 503.685 365.968C518.277 360.763 533.707 359.09 548.764 356.302C562.706 353.793 574.883 359.276 580.738 372.009C586.873 385.485 594.123 399.984 589.847 414.854C584.084 435.393 577.206 455.747 566.424 474.242C553.133 497.105 536.96 518.667 512.979 531.214C495.97 540.136 477.752 545.155 459.906 551.847C445.964 557.051 432.672 561.233 418.172 563.464C395.865 566.81 375.509 580.007 353.667 585.491C323.644 593.019 293.251 598.874 262.671 603.149C251.052 604.729 241.479 605.844 230.046 604.079C224.934 603.335 220.193 603.8 215.267 601.662C211.828 600.175 208.296 598.502 204.857 597.108C192.96 591.996 181.434 583.446 182.828 569.04C184.13 555.471 189.056 541.809 191.566 528.426C193.332 519.597 193.517 510.767 195.655 501.938C197.235 495.154 198.815 488.276 200.674 481.584C202.162 476.287 204.485 469.502 207.645 465.041C213.966 456.212 218.799 445.803 225.584 437.345C228.373 433.906 231.161 431.211 233.299 427.401C235.437 423.59 236.088 421.824 239.155 418.386C241.757 415.504 243.523 411.88 246.219 409.092C250.959 404.073 257.837 399.984 263.414 395.987C276.52 386.693 290.648 377.771 305.427 371.265C319.834 365.038 334.891 360.856 349.67 355.837C362.961 351.283 375.231 344.034 388.429 338.922C402.929 333.346 419.288 329.628 434.717 327.77C466.412 323.866 497.829 321.078 529.896 321.171C569.77 321.357 614.014 306.208 651.936 325.26C662.347 330.558 668.388 336.878 673.129 347.566C679.914 363.087 682.981 381.21 682.795 398.125C682.702 405.467 683.632 413.088 682.423 420.244Z" fill="url(#paint15_radial)"/>
<path fill-rule="evenodd" clip-rule="evenodd" d="M64.5988 591.997C67.2943 599.339 71.0122 605.752 73.4288 613.28C75.1948 618.949 76.7749 623.41 79.8422 628.522C82.8166 633.355 84.5826 638.838 87.4639 643.857C90.4383 649.061 93.4126 655.474 94.8998 661.329C96.1081 665.883 96.294 670.623 97.5023 675.177C99.0824 681.033 100.663 686.888 102.243 692.65C103.265 696.368 105.217 699.621 107.262 702.873C109.4 706.312 111.909 711.703 115.255 714.026C126.037 721.647 141.467 718.394 153.922 717.093C165.261 715.885 176.694 715.792 188.034 714.212C193.796 713.376 200.21 713.468 205.973 713.84C211.271 714.119 217.87 714.77 223.075 715.792C228.001 716.721 232.742 716.907 237.668 717.651C244.732 718.766 251.703 720.625 258.86 721.182C266.76 721.833 274.847 722.948 282.84 723.134C294.18 723.32 305.706 722.205 317.045 723.413C326.898 724.435 336.843 726.108 346.789 726.108C359.801 726.201 372.721 722.205 384.804 717.837C404.881 710.494 425.515 704.546 445.685 697.204C453.028 694.509 459.906 689.955 466.691 686.051C472.826 682.427 479.425 680.103 485.374 676.107C496.063 668.951 509.447 664.396 521.902 661.701C534.543 658.913 546.813 654.359 559.36 651.385C567.633 649.433 575.905 645.158 584.271 644.043C582.69 650.641 568.283 653.058 563.171 654.824C551.274 659.099 538.354 661.422 526.829 666.627C519.3 669.973 514.002 676.479 508.053 682.055C502.569 687.167 498.48 692.371 492.252 696.554C485.746 700.922 479.611 703.524 471.804 705.104C455.445 708.357 439.644 714.119 423.471 717.651C407.577 721.182 391.59 724.9 376.811 731.778C372.721 733.636 360.638 738.469 360.08 744.417C359.708 749.157 365.471 747.391 368.817 747.391C376.067 747.391 385.548 745.626 392.333 748.507C397.538 750.737 401.814 753.061 407.484 754.269C418.916 756.778 433.416 754.641 444.105 750.458C459.627 744.417 476.451 741.35 492.717 738.283C503.963 736.146 514.931 732.893 526.178 730.476C535.008 728.618 543.373 728.246 552.296 727.409C565.03 726.201 577.764 724.714 590.405 722.577C600.536 720.904 611.597 719.881 620.799 715.327C628.514 711.517 637.53 709.193 644.315 703.896C646.081 702.502 656.305 693.672 658.722 695.717C663.741 699.992 635.392 716.071 633.44 717.465C624.238 723.692 614.757 727.595 604.44 731.778C591.52 737.075 578.322 739.399 564.937 742.744C549.694 746.555 534.357 749.715 519.114 753.618C503.778 757.522 487.976 759.473 472.919 764.585C465.297 767.187 457.675 769.697 450.518 773.321C443.919 776.667 436.948 778.991 430.442 782.43C416.407 789.958 403.208 800.46 388.057 805.386C374.859 809.661 361.01 813.285 347.16 814.401C328.943 815.888 310.632 813.285 292.507 811.427C274.103 809.475 255.328 807.988 236.831 808.36C219.636 808.638 202.441 812.263 185.245 813.099C173.441 813.657 163.867 809.475 152.992 805.386C140.723 800.832 130.22 794.976 119.066 788.192C109.4 782.337 98.3389 778.991 86.9992 779.455C84.3037 779.548 82.4448 780.571 79.8422 781.035C76.8679 781.593 74.7301 780.106 72.1275 778.898C61.9962 774.158 51.8649 766.351 46.9387 755.849C41.6406 744.603 39.224 732.614 37.458 720.439C36.4356 713.561 37.2721 706.312 37.1791 699.342C37.0862 690.048 35.5061 680.847 35.599 671.46C35.692 656.682 33.926 640.976 38.5734 626.663C42.9419 613.187 51.9578 600.64 60.1373 589.208C64.7847 582.796 68.5955 575.825 73.4288 569.598C75.1019 572.944 71.1051 579.45 70.2686 582.982C69.1532 587.814 67.2013 597.015 64.5988 591.997Z" fill="url(#paint16_linear)"/>
<path fill-rule="evenodd" clip-rule="evenodd" d="M763.654 669.343C760.204 673.825 753.964 679.484 753.083 685.362C752.202 690.947 758.515 690.212 762.626 689.551C771.581 688.155 780.83 687.346 789.272 683.819C794.264 681.762 798.962 678.896 803.953 676.765C808.064 675.001 812.542 674.413 816.652 672.65C826.489 668.461 837.059 666.33 846.822 661.774C855.557 657.732 862.971 651.486 869.798 644.873C874.643 640.243 879.194 636.716 882.497 630.764C884.919 626.355 887.782 622.093 889.837 617.463C892.333 611.805 893.875 604.089 894.609 597.99C894.976 594.683 895.196 590.642 894.756 587.261C893.655 579.105 885.433 578.37 878.533 579.325C870.018 580.501 863.191 585.498 856.878 590.936C850.786 596.153 845.721 602.399 838.894 606.588C831.333 611.217 823.919 615.92 816.579 620.917C812.615 623.636 809.018 626.061 805.641 629.515C802.852 632.381 800.209 635.393 797.2 637.965C794.19 640.611 790.74 642.742 787.364 644.873C784.574 646.636 782.005 649.061 779.216 650.531C775.472 652.515 772.095 654.72 769.086 657.732C767.104 659.717 764.901 661.627 763.58 664.199C761.378 668.535 761.818 673.972 763.654 669.343Z" fill="url(#paint17_linear)"/>
<path fill-rule="evenodd" clip-rule="evenodd" d="M884.399 523.407C886.258 517.645 887.467 515.415 892.858 512.627C896.204 510.861 898.62 510.396 900.851 514.114C905.22 521.27 902.059 529.913 899.271 536.791C897.226 541.809 889.14 546.828 885.515 540.508C883.005 536.233 883.098 523.593 889.047 521.827L884.399 523.407Z" fill="url(#paint18_linear)"/>
<path fill-rule="evenodd" clip-rule="evenodd" d="M427.281 735.216C430.07 730.012 430.721 729.454 435.554 727.595C439.458 726.108 441.41 724.993 445.592 724.528C449.868 724.156 454.608 721.74 458.977 723.32C465.669 725.736 464.368 731.592 459.906 735.774C457.675 737.819 455.816 739.213 453.214 739.77C449.682 740.514 446.15 741.35 442.525 741.257C436.39 741.164 431.185 741.536 425.887 737.911C425.701 736.796 426.166 735.867 427.281 735.216Z" fill="url(#paint19_linear)"/>
<path fill-rule="evenodd" clip-rule="evenodd" d="M171.303 1120.73C188.498 1127.14 207.367 1129.56 225.678 1129.93C247.52 1130.4 269.549 1130.02 291.299 1127.98C305.799 1126.58 320.206 1126.96 334.705 1124.91C341.676 1123.89 348.369 1124.26 355.34 1123.89C359.337 1123.7 363.612 1121.38 367.516 1122.59C382.759 1127.24 355.712 1135.97 352.644 1137.55C341.676 1143.03 329.314 1144.89 317.603 1148.33C313.141 1149.63 308.494 1150.93 304.126 1152.42C299.85 1153.91 296.039 1156.14 291.578 1157.07C273.639 1160.97 255.7 1162.65 237.854 1166.55C231.254 1167.94 224.004 1169.06 217.219 1167.76C210.062 1166.36 203.463 1162.18 197.05 1158.93C189.242 1155.02 181.248 1151.68 174.184 1146.47C171.117 1144.24 166.284 1140.9 163.774 1138.02C161.822 1135.88 161.915 1134.48 160.893 1131.88C159.034 1127.24 159.127 1125.38 163.124 1122.03C166.191 1119.43 169.909 1118.5 173.906 1119.61C174.184 1119.89 174.277 1120.26 171.303 1120.73Z" fill="url(#paint20_linear)"/>
<path fill-rule="evenodd" clip-rule="evenodd" d="M635.02 1300.47C625.911 1303.35 617.36 1306.61 609.366 1312.18C605.927 1314.6 601.745 1318.78 606.764 1321.85C613.642 1326.03 624.703 1323.8 632.139 1323.15C644.873 1322.04 657.42 1319.71 670.061 1318.04C678.613 1316.92 687.071 1315.99 695.622 1314.32C706.683 1312.09 717.465 1308.47 728.247 1304.93C736.24 1302.24 743.676 1298.99 750.833 1294.43C758.083 1289.79 765.798 1285.88 772.397 1280.31C781.134 1272.96 792.66 1267.2 796.099 1255.49C798.887 1245.73 777.788 1249.26 773.698 1249.82C758.176 1251.87 742.282 1256.33 727.596 1261.53C721.183 1263.76 714.212 1265.53 707.984 1268.32C699.619 1272.03 691.439 1276.5 682.888 1279.84C678.799 1281.42 675.174 1284.02 671.084 1285.51C667.459 1286.81 663.834 1288.02 660.209 1289.51C656.212 1291.18 652.122 1292.95 648.033 1294.34C638.552 1297.22 629.257 1299.73 635.02 1300.47Z" fill="url(#paint21_linear)"/>
<path fill-rule="evenodd" clip-rule="evenodd" d="M803.628 1229.38C805.208 1224.08 808.647 1221.66 812.551 1217.85C815.618 1214.88 818.499 1211.72 822.961 1211.07C826.214 1210.6 831.326 1214.41 829.932 1218.13C829.281 1220.08 826.772 1222.13 825.47 1223.89C823.797 1226.12 822.217 1228.07 819.708 1229.38C814.688 1231.98 809.855 1231.51 804.65 1230.3L803.628 1229.38Z" fill="url(#paint22_linear)"/>
<path fill-rule="evenodd" clip-rule="evenodd" d="M858.56 1101.4C854.749 1103.16 851.031 1105.86 846.941 1106.88C843.967 1107.72 840.714 1108 837.647 1108.46C828.352 1109.95 818.685 1110.6 809.297 1111.53C797.307 1112.74 785.317 1114.41 773.327 1115.34C752.134 1116.92 729.827 1118.78 709.471 1125.28C692.183 1130.86 676.103 1137.64 660.116 1146.29C646.267 1153.72 632.696 1161.81 620.427 1171.66C616.338 1175.01 612.62 1178.91 608.995 1182.72C606.578 1185.23 603.975 1187.92 602.581 1191.18C600.351 1196.2 602.395 1199.63 606.764 1202.42C613.642 1206.79 621.914 1207.16 629.722 1208.28C641.341 1209.86 652.866 1211.34 664.485 1213.11C676.289 1214.97 688.651 1216.55 700.641 1217.11C713.096 1217.66 726.016 1217.39 737.82 1212.92C746.372 1209.67 754.179 1206.51 762.173 1201.96C769.795 1197.59 777.323 1193.31 784.573 1188.3C789.685 1184.76 795.169 1181.88 799.817 1177.61C801.769 1175.75 803.813 1174.08 805.951 1172.31C809.204 1169.61 811.528 1166.08 814.781 1163.39C821.938 1157.53 828.816 1150 834.393 1142.66C838.855 1136.81 844.246 1131.79 848.614 1125.93C851.217 1122.49 853.912 1120.64 855.493 1116.36C855.957 1114.41 858.374 1106.32 858.56 1101.4Z" fill="url(#paint23_linear)"/>
<path fill-rule="evenodd" clip-rule="evenodd" d="M883.935 1084.11C886.351 1079.56 888.21 1078.16 891.742 1074.72C894.345 1072.31 897.691 1068.03 901.223 1066.92C903.175 1066.27 905.313 1066.36 906.521 1067.75C907.822 1069.15 908.38 1071.47 908.101 1073.14C907.357 1077.42 903.175 1080.76 899.643 1082.53C895.181 1084.85 892.672 1083.65 887.931 1083L883.935 1084.11Z" fill="url(#paint24_linear)"/>
<path fill-rule="evenodd" clip-rule="evenodd" d="M1045.48 932.805C1043.25 934.757 1040.83 936.523 1039.16 938.939C1036.28 943.029 1033.95 947.211 1030.79 951.114C1027.35 955.204 1024.66 959.758 1022.06 964.312C1018.71 970.074 1014.81 975.465 1011.74 981.413C1005.05 994.145 999.748 1007.53 993.706 1020.54C990.732 1027.05 988.036 1033.74 985.155 1040.34C981.995 1047.4 979.206 1054.56 977.998 1062.18C977.161 1067.66 975.767 1076.95 983.11 1077.98C992.219 1079.18 1001.42 1071.38 1008.02 1066.17C1025.49 1052.42 1040.27 1035.22 1052.17 1016.45C1063.97 997.77 1075.41 975.279 1072.53 952.509C1071.22 942.285 1071.97 931.69 1073.27 921.56C1074.66 910.686 1078.01 899.812 1078.2 888.752C1078.29 880.945 1079.59 873.231 1077.92 865.517C1077.45 863.38 1076.71 860.22 1074.57 859.012C1072.53 857.803 1071.13 859.104 1069.27 860.406C1063.7 864.495 1059.42 869.607 1056.45 875.741C1052.82 883.176 1052.63 891.354 1049.57 898.975C1048.55 901.578 1047.89 904.552 1046.59 907.061C1045.48 909.199 1044.08 911.243 1042.97 913.288C1040.92 917.099 1040.27 921.188 1039.16 925.37C1038.51 927.973 1038.04 930.296 1037.39 932.898C1036.83 934.943 1036 937.081 1035.53 939.032C1035.16 940.798 1035.81 942.75 1045.48 932.805Z" fill="url(#paint25_linear)"/>
<path fill-rule="evenodd" clip-rule="evenodd" d="M955.791 1125C953.932 1126.76 942.871 1137.45 947.147 1140.24C948.355 1140.98 951.608 1140.05 952.723 1139.68C955.233 1138.75 956.813 1136.99 958.858 1135.41C961.646 1133.27 961.832 1131.6 961.925 1128.07C961.925 1123.23 958.858 1123.42 954.861 1125H955.791Z" fill="url(#paint26_linear)"/>
<path fill-rule="evenodd" clip-rule="evenodd" d="M987.571 1093.31C989.895 1090.15 990.639 1088.76 993.892 1087.55C996.587 1086.53 998.632 1084.58 1001.51 1084.11C1005.05 1083.55 1006.63 1084.85 1006.9 1088.39C1007.37 1094.43 999.933 1102.23 996.587 1106.6C992.405 1111.99 987.85 1117.48 982.459 1121.66C974.838 1127.61 969.261 1118.03 972.142 1110.88C973.908 1106.51 974.559 1101.49 977.254 1097.59C981.53 1091.55 987.757 1091.55 994.542 1090.34L987.571 1093.31Z" fill="url(#paint27_linear)"/>
<path fill-rule="evenodd" clip-rule="evenodd" d="M398.375 435.022C391.032 439.762 388.058 443.386 385.455 451.844C384.433 455.283 383.038 462.625 385.92 465.692C390.846 470.803 404.138 465.227 408.971 463.368C418.359 459.744 427.839 454.446 437.599 452.123C456.003 447.847 476.265 446.174 492.066 434.836C500.989 428.423 508.704 419.594 514.932 410.579C518.928 404.723 524.226 399.984 524.691 392.548C525.713 377.306 504.521 376.377 494.483 378.7C473.198 383.626 452.285 390.132 432.487 399.705C420.868 405.281 406.368 412.437 398.189 422.94C396.237 425.449 394.285 429.445 393.263 432.419C392.426 434.743 390.195 441.62 398.375 435.022Z" fill="url(#paint28_linear)"/>
<path fill-rule="evenodd" clip-rule="evenodd" d="M643.171 1064.28C635.828 1069.02 632.854 1072.65 630.251 1081.1C629.229 1084.54 627.835 1091.88 630.716 1094.95C635.642 1100.06 648.934 1094.49 653.767 1092.63C663.155 1089 672.636 1083.71 682.395 1081.38C700.799 1077.11 721.062 1075.43 736.863 1064.1C745.786 1057.68 753.5 1048.85 759.728 1039.84C763.725 1033.98 769.023 1029.24 769.487 1021.81C770.51 1006.57 749.318 1005.64 739.279 1007.96C717.994 1012.89 697.081 1019.39 677.283 1028.96C665.665 1034.54 651.165 1041.7 642.985 1052.2C641.033 1054.71 639.081 1058.7 638.059 1061.68C637.223 1064 634.992 1070.88 643.171 1064.28Z" fill="url(#paint29_radial)"/>
<path fill-rule="evenodd" clip-rule="evenodd" d="M437.97 477.681C435.461 472.012 434.253 471.547 438.435 468.108C441.317 465.692 446.429 462.811 449.775 461.138C453.679 459.186 460.557 457.141 465.018 457.699C475.614 459 470.781 470.989 467.528 476.752C465.483 480.376 463.903 483.722 460.464 485.674C456.374 487.997 453.679 489.206 449.124 487.626C445.964 486.603 442.99 484.373 440.573 482.235C438.807 480.655 434.624 477.681 434.996 474.8C435.461 474.707 435.926 474.614 436.297 474.521L437.97 477.681Z" fill="url(#paint30_linear)"/>
<path fill-rule="evenodd" clip-rule="evenodd" d="M363.24 608.726C363.519 603.707 363.055 602.592 366.215 599.339C370.955 594.599 377.74 590.974 383.317 587.35C395.958 579.171 409.436 573.316 423.657 568.576C436.391 564.394 449.124 561.698 462.323 559.654C472.083 558.167 481.377 554.914 491.23 553.52C506.38 551.382 525.063 544.133 537.146 558.445C546.906 570.063 528.874 585.491 520.415 591.811C512.887 597.48 505.079 600.268 495.97 602.592C485.467 605.194 475.15 608.354 464.647 610.956C445.128 615.789 427.003 625.083 408.32 632.332C395.493 637.351 386.292 636.886 374.766 629.172C368.26 625.083 357.664 614.023 363.24 608.726Z" fill="url(#paint31_linear)"/>
<path fill-rule="evenodd" clip-rule="evenodd" d="M540.027 521.921C537.518 526.568 531.197 535.118 539.284 538.092C543.931 539.765 547.184 536.048 550.716 533.353C554.527 530.471 558.989 527.683 561.498 523.408C564.287 518.761 562.8 514.393 557.966 512.255C548.393 507.98 543.838 517.181 538.447 523.408L540.027 521.921Z" fill="url(#paint32_linear)"/>
<path fill-rule="evenodd" clip-rule="evenodd" d="M689.395 428.981C681.029 437.718 675.917 447.941 677.219 460.488C678.52 472.756 686.792 475.265 697.016 470.154C699.712 468.852 703.43 467.458 705.847 465.6C708.728 463.369 710.401 459.28 712.539 456.399C717.372 449.986 719.975 443.201 719.789 435.023C719.696 427.309 720.718 419.13 718.673 411.695C717.558 407.605 715.978 402.122 712.26 399.52C707.984 396.639 704.731 400.449 701.571 402.958C698.411 405.468 695.994 406.769 693.949 410.301C690.231 416.435 688.279 423.591 686.327 430.469L689.395 428.981Z" fill="url(#paint33_linear)"/>
<path fill-rule="evenodd" clip-rule="evenodd" d="M517.162 691.07C517.534 685.308 517.348 684.936 521.531 681.683C524.598 679.267 527.758 676.572 531.197 674.62C536.588 671.46 545.79 668.672 552.204 668.207C557.873 667.835 563.915 668.021 569.027 670.902C572.28 672.761 572.931 676.572 572.094 680.382C570.886 685.866 565.495 689.397 561.405 692.65C557.316 695.903 551.646 700.178 546.534 701.479C540.027 703.059 533.893 703.896 527.386 702.223C523.576 701.201 515.489 699.621 515.582 694.23L517.162 691.07Z" fill="url(#paint34_linear)"/>
<path fill-rule="evenodd" clip-rule="evenodd" d="M591.892 637.723C595.61 632.425 598.027 627.778 603.697 624.246C606.206 622.759 612.434 618.112 615.594 618.112C617.732 618.112 620.52 620.994 620.799 623.224C621.171 625.919 618.475 629.451 617.081 631.589C613.921 636.236 608.995 640.604 604.068 642.648C601.466 643.764 599.235 644.321 596.447 643.485C593.751 642.648 592.636 640.046 590.312 639.21L591.892 637.723Z" fill="url(#paint35_linear)"/>
<path fill-rule="evenodd" clip-rule="evenodd" d="M294.738 412.159C287.302 419.594 281.167 427.401 278.751 438.089C278.007 441.435 278.007 444.502 280.981 447.012C284.978 450.543 289.997 448.592 294.645 447.012C307.658 442.55 320.02 434.837 331.359 427.308C341.676 420.524 355.619 418.572 363.519 408.721C367.795 403.33 372.349 397.382 368.167 390.319C364.542 384.277 355.433 381.675 349.019 381.582C339.91 381.396 330.151 384.37 322.25 388.739C307.379 397.01 297.898 407.977 294.738 412.159Z" fill="url(#paint36_linear)"/>
<path fill-rule="evenodd" clip-rule="evenodd" d="M252.075 380.188C266.482 377.4 278.937 374.426 291.578 366.712C294.087 365.132 296.597 364.481 299.106 363.087C301.337 361.786 301.988 360.113 303.754 358.44C302.545 352.585 286.744 356.116 283.119 357.603C278.286 359.648 273.36 362.529 268.712 364.853C266.296 366.061 263.6 367.269 261.369 368.849C256.629 372.288 253.841 378.422 250.68 383.162L252.075 380.188Z" fill="url(#paint37_linear)"/>
<path fill-rule="evenodd" clip-rule="evenodd" d="M700.084 701.201C695.994 703.524 691.625 706.498 687.257 708.264C680.007 711.238 673.408 715.421 666.251 718.488C657.792 722.112 648.683 724.529 640.039 727.503C627.677 731.778 615.966 736.611 604.812 743.488C593.565 750.366 582.783 760.31 577.021 772.299C573.675 779.177 572.373 788.471 576.37 795.441C578.694 799.531 582.412 803.806 586.687 805.758C594.03 809.103 601.28 806.966 608.716 805.2C618.011 803.062 627.306 799.995 635.857 795.627C640.411 793.211 644.78 790.423 649.334 788.006C654.167 785.497 659.465 783.638 664.485 781.593C668.388 780.013 672.385 778.619 676.382 777.318C681.773 775.645 685.491 773.229 690.045 769.976C697.946 764.307 705.382 756.407 710.122 747.856C716.35 736.611 719.696 725.086 717.465 712.539C715.885 702.781 708.728 698.041 700.084 701.201Z" fill="url(#paint38_linear)"/>
<path fill-rule="evenodd" clip-rule="evenodd" d="M561.87 771.277C559.082 767.559 557.223 767.931 552.761 768.21C549.415 768.395 545.79 769.325 542.444 769.975C525.527 773.507 508.332 775.366 491.508 779.641C482.121 782.058 473.291 784.567 464.739 789.121C456.188 793.675 447.451 797.764 439.179 802.69C419.846 814.215 399.862 823.137 377.74 827.784C364.17 830.665 350.506 833.36 336.936 835.962C328.757 837.449 320.391 838.751 312.212 840.516C303.94 842.282 295.853 844.606 287.674 846.372C272.802 849.624 258.581 853.156 244.36 858.547C229.953 863.937 215.36 869.049 204.021 879.923C198.258 885.499 190.822 893.678 190.915 902.228C190.915 908.269 193.517 913.939 196.585 918.957C207.831 937.638 229.488 948.698 248.264 958.178C274.289 971.375 305.334 973.141 333.776 976.394C370.955 980.669 408.599 978.253 445.22 970.817C461.672 967.472 478.31 964.219 494.762 961.059C514.652 957.341 534.822 954.646 554.713 950.464C571.072 947.025 587.524 943.214 603.604 938.475C612.341 935.965 621.264 933.084 629.536 929.366C636.972 926.021 643.85 921.745 650.821 917.563C656.398 914.217 662.533 910.779 667.645 906.782C672.199 903.158 676.01 898.325 679.542 893.771C685.398 886.243 689.209 877.878 693.856 869.699C697.016 864.123 700.269 858.268 703.987 853.063C707.798 847.859 712.26 842.933 716.442 838.007C725.086 827.598 735.775 818.583 743.862 807.709C748.602 801.389 753.157 793.489 753.9 785.496C754.365 780.106 754.365 774.436 748.695 772.02C743.304 769.697 736.984 769.511 731.221 770.161C725.365 770.905 719.51 773.321 713.933 775.087C703.987 778.154 694.228 781.593 685.026 786.519C661.789 798.973 639.017 814.4 612.898 819.977C602.116 822.3 591.334 823.509 581.017 819.233C573.395 816.073 565.774 812.542 558.989 807.709C549.973 801.203 552.668 793.489 556.665 784.567C558.338 780.849 563.171 772.299 561.87 771.277Z" fill="url(#paint39_radial)"/>
<path fill-rule="evenodd" clip-rule="evenodd" d="M1033.28 614C1033.28 625.705 1031.49 637.069 1028.82 648.66C1027.75 653.774 1026.32 658.888 1025.07 664.001C1023.47 670.82 1018.3 676.956 1015.8 683.661C1011.16 695.82 1002.24 706.389 994.216 717.639C986.012 729.117 980.839 741.162 972.813 752.754C950.518 785.482 937.141 820.256 915.381 853.097C904.501 869.348 894.691 886.166 882.919 902.19C872.217 916.508 859.375 930.258 848.139 944.463C844.036 949.691 832.443 959.464 841.183 965.032C848.139 969.464 860.802 965.373 868.115 962.873C897.545 952.873 910.03 929.122 928.044 912.531C937.141 904.121 951.231 897.758 960.863 889.462C973.348 878.553 988.152 865.598 996.357 853.325C1013.48 827.869 1023.82 801.505 1038.63 775.595C1050.76 754.231 1052.72 733.435 1052.72 710.934C1052.72 701.502 1054.32 692.07 1049.86 682.979C1045.58 674.57 1042.37 660.479 1033.28 614Z" fill="url(#paint40_radial)"/>
<path fill-rule="evenodd" clip-rule="evenodd" d="M1034.32 676.851C1027.91 683.078 1014.71 698.32 1020.94 708.543C1024.38 714.119 1034.51 711.703 1038.04 706.87C1041.11 702.781 1040.37 695.903 1040.46 691.07C1040.46 688.468 1041.3 684.472 1040.27 682.055C1039.34 679.825 1036.93 679.36 1036.37 676.851H1034.32Z" fill="url(#paint41_linear)"/>
<path fill-rule="evenodd" clip-rule="evenodd" d="M782.98 897C774.057 901.833 767.365 907.409 759.185 913.264C752.028 918.376 744.221 922.094 736.32 925.904C715.964 935.756 695.051 941.89 672.837 945.793C644.58 950.719 615.767 954.437 588.44 963.452C567.713 970.329 547.078 977.578 526.444 984.921C507.018 991.798 484.989 996.724 467.701 1008.34C463.425 1011.22 457.755 1015.59 459.242 1021.35C461.659 1030.46 480.527 1030.93 487.22 1031.2C507.482 1032.04 527.931 1031.11 548.194 1031.11C557.86 1031.11 567.62 1030.55 577.286 1031.58C589.927 1032.88 600.802 1032.78 613.536 1031.58C628.686 1030.18 644.581 1030.55 659.173 1025.81C687.43 1016.8 715.221 1006.2 742.826 995.33C767.551 985.571 803.428 965.403 801.198 934.548C800.268 921.35 791.996 902.762 782.98 897Z" fill="url(#paint42_linear)"/>
<path fill-rule="evenodd" clip-rule="evenodd" d="M950.95 995.726C946.86 987.175 945.745 985.038 950.206 977.231C952.995 972.305 961.453 964.963 967.774 964.963C980.322 964.963 980.786 979.368 977.905 988.105C975.488 995.726 972.142 1007.44 963.126 1007.9C959.315 1008.09 958.014 1007.62 955.133 1005.39C952.158 1003.16 948.069 996.19 944.908 995.633H950.95V995.726Z" fill="url(#paint43_radial)"/>
<path fill-rule="evenodd" clip-rule="evenodd" d="M65.1565 1020.17C62.9257 1029.74 61.5315 1038.48 66.1789 1047.68C72.6852 1060.5 86.8133 1069.06 100.105 1073.24C108.47 1075.84 116.836 1076.77 125.573 1077.14C135.146 1077.61 144.72 1079.09 154.386 1079.28C169.165 1079.56 182.643 1080.49 197.328 1082.72C205.229 1083.93 212.851 1086.16 220.751 1087.18C227.072 1087.92 232.742 1088.76 238.969 1090.15C251.796 1093.13 264.53 1093.22 277.542 1095.08C290.927 1096.94 305.427 1096.1 318.811 1094.06C330.616 1092.29 343.164 1090.71 348.833 1079.28C353.295 1070.26 350.042 1065.43 342.141 1059.3C335.17 1053.81 323.366 1051.49 315.186 1048.79C302.638 1044.61 290.09 1040.8 277.171 1037.64C259.139 1033.27 241.85 1026.86 224.004 1021.56C187.383 1010.78 152.342 995.726 114.047 992.287C98.2459 990.8 79.4704 990.614 64.8776 997.771C59.8584 1000.19 56.8841 1004.65 54.7463 1009.57C51.3072 1017.1 55.1181 1021.66 65.1565 1020.17Z" fill="url(#paint44_linear)"/>
<path fill-rule="evenodd" clip-rule="evenodd" d="M63.1116 953.067C65.2494 959.758 64.7846 961.803 71.0121 963.755C75.1018 964.963 79.3775 966.171 83.5601 964.963C88.7652 963.476 94.9927 959.573 95.7363 954.089C96.4799 947.955 91.0889 943.494 86.1627 940.799C76.1243 935.408 68.1308 935.873 63.1116 947.026V953.067V953.067Z" fill="url(#paint45_linear)"/>
<path fill-rule="evenodd" clip-rule="evenodd" d="M491.787 504.076C491.694 499.894 492.159 497.384 494.018 493.574C496.156 489.113 498.201 484.466 500.989 480.469C502.941 477.588 504.149 474.521 506.008 471.64C508.611 467.551 511.214 463.74 513.444 459.372C516.326 453.703 520.601 449.056 524.598 444.223C527.386 440.784 529.617 438.089 531.662 434C533.242 430.933 535.659 428.609 537.332 425.635C539.47 421.917 540.864 417.549 542.816 413.646C544.954 409.371 546.998 405.374 549.601 401.471C551.367 398.776 553.133 395.523 555.736 393.478C557.502 392.084 559.825 389.296 561.777 388.459C566.61 386.322 569.213 387.995 571.723 392.549C575.719 399.798 577.299 410.114 576.928 418.293C576.463 427.401 574.883 436.695 571.908 445.338C569.771 451.472 566.239 457.141 563.078 462.718C557.13 473.313 549.88 483.072 542.909 492.923C538.819 498.778 531.755 503.611 526.178 508.072C522.46 510.953 518.742 512.812 514.374 514.299C511.957 515.136 508.611 516.716 506.008 516.251C503.592 515.786 501.082 514.113 498.851 513.37C492.903 511.139 490.207 506.121 491.787 504.076Z" fill="url(#paint46_linear)"/>
<path fill-rule="evenodd" clip-rule="evenodd" d="M469.48 512.255C465.948 514.021 462.323 515.322 460.743 519.132C460.371 520.155 459.627 522.385 460.371 523.501C463.066 527.59 472.826 522.107 475.057 519.876C477.287 517.645 479.704 513.649 477.566 510.768C475.707 508.259 471.711 507.887 469.387 510.21V512.255H469.48Z" fill="url(#paint47_linear)"/>
<path fill-rule="evenodd" clip-rule="evenodd" d="M649.241 366.991C647.289 368.199 644.315 369.314 642.828 371.266C641.805 372.567 641.434 374.891 640.876 376.378C638.552 382.791 636.879 389.482 636.136 396.36C635.485 403.051 635.206 414.948 643.107 417.643C658.35 422.94 680.565 411.974 681.773 394.966C682.517 385.3 677.219 376.285 671.549 368.943C668.76 365.318 665.507 361.136 661.882 358.348C659.465 356.489 655.841 355.188 652.773 355.838C647.568 356.861 643.478 362.065 649.241 366.991Z" fill="url(#paint48_linear)"/>
<path fill-rule="evenodd" clip-rule="evenodd" d="M646.174 450.264C646.081 446.919 645.988 446.175 648.405 443.944C649.706 442.736 651.565 440.785 653.331 440.227C656.956 439.019 659.28 441.714 659.465 445.153C659.558 447.755 659.744 452.96 657.328 454.818C655.097 456.491 645.523 455.004 646.174 451.287V450.264V450.264Z" fill="url(#paint49_linear)"/>
<path fill-rule="evenodd" clip-rule="evenodd" d="M756.968 381.211C755.388 387.531 755.666 394.036 754.458 400.542C752.506 410.951 751.298 422.104 750.926 432.699C750.74 438.275 750.926 443.759 750.647 449.335C750.275 456.213 749.253 462.904 749.997 469.782C750.926 478.611 751.855 487.812 757.711 494.876C761.894 499.894 767.657 498.035 773.234 495.991C777.695 494.318 781.599 490.786 785.503 488.184C788.57 486.139 791.451 484.002 794.147 481.399C806.23 470.154 817.198 457.7 822.031 441.435C825.563 429.632 829.002 416.249 826.121 403.888C824.169 395.802 821.381 389.018 815.897 382.698C811.807 377.958 807.067 374.984 801.583 372.01C797.121 369.593 792.288 369.407 787.362 368.292C783.179 367.363 779.461 366.991 775.185 366.991C771.468 366.991 767.471 367.363 763.753 368.106C756.131 369.593 754.179 380.188 756.968 381.211Z" fill="url(#paint50_linear)"/>
<path fill-rule="evenodd" clip-rule="evenodd" d="M769.144 513.277C770.538 508.909 773.698 504.262 778.903 506.678C782.528 508.351 784.759 513.091 782.9 516.809C781.506 519.597 777.974 521.084 774.999 520.155C773.233 519.597 771.189 517.738 770.073 516.251C768.214 513.835 769.701 511.883 770.166 509.095L769.144 513.277Z" fill="url(#paint51_linear)"/>
<path fill-rule="evenodd" clip-rule="evenodd" d="M783.365 621.923C779.275 622.295 775.371 623.131 771.56 624.432C771.189 625.362 770.724 626.105 770.073 626.849C769.237 627.964 766.82 629.358 767.192 630.845C772.304 633.076 779.647 629.544 784.015 627.128C786.153 625.919 788.756 624.618 790.522 622.852C791.358 622.016 793.496 620.064 793.961 619.135C795.634 616.161 794.054 614.674 790.987 614.674C787.733 614.674 780.576 616.997 780.298 620.808L783.365 621.923Z" fill="url(#paint52_radial)"/>
<path fill-rule="evenodd" clip-rule="evenodd" d="M951.972 604.73C952.065 609.191 951.322 610.585 949.742 614.674C948.254 618.299 946.303 622.667 946.86 626.663C948.254 636.236 961.546 634.377 968.331 633.448C976.232 632.425 983.853 630.753 989.709 624.99C994.357 620.529 996.587 617.09 997.517 610.585C998.911 600.454 1001.23 583.168 986.27 583.353C979.671 583.446 974.466 586.235 968.982 589.673C965.171 592.09 962.847 595.157 959.966 598.503C956.434 602.592 952.623 606.031 951.972 604.73Z" fill="url(#paint53_radial)"/>
<path fill-rule="evenodd" clip-rule="evenodd" d="M837.754 1219.47C842.627 1203.6 850.3 1190.02 864.919 1181.11C868.341 1179.03 871.244 1176.23 875.288 1178.41C878.606 1180.17 877.983 1184.01 876.947 1187.33C875.599 1191.68 871.555 1197.69 868.548 1201.32C865.23 1205.16 861.394 1208.89 857.765 1212.31C855.691 1214.28 852.685 1216.87 849.885 1217.39C846.982 1217.7 843.768 1217.18 837.754 1219.47Z" fill="url(#paint54_radial)"/>
<path fill-rule="evenodd" clip-rule="evenodd" d="M360.097 1046.78C360.375 1041.29 363.536 1038.78 367.811 1035.16C376.92 1027.54 388.91 1022.33 400.064 1018.8C410.01 1015.64 421.907 1013.5 432.224 1016.29C436.872 1017.59 442.634 1019.82 444.586 1024.56C447.932 1032.74 439.195 1044.73 432.689 1049.19C424.509 1054.86 412.612 1056.53 403.317 1059.42C394.952 1061.92 385.007 1062.85 376.362 1061.65C373.202 1061.18 369.763 1061.09 366.789 1059.88C364 1058.76 360.747 1058.67 358.052 1057.18C355.542 1055.88 352.196 1053.75 352.01 1050.68C351.917 1049.1 352.475 1046.87 353.218 1045.47C354.799 1043.15 358.145 1042.78 360.097 1046.78Z" fill="url(#paint55_radial)"/>
<path fill-rule="evenodd" clip-rule="evenodd" d="M937.287 568.019C933.94 570.249 927.713 573.409 928.735 578.428C929.2 580.752 930.594 582.703 931.338 585.027C931.988 586.979 932.36 589.023 932.546 591.161C932.825 593.949 934.312 598.317 936.264 600.455C937.751 602.128 939.424 600.362 940.447 598.875C941.562 597.202 942.771 595.436 942.863 593.391C942.956 590.696 943.142 588.094 943.793 585.492C944.072 584.469 944.815 583.633 945.094 582.517C945.373 581.123 945.28 579.636 945.28 578.149C945.094 574.989 942.77 569.134 937.287 568.019Z" fill="url(#paint56_linear)"/>
<circle cx="1597.5" cy="266.5" r="266.5" fill="url(#paint57_radial)"/>
<path opacity="0.88" fill-rule="evenodd" clip-rule="evenodd" d="M1851.73 346.669C1812.9 445.799 1716.4 516 1603.5 516C1456.32 516 1337 396.684 1337 249.5C1337 221.565 1341.3 194.634 1349.27 169.331C1337.48 199.438 1331 232.213 1331 266.5C1331 413.684 1450.32 533 1597.5 533C1716.75 533 1817.7 454.678 1851.73 346.669Z" fill="url(#paint58_radial)"/>
<path fill-rule="evenodd" clip-rule="evenodd" d="M1411.38 130.41L1412.6 109.111C1412.6 109.111 1483.14 49.3876 1584.46 35L1598.46 49.9527L1608.02 65.0792C1608.02 65.0792 1521.52 110.98 1465.71 185.657L1472.28 191.525L1532.78 157.403L1592.24 168.27L1591.16 185.657C1591.16 185.657 1520 270.765 1439.81 328.532L1382.95 328.532L1363.74 202.696L1360 177.919L1394.47 137.669L1411.38 130.41Z" fill="url(#paint59_linear)"/>
<path fill-rule="evenodd" clip-rule="evenodd" d="M1761.55 93.9851C1761.55 93.9851 1708.82 104.765 1645.4 166.445L1621.06 175.66C1621.06 175.66 1737.99 203.783 1778.98 223.777L1771.98 243.555L1810.49 279.763C1810.49 279.763 1790.67 351.397 1746.86 404.252L1754.9 417.684C1754.9 417.684 1815.66 406.556 1844.57 383.214L1861.96 308.147L1851.52 303.539C1851.57 303.583 1845.53 145.102 1761.55 93.9851Z" fill="url(#paint60_radial)"/>
<path fill-rule="evenodd" clip-rule="evenodd" d="M1522.05 481.536L1563.95 443.503L1676.27 449.849L1665.31 477.798L1685 483.449C1685 483.449 1651.84 522.569 1535.65 511.094L1522.05 481.536Z" fill="url(#paint61_linear)"/>
<path fill-rule="evenodd" clip-rule="evenodd" d="M1471.49 500.835L1471.49 516.31L1526.44 539.217L1568.34 531.653C1568.34 531.61 1506.44 523.221 1471.49 500.835Z" fill="url(#paint62_radial)"/>
<path fill-rule="evenodd" clip-rule="evenodd" d="M1655.71 524.09L1673.14 500.835L1720.34 465.062L1757.59 467.627L1776.02 486.317C1776.02 486.317 1744.68 532.175 1674.96 560.646L1655.71 524.09Z" fill="url(#paint63_radial)"/>
<path fill-rule="evenodd" clip-rule="evenodd" d="M1660.66 130.975C1660.66 130.975 1683.31 70.2517 1700.17 49.9526C1700.17 49.9526 1735.9 49.6483 1753.68 75.2069L1733.12 95.2887C1733.16 95.3321 1704.3 96.81 1660.66 130.975Z" fill="url(#paint64_linear)"/>
<path fill-rule="evenodd" clip-rule="evenodd" d="M1584.46 35C1584.46 35 1489.18 111.198 1453.5 181.745L1416.59 230.862L1532.78 157.403L1592.24 168.27C1592.24 168.27 1492.05 275.285 1424.2 318.97L1382.95 328.532L1360 177.919L1397.51 137.408L1402.68 185.657L1412.6 124.629L1412.6 109.111C1412.6 109.111 1483.19 46.6492 1584.46 35Z" fill="url(#paint65_linear)"/>
<path fill-rule="evenodd" clip-rule="evenodd" d="M1674.96 560.69L1716.82 498.575L1776.07 486.361C1776.07 486.361 1749.29 531.914 1674.96 560.69Z" fill="url(#paint66_linear)"/>
<path fill-rule="evenodd" clip-rule="evenodd" d="M1760.29 416.641L1835.05 324.751L1862 308.147L1844.61 383.214C1844.61 383.258 1815.62 411.294 1760.29 416.641Z" fill="url(#paint67_linear)"/>
<path fill-rule="evenodd" clip-rule="evenodd" d="M1716.82 442.547L1765.68 420.335L1780.67 430.506L1760.29 453.413L1715.86 458.89L1716.82 442.547Z" fill="url(#paint68_linear)"/>
<path fill-rule="evenodd" clip-rule="evenodd" d="M1780.67 430.506L1730.64 446.85L1715.86 458.89L1760.29 453.413L1780.67 430.506Z" fill="url(#paint69_linear)"/>
<path fill-rule="evenodd" clip-rule="evenodd" d="M1465.71 185.657L1416.59 230.862L1453.5 181.745C1453.5 181.745 1515.26 79.8145 1584.46 35L1624.8 63.2536C1624.84 63.2536 1518.26 116.805 1465.71 185.657Z" fill="#1C0843"/>
<path fill-rule="evenodd" clip-rule="evenodd" d="M1592.24 168.269L1591.51 179.875L1609.98 181.744C1609.98 181.744 1525.91 280.023 1446.37 329.315L1439.81 328.489L1592.24 168.269Z" fill="url(#paint70_radial)"/>
<path fill-rule="evenodd" clip-rule="evenodd" d="M1660.66 130.975L1739.6 100.114L1733.16 95.2888L1753.72 75.2071C1753.72 75.2506 1706.78 76.2068 1660.66 130.975Z" fill="#1C0843"/>
<path fill-rule="evenodd" clip-rule="evenodd" d="M1779.02 223.821L1815.14 185.657L1731.08 191.525L1630.19 177.92L1776.07 230.862L1779.02 223.821Z" fill="#1C0843"/>
<path fill-rule="evenodd" clip-rule="evenodd" d="M1589.35 304.952L1683.94 239.273L1779.43 254.66L1779.43 287.782L1697.15 333.466L1589.35 304.952Z" fill="url(#paint71_radial)"/>
<path fill-rule="evenodd" clip-rule="evenodd" d="M1496.41 319.062L1512.23 310.325L1552.61 314.671L1548.18 331.493L1521.97 336.101L1496.41 319.062Z" fill="url(#paint72_linear)"/>
<path fill-rule="evenodd" clip-rule="evenodd" d="M1589.35 304.952L1649.86 309.429L1707.89 244.837L1683.94 239.273L1589.35 304.952Z" fill="url(#paint73_linear)"/>
<path opacity="0.88" fill-rule="evenodd" clip-rule="evenodd" d="M1496.41 319.062L1516.14 327.972L1532.05 319.062L1552.61 314.671L1512.23 310.325L1496.41 319.062Z" fill="url(#paint74_linear)"/>
<path fill-rule="evenodd" clip-rule="evenodd" d="M1649.86 309.429L1697.54 323.469L1779.43 287.782L1714.63 344.724L1589.35 304.952L1649.86 309.429Z" fill="url(#paint75_radial)"/>
<path fill-rule="evenodd" clip-rule="evenodd" d="M1521.97 336.101L1516.14 327.972L1532.05 319.062L1552.61 314.671L1561 336.101L1521.97 336.101Z" fill="#1C0843"/>
<path fill-rule="evenodd" clip-rule="evenodd" d="M1847.53 264.68L1822.18 294.237L1800.76 329.359L1847.53 294.237L1847.53 264.68Z" fill="url(#paint76_linear)"/>
<path fill-rule="evenodd" clip-rule="evenodd" d="M1679.66 483.144L1665.36 477.798L1676.31 449.849L1569.77 451.935L1528.78 486.187L1535.74 511.05C1535.74 511.05 1577.42 523.612 1616.41 517.788C1655.36 512.007 1679.66 483.144 1679.66 483.144Z" fill="url(#paint77_radial)"/>
<path opacity="0.88" fill-rule="evenodd" clip-rule="evenodd" d="M1563.99 443.503L1569.77 451.979L1528.78 486.231L1522.05 481.536L1563.99 443.503Z" fill="url(#paint78_linear)"/>
<path fill-rule="evenodd" clip-rule="evenodd" d="M1772.02 243.598L1832.36 264.81L1810.54 279.806L1772.02 243.598Z" fill="#1C0843"/>
<path opacity="0.4" d="M1383.21 306.929L1382.73 305.973C1383.73 305.451 1483.62 255.377 1516.79 230.471C1547.13 207.694 1558.43 188.96 1560.17 185.873L1536.17 171.703L1372.13 256.333L1371.65 255.377L1536.22 170.443L1561.6 185.439L1561.38 185.873C1561.3 186.091 1550.73 206.259 1517.44 231.296C1484.14 256.29 1384.21 306.407 1383.21 306.929Z" fill="#00ADFF"/>
<path d="M1378.43 297.801L1377.95 296.845L1444.98 262.202L1503.4 207.39L1497.4 203.347L1373.17 263.158L1372.69 262.202L1497.49 202.087L1505.18 207.259L1504.66 207.737L1445.54 263.158L1378.43 297.801Z" fill="#00ADFF" fill-opacity="0.4"/>
<path d="M1370.65 242.468L1369.87 241.729L1468.06 129.063L1560.51 38.8687L1561.25 39.6511L1468.84 129.802L1370.65 242.468Z" fill="#00ADFF"/>
<path d="M1366 230.427L1394.21 140.581L1395.25 140.929L1369.08 224.255L1423.72 147.753L1503.88 56.342L1504.7 57.081L1424.59 148.405L1366 230.427Z" fill="#00ADFF"/>
<path d="M1824.1 176.181L1750.25 174.312L1669.01 160.011L1669.01 153.187L1669.31 153.013L1739.25 113.154L1780.59 108.025L1780.72 109.111L1739.47 114.197L1670.09 153.795L1670.09 159.098L1750.38 173.225L1824.14 175.094L1824.1 176.181Z" fill="url(#paint79_linear)"/>
<path d="M1753.72 163.662L1706.65 157.881L1706.65 152.969L1706.82 152.795L1744.03 121.934L1790.58 118.413L1790.67 119.5L1744.47 122.977L1707.74 153.491L1707.74 156.925L1753.77 162.575L1817.97 161.184L1818.01 162.271L1753.72 163.662Z" fill="#00ADFF"/>
<path d="M1844.48 254.03L1817.62 246.728L1817.49 246.51L1807.32 222.647L1830.53 193.654L1831.36 194.35L1808.58 222.821L1818.4 245.815L1844.79 252.987L1844.48 254.03Z" fill="#00ADFF"/>
<path d="M1844.44 248.031L1830.49 242.511L1830.4 242.25L1825.71 227.254L1825.84 227.08L1835.7 210.78L1836.66 211.345L1826.88 227.428L1831.36 241.685L1844.83 247.032L1844.44 248.031Z" fill="#00ADFF"/>
<path d="M1589.44 305.473L1589.22 304.43L1671.9 285.826L1779.26 254.139L1779.57 255.182L1672.16 286.87L1589.44 305.473Z" fill="#00ADFF"/>
<path d="M1697.59 333.857L1696.76 333.118L1717.02 311.254L1779.13 271.265L1779.7 272.177L1717.67 312.124L1697.59 333.857Z" fill="#00ADFF"/>
<path d="M1530.87 485.057L1530.74 483.97L1667.96 470.408L1668.09 471.495L1530.87 485.057Z" fill="#00ADFF"/>
<path d="M1674.96 453.804L1584.46 452.196L1584.46 451.109L1674.96 452.718L1674.96 453.804Z" fill="#00ADFF"/>
<path fill-rule="evenodd" clip-rule="evenodd" d="M1372.04 391.081L1372.04 420.943L1389.91 442.503C1389.91 442.503 1434.55 460.628 1468.45 458.846L1455.15 432.722L1461.89 420.943L1372.04 391.081Z" fill="url(#paint80_linear)"/>
<path fill-rule="evenodd" clip-rule="evenodd" d="M1367.52 367.218L1384.34 376.65L1429.37 376.65L1438.59 360.698L1376.78 353.787L1367.52 367.218Z" fill="url(#paint81_linear)"/>
<path fill-rule="evenodd" clip-rule="evenodd" d="M1367.52 367.218L1389.95 370.782L1430.46 367.218L1438.59 360.698L1376.78 353.787L1367.52 367.218Z" fill="url(#paint82_linear)"/>
<path fill-rule="evenodd" clip-rule="evenodd" d="M1372.04 391.081L1372.04 420.943L1398.29 437.026L1438.59 430.506L1461.93 420.943L1372.04 391.081Z" fill="url(#paint83_linear)"/>
<path fill-rule="evenodd" clip-rule="evenodd" d="M1438.59 360.698L1430.46 367.218L1384.34 376.65L1435.2 381.084L1438.59 360.698Z" fill="#1C0843"/>
<path fill-rule="evenodd" clip-rule="evenodd" d="M1455.19 432.766L1424.2 443.503L1468.45 458.89L1461.93 432.766L1461.93 420.943L1455.19 432.766Z" fill="#1C0843"/>
<defs>
<radialGradient id="paint0_radial" cx="0" cy="0" r="1" gradientUnits="userSpaceOnUse" gradientTransform="translate(1080 556.5) rotate(-132.683) scale(244.859 159.153)">
<stop stop-color="#FF6157"/>
<stop offset="0.297506" stop-color="#C71E9D"/>
<stop offset="0.619479" stop-color="#6F09BF"/>
<stop offset="1" stop-color="#4C0167"/>
</radialGradient>
<linearGradient id="paint1_linear" x1="1009.97" y1="345.279" x2="1033.71" y2="408.517" gradientUnits="userSpaceOnUse">
<stop stop-color="#4122FF"/>
<stop offset="1" stop-color="#18D1BB"/>
</linearGradient>
<linearGradient id="paint2_linear" x1="1015.77" y1="427.24" x2="1045.59" y2="500.371" gradientUnits="userSpaceOnUse">
<stop stop-color="#4122FF"/>
<stop offset="1" stop-color="#18D1BB"/>
</linearGradient>
<linearGradient id="paint3_linear" x1="1026.92" y1="496.203" x2="1043.87" y2="548.027" gradientUnits="userSpaceOnUse">
<stop stop-color="#4122FF"/>
<stop offset="1" stop-color="#18D1BB"/>
</linearGradient>
<linearGradient id="paint4_linear" x1="1026.74" y1="516.488" x2="1042.76" y2="564.045" gradientUnits="userSpaceOnUse">
<stop stop-color="#4122FF"/>
<stop offset="1" stop-color="#18D1BB"/>
</linearGradient>
<radialGradient id="paint5_radial" cx="0" cy="0" r="1" gradientUnits="userSpaceOnUse" gradientTransform="translate(1080 556.5) rotate(-132.683) scale(244.859 159.153)">
<stop stop-color="#FF6157"/>
<stop offset="0.297506" stop-color="#C71E9D"/>
<stop offset="0.619479" stop-color="#6F09BF"/>
<stop offset="1" stop-color="#4C0167"/>
</radialGradient>
<linearGradient id="paint6_linear" x1="1009.97" y1="345.279" x2="1033.71" y2="408.517" gradientUnits="userSpaceOnUse">
<stop stop-color="#4122FF"/>
<stop offset="1" stop-color="#18D1BB"/>
</linearGradient>
<linearGradient id="paint7_linear" x1="1015.77" y1="427.24" x2="1045.59" y2="500.371" gradientUnits="userSpaceOnUse">
<stop stop-color="#4122FF"/>
<stop offset="1" stop-color="#18D1BB"/>
</linearGradient>
<linearGradient id="paint8_linear" x1="1026.92" y1="496.203" x2="1043.87" y2="548.027" gradientUnits="userSpaceOnUse">
<stop stop-color="#4122FF"/>
<stop offset="1" stop-color="#18D1BB"/>
</linearGradient>
<linearGradient id="paint9_linear" x1="1026.74" y1="516.488" x2="1042.76" y2="564.045" gradientUnits="userSpaceOnUse">
<stop stop-color="#4122FF"/>
<stop offset="1" stop-color="#18D1BB"/>
</linearGradient>
<radialGradient id="paint10_radial" cx="0" cy="0" r="1" gradientUnits="userSpaceOnUse" gradientTransform="translate(978.847 909.269) rotate(-132.683) scale(627.652 407.959)">
<stop stop-color="#FF6157"/>
<stop offset="0.297506" stop-color="#C71E9D"/>
<stop offset="0.619479" stop-color="#6F09BF"/>
<stop offset="1" stop-color="#4C0167"/>
</radialGradient>
<radialGradient id="paint11_radial" cx="0" cy="0" r="1" gradientUnits="userSpaceOnUse" gradientTransform="translate(1183.5 1203) rotate(-124.84) scale(1112.4 1073.24)">
<stop stop-color="#00F0FF"/>
<stop offset="0.427083" stop-color="#AA00D5"/>
<stop offset="1" stop-color="#16064C"/>
</radialGradient>
<radialGradient id="paint12_radial" cx="0" cy="0" r="1" gradientUnits="userSpaceOnUse" gradientTransform="translate(974.5 1166.5) rotate(-119.431) scale(1006.37 3646.86)">
<stop stop-color="#FF50A4"/>
<stop offset="0.510191" stop-color="#7000FF"/>
<stop offset="1" stop-color="#47007E" stop-opacity="0"/>
</radialGradient>
<linearGradient id="paint13_linear" x1="893" y1="1149" x2="642.5" y2="701" gradientUnits="userSpaceOnUse">
<stop stop-color="#BC187A"/>
<stop offset="0.760117" stop-color="#23006D"/>
</linearGradient>
<radialGradient id="paint14_radial" cx="0" cy="0" r="1" gradientUnits="userSpaceOnUse" gradientTransform="translate(713.491 703.467) rotate(-110.573) scale(425.681 686.052)">
<stop stop-color="#7A0676"/>
<stop offset="1" stop-color="#0A0049"/>
</radialGradient>
<radialGradient id="paint15_radial" cx="0" cy="0" r="1" gradientUnits="userSpaceOnUse" gradientTransform="translate(507 668.5) rotate(-128.949) scale(355.534 1285.72)">
<stop stop-color="#23006D"/>
<stop offset="1" stop-color="#920EE2"/>
</radialGradient>
<linearGradient id="paint16_linear" x1="660.53" y1="815.398" x2="400.744" y2="360.921" gradientUnits="userSpaceOnUse">
<stop stop-color="#BC187A"/>
<stop offset="1" stop-color="#23006D"/>
</linearGradient>
<linearGradient id="paint17_linear" x1="895.276" y1="690.252" x2="759.934" y2="571.203" gradientUnits="userSpaceOnUse">
<stop stop-color="#BC187A"/>
<stop offset="1" stop-color="#23006D"/>
</linearGradient>
<linearGradient id="paint18_linear" x1="903.048" y1="543.542" x2="875.42" y2="532.293" gradientUnits="userSpaceOnUse">
<stop stop-color="#BC187A"/>
<stop offset="1" stop-color="#23006D"/>
</linearGradient>
<linearGradient id="paint19_linear" x1="463.699" y1="741.306" x2="442.244" y2="711.142" gradientUnits="userSpaceOnUse">
<stop stop-color="#BC187A"/>
<stop offset="1" stop-color="#23006D"/>
</linearGradient>
<linearGradient id="paint20_linear" x1="372.556" y1="1168.45" x2="335.981" y2="1059.83" gradientUnits="userSpaceOnUse">
<stop stop-color="#BC187A"/>
<stop offset="1" stop-color="#23006D"/>
</linearGradient>
<linearGradient id="paint21_linear" x1="700.398" y1="1248.74" x2="700.398" y2="1324.33" gradientUnits="userSpaceOnUse">
<stop stop-color="#4737FF"/>
<stop offset="1" stop-color="#430238"/>
</linearGradient>
<linearGradient id="paint22_linear" x1="816.897" y1="1211.03" x2="816.897" y2="1231.27" gradientUnits="userSpaceOnUse">
<stop stop-color="#4737FF"/>
<stop offset="1" stop-color="#430238"/>
</linearGradient>
<linearGradient id="paint23_linear" x1="748" y1="1092.5" x2="802.5" y2="1190.5" gradientUnits="userSpaceOnUse">
<stop stop-color="#4122FF"/>
<stop offset="1" stop-color="#D11866"/>
</linearGradient>
<linearGradient id="paint24_linear" x1="896.053" y1="1066.53" x2="896.053" y2="1084.11" gradientUnits="userSpaceOnUse">
<stop stop-color="#4122FF"/>
<stop offset="1" stop-color="#D11866"/>
</linearGradient>
<linearGradient id="paint25_linear" x1="1028.04" y1="858.532" x2="1028.04" y2="1078.1" gradientUnits="userSpaceOnUse">
<stop stop-color="#4122FF"/>
<stop offset="1" stop-color="#D11866"/>
</linearGradient>
<linearGradient id="paint26_linear" x1="954.048" y1="1124" x2="954.048" y2="1140.52" gradientUnits="userSpaceOnUse">
<stop stop-color="#4122FF"/>
<stop offset="1" stop-color="#D11866"/>
</linearGradient>
<linearGradient id="paint27_linear" x1="989.148" y1="1083.99" x2="989.148" y2="1123.52" gradientUnits="userSpaceOnUse">
<stop stop-color="#4122FF"/>
<stop offset="1" stop-color="#D11866"/>
</linearGradient>
<linearGradient id="paint28_linear" x1="525" y1="468" x2="414.565" y2="349.512" gradientUnits="userSpaceOnUse">
<stop stop-color="#BC187A"/>
<stop offset="1" stop-color="#23006D"/>
</linearGradient>
<radialGradient id="paint29_radial" cx="0" cy="0" r="1" gradientUnits="userSpaceOnUse" gradientTransform="translate(728.472 1086.05) rotate(-130.074) scale(80.9525 294.987)">
<stop stop-color="#F047AD"/>
<stop offset="0.447917" stop-color="#9723CD"/>
<stop offset="1" stop-color="#23006D"/>
</radialGradient>
<linearGradient id="paint30_linear" x1="471.573" y1="488.411" x2="434.546" y2="458.152" gradientUnits="userSpaceOnUse">
<stop stop-color="#BC187A"/>
<stop offset="1" stop-color="#23006D"/>
</linearGradient>
<linearGradient id="paint31_linear" x1="540.313" y1="635.819" x2="441.15" y2="494.2" gradientUnits="userSpaceOnUse">
<stop stop-color="#BC187A"/>
<stop offset="1" stop-color="#23006D"/>
</linearGradient>
<linearGradient id="paint32_linear" x1="562.95" y1="538.572" x2="531.457" y2="516.723" gradientUnits="userSpaceOnUse">
<stop stop-color="#BC187A"/>
<stop offset="1" stop-color="#23006D"/>
</linearGradient>
<linearGradient id="paint33_linear" x1="720.047" y1="472.818" x2="657.379" y2="447.865" gradientUnits="userSpaceOnUse">
<stop stop-color="#BC187A"/>
<stop offset="1" stop-color="#23006D"/>
</linearGradient>
<linearGradient id="paint34_linear" x1="572.536" y1="703.22" x2="529.669" y2="655.45" gradientUnits="userSpaceOnUse">
<stop stop-color="#BC187A"/>
<stop offset="1" stop-color="#23006D"/>
</linearGradient>
<linearGradient id="paint35_linear" x1="620.893" y1="643.946" x2="589.864" y2="618.682" gradientUnits="userSpaceOnUse">
<stop stop-color="#BC187A"/>
<stop offset="1" stop-color="#23006D"/>
</linearGradient>
<linearGradient id="paint36_linear" x1="370.001" y1="449.147" x2="287.318" y2="372.002" gradientUnits="userSpaceOnUse">
<stop stop-color="#BC187A"/>
<stop offset="1" stop-color="#23006D"/>
</linearGradient>
<linearGradient id="paint37_linear" x1="277.217" y1="355.183" x2="277.217" y2="383.162" gradientUnits="userSpaceOnUse">
<stop stop-color="#4737FF"/>
<stop offset="1" stop-color="#430238"/>
</linearGradient>
<linearGradient id="paint38_linear" x1="718.438" y1="807.762" x2="586.947" y2="686.193" gradientUnits="userSpaceOnUse">
<stop stop-color="#BC187A"/>
<stop offset="1" stop-color="#23006D"/>
</linearGradient>
<radialGradient id="paint39_radial" cx="0" cy="0" r="1" gradientUnits="userSpaceOnUse" gradientTransform="translate(178.779 822.373) rotate(7.5038) scale(507.141 330.547)">
<stop stop-color="#30B1FF"/>
<stop offset="1" stop-color="#6700CD"/>
</radialGradient>
<radialGradient id="paint40_radial" cx="0" cy="0" r="1" gradientUnits="userSpaceOnUse" gradientTransform="translate(860 967) rotate(-59.3391) scale(356.894 311.628)">
<stop stop-color="#F047AD"/>
<stop offset="0.475886" stop-color="#9723CD"/>
<stop offset="1" stop-color="#23006D"/>
</radialGradient>
<linearGradient id="paint41_linear" x1="1040.82" y1="711.835" x2="1010.03" y2="698.814" gradientUnits="userSpaceOnUse">
<stop stop-color="#BC187A"/>
<stop offset="1" stop-color="#23006D"/>
</linearGradient>
<linearGradient id="paint42_linear" x1="653.98" y1="886.599" x2="713.094" y2="1007.76" gradientUnits="userSpaceOnUse">
<stop stop-color="#4122FF"/>
<stop offset="1" stop-color="#D11866"/>
</linearGradient>
<radialGradient id="paint43_radial" cx="0" cy="0" r="1" gradientUnits="userSpaceOnUse" gradientTransform="translate(963.493 1007.97) rotate(-113.237) scale(46.8026 83.1186)">
<stop stop-color="#7A0676"/>
<stop offset="1" stop-color="#1205A3"/>
</radialGradient>
<linearGradient id="paint44_linear" x1="351.428" y1="1096.35" x2="247.061" y2="892.461" gradientUnits="userSpaceOnUse">
<stop stop-color="#BC187A"/>
<stop offset="1" stop-color="#23006D"/>
</linearGradient>
<linearGradient id="paint45_linear" x1="79.4585" y1="937.45" x2="79.4585" y2="965.464" gradientUnits="userSpaceOnUse">
<stop stop-color="#4737FF"/>
<stop offset="1" stop-color="#430238"/>
</linearGradient>
<linearGradient id="paint46_linear" x1="577.147" y1="516.627" x2="457.4" y2="461.881" gradientUnits="userSpaceOnUse">
<stop stop-color="#BC187A"/>
<stop offset="1" stop-color="#23006D"/>
</linearGradient>
<linearGradient id="paint47_linear" x1="478.431" y1="525.011" x2="459.022" y2="510.007" gradientUnits="userSpaceOnUse">
<stop stop-color="#BC187A"/>
<stop offset="1" stop-color="#23006D"/>
</linearGradient>
<linearGradient id="paint48_linear" x1="681.932" y1="419.129" x2="619.694" y2="388.036" gradientUnits="userSpaceOnUse">
<stop stop-color="#BC187A"/>
<stop offset="1" stop-color="#23006D"/>
</linearGradient>
<linearGradient id="paint49_linear" x1="659.538" y1="455.536" x2="642.777" y2="445.636" gradientUnits="userSpaceOnUse">
<stop stop-color="#BC187A"/>
<stop offset="1" stop-color="#23006D"/>
</linearGradient>
<linearGradient id="paint50_linear" x1="827" y1="498" x2="749.62" y2="367.369" gradientUnits="userSpaceOnUse">
<stop stop-color="#23006D"/>
<stop offset="1" stop-color="#BC187A"/>
</linearGradient>
<linearGradient id="paint51_linear" x1="783.598" y1="520.464" x2="767.046" y2="509.075" gradientUnits="userSpaceOnUse">
<stop stop-color="#BC187A"/>
<stop offset="1" stop-color="#23006D"/>
</linearGradient>
<radialGradient id="paint52_radial" cx="0" cy="0" r="1" gradientUnits="userSpaceOnUse" gradientTransform="translate(794.636 614.67) rotate(148.371) scale(32.272 102.704)">
<stop stop-color="#078FE1"/>
<stop offset="1" stop-color="#2A1BD0"/>
</radialGradient>
<radialGradient id="paint53_radial" cx="0" cy="0" r="1" gradientUnits="userSpaceOnUse" gradientTransform="translate(974.697 634.276) rotate(-118.593) scale(57.9938 119.382)">
<stop stop-color="#7A0676"/>
<stop offset="1" stop-color="#1205A3"/>
</radialGradient>
<radialGradient id="paint54_radial" cx="0" cy="0" r="1" gradientUnits="userSpaceOnUse" gradientTransform="translate(859.039 1257.18) rotate(-86.0424) scale(76.0174 117.093)">
<stop stop-color="#7B2978"/>
<stop offset="1" stop-color="#2A1CD0"/>
</radialGradient>
<radialGradient id="paint55_radial" cx="0" cy="0" r="1" gradientUnits="userSpaceOnUse" gradientTransform="translate(402.343 1062.21) rotate(-136.658) scale(68.778 168.181)">
<stop stop-color="#7A0676"/>
<stop offset="1" stop-color="#1205A3"/>
</radialGradient>
<linearGradient id="paint56_linear" x1="945.327" y1="601.209" x2="920.159" y2="592.496" gradientUnits="userSpaceOnUse">
<stop stop-color="#BC187A"/>
<stop offset="1" stop-color="#23006D"/>
</linearGradient>
<radialGradient id="paint57_radial" cx="0" cy="0" r="1" gradientUnits="userSpaceOnUse" gradientTransform="translate(1400 480) rotate(-43.4225) scale(372.433 380.58)">
<stop stop-color="#FA24FE"/>
<stop offset="0.5" stop-color="#4C00AD"/>
<stop offset="1" stop-color="#13033A"/>
</radialGradient>
<radialGradient id="paint58_radial" cx="0" cy="0" r="1" gradientUnits="userSpaceOnUse" gradientTransform="translate(1400 480) rotate(-43.4225) scale(372.433 380.58)">
<stop offset="0.0572917" stop-color="#00E0FF"/>
<stop offset="0.703125" stop-color="#3000B8"/>
</radialGradient>
<linearGradient id="paint59_linear" x1="1484.02" y1="328.526" x2="1484.02" y2="35" gradientUnits="userSpaceOnUse">
<stop stop-color="#4F0E6F"/>
<stop offset="1" stop-color="#450086"/>
</linearGradient>
<radialGradient id="paint60_radial" cx="0" cy="0" r="1" gradientUnits="userSpaceOnUse" gradientTransform="translate(1751.01 417.94) rotate(-111.731) scale(348.716 587.547)">
<stop stop-color="#7A0676"/>
<stop offset="1" stop-color="#0A0049"/>
</radialGradient>
<linearGradient id="paint61_linear" x1="1603.56" y1="513.185" x2="1603.56" y2="443.498" gradientUnits="userSpaceOnUse">
<stop stop-color="#4F0E6F"/>
<stop offset="1" stop-color="#450086"/>
</linearGradient>
<radialGradient id="paint62_radial" cx="0" cy="0" r="1" gradientUnits="userSpaceOnUse" gradientTransform="translate(1523.73 539.247) rotate(-143.5) scale(64.5722 151.251)">
<stop stop-color="#7A0676"/>
<stop offset="1" stop-color="#0A0049"/>
</radialGradient>
<radialGradient id="paint63_radial" cx="0" cy="0" r="1" gradientUnits="userSpaceOnUse" gradientTransform="translate(1720.61 560.721) rotate(-123.987) scale(115.361 261.939)">
<stop stop-color="#7A0676"/>
<stop offset="1" stop-color="#0A0049"/>
</radialGradient>
<linearGradient id="paint64_linear" x1="1707.18" y1="130.979" x2="1707.18" y2="49.9639" gradientUnits="userSpaceOnUse">
<stop stop-color="#4F0E6F"/>
<stop offset="1" stop-color="#450086"/>
</linearGradient>
<linearGradient id="paint65_linear" x1="1433.71" y1="65.4312" x2="1583.15" y2="105.494" gradientUnits="userSpaceOnUse">
<stop stop-color="#4122FF"/>
<stop offset="1" stop-color="#18D1BB"/>
</linearGradient>
<linearGradient id="paint66_linear" x1="1732.55" y1="480.656" x2="1773.49" y2="525.838" gradientUnits="userSpaceOnUse">
<stop stop-color="#4122FF"/>
<stop offset="1" stop-color="#18D1BB"/>
</linearGradient>
<linearGradient id="paint67_linear" x1="1818.22" y1="299.82" x2="1876.09" y2="343.839" gradientUnits="userSpaceOnUse">
<stop stop-color="#4122FF"/>
<stop offset="1" stop-color="#18D1BB"/>
</linearGradient>
<linearGradient id="paint68_linear" x1="1748.27" y1="458.886" x2="1748.27" y2="420.338" gradientUnits="userSpaceOnUse">
<stop stop-color="#8B1EC0"/>
<stop offset="1" stop-color="#450086"/>
</linearGradient>
<linearGradient id="paint69_linear" x1="1748.27" y1="430.506" x2="1748.27" y2="458.89" gradientUnits="userSpaceOnUse">
<stop stop-color="#FF33BA"/>
<stop offset="1" stop-color="#3F10DB" stop-opacity="0"/>
</linearGradient>
<radialGradient id="paint70_radial" cx="0" cy="0" r="1" gradientUnits="userSpaceOnUse" gradientTransform="translate(1531.6 329.442) rotate(-119.508) scale(185.182 388.856)">
<stop stop-color="#0A0049"/>
<stop offset="1" stop-color="#7A0676"/>
</radialGradient>
<radialGradient id="paint71_radial" cx="0" cy="0" r="1" gradientUnits="userSpaceOnUse" gradientTransform="translate(1691.89 333.54) rotate(-137.224) scale(138.797 338.941)">
<stop stop-color="#7A0676"/>
<stop offset="1" stop-color="#0A0049"/>
</radialGradient>
<linearGradient id="paint72_linear" x1="1524.52" y1="336.085" x2="1524.52" y2="310.305" gradientUnits="userSpaceOnUse">
<stop stop-color="#4F0E6F"/>
<stop offset="1" stop-color="#450086"/>
</linearGradient>
<linearGradient id="paint73_linear" x1="1648.62" y1="239.273" x2="1648.62" y2="309.429" gradientUnits="userSpaceOnUse">
<stop stop-color="#4122FF"/>
<stop offset="1" stop-color="#FF3389"/>
</linearGradient>
<linearGradient id="paint74_linear" x1="1524.51" y1="310.325" x2="1524.51" y2="327.972" gradientUnits="userSpaceOnUse">
<stop stop-color="#4122FF"/>
<stop offset="1" stop-color="#FF3389"/>
</linearGradient>
<radialGradient id="paint75_radial" cx="0" cy="0" r="1" gradientUnits="userSpaceOnUse" gradientTransform="translate(1691.89 344.769) rotate(-150.781) scale(116.733 243.626)">
<stop stop-color="#7A0676"/>
<stop offset="1" stop-color="#0A0049"/>
</radialGradient>
<linearGradient id="paint76_linear" x1="1824.14" y1="264.68" x2="1824.14" y2="329.359" gradientUnits="userSpaceOnUse">
<stop stop-color="#FF33BA"/>
<stop offset="1" stop-color="#3F10DB" stop-opacity="0"/>
</linearGradient>
<radialGradient id="paint77_radial" cx="0" cy="0" r="1" gradientUnits="userSpaceOnUse" gradientTransform="translate(1610.17 519.384) rotate(-139.31) scale(106.647 258.268)">
<stop stop-color="#7A0676"/>
<stop offset="1" stop-color="#0A0049"/>
</radialGradient>
<linearGradient id="paint78_linear" x1="1545.91" y1="443.503" x2="1545.91" y2="486.231" gradientUnits="userSpaceOnUse">
<stop stop-color="#4122FF"/>
<stop offset="1" stop-color="#FF3389"/>
</linearGradient>
<linearGradient id="paint79_linear" x1="1757.37" y1="102.794" x2="1788.96" y2="161.131" gradientUnits="userSpaceOnUse">
<stop stop-color="#4122FF"/>
<stop offset="1" stop-color="#18D1BB"/>
</linearGradient>
<linearGradient id="paint80_linear" x1="1384" y1="436" x2="1441.48" y2="420.811" gradientUnits="userSpaceOnUse">
<stop stop-color="#4122FF"/>
<stop offset="1" stop-color="#18D1BB"/>
</linearGradient>
<linearGradient id="paint81_linear" x1="1403.07" y1="376.643" x2="1403.07" y2="353.803" gradientUnits="userSpaceOnUse">
<stop stop-color="#4F0E6F"/>
<stop offset="1" stop-color="#450086"/>
</linearGradient>
<linearGradient id="paint82_linear" x1="1403.05" y1="353.787" x2="1403.05" y2="370.782" gradientUnits="userSpaceOnUse">
<stop stop-color="#4122FF"/>
<stop offset="1" stop-color="#FF3389"/>
</linearGradient>
<linearGradient id="paint83_linear" x1="1416.99" y1="391.081" x2="1416.99" y2="437.026" gradientUnits="userSpaceOnUse">
<stop stop-color="#4122FF"/>
<stop offset="1" stop-color="#FF3389"/>
</linearGradient>
</defs>
</svg>
