<svg width="1293" height="341" viewBox="0 0 1293 341" fill="none" xmlns="http://www.w3.org/2000/svg">
<circle cx="682.605" cy="310.192" r="0.473168" transform="rotate(116.821 682.605 310.192)" fill="white"/>
<circle cx="312.568" cy="152.798" r="0.473168" transform="rotate(116.821 312.568 152.798)" fill="white"/>
<circle cx="584.96" cy="188.717" r="0.473168" transform="rotate(116.821 584.96 188.717)" fill="white"/>
<circle cx="916.416" cy="69.087" r="0.473168" transform="rotate(29.4191 916.416 69.087)" fill="white"/>
<circle cx="690.339" cy="331.6" r="0.946335" transform="rotate(116.821 690.339 331.6)" fill="white"/>
<circle cx="336.544" cy="43.5025" r="0.946335" transform="rotate(116.821 336.544 43.5025)" fill="white"/>
<circle cx="1289.86" cy="130.29" r="0.946335" transform="rotate(29.4191 1289.86 130.29)" fill="white"/>
<circle cx="226.156" cy="312.177" r="0.946335" transform="rotate(116.821 226.156 312.177)" fill="white"/>
<circle cx="870.174" cy="70.172" r="1.4195" transform="rotate(29.4191 870.174 70.172)" fill="white"/>
<circle cx="534.47" cy="217.27" r="1.4195" transform="rotate(116.821 534.47 217.27)" fill="white"/>
<circle cx="321.544" cy="132.947" r="1.4195" transform="rotate(116.821 321.544 132.947)" fill="white"/>
<circle cx="605.522" cy="133.367" r="1.4195" transform="rotate(116.821 605.522 133.367)" fill="white"/>
<circle cx="113.164" cy="73.1898" r="1.4195" transform="rotate(116.821 113.164 73.1898)" fill="white"/>
<circle cx="1264.6" cy="156.785" r="1.4195" transform="rotate(29.4191 1264.6 156.785)" fill="white"/>
<circle cx="600.544" cy="300.516" r="2.36584" transform="rotate(116.821 600.544 300.516)" fill="white"/>
<circle cx="1057.25" cy="65.9387" r="2.36584" transform="rotate(29.4191 1057.25 65.9387)" fill="white"/>
<circle cx="329.365" cy="182.498" r="2.36584" transform="rotate(116.821 329.365 182.498)" fill="white"/>
<circle cx="226.716" cy="328.897" r="2.36584" transform="rotate(116.821 226.716 328.897)" fill="white"/>
<circle cx="793.532" cy="300.53" r="2.36584" transform="rotate(116.821 793.532 300.53)" fill="white"/>
<circle cx="584.817" cy="126.079" r="2.36584" transform="rotate(116.821 584.817 126.079)" fill="white"/>
<circle cx="1207.04" cy="129.764" r="2.36584" transform="rotate(29.4191 1207.04 129.764)" fill="white"/>
</svg>
