<svg width="721" height="656" viewBox="0 0 721 656" fill="none" xmlns="http://www.w3.org/2000/svg">
<g clip-path="url(#clip0)">
<path opacity="0.4" d="M373.848 530.936L430.768 498.076C434.878 495.706 434.358 491.566 429.618 488.826L392.738 467.536L320.948 509.016L357.818 530.306C362.568 533.046 369.738 533.336 373.848 530.936Z" fill="#2E3769"/>
<path d="M369.688 528.526L426.618 495.656C430.718 493.286 430.198 489.156 425.468 486.416L388.588 465.126L316.798 506.566L353.678 527.866C358.418 530.596 365.588 530.936 369.688 528.526Z" fill="#350087"/>
<path d="M316.798 506.566V504.396L320.108 506.306L316.798 506.566Z" fill="#350087"/>
<path d="M429.388 491.746V489.536L425.978 490.946L429.388 491.746Z" fill="#B1B4C4"/>
<path d="M369.688 526.356L426.618 493.486C430.718 491.116 430.198 486.976 425.468 484.246L388.588 462.936L316.798 504.386L353.678 525.676C358.418 528.426 365.588 528.716 369.688 526.356Z" fill="#180F44"/>
<path d="M388.388 463.046L397.278 433.566L324.708 475.196L316.798 504.396L388.388 463.046Z" fill="#350087"/>
<path d="M318.898 505.606L316.798 504.396L319.948 501.936L318.898 505.606Z" fill="#350087"/>
<path d="M390.678 464.156L399.568 434.676L326.998 476.306L318.898 505.606L390.678 464.156Z" fill="#19174C"/>
<path d="M206.458 555.286L487.368 393.106C491.308 390.826 494.498 384.726 494.498 379.476V162.186C494.498 156.936 491.308 154.516 487.368 156.796L206.458 318.936C202.518 321.206 199.328 327.306 199.328 332.566V549.936C199.328 555.146 202.518 557.566 206.458 555.286Z" fill="#19174C"/>
<path d="M205.018 557.526L201.898 555.736L203.248 546.506L205.018 557.526Z" fill="#19174C"/>
<path d="M495.008 158.126L491.948 156.366L487.548 158.876C487.548 158.876 492.238 159.586 492.348 159.556C492.458 159.526 495.008 158.126 495.008 158.126Z" fill="#19174C"/>
<path d="M209.038 556.776L489.948 394.596C493.888 392.316 497.088 386.216 497.088 380.966V163.676C497.088 158.416 493.888 156.006 489.948 158.276L209.048 320.456C205.108 322.736 201.908 328.836 201.908 334.096V551.376C201.898 556.636 205.098 559.046 209.038 556.776Z" fill="#350087"/>
<path d="M209.528 557.056L490.438 394.876C494.378 392.596 497.568 386.496 497.568 381.246V163.936C497.568 158.686 494.378 156.266 490.438 158.546L209.528 320.746C205.588 323.016 202.398 329.116 202.398 334.376V551.666C202.398 556.936 205.588 559.336 209.528 557.056Z" fill="#140F43"/>
<path opacity="0.3" d="M206.258 543.846L494.008 377.716L493.858 164.826C493.858 162.646 492.328 161.766 490.438 162.826L209.528 325.036C208.532 325.684 207.704 326.558 207.109 327.587C206.515 328.615 206.172 329.77 206.108 330.956L206.258 543.846Z" fill="url(#paint0_linear)"/>
<path d="M319.328 298.016L338.398 287.006V280.126L319.328 291.136V298.016Z" fill="#A298E2" fill-opacity="0.6"/>
<path d="M275.248 323.486L315.758 300.076V293.196L275.248 316.606V323.486Z" fill="#F4CE2C" fill-opacity="0.6"/>
<path d="M319.328 320.026L338.398 309.026V302.146L319.328 313.146V320.026Z" fill="#A298E2" fill-opacity="0.6"/>
<path d="M302.338 330.006L315.758 322.096V315.216L302.338 323.126V330.006Z" fill="#4D3BFF" fill-opacity="0.6"/>
<path d="M319.328 331.036L338.398 320.026V313.146L319.328 324.156V331.036Z" fill="#A298E2" fill-opacity="0.6"/>
<path d="M293.118 346.166L315.758 333.096V326.216L293.118 339.286V346.166Z" fill="#4D3BFF" fill-opacity="0.6"/>
<path d="M319.328 342.036L338.398 331.036V324.156L319.328 335.166V342.036Z" fill="#A298E2" fill-opacity="0.6"/>
<path d="M256.048 378.496L315.758 344.106V337.226L256.048 371.626V378.496Z" fill="#FF8657" fill-opacity="0.6"/>
<path d="M319.328 309.026L338.398 298.016V291.136L319.328 302.146V309.026Z" fill="#A298E2" fill-opacity="0.6"/>
<path d="M241.378 354.076L315.758 311.086V304.206L241.378 347.196V354.076Z" fill="#A298E2" fill-opacity="0.6"/>
<path d="M319.328 353.046L338.398 342.036V335.156L319.328 346.166V353.046Z" fill="#A298E2" fill-opacity="0.6"/>
<path d="M251.418 392.946L315.758 355.116V348.236L251.418 386.066V392.946Z" fill="#C33AFC" fill-opacity="0.6"/>
<path d="M319.328 375.066L338.398 364.056V357.176L319.328 368.186V375.066Z" fill="#A298E2" fill-opacity="0.6"/>
<path d="M240.688 420.466L315.758 377.126V370.246L240.688 413.586V420.466Z" fill="#A298E2" fill-opacity="0.6"/>
<path d="M319.328 386.066L338.398 375.066V368.186L319.328 379.186V386.066Z" fill="#A298E2" fill-opacity="0.6"/>
<path d="M293.118 401.206L315.758 388.126V381.256L293.118 394.326V401.206Z" fill="#C33AFC" fill-opacity="0.6"/>
<path d="M319.328 397.076L338.398 386.066V379.186L319.328 390.196V397.076Z" fill="#A298E2" fill-opacity="0.6"/>
<path d="M269.498 425.966L315.758 399.136V392.256L269.498 419.086V425.966Z" fill="#4D3BFF" fill-opacity="0.6"/>
<path d="M319.328 364.056L338.398 353.046V346.166L319.328 357.176V364.056Z" fill="#A298E2" fill-opacity="0.6"/>
<path d="M307.418 370.936L315.758 366.116V359.236L307.418 364.056V370.936Z" fill="#4D3BFF" fill-opacity="0.6"/>
<path d="M319.328 408.086L338.398 397.076V390.196L319.328 401.206V408.086Z" fill="#A298E2" fill-opacity="0.6"/>
<path d="M285.898 427.346L315.758 410.146V403.266L285.898 420.466V427.346Z" fill="#C33AFC" fill-opacity="0.6"/>
<path d="M319.328 430.096L338.398 419.086V412.206L319.328 423.216V430.096Z" fill="#A298E2" fill-opacity="0.6"/>
<path d="M272.188 456.996L315.758 432.156V425.276L272.188 450.116V456.996Z" fill="#FF8657" fill-opacity="0.6"/>
<path d="M319.328 441.106L338.398 430.096V423.216L319.328 434.226V441.106Z" fill="#A298E2" fill-opacity="0.6"/>
<path d="M310.318 446.606L315.758 443.166V436.286L310.318 439.726V446.606Z" fill="#A298E2" fill-opacity="0.6"/>
<path d="M319.328 452.106L338.398 441.106V434.226L319.328 445.226V452.106Z" fill="#A298E2" fill-opacity="0.6"/>
<path d="M290.768 468.566L315.758 454.176V447.296L290.768 461.686V468.566Z" fill="#F4CE2C" fill-opacity="0.6"/>
<path d="M319.328 419.086L338.398 408.086V401.196L319.328 412.206V419.086Z" fill="#A298E2" fill-opacity="0.6"/>
<path d="M280.988 441.106L315.758 421.146V414.276L280.988 434.226V441.106Z" fill="#4D3BFF" fill-opacity="0.6"/>
<path d="M442.668 229.226L461.738 218.216V211.336L442.668 222.346V229.226Z" fill="#A298E2" fill-opacity="0.6"/>
<path d="M358.068 278.066L439.098 231.286V224.406L358.068 271.186V278.066Z" fill="#C33AFC" fill-opacity="0.6"/>
<path d="M442.668 251.236L461.738 240.226V233.346L442.668 244.356V251.236Z" fill="#A298E2" fill-opacity="0.6"/>
<path d="M385.478 284.256L439.098 253.296V246.416L385.478 277.376V284.256Z" fill="#F4CE2C" fill-opacity="0.6"/>
<path d="M442.668 262.246L461.738 251.236V244.356L442.668 255.366V262.246Z" fill="#A298E2" fill-opacity="0.6"/>
<path d="M372.368 302.826L439.098 264.306V257.426L372.368 295.946V302.826Z" fill="#FF8657" fill-opacity="0.6"/>
<path d="M442.668 273.246L461.738 262.246V255.366L442.668 266.366V273.246Z" fill="#A298E2" fill-opacity="0.6"/>
<path d="M392.628 302.146L439.098 275.316V268.436L392.628 295.266V302.146Z" fill="#A298E2" fill-opacity="0.6"/>
<path d="M442.668 240.226L461.738 229.216V222.346L442.668 233.346V240.226Z" fill="#A298E2" fill-opacity="0.6"/>
<path d="M398.588 265.686L439.098 242.296V235.416L398.588 258.806V265.686Z" fill="#4D3BFF" fill-opacity="0.6"/>
<path d="M442.668 284.256L461.738 273.246V266.366L442.668 277.376V284.256Z" fill="#A298E2" fill-opacity="0.6"/>
<path d="M415.268 300.076L439.098 286.316V279.436L415.268 293.196V300.076Z" fill="#C33AFC" fill-opacity="0.6"/>
<path d="M442.668 306.266L461.738 295.256V288.386L442.668 299.386V306.266Z" fill="#A298E2" fill-opacity="0.6"/>
<path d="M364.028 351.676L439.098 308.336V301.456L364.028 344.796V351.676Z" fill="#F4CE2C" fill-opacity="0.6"/>
<path d="M442.668 317.276L461.738 306.266V299.386L442.668 310.396V317.276Z" fill="#A298E2" fill-opacity="0.6"/>
<path d="M416.458 332.406L439.098 319.336V312.456L416.458 325.526V332.406Z" fill="#FF8657" fill-opacity="0.6"/>
<path d="M442.668 328.286L461.738 317.276V310.396L442.668 321.406V328.286Z" fill="#A298E2" fill-opacity="0.6"/>
<path d="M372.368 368.866L439.098 330.346V323.466L372.368 361.996V368.866Z" fill="#A298E2" fill-opacity="0.6"/>
<path d="M442.668 295.266L461.738 284.256V277.376L442.668 288.386V295.266Z" fill="#A298E2" fill-opacity="0.6"/>
<path d="M375.948 333.786L439.098 297.326V290.446L375.948 326.906V333.786Z" fill="#4D3BFF" fill-opacity="0.6"/>
<path d="M442.668 339.286L461.738 328.276V321.406L442.668 332.406V339.286Z" fill="#A298E2" fill-opacity="0.6"/>
<path d="M430.758 346.166L439.098 341.356V334.476L430.758 339.286V346.166Z" fill="#C33AFC" fill-opacity="0.6"/>
<path d="M442.668 361.306L461.738 350.296V343.416L442.668 354.426V361.306Z" fill="#A298E2" fill-opacity="0.6"/>
<path d="M423.608 372.306L439.098 363.366V356.486L423.608 365.426V372.306Z" fill="#F4CE2C" fill-opacity="0.6"/>
<path d="M442.668 372.306L461.738 361.306V354.426L442.668 365.426V372.306Z" fill="#A298E2" fill-opacity="0.6"/>
<path d="M398.588 397.766L439.098 374.376V367.496L398.588 390.886V397.766Z" fill="#FF8657" fill-opacity="0.6"/>
<path d="M442.668 383.316L461.738 372.306V365.426L442.668 376.436V383.316Z" fill="#A298E2" fill-opacity="0.6"/>
<path d="M374.758 422.526L439.098 385.376V378.496L374.758 415.646V422.526Z" fill="#A298E2" fill-opacity="0.6"/>
<path d="M442.668 350.296L461.738 339.286V332.406L442.668 343.416V350.296Z" fill="#A298E2" fill-opacity="0.6"/>
<path d="M358.068 399.136L439.098 352.356V345.476L358.068 392.256V399.136Z" fill="#4D3BFF" fill-opacity="0.6"/>
<path d="M208.021 268.588C208.021 268.588 203.931 269.061 202.434 272.472C200.938 275.882 206.549 288.552 206.549 288.552L236.206 281.518L231.87 264.932L208.021 268.588Z" fill="#C7DCF9"/>
<path d="M212.85 273.485C212.85 273.485 209.372 275.556 207.705 278.432C206.038 281.309 204.447 286.816 204.031 288.928C207.089 293.785 224.012 294.936 224.012 294.936L244.394 280.845C244.394 280.845 243.104 275.15 242.138 273.424C241.171 271.698 237.305 268.839 231.78 269.511C227.74 272.884 212.85 273.485 212.85 273.485Z" fill="#9FBCED"/>
<path d="M212.85 273.485C212.85 273.485 209.372 275.556 207.705 278.432C206.038 281.309 204.447 286.816 204.031 288.928C207.089 293.785 224.012 294.936 224.012 294.936L244.394 280.845C244.394 280.845 243.104 275.15 242.138 273.424C241.171 271.698 237.305 268.839 231.78 269.511C227.74 272.884 212.85 273.485 212.85 273.485Z" fill="url(#paint1_linear)"/>
<g style="mix-blend-mode:multiply">
<path d="M211.245 274.607C211.245 274.607 216.742 278.151 224.215 277.348C231.687 276.544 234.89 269.498 234.89 269.498L231.777 269.511L212.85 273.485L211.245 274.607Z" fill="#9FBCED"/>
</g>
<path d="M222.391 297.417C222.391 297.417 237.263 305.876 239.254 306.995C241.245 308.114 243.467 322.444 245.479 324.298C247.491 326.152 250.025 324.646 253.009 323.824C255.993 323.002 258.847 321.804 259.126 321.06C259.404 320.315 259.127 316.968 258.345 316.098C257.563 315.228 254.824 314.448 253.105 314.995C252.525 308.539 251.757 299.145 249.263 297.212C246.769 295.279 238.403 292.435 238.403 292.435L222.391 297.417Z" fill="url(#paint2_linear)"/>
<g style="mix-blend-mode:multiply" opacity="0.51">
<path d="M235.041 297.144C235.041 297.144 245.185 302.659 246.278 305.425C247.371 308.19 246.979 323.213 250.684 324.564C249.519 329.152 241.218 328.698 241.218 328.698L228.089 299.164L235.041 297.144Z" fill="#9FBCED"/>
</g>
<path d="M209.548 297.158C209.548 297.158 211.593 308.229 215.117 312.043C218.641 315.858 226.384 317.7 228.034 320.022C229.684 322.344 226.978 330.649 228.499 333.448C230.019 336.247 232.634 338.413 235.488 338.908C238.341 339.404 240.929 338.663 241.294 337.415C241.659 336.168 241.838 335.049 240.708 334.029C239.578 333.008 237.883 331.957 238.013 331.155C238.143 330.353 239.845 318.073 240.096 314.679C240.347 311.284 236.779 305.513 231.235 301.601C226.719 295.16 217.214 294.854 217.214 294.854L209.548 297.158Z" fill="url(#paint3_linear)"/>
<g style="mix-blend-mode:multiply">
<path d="M210.204 300.149C210.204 300.149 215.498 301.861 220.886 301.033C221.28 295.877 218.827 293.666 218.827 293.666L209.548 297.158L210.204 300.149Z" fill="#9FBCED"/>
</g>
<path d="M231.37 250.867C227.77 247.488 219.164 244.368 211.918 249.661C204.671 254.955 205.505 262.682 206.917 266.553C208.393 270.615 215.217 278.046 225.31 275.488C235.403 272.931 240.104 259.067 231.37 250.867Z" fill="#9FBCED"/>
<path d="M231.37 250.867C227.77 247.488 219.164 244.368 211.918 249.661C204.671 254.955 205.505 262.682 206.917 266.553C208.393 270.615 215.217 278.046 225.31 275.488C235.403 272.931 240.104 259.067 231.37 250.867Z" fill="url(#paint4_linear)"/>
<path d="M229.54 254.801C233.035 256.694 234.055 262.588 231.456 267.272C228.857 271.957 223.632 274.175 218.777 272.903C213.921 271.632 209.988 267.026 211.674 260.837C213.296 254.889 221.952 250.691 229.54 254.801Z" fill="url(#paint5_radial)" fill-opacity="0.8"/>
<g style="mix-blend-mode:multiply">
<path d="M208.258 291.199C213.042 290.396 211.044 285.1 215.564 285.228C220.957 287.513 222.582 287.647 222.582 287.647C222.582 287.647 209.383 294.032 208.258 291.199Z" fill="#9FBCED"/>
</g>
<g filter="url(#filter0_d)">
<path d="M215.131 299.716L243.634 292.031C244.034 291.923 244.458 291.461 244.582 290.997L249.714 271.843C249.838 271.38 249.615 271.092 249.215 271.2L220.712 278.885C220.312 278.993 219.887 279.455 219.763 279.919L214.632 299.068C214.507 299.536 214.731 299.824 215.131 299.716Z" fill="#B1B4C4"/>
<path d="M215.322 299.907L243.825 292.222C244.224 292.114 244.65 291.651 244.774 291.189L249.906 272.035C250.03 271.572 249.806 271.284 249.406 271.391L220.903 279.077C220.504 279.184 220.078 279.647 219.954 280.11L214.822 299.264C214.698 299.727 214.922 300.015 215.322 299.907Z" fill="#E4E7F2"/>
<path d="M215.358 299.944L243.861 292.259C244.261 292.151 244.686 291.688 244.81 291.226L249.943 272.071C250.067 271.609 249.842 271.321 249.443 271.427L220.94 279.114C220.54 279.22 220.116 279.684 219.992 280.147L214.859 299.301C214.735 299.764 214.958 300.052 215.358 299.944Z" fill="#C5DBF9"/>
</g>
<path d="M208.275 291.137C211.017 291.638 212.853 290.255 213.875 289.697C214.395 289.412 214.406 289.042 214.503 287.843C214.6 286.644 215.639 285.666 216.763 285.429C216.915 287.039 217.508 287.496 218.042 287.565C218.576 287.635 219.931 284.694 221.61 285.173C223.288 285.652 224.042 288.247 223.968 289.422C223.895 290.597 221.954 293.485 219.99 295.35C218.026 297.216 215.359 299.463 210.789 299.165C206.219 298.866 204.346 295.988 203.676 292.804C203.45 291.729 203.627 290.376 204.033 288.923C204.033 288.923 204.66 290.467 208.275 291.137Z" fill="#9FBCED"/>
<path d="M208.275 291.137C211.017 291.638 212.853 290.255 213.875 289.697C214.395 289.412 214.406 289.042 214.503 287.843C214.6 286.644 215.639 285.666 216.763 285.429C216.915 287.039 217.508 287.496 218.042 287.565C218.576 287.635 219.931 284.694 221.61 285.173C223.288 285.652 224.042 288.247 223.968 289.422C223.895 290.597 221.954 293.485 219.99 295.35C218.026 297.216 215.359 299.463 210.789 299.165C206.219 298.866 204.346 295.988 203.676 292.804C203.45 291.729 203.627 290.376 204.033 288.923C204.033 288.923 204.66 290.467 208.275 291.137Z" fill="url(#paint6_linear)"/>
<path d="M249.192 274.863C249.192 274.863 248.768 276.48 248.309 277.163C247.739 277.678 247.086 278.039 246.451 278.733C245.817 279.427 245.203 282.688 246.503 283.758C247.803 284.827 249.538 283.89 250.222 283.232C250.906 282.574 251.45 280.391 251.398 278.713C251.346 277.035 250.946 275.369 249.192 274.863Z" fill="#9FBCED"/>
<path d="M249.192 274.863C249.192 274.863 248.768 276.48 248.309 277.163C247.739 277.678 247.086 278.039 246.451 278.733C245.817 279.427 245.203 282.688 246.503 283.758C247.803 284.827 249.538 283.89 250.222 283.232C250.906 282.574 251.45 280.391 251.398 278.713C251.346 277.035 250.946 275.369 249.192 274.863Z" fill="url(#paint7_linear)"/>
<g style="mix-blend-mode:soft-light" opacity="0.48">
<path d="M224.604 260.187C227.439 260.314 229.774 259.603 229.819 258.599C229.864 257.596 227.603 256.68 224.768 256.553C221.933 256.426 219.599 257.137 219.553 258.141C219.508 259.144 221.769 260.061 224.604 260.187Z" fill="white"/>
</g>
<g style="mix-blend-mode:multiply">
<path d="M222.511 292.382C222.511 292.382 220.17 288.803 219.612 288.653C219.054 288.504 216.985 290.283 217.165 290.95C217.346 291.617 218.56 293.967 220.293 295.055C221.219 294.05 222.511 292.382 222.511 292.382Z" fill="#9FBCED"/>
</g>
<g style="mix-blend-mode:multiply">
<path d="M239.656 318.787C238.339 319.391 236.936 319.786 235.497 319.955C234.152 320.099 233.481 320.951 233.377 322.815C233.273 324.68 232.742 327.488 233.309 328.417C233.876 329.346 236.598 329.663 238.407 328.341C238.871 324.907 239.656 318.787 239.656 318.787Z" fill="#9FBCED"/>
</g>
<g style="mix-blend-mode:multiply">
<path d="M251.577 302.686C251.577 302.686 249.876 302.942 249.737 304.04C249.598 305.138 249.781 310.674 250.271 311.3C250.76 311.926 252.795 311.594 252.795 311.594C252.347 305.808 251.577 302.686 251.577 302.686Z" fill="#9FBCED"/>
</g>
<path d="M377.059 464.678C377.059 464.678 372.969 465.151 371.472 468.562C369.975 471.973 375.586 484.642 375.586 484.642L405.244 477.609L400.907 461.022L377.059 464.678Z" fill="#A298E2"/>
<path d="M381.888 469.575C381.888 469.575 378.41 471.646 376.743 474.523C375.076 477.399 373.485 482.907 373.068 485.018C376.126 489.875 393.05 491.026 393.05 491.026L413.431 476.935C413.431 476.935 412.142 471.24 411.175 469.514C410.209 467.789 406.343 464.929 400.818 465.601C396.777 468.975 381.888 469.575 381.888 469.575Z" fill="url(#paint8_radial)"/>
<g style="mix-blend-mode:multiply">
<path d="M380.282 470.698C380.282 470.698 385.78 474.242 393.253 473.438C400.725 472.634 403.928 465.589 403.928 465.589L400.815 465.602L381.888 469.575L380.282 470.698Z" fill="#9FBCED"/>
</g>
<path d="M390.287 491.017C390.287 491.017 402.464 503.037 404.097 504.633C405.73 506.229 404.169 520.646 405.632 522.957C407.095 525.269 409.933 524.471 413.028 524.449C416.123 524.427 419.19 524.009 419.651 523.362C420.113 522.715 420.712 519.41 420.182 518.367C419.651 517.325 417.208 515.862 415.406 515.946C416.516 509.559 418.206 500.287 416.297 497.774C414.388 495.261 407.043 490.349 407.043 490.349L390.287 491.017Z" fill="url(#paint9_radial)"/>
<g style="mix-blend-mode:multiply" opacity="0.51">
<path d="M402.577 494.028C402.577 494.028 410.949 501.981 411.288 504.934C411.628 507.888 407.361 522.298 410.59 524.562C408.278 528.693 400.377 526.105 400.377 526.105L395.34 494.179L402.577 494.028Z" fill="#9FBCED"/>
</g>
<path d="M377.916 492.061C377.916 492.061 379.804 502.281 383.057 505.802C386.31 509.323 393.457 511.024 394.98 513.167C396.503 515.31 394.005 522.976 395.409 525.56C396.813 528.144 399.226 530.144 401.861 530.601C404.495 531.058 406.884 530.374 407.22 529.223C407.557 528.071 407.723 527.038 406.68 526.097C405.636 525.155 404.072 524.184 404.191 523.444C404.311 522.704 405.883 511.368 406.115 508.234C406.346 505.101 403.052 499.774 397.935 496.163C393.766 490.217 384.992 489.935 384.992 489.935L377.916 492.061Z" fill="url(#paint10_radial)"/>
<g style="mix-blend-mode:multiply">
<path d="M379.242 496.239C379.242 496.239 384.536 497.952 389.924 497.124C390.318 491.967 387.865 489.756 387.865 489.756L378.585 493.248L379.242 496.239Z" fill="#9FBCED"/>
</g>
<path d="M400.408 446.957C396.808 443.578 388.202 440.458 380.955 445.752C373.709 451.045 374.543 458.772 375.955 462.644C377.431 466.705 384.254 474.136 394.348 471.579C404.441 469.021 409.142 455.157 400.408 446.957Z" fill="url(#paint11_radial)"/>
<path d="M398.578 450.891C402.073 452.784 403.093 458.678 400.494 463.363C397.894 468.047 392.67 470.266 387.814 468.994C382.959 467.722 379.025 463.116 380.712 456.927C382.333 450.979 390.99 446.781 398.578 450.891Z" fill="url(#paint12_radial)"/>
<g style="mix-blend-mode:multiply">
<path d="M377.296 487.29C382.08 486.486 380.081 481.19 384.602 481.319C389.994 483.603 391.619 483.737 391.619 483.737C391.619 483.737 378.42 490.122 377.296 487.29Z" fill="#9FBCED"/>
</g>
<g filter="url(#filter1_d)">
<path d="M384.169 495.806L412.672 488.121C413.071 488.013 413.495 487.551 413.619 487.088L418.752 467.934C418.876 467.47 418.653 467.183 418.253 467.291L389.75 474.976C389.35 475.084 388.925 475.546 388.801 476.009L383.67 495.158C383.545 495.626 383.769 495.914 384.169 495.806Z" fill="#B1B4C4"/>
<path d="M384.359 495.998L412.862 488.313C413.262 488.205 413.687 487.742 413.811 487.279L418.944 468.126C419.068 467.662 418.844 467.374 418.444 467.481L389.941 475.167C389.541 475.274 389.116 475.737 388.992 476.2L383.86 495.354C383.735 495.818 383.96 496.106 384.359 495.998Z" fill="#E4E7F2"/>
<path d="M384.396 496.034L412.899 488.349C413.299 488.241 413.724 487.778 413.848 487.316L418.98 468.161C419.104 467.699 418.88 467.411 418.481 467.518L389.977 475.204C389.578 475.311 389.154 475.774 389.029 476.237L383.897 495.391C383.773 495.855 383.996 496.142 384.396 496.034Z" fill="#C5DBF9"/>
</g>
<path d="M377.313 487.227C380.055 487.729 381.891 486.346 382.912 485.787C383.433 485.502 383.443 485.133 383.541 483.934C383.638 482.735 384.677 481.756 385.801 481.52C385.952 483.13 386.546 483.586 387.08 483.656C387.613 483.725 388.969 480.784 390.648 481.263C392.326 481.742 393.08 484.337 393.006 485.512C392.932 486.687 390.992 489.575 389.028 491.441C387.064 493.306 384.396 495.553 379.826 495.255C375.257 494.957 373.384 492.078 372.714 488.894C372.488 487.82 372.665 486.466 373.071 485.014C373.071 485.014 373.698 486.557 377.313 487.227Z" fill="url(#paint13_radial)"/>
<path d="M418.23 470.953C418.23 470.953 417.806 472.571 417.346 473.254C416.776 473.769 416.124 474.129 415.489 474.823C414.854 475.518 414.241 478.779 415.541 479.848C416.841 480.917 418.576 479.981 419.26 479.322C419.944 478.664 420.488 476.482 420.436 474.804C420.384 473.126 419.983 471.459 418.23 470.953Z" fill="url(#paint14_radial)"/>
<g style="mix-blend-mode:soft-light" opacity="0.48">
<path d="M393.642 456.278C396.477 456.404 398.811 455.693 398.857 454.69C398.902 453.686 396.641 452.77 393.806 452.643C390.971 452.517 388.636 453.228 388.591 454.231C388.546 455.235 390.807 456.151 393.642 456.278Z" fill="white"/>
</g>
<g style="mix-blend-mode:multiply">
<path d="M391.548 488.472C391.548 488.472 389.207 484.893 388.65 484.744C388.092 484.594 386.023 486.373 386.203 487.04C386.383 487.707 387.597 490.058 389.331 491.145C390.256 490.14 391.548 488.472 391.548 488.472Z" fill="#9FBCED"/>
</g>
<g style="mix-blend-mode:multiply">
<path d="M405.709 512.027C404.493 512.585 403.197 512.949 401.869 513.106C400.627 513.238 400.009 514.024 399.912 515.746C399.816 517.467 399.326 520.059 399.849 520.917C400.372 521.774 402.885 522.066 404.555 520.846C404.984 517.676 405.709 512.027 405.709 512.027Z" fill="#9FBCED"/>
</g>
<g style="mix-blend-mode:multiply">
<path d="M417.115 503.66C417.115 503.66 415.406 503.467 414.988 504.492C414.569 505.516 413.313 510.912 413.624 511.643C413.935 512.374 415.986 512.58 415.986 512.58C417.052 506.876 417.115 503.66 417.115 503.66Z" fill="#9FBCED"/>
</g>
</g>
<path fill-rule="evenodd" clip-rule="evenodd" d="M239.038 140.824L253.468 132.855L290.298 136.82L286.254 152.162L262.349 156.364L239.038 140.824Z" fill="url(#paint15_linear)"/>
<path opacity="0.88" fill-rule="evenodd" clip-rule="evenodd" d="M239.038 140.824L257.036 148.951L271.546 140.824L290.298 136.82L253.468 132.855L239.038 140.824Z" fill="url(#paint16_linear)"/>
<path fill-rule="evenodd" clip-rule="evenodd" d="M262.349 156.364L257.036 148.951L271.546 140.824L290.298 136.82L297.949 156.364L262.349 156.364Z" fill="#1C0843"/>
<path opacity="0.4" fill-rule="evenodd" clip-rule="evenodd" d="M24.2734 165.444L106.796 180.328L148.046 237.425L130.991 254.48L65.0982 235.634L24.2734 165.444Z" fill="url(#paint17_radial)"/>
<path opacity="0.4" fill-rule="evenodd" clip-rule="evenodd" d="M24.2734 165.444L53.1238 198.905L116.263 195.526L106.796 180.328L24.2734 165.444Z" fill="url(#paint18_linear)"/>
<path opacity="0.4" fill-rule="evenodd" clip-rule="evenodd" d="M53.1237 198.906L70.4473 230.688L130.991 254.48L68.2986 250.429L24.2732 165.444L53.1237 198.906Z" fill="url(#paint19_radial)"/>
<path opacity="0.4" d="M24.0494 165.757L24.4746 165.108L76.6247 198.099L148.225 237.066L147.844 237.76L76.2218 198.77L24.0494 165.757Z" fill="#00ADFF"/>
<path opacity="0.4" d="M65.1204 236.059L65.0756 235.253L86.7638 234.425L139.339 245.817L139.16 246.578L86.6519 235.208L65.1204 236.059Z" fill="#00ADFF"/>
<path fill-rule="evenodd" clip-rule="evenodd" d="M93.0909 583.527L74.0194 579.672C74.0194 579.672 29.2313 508.25 29.3571 414.912L44.6684 404.211L59.5627 397.536C59.5627 397.536 89.8066 481.571 150.002 541.625L156.149 536.459L133.175 477.416L150.683 425.138L166.239 428.37C166.239 428.37 233.867 503.627 275.64 583.508L268.28 634.837L152.185 635.894L129.333 636.062L97.4558 599.732L93.0909 583.527Z" fill="url(#paint20_linear)"/>
<path fill-rule="evenodd" clip-rule="evenodd" d="M29.3571 414.912C29.3571 414.912 85.8168 510.796 144.889 552.146L184.456 591.821L133.175 477.416L150.683 425.138C150.683 425.138 234.33 529.445 264.986 596.358L268.28 634.837L129.333 636.062L97.6142 596.952L141.843 598.527L88.0291 581.68L74.0194 579.672C74.0194 579.672 26.7647 507.856 29.3571 414.912Z" fill="url(#paint21_linear)"/>
<path fill-rule="evenodd" clip-rule="evenodd" d="M150.001 541.625L184.456 591.821L144.888 552.146C144.888 552.146 60.8588 483.188 29.3566 414.912L60.0859 382.152C60.0915 382.113 94.6428 485.268 150.001 541.625Z" fill="#1C0843"/>
<path fill-rule="evenodd" clip-rule="evenodd" d="M150.682 425.138L161.064 427.308L165.143 410.871C165.143 410.871 242.99 499.489 277.195 577.683L275.6 583.502L150.682 425.138Z" fill="url(#paint22_radial)"/>
<path d="M248.809 631.805L247.884 632.113C247.543 631.143 215.264 534.481 197.071 501.315C180.435 470.975 164.984 458.347 162.423 456.378L146.524 476.206L201.696 635.263L200.771 635.571L145.392 476.004L162.216 455.027L162.581 455.279C162.766 455.386 179.607 467.533 197.901 500.833C216.156 534.129 248.468 630.835 248.809 631.805Z" fill="#00ADFF"/>
<path d="M239.95 634.941L239.025 635.249L216.424 570.252L174.501 510.414L170.074 515.307L207.992 635.205L207.067 635.513L168.948 515.065L174.613 508.789L174.978 509.321L217.36 569.865L239.95 634.941Z" fill="#00ADFF"/>
<path d="M188.987 634.803L188.218 635.413L99.2108 532.18L29.7491 437.035L30.5511 436.47L99.9792 531.569L188.987 634.803Z" fill="#00ADFF"/>
<path d="M177.514 637.443L100.051 600.345L100.5 599.448L172.341 633.858L110.346 574.627L38.1936 490.431L38.9676 489.781L111.047 573.926L177.514 637.443Z" fill="#00ADFF"/>
<path fill-rule="evenodd" clip-rule="evenodd" d="M488.831 27.2506C488.831 27.2506 465.345 46.6621 450.053 94.3582L440.338 105.438C440.338 105.438 506.259 88.395 532.064 87.4866L533.827 99.233L562.706 107.087C562.706 107.087 571.852 148.162 564.011 186.234L571.603 190.808C571.603 190.808 599.015 169.084 607.254 149.73L595.978 107.585L589.538 108.057C589.572 108.067 544.4 30.4635 488.831 27.2506Z" fill="url(#paint23_radial)"/>
<path fill-rule="evenodd" clip-rule="evenodd" d="M574.019 188.854L586.946 123.041L596 107.574L607.276 149.718C607.287 149.74 600.253 171.464 574.019 188.854Z" fill="url(#paint24_linear)"/>
<path fill-rule="evenodd" clip-rule="evenodd" d="M532.097 87.4963L540 58.8141L499.544 84.1062L445.501 104.14L532.493 91.8019L532.097 87.4963Z" fill="#1C0843"/>
<path fill-rule="evenodd" clip-rule="evenodd" d="M577.204 89.6989L572.4 111.212L571.031 134.466L585.066 104.472L577.204 89.6989Z" fill="url(#paint25_linear)"/>
<path fill-rule="evenodd" clip-rule="evenodd" d="M533.86 99.2432L569.656 93.7983L562.739 107.097L533.86 99.2432Z" fill="#1C0843"/>
<path d="M541.956 51.697L504.547 70.4053L460.139 84.8654L458.324 81.4545L458.429 81.2867L482.784 42.7626L502.081 29.2043L502.435 29.7128L483.17 43.2262L459.029 81.4696L460.439 84.1201L504.323 69.8274L541.688 51.1424L541.956 51.697Z" fill="url(#paint26_linear)"/>
<path d="M503.453 64.1574L478.386 73.7887L477.08 71.3337L477.121 71.2005L487.509 45.8792L509.841 31.7374L510.173 32.2574L488.004 46.285L477.762 71.3054L478.675 73.0217L503.185 63.6027L534.904 45.8317L535.214 46.3633L503.453 64.1574Z" fill="#00ADFF"/>
<path d="M572.851 85.1849L557.482 88.6798L557.359 88.6058L545.929 79.3839L549.819 58.7194L550.416 58.8474L546.605 79.1355L557.631 88.0154L572.725 84.5825L572.851 85.1849Z" fill="#00ADFF"/>
<path d="M571.233 82.1978L562.791 83.1498L562.679 83.0426L556.344 76.7959L556.363 76.6744L556.959 65.9029L557.587 65.931L556.976 76.5707L563.006 82.5058L571.163 81.5941L571.233 82.1978Z" fill="#00ADFF"/>
<path opacity="0.5" fill-rule="evenodd" clip-rule="evenodd" d="M605.88 507.835L612.312 482.121L639.35 435.355L671.575 424.34L693.678 433.538C693.678 433.538 683.544 483.173 634.994 531.76L605.88 507.835Z" fill="url(#paint27_radial)"/>
<path opacity="0.5" fill-rule="evenodd" clip-rule="evenodd" d="M635.01 531.798L648.24 464.776L693.73 433.56C693.73 433.56 687.326 481.325 635.01 531.798Z" fill="url(#paint28_linear)"/>
<path fill-rule="evenodd" clip-rule="evenodd" d="M370.911 621.089L409.128 586.4L511.569 592.188L501.578 617.68L519.537 622.833C519.537 622.833 489.289 658.513 383.32 648.047L370.911 621.089Z" fill="url(#paint29_linear)"/>
<path fill-rule="evenodd" clip-rule="evenodd" d="M514.661 622.556L501.618 617.68L511.608 592.189L414.441 594.091L377.056 625.331L383.399 648.007C383.399 648.007 421.418 659.465 456.979 654.152C492.5 648.88 514.661 622.556 514.661 622.556Z" fill="url(#paint30_radial)"/>
<path opacity="0.88" fill-rule="evenodd" clip-rule="evenodd" d="M409.168 586.4L414.44 594.131L377.056 625.371L370.911 621.089L409.168 586.4Z" fill="url(#paint31_linear)"/>
<path d="M378.959 624.3L378.84 623.309L503.997 610.94L504.116 611.931L378.959 624.3Z" fill="#00ADFF"/>
<path d="M510.38 595.796L427.84 594.329L427.84 593.338L510.38 594.805L510.38 595.796Z" fill="#00ADFF"/>
<defs>
<filter id="filter0_d" x="194.597" y="245.178" width="75.3794" height="68.7889" filterUnits="userSpaceOnUse" color-interpolation-filters="sRGB">
<feFlood flood-opacity="0" result="BackgroundImageFix"/>
<feColorMatrix in="SourceAlpha" type="matrix" values="0 0 0 0 0 0 0 0 0 0 0 0 0 0 0 0 0 0 127 0"/>
<feOffset dy="-6"/>
<feGaussianBlur stdDeviation="10"/>
<feColorMatrix type="matrix" values="0 0 0 0 1 0 0 0 0 0.2 0 0 0 0 0.536 0 0 0 0.6 0"/>
<feBlend mode="normal" in2="BackgroundImageFix" result="effect1_dropShadow"/>
<feBlend mode="normal" in="SourceGraphic" in2="effect1_dropShadow" result="shape"/>
</filter>
<filter id="filter1_d" x="353.635" y="431.268" width="95.3794" height="88.7889" filterUnits="userSpaceOnUse" color-interpolation-filters="sRGB">
<feFlood flood-opacity="0" result="BackgroundImageFix"/>
<feColorMatrix in="SourceAlpha" type="matrix" values="0 0 0 0 0 0 0 0 0 0 0 0 0 0 0 0 0 0 127 0"/>
<feOffset dy="-6"/>
<feGaussianBlur stdDeviation="15"/>
<feColorMatrix type="matrix" values="0 0 0 0 0 0 0 0 0 0.8 0 0 0 0 1 0 0 0 0.8 0"/>
<feBlend mode="normal" in2="BackgroundImageFix" result="effect1_dropShadow"/>
<feBlend mode="normal" in="SourceGraphic" in2="effect1_dropShadow" result="shape"/>
</filter>
<linearGradient id="paint0_linear" x1="494.008" y1="353.116" x2="206.108" y2="353.116" gradientUnits="userSpaceOnUse">
<stop offset="0.21" stop-color="white" stop-opacity="0"/>
<stop offset="1" stop-color="white" stop-opacity="0.2"/>
</linearGradient>
<linearGradient id="paint1_linear" x1="224.435" y1="288.769" x2="224.108" y2="267.14" gradientUnits="userSpaceOnUse">
<stop stop-color="#005AF6"/>
<stop offset="1" stop-color="#00CCFF"/>
</linearGradient>
<linearGradient id="paint2_linear" x1="240.504" y1="315.62" x2="240.73" y2="293.441" gradientUnits="userSpaceOnUse">
<stop stop-color="#005AF6"/>
<stop offset="1" stop-color="#00CCFF"/>
</linearGradient>
<linearGradient id="paint3_linear" x1="224.553" y1="325.891" x2="222.688" y2="297.632" gradientUnits="userSpaceOnUse">
<stop stop-color="#005AF6"/>
<stop offset="1" stop-color="#00CCFF"/>
</linearGradient>
<linearGradient id="paint4_linear" x1="220.04" y1="268.544" x2="218.377" y2="247.198" gradientUnits="userSpaceOnUse">
<stop stop-color="#005AF6"/>
<stop offset="1" stop-color="#00CCFF"/>
</linearGradient>
<radialGradient id="paint5_radial" cx="0" cy="0" r="1" gradientUnits="userSpaceOnUse" gradientTransform="translate(209.133 243.777) rotate(54.0824) scale(39.5236 61.2982)">
<stop stop-color="#30B1FF"/>
<stop offset="0.859375" stop-color="#6700CD"/>
</radialGradient>
<linearGradient id="paint6_linear" x1="212.974" y1="295.592" x2="212.496" y2="283.289" gradientUnits="userSpaceOnUse">
<stop stop-color="#005AF6"/>
<stop offset="1" stop-color="#00CCFF"/>
</linearGradient>
<linearGradient id="paint7_linear" x1="248.231" y1="281.963" x2="246.886" y2="275.91" gradientUnits="userSpaceOnUse">
<stop stop-color="#005AF6"/>
<stop offset="1" stop-color="#00CCFF"/>
</linearGradient>
<radialGradient id="paint8_radial" cx="0" cy="0" r="1" gradientUnits="userSpaceOnUse" gradientTransform="translate(405.382 506.974) rotate(-115.027) scale(34.9859 172.292)">
<stop offset="0.292985" stop-color="#23006D"/>
<stop offset="1" stop-color="#920EE2"/>
</radialGradient>
<radialGradient id="paint9_radial" cx="0" cy="0" r="1" gradientUnits="userSpaceOnUse" gradientTransform="translate(410.565 539.108) rotate(-102.884) scale(37.2333 185.65)">
<stop offset="0.292985" stop-color="#23006D"/>
<stop offset="1" stop-color="#920EE2"/>
</radialGradient>
<radialGradient id="paint10_radial" cx="0" cy="0" r="1" gradientUnits="userSpaceOnUse" gradientTransform="translate(403.039 544.84) rotate(-110.076) scale(40.1934 189.019)">
<stop offset="0.292985" stop-color="#23006D"/>
<stop offset="1" stop-color="#920EE2"/>
</radialGradient>
<radialGradient id="paint11_radial" cx="0" cy="0" r="1" gradientUnits="userSpaceOnUse" gradientTransform="translate(438.027 431.1) rotate(154.626) scale(56.2941 261.145)">
<stop offset="0.292985" stop-color="#23006D"/>
<stop offset="1" stop-color="#920EE2"/>
</radialGradient>
<radialGradient id="paint12_radial" cx="0" cy="0" r="1" gradientUnits="userSpaceOnUse" gradientTransform="translate(381.696 451.494) rotate(32.2297) scale(30.8193 47.7984)">
<stop stop-color="#30B1FF"/>
<stop offset="0.859375" stop-color="#6700CD"/>
</radialGradient>
<radialGradient id="paint13_radial" cx="0" cy="0" r="1" gradientUnits="userSpaceOnUse" gradientTransform="translate(388.045 504.146) rotate(-112.596) scale(19.3817 93.6856)">
<stop offset="0.292985" stop-color="#23006D"/>
<stop offset="1" stop-color="#920EE2"/>
</radialGradient>
<radialGradient id="paint14_radial" cx="0" cy="0" r="1" gradientUnits="userSpaceOnUse" gradientTransform="translate(417.601 484.525) rotate(-90.6691) scale(9.34957 30.7693)">
<stop offset="0.292985" stop-color="#23006D"/>
<stop offset="1" stop-color="#920EE2"/>
</radialGradient>
<linearGradient id="paint15_linear" x1="264.674" y1="156.35" x2="264.674" y2="132.838" gradientUnits="userSpaceOnUse">
<stop stop-color="#4F0E6F"/>
<stop offset="1" stop-color="#450086"/>
</linearGradient>
<linearGradient id="paint16_linear" x1="264.668" y1="132.855" x2="264.668" y2="148.951" gradientUnits="userSpaceOnUse">
<stop stop-color="#4122FF"/>
<stop offset="1" stop-color="#FF3389"/>
</linearGradient>
<radialGradient id="paint17_radial" cx="0" cy="0" r="1" gradientUnits="userSpaceOnUse" gradientTransform="translate(62.3508 232.964) rotate(-92.2245) scale(101.073 246.819)">
<stop stop-color="#7A0676"/>
<stop offset="1" stop-color="#0A0049"/>
</radialGradient>
<linearGradient id="paint18_linear" x1="88.6105" y1="162.143" x2="52.4859" y2="198.267" gradientUnits="userSpaceOnUse">
<stop stop-color="#4122FF"/>
<stop offset="1" stop-color="#FF3389"/>
</linearGradient>
<radialGradient id="paint19_radial" cx="0" cy="0" r="1" gradientUnits="userSpaceOnUse" gradientTransform="translate(56.5689 238.746) rotate(-105.781) scale(85.0057 177.41)">
<stop stop-color="#7A0676"/>
<stop offset="1" stop-color="#0A0049"/>
</radialGradient>
<linearGradient id="paint20_linear" x1="281.357" y1="543.59" x2="16.3554" y2="505.596" gradientUnits="userSpaceOnUse">
<stop stop-color="#4F0E6F"/>
<stop offset="1" stop-color="#450086"/>
</linearGradient>
<linearGradient id="paint21_linear" x1="-2.91374" y1="495.211" x2="101.818" y2="374.133" gradientUnits="userSpaceOnUse">
<stop stop-color="#4122FF"/>
<stop offset="1" stop-color="#18D1BB"/>
</linearGradient>
<radialGradient id="paint22_radial" cx="0" cy="0" r="1" gradientUnits="userSpaceOnUse" gradientTransform="translate(288.343 500.748) rotate(158.651) scale(168.895 354.657)">
<stop stop-color="#0A0049"/>
<stop offset="1" stop-color="#7A0676"/>
</radialGradient>
<radialGradient id="paint23_radial" cx="0" cy="0" r="1" gradientUnits="userSpaceOnUse" gradientTransform="translate(569.728 191.97) rotate(-139.751) scale(197.435 332.656)">
<stop stop-color="#7A0676"/>
<stop offset="1" stop-color="#0A0049"/>
</radialGradient>
<linearGradient id="paint24_linear" x1="571.905" y1="115.055" x2="612.536" y2="121.665" gradientUnits="userSpaceOnUse">
<stop stop-color="#4122FF"/>
<stop offset="1" stop-color="#18D1BB"/>
</linearGradient>
<linearGradient id="paint25_linear" x1="565.516" y1="95.9188" x2="582.719" y2="128.246" gradientUnits="userSpaceOnUse">
<stop stop-color="#FF33BA"/>
<stop offset="1" stop-color="#3F10DB" stop-opacity="0"/>
</linearGradient>
<linearGradient id="paint26_linear" x1="489.087" y1="32.7636" x2="520.391" y2="53.5202" gradientUnits="userSpaceOnUse">
<stop stop-color="#4122FF"/>
<stop offset="1" stop-color="#18D1BB"/>
</linearGradient>
<radialGradient id="paint27_radial" cx="0" cy="0" r="1" gradientUnits="userSpaceOnUse" gradientTransform="translate(673.398 515.684) rotate(-146.796) scale(105.215 238.902)">
<stop stop-color="#7A0676"/>
<stop offset="1" stop-color="#0A0049"/>
</radialGradient>
<linearGradient id="paint28_linear" x1="655.131" y1="444.149" x2="705.522" y2="467.661" gradientUnits="userSpaceOnUse">
<stop stop-color="#4122FF"/>
<stop offset="1" stop-color="#18D1BB"/>
</linearGradient>
<linearGradient id="paint29_linear" x1="445.253" y1="649.954" x2="445.253" y2="586.396" gradientUnits="userSpaceOnUse">
<stop stop-color="#4F0E6F"/>
<stop offset="1" stop-color="#450086"/>
</linearGradient>
<radialGradient id="paint30_radial" cx="0" cy="0" r="1" gradientUnits="userSpaceOnUse" gradientTransform="translate(451.285 655.608) rotate(-139.31) scale(97.2682 235.554)">
<stop stop-color="#7A0676"/>
<stop offset="1" stop-color="#0A0049"/>
</radialGradient>
<linearGradient id="paint31_linear" x1="392.676" y1="586.4" x2="392.676" y2="625.371" gradientUnits="userSpaceOnUse">
<stop stop-color="#4122FF"/>
<stop offset="1" stop-color="#FF3389"/>
</linearGradient>
<clipPath id="clip0">
<rect width="338" height="403" fill="white" transform="translate(188 154.997)"/>
</clipPath>
</defs>
</svg>
