<svg width="1149" height="933" viewBox="0 0 1149 933" fill="none" xmlns="http://www.w3.org/2000/svg">
<path d="M410.278 145.771L284.211 1.27051" stroke="url(#paint0_radial)" stroke-width="2" stroke-linecap="round"/>
<path d="M1062.84 821.195L1134.85 893.195" stroke="url(#paint1_radial)" stroke-width="2" stroke-linecap="round"/>
<path d="M309.249 94.7705L239.472 8.09027" stroke="url(#paint2_radial)" stroke-width="2" stroke-linecap="round"/>
<path d="M974.79 748.194L1147.79 824.694" stroke="url(#paint3_radial)" stroke-width="2" stroke-linecap="round"/>
<circle cx="362.407" cy="398.553" r="0.5" transform="rotate(-31.0147 362.407 398.553)" fill="white"/>
<circle cx="555.17" cy="397.009" r="0.5" transform="rotate(-31.0147 555.17 397.009)" fill="white"/>
<circle cx="794.306" cy="472.599" r="0.5" transform="rotate(-31.0147 794.306 472.599)" fill="white"/>
<circle cx="604.873" cy="747.508" r="0.5" transform="rotate(-31.0147 604.873 747.508)" fill="white"/>
<circle cx="381.417" cy="562.146" r="0.5" transform="rotate(-31.0147 381.417 562.146)" fill="white"/>
<circle cx="25.6045" cy="422.519" r="0.5" transform="rotate(-31.0147 25.6045 422.519)" fill="white"/>
<circle cx="367.531" cy="375.053" r="1" transform="rotate(-31.0147 367.531 375.053)" fill="white"/>
<circle cx="680.273" cy="295.542" r="1" transform="rotate(-31.0147 680.273 295.542)" fill="white"/>
<circle cx="521.943" cy="831.788" r="1" transform="rotate(-31.0147 521.943 831.788)" fill="white"/>
<circle cx="276.573" cy="111.197" r="1" transform="rotate(-31.0147 276.573 111.197)" fill="white"/>
<circle cx="775.363" cy="577.916" r="1" transform="rotate(-31.0147 775.363 577.916)" fill="white"/>
<circle cx="953.226" cy="598.166" r="1" transform="rotate(-31.0147 953.226 598.166)" fill="white"/>
<circle cx="912.761" cy="608.492" r="1" transform="rotate(-31.0147 912.761 608.492)" fill="white"/>
<circle cx="771.829" cy="653.55" r="1" transform="rotate(-31.0147 771.829 653.55)" fill="white"/>
<circle cx="543.288" cy="342.312" r="1.5" transform="rotate(-31.0147 543.288 342.312)" fill="white"/>
<circle cx="2.49051" cy="465.586" r="1.5" transform="rotate(-31.0147 2.49051 465.586)" fill="white"/>
<circle cx="722.644" cy="435.007" r="1.5" transform="rotate(-31.0147 722.644 435.007)" fill="white"/>
<circle cx="585.676" cy="760.216" r="1.5" transform="rotate(-31.0147 585.676 760.216)" fill="white"/>
<circle cx="111.888" cy="840.091" r="1.5" transform="rotate(-31.0147 111.888 840.091)" fill="white"/>
<circle cx="738.462" cy="930.893" r="1.5" transform="rotate(-31.0147 738.462 930.893)" fill="white"/>
<circle cx="287.754" cy="148.231" r="1.5" transform="rotate(-31.0147 287.754 148.231)" fill="white"/>
<circle cx="550.369" cy="623.372" r="2.5" transform="rotate(-31.0147 550.369 623.372)" fill="white"/>
<circle cx="96.1455" cy="291.431" r="2.5" transform="rotate(-31.0147 96.1455 291.431)" fill="white"/>
<circle cx="606.556" cy="711.492" r="2.5" transform="rotate(-31.0147 606.556 711.492)" fill="white"/>
<circle cx="600.614" cy="119.518" r="2.5" transform="rotate(-61.596 600.614 119.518)" fill="white"/>
<circle cx="491.068" cy="172.827" r="2.5" transform="rotate(-61.596 491.068 172.827)" fill="white"/>
<circle cx="1102.27" cy="702.027" r="2.5" transform="rotate(-31.0147 1102.27 702.027)" fill="white"/>
<circle cx="57.7446" cy="584.795" r="2.5" transform="rotate(-31.0147 57.7446 584.795)" fill="white"/>
<circle cx="346.31" cy="768.257" r="2.5" transform="rotate(-31.0147 346.31 768.257)" fill="white"/>
<circle cx="232.909" cy="187.039" r="2.5" transform="rotate(-31.0147 232.909 187.039)" fill="white"/>
<defs>
<radialGradient id="paint0_radial" cx="0" cy="0" r="1" gradientUnits="userSpaceOnUse" gradientTransform="translate(409.49 144.303) rotate(-55.4286) scale(248.791 68.2499)">
<stop stop-color="white"/>
<stop offset="1" stop-color="white" stop-opacity="0"/>
</radialGradient>
<radialGradient id="paint1_radial" cx="0" cy="0" r="1" gradientUnits="userSpaceOnUse" gradientTransform="translate(1063.44 822.75) rotate(131.741) scale(248.791 68.2499)">
<stop stop-color="white"/>
<stop offset="1" stop-color="white" stop-opacity="0"/>
</radialGradient>
<radialGradient id="paint2_radial" cx="0" cy="0" r="1" gradientUnits="userSpaceOnUse" gradientTransform="translate(311.309 94.7039) rotate(-129.473) scale(112.837 30.9542)">
<stop stop-color="white"/>
<stop offset="1" stop-color="white" stop-opacity="0"/>
</radialGradient>
<radialGradient id="paint3_radial" cx="0" cy="0" r="1" gradientUnits="userSpaceOnUse" gradientTransform="translate(975.764 749.546) rotate(35.9806) scale(186.632 113.033)">
<stop stop-color="white"/>
<stop offset="0.941699" stop-color="white" stop-opacity="0"/>
</radialGradient>
</defs>
</svg>
