<svg width="485" height="512" viewBox="0 0 485 512" fill="none" xmlns="http://www.w3.org/2000/svg">
<ellipse cx="242.062" cy="243.062" rx="242.062" ry="243.062" fill="url(#paint0_radial)"/>
<path opacity="0.88" fill-rule="evenodd" clip-rule="evenodd" d="M472.98 316.18C437.707 406.593 350.056 470.619 247.512 470.619C113.825 470.619 5.44984 361.796 5.44984 227.557C5.44984 202.078 9.35391 177.515 16.5941 154.438C5.88149 181.897 0.00012207 211.79 0.00012207 243.062C0.00012207 377.301 108.375 486.124 242.062 486.124C350.376 486.124 442.074 414.69 472.98 316.18Z" fill="url(#paint1_radial)"/>
<path fill-rule="evenodd" clip-rule="evenodd" d="M73.0075 118.941L74.1129 99.5155C74.1129 99.5155 138.191 45.0444 230.221 31.9222L242.934 45.5598L251.62 59.3559C251.62 59.3559 173.053 101.22 122.359 169.329L128.32 174.681L183.278 143.56L237.288 153.471L236.301 169.329C236.301 169.329 171.671 246.952 98.8281 299.639L47.1868 299.639L29.7362 184.869L26.3408 162.272L57.6493 125.562L73.0075 118.941Z" fill="url(#paint2_linear)"/>
<path fill-rule="evenodd" clip-rule="evenodd" d="M391.067 85.7193C391.067 85.7193 343.177 95.551 285.574 151.806L263.464 160.211C263.464 160.211 369.668 185.861 406.899 204.097L400.543 222.135L435.523 255.159C435.523 255.159 417.52 320.492 377.723 368.7L385.027 380.95C385.027 380.95 440.221 370.801 466.476 349.512L482.269 281.046L472.793 276.844C472.833 276.884 467.345 132.341 391.067 85.7193Z" fill="url(#paint3_radial)"/>
<path fill-rule="evenodd" clip-rule="evenodd" d="M173.526 439.186L211.586 404.498L313.605 410.286L303.656 435.777L321.541 440.931C321.541 440.931 291.417 476.611 185.884 466.145L173.526 439.186Z" fill="url(#paint4_linear)"/>
<path fill-rule="evenodd" clip-rule="evenodd" d="M127.61 456.788L127.61 470.901L177.514 491.794L215.574 484.896C215.574 484.856 159.353 477.205 127.61 456.788Z" fill="url(#paint5_radial)"/>
<path fill-rule="evenodd" clip-rule="evenodd" d="M294.931 477.998L310.763 456.788L353.639 424.161L387.475 426.5L404.214 443.547C404.214 443.547 375.749 485.372 312.421 511.339L294.931 477.998Z" fill="url(#paint6_radial)"/>
<path fill-rule="evenodd" clip-rule="evenodd" d="M299.432 119.456C299.432 119.456 320.001 64.0731 335.32 45.5592C335.32 45.5592 367.773 45.2817 383.921 68.5925L365.247 86.9081C365.286 86.9478 339.071 88.2957 299.432 119.456Z" fill="url(#paint7_linear)"/>
<path fill-rule="evenodd" clip-rule="evenodd" d="M230.221 31.9222C230.221 31.9222 143.679 101.418 111.265 165.761L77.7452 210.559L183.278 143.56L237.288 153.471C237.288 153.471 146.284 251.075 84.6544 290.918L47.1868 299.639L26.3408 162.272L60.413 125.324L65.1112 169.329L74.1129 113.668L74.1129 99.5155C74.1129 99.5155 138.23 42.5468 230.221 31.9222Z" fill="url(#paint8_linear)"/>
<path fill-rule="evenodd" clip-rule="evenodd" d="M312.421 511.379L350.441 454.727L404.254 443.587C404.254 443.587 379.934 485.134 312.421 511.379Z" fill="url(#paint9_linear)"/>
<path fill-rule="evenodd" clip-rule="evenodd" d="M389.922 379.998L457.83 296.19L482.308 281.046L466.515 349.512C466.515 349.551 440.181 375.122 389.922 379.998Z" fill="url(#paint10_linear)"/>
<path fill-rule="evenodd" clip-rule="evenodd" d="M350.441 403.626L394.818 383.368L408.439 392.644L389.922 413.537L349.572 418.532L350.441 403.626Z" fill="url(#paint11_linear)"/>
<path fill-rule="evenodd" clip-rule="evenodd" d="M408.439 392.644L362.996 407.551L349.572 418.532L389.922 413.537L408.439 392.644Z" fill="url(#paint12_linear)"/>
<path fill-rule="evenodd" clip-rule="evenodd" d="M122.359 169.329L77.7453 210.559L111.265 165.761C111.265 165.761 167.367 72.7951 230.221 31.9219L266.86 57.6906C266.899 57.6906 170.092 106.532 122.359 169.329Z" fill="#1C0843"/>
<path fill-rule="evenodd" clip-rule="evenodd" d="M237.288 153.47L236.617 164.055L253.397 165.76C253.397 165.76 177.04 255.396 104.79 300.352L98.8281 299.599L237.288 153.47Z" fill="url(#paint13_radial)"/>
<path fill-rule="evenodd" clip-rule="evenodd" d="M299.432 119.456L371.129 91.3089L365.286 86.9084L383.961 68.5928C383.961 68.6324 341.321 69.5046 299.432 119.456Z" fill="#1C0843"/>
<path fill-rule="evenodd" clip-rule="evenodd" d="M406.938 204.136L439.747 169.328L363.391 174.68L271.755 162.272L404.254 210.558L406.938 204.136Z" fill="#1C0843"/>
<path fill-rule="evenodd" clip-rule="evenodd" d="M196.662 249.013L282.573 189.111L369.313 203.145L369.313 233.354L294.575 275.02L196.662 249.013Z" fill="url(#paint14_radial)"/>
<path fill-rule="evenodd" clip-rule="evenodd" d="M183.278 284.852L197.649 276.883L234.327 280.847L230.3 296.19L206.493 300.392L183.278 284.852Z" fill="url(#paint15_linear)"/>
<path fill-rule="evenodd" clip-rule="evenodd" d="M196.662 249.013L251.62 253.097L304.327 194.186L282.573 189.111L196.662 249.013Z" fill="url(#paint16_linear)"/>
<path opacity="0.88" fill-rule="evenodd" clip-rule="evenodd" d="M183.278 284.852L201.203 292.979L215.653 284.852L234.327 280.847L197.649 276.883L183.278 284.852Z" fill="url(#paint17_linear)"/>
<path fill-rule="evenodd" clip-rule="evenodd" d="M251.62 253.097L294.931 265.902L369.313 233.354L310.447 285.288L196.662 249.013L251.62 253.097Z" fill="url(#paint18_radial)"/>
<path fill-rule="evenodd" clip-rule="evenodd" d="M206.493 300.392L201.202 292.979L215.653 284.852L234.327 280.848L241.947 300.392L206.493 300.392Z" fill="#1C0843"/>
<path fill-rule="evenodd" clip-rule="evenodd" d="M469.161 241.402L446.143 268.36L426.679 300.392L469.161 268.36L469.161 241.402Z" fill="url(#paint19_linear)"/>
<path fill-rule="evenodd" clip-rule="evenodd" d="M316.685 440.653L303.696 435.777L313.645 410.286L216.877 412.189L179.646 443.428L185.963 466.105C185.963 466.105 223.825 477.562 259.24 472.25C294.615 466.977 316.685 440.653 316.685 440.653Z" fill="url(#paint20_radial)"/>
<path opacity="0.88" fill-rule="evenodd" clip-rule="evenodd" d="M211.626 404.498L216.877 412.228L179.646 443.468L173.526 439.186L211.626 404.498Z" fill="url(#paint21_linear)"/>
<path fill-rule="evenodd" clip-rule="evenodd" d="M400.582 222.174L455.382 241.521L435.562 255.198L400.582 222.174Z" fill="#1C0843"/>
<path d="M47.4238 279.935L46.9895 279.063C47.8975 278.588 138.625 232.917 168.749 210.201C196.307 189.428 206.572 172.341 208.151 169.526L186.358 156.602L37.3561 233.79L36.9218 232.917L186.397 155.453L209.454 169.13L209.257 169.526C209.178 169.725 199.584 188.119 169.341 210.955C139.099 233.75 48.3318 279.46 47.4238 279.935Z" fill="#00ADFF"/>
<path d="M43.0807 271.61L42.6464 270.738L103.526 239.142L156.589 189.15L151.14 185.463L38.3035 240.014L37.8692 239.142L151.219 184.314L158.208 189.031L157.734 189.467L104.04 240.014L43.0807 271.61Z" fill="#00ADFF"/>
<path d="M36.0138 221.144L35.3032 220.47L124.491 117.712L208.467 35.4502L209.138 36.1638L125.202 118.386L36.0138 221.144Z" fill="#00ADFF"/>
<path d="M31.7892 210.162L57.4125 128.217L58.36 128.534L34.5924 204.532L84.2201 134.758L157.023 51.3867L157.773 52.0607L85.0098 135.353L31.7892 210.162Z" fill="#00ADFF"/>
<path d="M447.88 160.686L380.802 158.981L307.012 145.938L307.012 139.714L307.288 139.556L370.813 103.202L408.36 98.5239L408.478 99.515L371.011 104.153L307.999 140.269L307.999 145.106L380.92 157.99L447.92 159.695L447.88 160.686Z" fill="url(#paint22_linear)"/>
<path d="M383.961 149.268L341.203 143.995L341.203 139.516L341.36 139.357L375.156 111.21L417.441 107.999L417.52 108.99L375.551 112.161L342.19 139.991L342.19 143.123L384 148.277L442.314 147.008L442.353 148L383.961 149.268Z" fill="#00ADFF"/>
<path d="M466.397 231.689L441.998 225.029L441.879 224.83L432.641 203.066L453.724 176.623L454.474 177.257L433.786 203.224L442.709 224.196L466.674 230.737L466.397 231.689Z" fill="#00ADFF"/>
<path d="M466.358 226.218L453.684 221.183L453.605 220.945L449.341 207.268L449.46 207.109L458.422 192.243L459.291 192.758L450.407 207.426L454.474 220.43L466.713 225.306L466.358 226.218Z" fill="#00ADFF"/>
<path d="M196.741 249.489L196.544 248.538L271.637 231.57L369.155 202.669L369.431 203.621L271.874 232.522L196.741 249.489Z" fill="#00ADFF"/>
<path d="M294.97 275.377L294.22 274.703L312.618 254.762L369.037 218.289L369.55 219.122L313.21 255.555L294.97 275.377Z" fill="#00ADFF"/>
<path d="M181.541 442.397L181.423 441.406L306.064 429.037L306.183 430.028L181.541 442.397Z" fill="#00ADFF"/>
<path d="M312.421 413.893L230.221 412.427L230.221 411.436L312.421 412.902L312.421 413.893Z" fill="#00ADFF"/>
<path fill-rule="evenodd" clip-rule="evenodd" d="M37.2772 356.687L37.2772 383.922L53.5039 403.586C53.5039 403.586 94.051 420.117 124.846 418.492L112.765 394.666L118.885 383.922L37.2772 356.687Z" fill="url(#paint23_linear)"/>
<path fill-rule="evenodd" clip-rule="evenodd" d="M33.171 334.922L48.4502 343.525L89.3526 343.525L97.7226 328.975L41.5805 322.672L33.171 334.922Z" fill="url(#paint24_linear)"/>
<path fill-rule="evenodd" clip-rule="evenodd" d="M33.171 334.922L53.5432 338.173L90.3396 334.922L97.7226 328.975L41.5805 322.672L33.171 334.922Z" fill="url(#paint25_linear)"/>
<path fill-rule="evenodd" clip-rule="evenodd" d="M37.2772 356.687L37.2772 383.922L61.1238 398.59L97.7227 392.644L118.924 383.922L37.2772 356.687Z" fill="url(#paint26_linear)"/>
<path fill-rule="evenodd" clip-rule="evenodd" d="M97.7225 328.976L90.3395 334.922L48.4501 343.525L94.643 347.569L97.7225 328.976Z" fill="#1C0843"/>
<path fill-rule="evenodd" clip-rule="evenodd" d="M112.804 394.706L84.6544 404.498L124.846 418.532L118.924 394.706L118.924 383.923L112.804 394.706Z" fill="#1C0843"/>
<defs>
<radialGradient id="paint0_radial" cx="0" cy="0" r="1" gradientUnits="userSpaceOnUse" gradientTransform="translate(62.6728 437.786) rotate(-43.5404) scale(338.942 346.432)">
<stop stop-color="#FA24FE"/>
<stop offset="0.5" stop-color="#4C00AD"/>
<stop offset="1" stop-color="#13033A"/>
</radialGradient>
<radialGradient id="paint1_radial" cx="0" cy="0" r="1" gradientUnits="userSpaceOnUse" gradientTransform="translate(62.6727 437.785) rotate(-43.5405) scale(338.942 346.432)">
<stop offset="0.0572917" stop-color="#00E0FF"/>
<stop offset="0.703125" stop-color="#3000B8"/>
</radialGradient>
<linearGradient id="paint2_linear" x1="138.987" y1="299.634" x2="138.987" y2="31.9221" gradientUnits="userSpaceOnUse">
<stop stop-color="#4F0E6F"/>
<stop offset="1" stop-color="#450086"/>
</linearGradient>
<radialGradient id="paint3_radial" cx="0" cy="0" r="1" gradientUnits="userSpaceOnUse" gradientTransform="translate(381.496 381.183) rotate(-111.65) scale(317.868 533.97)">
<stop stop-color="#7A0676"/>
<stop offset="1" stop-color="#0A0049"/>
</radialGradient>
<linearGradient id="paint4_linear" x1="247.563" y1="468.052" x2="247.563" y2="404.493" gradientUnits="userSpaceOnUse">
<stop stop-color="#4F0E6F"/>
<stop offset="1" stop-color="#450086"/>
</linearGradient>
<radialGradient id="paint5_radial" cx="0" cy="0" r="1" gradientUnits="userSpaceOnUse" gradientTransform="translate(175.061 491.822) rotate(-143.387) scale(58.7368 137.747)">
<stop stop-color="#7A0676"/>
<stop offset="1" stop-color="#0A0049"/>
</radialGradient>
<radialGradient id="paint6_radial" cx="0" cy="0" r="1" gradientUnits="userSpaceOnUse" gradientTransform="translate(353.883 511.408) rotate(-123.878) scale(105.08 238.225)">
<stop stop-color="#7A0676"/>
<stop offset="1" stop-color="#0A0049"/>
</radialGradient>
<linearGradient id="paint7_linear" x1="341.681" y1="119.46" x2="341.681" y2="45.5695" gradientUnits="userSpaceOnUse">
<stop stop-color="#4F0E6F"/>
<stop offset="1" stop-color="#450086"/>
</linearGradient>
<linearGradient id="paint8_linear" x1="146.501" y1="11.3742" x2="280.985" y2="97.3575" gradientUnits="userSpaceOnUse">
<stop stop-color="#4122FF"/>
<stop offset="1" stop-color="#18D1BB"/>
</linearGradient>
<linearGradient id="paint9_linear" x1="364.731" y1="438.384" x2="402.082" y2="479.439" gradientUnits="userSpaceOnUse">
<stop stop-color="#4122FF"/>
<stop offset="1" stop-color="#18D1BB"/>
</linearGradient>
<linearGradient id="paint10_linear" x1="442.547" y1="273.451" x2="495.265" y2="313.389" gradientUnits="userSpaceOnUse">
<stop stop-color="#4122FF"/>
<stop offset="1" stop-color="#18D1BB"/>
</linearGradient>
<linearGradient id="paint11_linear" x1="379.004" y1="418.528" x2="379.004" y2="383.37" gradientUnits="userSpaceOnUse">
<stop stop-color="#8B1EC0"/>
<stop offset="1" stop-color="#450086"/>
</linearGradient>
<linearGradient id="paint12_linear" x1="379.006" y1="392.644" x2="379.006" y2="418.532" gradientUnits="userSpaceOnUse">
<stop stop-color="#FF33BA"/>
<stop offset="1" stop-color="#3F10DB" stop-opacity="0"/>
</linearGradient>
<radialGradient id="paint13_radial" cx="0" cy="0" r="1" gradientUnits="userSpaceOnUse" gradientTransform="translate(182.208 300.468) rotate(-119.407) scale(168.727 353.551)">
<stop stop-color="#0A0049"/>
<stop offset="1" stop-color="#7A0676"/>
</radialGradient>
<radialGradient id="paint14_radial" cx="0" cy="0" r="1" gradientUnits="userSpaceOnUse" gradientTransform="translate(289.797 275.088) rotate(-137.107) scale(126.31 308.544)">
<stop stop-color="#7A0676"/>
<stop offset="1" stop-color="#0A0049"/>
</radialGradient>
<linearGradient id="paint15_linear" x1="208.809" y1="300.378" x2="208.809" y2="276.865" gradientUnits="userSpaceOnUse">
<stop stop-color="#4F0E6F"/>
<stop offset="1" stop-color="#450086"/>
</linearGradient>
<linearGradient id="paint16_linear" x1="250.495" y1="189.111" x2="250.495" y2="253.097" gradientUnits="userSpaceOnUse">
<stop stop-color="#4122FF"/>
<stop offset="1" stop-color="#FF3389"/>
</linearGradient>
<linearGradient id="paint17_linear" x1="208.803" y1="276.883" x2="208.803" y2="292.979" gradientUnits="userSpaceOnUse">
<stop stop-color="#4122FF"/>
<stop offset="1" stop-color="#FF3389"/>
</linearGradient>
<radialGradient id="paint18_radial" cx="0" cy="0" r="1" gradientUnits="userSpaceOnUse" gradientTransform="translate(289.797 285.329) rotate(-150.68) scale(106.133 221.981)">
<stop stop-color="#7A0676"/>
<stop offset="1" stop-color="#0A0049"/>
</radialGradient>
<linearGradient id="paint19_linear" x1="447.92" y1="241.402" x2="447.92" y2="300.392" gradientUnits="userSpaceOnUse">
<stop stop-color="#FF33BA"/>
<stop offset="1" stop-color="#3F10DB" stop-opacity="0"/>
</linearGradient>
<radialGradient id="paint20_radial" cx="0" cy="0" r="1" gradientUnits="userSpaceOnUse" gradientTransform="translate(253.57 473.705) rotate(-139.193) scale(97.0383 235.141)">
<stop stop-color="#7A0676"/>
<stop offset="1" stop-color="#0A0049"/>
</radialGradient>
<linearGradient id="paint21_linear" x1="195.202" y1="404.498" x2="195.202" y2="443.468" gradientUnits="userSpaceOnUse">
<stop stop-color="#4122FF"/>
<stop offset="1" stop-color="#FF3389"/>
</linearGradient>
<linearGradient id="paint22_linear" x1="387.276" y1="93.7528" x2="416.149" y2="146.86" gradientUnits="userSpaceOnUse">
<stop stop-color="#4122FF"/>
<stop offset="1" stop-color="#18D1BB"/>
</linearGradient>
<linearGradient id="paint23_linear" x1="48.14" y1="397.655" x2="100.375" y2="383.908" gradientUnits="userSpaceOnUse">
<stop stop-color="#4122FF"/>
<stop offset="1" stop-color="#18D1BB"/>
</linearGradient>
<linearGradient id="paint24_linear" x1="65.459" y1="343.518" x2="65.459" y2="322.687" gradientUnits="userSpaceOnUse">
<stop stop-color="#4F0E6F"/>
<stop offset="1" stop-color="#450086"/>
</linearGradient>
<linearGradient id="paint25_linear" x1="65.4468" y1="322.672" x2="65.4468" y2="338.173" gradientUnits="userSpaceOnUse">
<stop stop-color="#4122FF"/>
<stop offset="1" stop-color="#FF3389"/>
</linearGradient>
<linearGradient id="paint26_linear" x1="78.1006" y1="356.687" x2="78.1006" y2="398.59" gradientUnits="userSpaceOnUse">
<stop stop-color="#4122FF"/>
<stop offset="1" stop-color="#FF3389"/>
</linearGradient>
</defs>
</svg>
