<svg width="188" height="198" viewBox="0 0 188 198" fill="none" xmlns="http://www.w3.org/2000/svg">
<g opacity="0.8">
<g filter="url(#filter0_d)">
<path d="M85.5837 21.8678C89.2339 19.817 93.6891 19.817 97.3393 21.8678L156.535 55.1258C160.317 57.2504 162.657 61.2502 162.657 65.5877V131.543C162.657 135.881 160.317 139.88 156.535 142.005L97.3393 175.263C93.6891 177.314 89.2339 177.314 85.5837 175.263L26.3878 142.005C22.6063 139.88 20.2656 135.881 20.2656 131.543V65.5877C20.2656 61.2502 22.6063 57.2504 26.3878 55.1258L85.5837 21.8678Z" fill="url(#paint0_linear)"/>
<path d="M86.196 22.9575C89.466 21.1204 93.4571 21.1204 96.7271 22.9575L155.923 56.2156C159.311 58.1188 161.407 61.7021 161.407 65.5877V131.543C161.407 135.429 159.311 139.012 155.923 140.915L96.7271 174.173C93.4571 176.01 89.466 176.01 86.196 174.173L27.0001 140.915C23.6125 139.012 21.5156 135.429 21.5156 131.543V65.5877C21.5156 61.7021 23.6125 58.1188 27.0001 56.2156L86.196 22.9575Z" stroke="url(#paint1_linear)" stroke-width="2.5"/>
</g>
<g clip-path="url(#clip0)">
<path d="M93.8608 78.8575C92.7487 78.8575 91.7718 78.0458 91.5975 76.913L87.0113 47.1026C86.8187 45.8506 87.6763 44.6788 88.9284 44.4862C90.1804 44.2844 91.3499 45.1512 91.5425 46.4032L96.1287 76.2136C96.3214 77.4656 95.4637 78.6374 94.2117 78.83C94.0947 78.8484 93.9755 78.8575 93.8608 78.8575Z" fill="#684EF4"/>
<path d="M103.036 83.4438C102.38 83.4438 101.726 83.164 101.272 82.6206C100.46 81.646 100.593 80.1991 101.566 79.3896L142.842 44.993C143.814 44.1859 145.261 44.3143 146.07 45.2865C146.882 46.2611 146.749 47.7081 145.777 48.5175L104.501 82.9141C104.074 83.2695 103.554 83.4438 103.036 83.4438Z" fill="#684EF4"/>
<path d="M43.4149 133.892C42.782 133.892 42.1537 133.633 41.6996 133.121C40.8581 132.177 40.9429 130.725 41.89 129.886L83.1658 93.1962C84.1129 92.3547 85.5621 92.4395 86.4037 93.3866C87.2453 94.3313 87.1604 95.7829 86.2134 96.6221L44.9375 133.312C44.5018 133.702 43.9583 133.892 43.4149 133.892Z" fill="#684EF4"/>
<path d="M82.3977 85.7368C82.0904 85.7368 81.7785 85.6772 81.4804 85.5442L44.7908 69.4924C43.6304 68.9834 43.1007 67.6327 43.6098 66.4747C44.1166 65.3121 45.4695 64.7801 46.6298 65.2915L83.3195 81.3432C84.4798 81.8523 85.0095 83.2029 84.5004 84.3609C84.1221 85.2231 83.2805 85.7368 82.3977 85.7368Z" fill="#684EF4"/>
<path d="M128.26 117.84C127.741 117.84 127.221 117.666 126.792 117.311L99.2749 94.3796C98.3026 93.5679 98.1696 92.1232 98.9813 91.1487C99.7931 90.1741 101.238 90.0503 102.21 90.8551L129.727 113.786C130.7 114.598 130.833 116.043 130.021 117.017C129.569 117.561 128.916 117.84 128.26 117.84Z" fill="#684EF4"/>
<path d="M93.8632 104.082C102.728 104.082 109.915 96.8951 109.915 88.03C109.915 79.1649 102.728 71.9783 93.8632 71.9783C84.998 71.9783 77.8114 79.1649 77.8114 88.03C77.8114 96.8951 84.998 104.082 93.8632 104.082Z" fill="#9FBCED"/>
<path d="M148.898 53.6334C155.23 53.6334 160.363 48.5001 160.363 42.1679C160.363 35.8357 155.23 30.7024 148.898 30.7024C142.565 30.7024 137.432 35.8357 137.432 42.1679C137.432 48.5001 142.565 53.6334 148.898 53.6334Z" fill="#6700CD"/>
<path d="M50.2941 137.435C56.6264 137.435 61.7597 132.302 61.7597 125.969C61.7597 119.637 56.6264 114.504 50.2941 114.504C43.9619 114.504 38.8286 119.637 38.8286 125.969C38.8286 132.302 43.9619 137.435 50.2941 137.435Z" fill="#FF3389"/>
<path d="M43.4149 74.2713C47.2142 74.2713 50.2942 71.1913 50.2942 67.392C50.2942 63.5927 47.2142 60.5127 43.4149 60.5127C39.6155 60.5127 36.5356 63.5927 36.5356 67.392C36.5356 71.1913 39.6155 74.2713 43.4149 74.2713Z" fill="#B67BFF"/>
<path d="M88.6142 49.0472C92.4136 49.0472 95.4935 45.9672 95.4935 42.1679C95.4935 38.3685 92.4136 35.2886 88.6142 35.2886C84.8149 35.2886 81.7349 38.3685 81.7349 42.1679C81.7349 45.9672 84.8149 49.0472 88.6142 49.0472Z" fill="#F80068"/>
<path d="M130.553 124.72C134.352 124.72 137.432 121.64 137.432 117.84C137.432 114.041 134.352 110.961 130.553 110.961C126.753 110.961 123.673 114.041 123.673 117.84C123.673 121.64 126.753 124.72 130.553 124.72Z" fill="#18D1BB"/>
<path d="M85.135 77.6772C85.135 77.6772 82.1857 77.2416 80.4999 79.3464C78.814 81.4512 80.3648 91.3633 80.3648 91.3633L102.425 92.0035L102.5 79.5908L85.135 77.6772Z" fill="#C7DCF9"/>
<path d="M87.5943 82.0069C87.5943 82.0069 84.7742 82.8038 83.0693 84.5028C81.3645 86.2019 79.8147 88.0353 79.5032 91.164C78.9187 97.0346 86.3102 98.576 92.1951 98.9967C99.3984 99.5117 108.278 99.6724 108.277 93.0668C108.277 90.7659 108.443 88.8423 108.09 87.4543C107.737 86.0662 105.569 83.3417 101.579 82.7764C98.1209 84.3781 87.5943 82.0069 87.5943 82.0069Z" fill="url(#paint2_radial)"/>
<g style="mix-blend-mode:multiply">
<path d="M86.2619 82.4912C86.2619 82.4912 89.4429 86.0002 94.8198 86.8387C100.197 87.6773 103.757 83.3504 103.757 83.3504L101.577 82.7758L87.5949 82.0068L86.2619 82.4912Z" fill="#9FBCED"/>
</g>
<path d="M104.786 69.6604C102.901 66.6228 97.4669 62.8275 91.4068 65.1711C85.3467 67.5148 84.4826 73.0751 84.7445 76.0473C85.016 79.1645 88.3961 85.6405 95.9346 85.7437C103.473 85.8469 109.358 77.0322 104.786 69.6604Z" fill="url(#paint3_radial)"/>
<path d="M102.769 72.0685C104.859 74.0475 104.468 78.3605 101.772 81.1495C99.0767 83.9386 95.0071 84.5107 91.8493 82.711C88.6915 80.9113 86.8035 76.9531 89.1426 72.9407C91.3911 69.0851 98.2318 67.7716 102.769 72.0685Z" fill="url(#paint4_radial)"/>
<g style="mix-blend-mode:soft-light" opacity="0.48">
<path d="M98.3078 74.9099C100.267 75.5298 102.033 75.4703 102.252 74.777C102.472 74.0837 101.062 73.0192 99.1033 72.3993C97.1444 71.7794 95.3784 71.8389 95.1587 72.5322C94.939 73.2255 96.3489 74.29 98.3078 74.9099Z" fill="white"/>
</g>
</g>
<g clip-path="url(#clip1)">
<g filter="url(#filter1_d)">
<rect x="112.276" y="139.268" width="50.6218" height="45" rx="5" transform="rotate(-15 112.276 139.268)" fill="url(#paint5_linear)"/>
</g>
<path d="M141.136 149.261C138.226 150.041 136.491 153.04 137.269 155.944C138.048 158.849 141.049 160.579 143.96 159.799C146.871 159.019 148.605 156.02 147.827 153.115C147.049 150.211 144.047 148.481 141.136 149.261ZM143.395 157.691C141.649 158.159 139.848 157.122 139.381 155.379C138.914 153.635 139.955 151.837 141.701 151.369C143.448 150.901 145.248 151.938 145.715 153.681C146.183 155.424 145.142 157.223 143.395 157.691ZM160.134 149.161C159.692 148.798 149.202 140.324 139.442 142.939C129.683 145.554 124.835 158.138 124.634 158.673C124.468 159.11 124.6 159.604 124.962 159.899C125.404 160.262 135.894 168.736 145.654 166.121C155.414 163.506 160.261 150.922 160.463 150.387C160.628 149.95 160.496 149.456 160.134 149.161ZM144.525 161.906C140.45 162.998 136.247 160.577 135.158 156.51C134.068 152.443 136.497 148.246 140.572 147.154C144.646 146.062 148.849 148.483 149.939 152.55C151.028 156.616 148.599 160.814 144.525 161.906ZM142.266 153.476C141.683 153.632 141.337 154.231 141.492 154.813C141.648 155.394 142.248 155.74 142.83 155.584C143.413 155.428 143.76 154.829 143.604 154.247C143.448 153.666 142.848 153.32 142.266 153.476Z" fill="url(#paint6_linear)"/>
</g>
</g>
<defs>
<filter id="filter0_d" x="0.265633" y="0.32959" width="182.392" height="196.472" filterUnits="userSpaceOnUse" color-interpolation-filters="sRGB">
<feFlood flood-opacity="0" result="BackgroundImageFix"/>
<feColorMatrix in="SourceAlpha" type="matrix" values="0 0 0 0 0 0 0 0 0 0 0 0 0 0 0 0 0 0 127 0"/>
<feOffset/>
<feGaussianBlur stdDeviation="10"/>
<feColorMatrix type="matrix" values="0 0 0 0 0.635294 0 0 0 0 0.0745098 0 0 0 0 0.470588 0 0 0 0.5 0"/>
<feBlend mode="normal" in2="BackgroundImageFix" result="effect1_dropShadow"/>
<feBlend mode="normal" in="SourceGraphic" in2="effect1_dropShadow" result="shape"/>
</filter>
<filter id="filter1_d" x="98.3987" y="112.288" width="88.2988" height="84.3236" filterUnits="userSpaceOnUse" color-interpolation-filters="sRGB">
<feFlood flood-opacity="0" result="BackgroundImageFix"/>
<feColorMatrix in="SourceAlpha" type="matrix" values="0 0 0 0 0 0 0 0 0 0 0 0 0 0 0 0 0 0 127 0"/>
<feOffset/>
<feGaussianBlur stdDeviation="7.5"/>
<feColorMatrix type="matrix" values="0 0 0 0 1 0 0 0 0 0.516667 0 0 0 0 0.516667 0 0 0 0.5 0"/>
<feBlend mode="normal" in2="BackgroundImageFix" result="effect1_dropShadow"/>
<feBlend mode="normal" in="SourceGraphic" in2="effect1_dropShadow" result="shape"/>
</filter>
<linearGradient id="paint0_linear" x1="26.1473" y1="203.857" x2="192.555" y2="130.874" gradientUnits="userSpaceOnUse">
<stop stop-color="#BC187A"/>
<stop offset="1" stop-color="#23006D"/>
</linearGradient>
<linearGradient id="paint1_linear" x1="4.75444" y1="178.565" x2="201.816" y2="184.659" gradientUnits="userSpaceOnUse">
<stop stop-color="#BC187A"/>
<stop offset="1" stop-color="#23006D"/>
</linearGradient>
<radialGradient id="paint2_radial" cx="0" cy="0" r="1" gradientUnits="userSpaceOnUse" gradientTransform="translate(96.3883 104.658) rotate(-107.945) scale(25.8281 119.39)">
<stop stop-color="#23006D"/>
<stop offset="1" stop-color="#920EE2"/>
</radialGradient>
<radialGradient id="paint3_radial" cx="0" cy="0" r="1" gradientUnits="userSpaceOnUse" gradientTransform="translate(96.0222 87.5298) rotate(-102.773) scale(22.3208 103.412)">
<stop stop-color="#23006D"/>
<stop offset="1" stop-color="#920EE2"/>
</radialGradient>
<radialGradient id="paint4_radial" cx="0" cy="0" r="1" gradientUnits="userSpaceOnUse" gradientTransform="translate(95.9481 76.445) rotate(-57.2777) scale(27.0619 41.9654)">
<stop stop-color="#30B1FF"/>
<stop offset="0.859375" stop-color="#6700CD"/>
</radialGradient>
<linearGradient id="paint5_linear" x1="137.587" y1="184.268" x2="137.587" y2="139.268" gradientUnits="userSpaceOnUse">
<stop stop-color="#F35C80"/>
<stop offset="1" stop-color="#FFA68D"/>
</linearGradient>
<linearGradient id="paint6_linear" x1="145.654" y1="166.121" x2="139.442" y2="142.939" gradientUnits="userSpaceOnUse">
<stop stop-color="#FFC2CC"/>
<stop offset="1" stop-color="#FFF2F4"/>
</linearGradient>
<clipPath id="clip0">
<rect width="133" height="133" fill="white" transform="translate(27.3632 21.53)"/>
</clipPath>
<clipPath id="clip1">
<rect width="89" height="86" fill="white" transform="translate(98.0612 111.608)"/>
</clipPath>
</defs>
</svg>
