<svg width="378" height="341" viewBox="0 0 378 341" fill="none" xmlns="http://www.w3.org/2000/svg">
<path d="M171.51 33.2261C143.033 42.6473 116.488 52.4567 91.0818 68.4016C60.3807 87.6694 22.8778 101.946 8.79468 135.345C-6.18076 170.86 1.35846 212.047 15.3711 247.953C29.7532 284.806 50.256 326.135 87.9445 338.157C124.964 349.966 158.609 311.959 196.99 305.887C231.426 300.44 267.888 320.467 299.017 304.767C333.99 287.128 362.087 254.787 372.932 217.149C384.094 178.414 373.183 137.462 357.985 100.126C342.511 62.1108 324.753 17.7367 286.121 3.87672C248.07 -9.77444 209.89 20.5289 171.51 33.2261Z" fill="url(#paint0_radial)"/>
<defs>
<radialGradient id="paint0_radial" cx="0" cy="0" r="1" gradientUnits="userSpaceOnUse" gradientTransform="translate(189.052 191.423) rotate(174.194) scale(488.728 863.682)">
<stop offset="0.13663" stop-color="#0B0238"/>
<stop offset="0.824886" stop-color="#4122FF"/>
</radialGradient>
</defs>
</svg>
