<svg width="122" height="40" viewBox="0 0 122 40" fill="none" xmlns="http://www.w3.org/2000/svg">
<path d="M0.819512 12.2885C-0.273171 17.3696 -0.273171 22.6304 0.819512 27.7173C1.01504 28.6269 1.90069 29.2005 2.79784 29.0093C3.70074 28.8123 4.27009 27.92 4.08031 27.0104C3.09114 22.3928 3.09114 17.613 4.08031 12.9954C4.27009 12.0857 3.70074 11.1935 2.79784 11.0023C2.68282 10.9733 2.56205 10.9618 2.44703 10.9618C1.68216 10.9618 0.98629 11.5006 0.819512 12.2885ZM8.22675 6.35574C4.0573 15.0348 4.08606 25.168 8.31302 33.8239C8.72133 34.6582 9.71625 35 10.5444 34.5886C11.3725 34.1773 11.7118 33.175 11.3035 32.3407C7.50213 24.6176 7.47913 15.562 11.2288 7.82155C11.6313 6.98725 11.2863 5.97914 10.4524 5.57937C10.2166 5.4635 9.96929 5.41136 9.72775 5.41136C9.10665 5.40556 8.5143 5.75898 8.22675 6.35574ZM18.958 1.25145C18.4692 1.70915 17.9919 2.19003 17.5376 2.6825C8.05997 13.0417 8.69258 29.1773 18.958 38.7485H18.9638C19.6424 39.3801 20.6948 39.3337 21.3217 38.6558C21.9485 37.9722 21.9025 36.9119 21.2297 36.2804C12.3157 27.9664 11.7693 13.9571 19.9932 4.96524C20.3785 4.5365 20.8041 4.11935 21.2239 3.72538C21.9025 3.09386 21.9428 2.02781 21.3159 1.34415C20.9881 0.984936 20.5396 0.80533 20.091 0.80533C19.6884 0.80533 19.2801 0.950174 18.958 1.25145ZM19.6309 20C19.6424 10.8169 27.0324 3.37196 36.1477 3.36037C45.2687 3.36037 52.6644 10.8111 52.6644 20C52.6644 29.1889 45.2687 36.6396 36.1477 36.6396C27.0266 36.6396 19.6309 29.1889 19.6309 20ZM16.2954 20C16.3069 31.0429 25.1863 39.9884 36.1477 40C47.1148 40 56 31.0429 56 20C56 8.95133 47.109 0 36.1477 0C25.1863 0 16.2954 8.95133 16.2954 20Z" fill="url(#paint0_linear)"/>
<path d="M68.0891 22.1368C68.0891 17.5748 69.9097 13.2736 75.2776 13.2736C78.1593 13.2736 79.6472 14.3807 80.3504 15.4178V7H84.8895V30.7264H82.9621L81.9325 27.9777C80.8401 29.6893 79.1513 31 75.3781 31C70.0479 30.9936 68.0891 26.667 68.0891 22.1368ZM72.7287 22.1368C72.7287 25.1209 73.5574 27.1697 76.6714 27.1697C79.8481 27.1697 80.4446 25.1527 80.4446 22.1368C80.4446 19.2863 79.9486 17.1675 76.7028 17.1675C73.5574 17.1612 72.7287 19.1845 72.7287 22.1368ZM26 19.9862C26 14.1135 27.8583 8.97879 36.133 8.97879C44.4767 8.97879 46.2974 14.1198 46.2974 20.018C46.2974 25.859 44.4767 30.9936 36.133 30.9936C27.8207 30.9936 26 25.859 26 19.9862ZM30.8028 19.9862C30.8028 23.9438 31.5625 27.0361 36.133 27.0361C40.7726 27.0361 41.5009 23.9502 41.5009 20.0244C41.5009 16.0668 40.7726 12.9427 36.133 12.9427C31.5625 12.9427 30.8028 16.0604 30.8028 19.9862ZM106.041 24.351H110.511C110.511 26.1326 111.603 27.4369 114.284 27.4369C116.733 27.4369 117.53 26.3616 117.53 25.6935C117.53 22.8749 106.468 24.9555 106.336 18.8791C106.336 15.755 108.458 13.2736 113.951 13.2736C119.583 13.2736 121.504 15.8568 121.504 19.6172H117.266C117.097 17.842 116.375 16.7667 113.82 16.7667C111.566 16.7667 110.837 17.7402 110.837 18.5801C110.837 21.0361 122 18.9809 122 25.4963C122 28.1495 119.847 31 114.385 31C108.558 30.9936 106.047 28.7158 106.041 24.351ZM87.5954 25.6299C87.5954 22.3722 89.7175 20.9661 94.6835 20.527L99.185 20.1262C99.1536 18.211 98.2935 16.8367 95.7759 16.8367C93.3526 16.8367 92.662 17.9438 92.662 19.6235L88.1605 19.6554C88.1605 16.1304 89.5856 13.28 95.6755 13.28C102.732 13.28 103.724 16.4358 103.724 20.9979V30.7328H101.803L100.773 27.9841C99.7752 29.5557 97.7912 31 94.3508 31C90.5776 30.9936 87.5954 29.3139 87.5954 25.6299ZM95.3804 23.6447C93.0261 23.8802 92.3355 24.4846 92.3355 25.3881C92.3355 26.5652 93.2333 27.4051 95.4495 27.4051C98.2621 27.4051 99.1599 25.4581 99.1913 23.2121L95.3804 23.6447ZM61.07 30.7264V20.9979C61.07 18.5419 60.5741 17.1421 57.7551 17.1421C54.9048 17.1421 54.277 18.6182 54.277 21.106V30.7328H49.7442V13.5408H51.6339L52.6949 16.2259C53.8564 14.4507 55.3757 13.2736 59.0861 13.2736C64.454 13.2736 65.6092 16.5631 65.6092 21.3605V30.7264H61.07Z" fill="white"/>
<defs>
<linearGradient id="paint0_linear" x1="1.15019" y1="11.5875" x2="50.7303" y2="33.6193" gradientUnits="userSpaceOnUse">
<stop stop-color="#684EF4"/>
<stop offset="1" stop-color="#00CCFF"/>
</linearGradient>
</defs>
</svg>
