<svg width="1093" height="1090" viewBox="0 0 1093 1090" fill="none" xmlns="http://www.w3.org/2000/svg">
<circle cx="548" cy="545" r="545" fill="url(#paint0_radial)"/>
<circle cx="548" cy="545" r="545" fill="url(#paint1_radial)"/>
<path fill-rule="evenodd" clip-rule="evenodd" d="M1090 485.645C1088.14 489.177 1086.38 492.709 1085.07 496.612C1083.03 502.374 1080.43 507.021 1077.36 512.319C1073.83 518.546 1071.69 525.795 1068.81 532.301C1062.49 546.985 1057.75 563.064 1052.45 578.12C1046.59 595.035 1041.02 611.857 1033.77 628.214C1030.51 635.649 1025.77 642.248 1022.43 649.497C1019.17 656.839 1015.92 663.81 1011.92 670.78C1001.98 687.881 992.962 705.354 982.366 722.176C963.405 752.474 940.54 779.427 918.418 807.401C907.264 821.528 894.066 833.796 881.239 846.529C866.739 860.841 854.098 876.827 839.134 890.861C827.515 901.828 815.525 912.795 802.233 921.624C794.705 926.643 787.455 932.126 779.833 937.052C770.166 943.279 758.827 946.903 748.509 951.922C714.212 968.372 677.59 978.689 641.526 990.306C606.206 1001.55 572.187 1016.98 536.216 1025.99C528.781 1027.85 521.345 1028.6 513.816 1030.08C505.73 1031.66 497.922 1033.99 489.65 1034.92C473.105 1036.78 457.118 1042.35 440.387 1043.19C428.769 1043.75 417.894 1041.52 406.461 1040.96C391.775 1040.21 377.276 1041.89 362.59 1042.91C346.417 1044.12 330.244 1043.19 314.071 1041.05C300.129 1034.55 286.558 1027.39 273.267 1019.77C273.732 1019.95 274.289 1020.05 274.754 1020.23C284.235 1023.3 293.065 1028.78 302.638 1031.01C312.863 1033.34 323.459 1035.01 333.962 1036.78C348.369 1039.29 361.381 1039.19 375.788 1037.05C383.224 1035.85 390.66 1035.01 398.096 1033.43C406.182 1031.76 414.269 1033.8 422.262 1031.94C433.416 1029.25 445.871 1031.39 457.211 1031.01C476.823 1030.36 496.156 1023.11 515.117 1019.3C536.216 1015.03 556.2 1007.41 577.671 1004.8C589.94 1003.32 599.514 999.135 611.132 995.511C621.078 992.444 627.491 986.867 635.764 980.64C651.658 968.744 667.738 956.476 686.327 948.762C704.824 941.048 724.343 935.658 743.955 931.754C760.035 928.594 777.695 920.787 790.15 909.82C795.634 904.895 800.839 899.783 806.23 894.764C812.922 888.63 819.986 883.24 825.935 876.455C832.72 868.741 840.435 861.678 847.127 853.964C854.563 845.32 860.512 835.748 867.855 827.104C879.473 813.349 897.319 806.193 908.752 792.159C911.168 789.278 912.748 785.746 915.258 782.865C917.953 779.891 920.649 778.404 922.229 774.687C924.181 770.133 928.921 759.445 926.319 754.333C921.207 743.924 893.88 770.69 889.604 774.872C882.819 781.192 877.335 787.698 869.156 792.438C864.23 795.226 859.396 798.293 854.191 800.431C845.547 803.963 835.416 804.334 826.307 806.286C800.839 811.769 774.814 814.744 749.067 818.74C714.212 824.13 678.984 831.473 644.78 839.837C612.713 847.644 580.924 856.659 548.857 864.28C531.848 868.37 514.745 872.645 497.643 876.455C476.73 881.102 456.188 887.515 435.275 891.604C400.884 898.296 365.936 905.917 330.802 906.846C303.103 907.59 275.683 908.984 248.078 908.984C210.806 908.984 170.745 912.795 134.217 903.965C133.752 903.872 133.287 903.687 132.823 903.594C118.23 886.864 104.752 869.206 92.3902 850.804C105.868 856.659 119.81 861.306 134.217 863.908C144.627 865.767 155.781 868.184 164.425 874.411C170.188 878.593 175.579 882.496 182.55 884.634C206.344 892.255 227.536 891.79 251.424 884.82C260.347 882.125 269.177 879.429 278.007 876.548C284.514 874.411 290.462 870.507 296.969 868.741C315.558 863.815 334.612 860.377 353.202 856.102C362.032 854.057 371.327 852.384 379.971 849.782C389.824 846.715 398.932 841.696 408.32 837.885C426.352 830.45 443.083 822.829 462.323 819.576C474.499 817.532 488.534 816.045 499.595 810.375C503.22 808.609 508.611 806.1 508.053 801.267C507.403 795.319 499.595 796.899 495.319 797.643C482.864 799.78 470.13 800.896 457.768 804.241C435.554 810.189 413.897 813.071 390.939 814.558C357.013 816.788 322.436 818.833 288.417 817.067C261.37 815.673 234.229 813.256 207.181 813.535C181.063 813.814 155.595 811.491 130.778 803.312C102.707 794.018 74.1724 785.653 48.24 771.341C17.2883 702.659 0 626.448 0 546.149C0 465.756 17.3813 389.36 48.6118 320.585C44.9868 330.529 41.9195 340.753 37.7368 350.418C29.5574 369.564 24.4453 388.895 24.4453 409.621C24.5382 417.428 25.3748 425.885 24.2594 433.599C22.8652 443.729 22.1216 450.235 25.003 460.459C27.1408 467.894 27.9773 475.143 31.1375 482.392C32.2529 485.087 33.6471 486.296 35.5061 488.433C37.3651 490.571 38.2016 492.987 39.7817 495.59C44.2432 502.839 50.5637 512.505 58.1854 516.687C62.9257 519.196 68.9673 521.241 74.0795 522.728C80.4929 524.587 83.0025 525.33 89.4159 523.007C94.1562 521.334 100.756 519.103 105.682 518.824C108.935 518.732 111.537 520.312 114.698 520.869C118.602 521.52 122.319 521.148 126.316 521.984C142.396 525.33 158.104 529.327 174.556 529.141C187.476 528.955 200.21 531.185 213.315 531.185C229.117 531.185 244.639 531.65 260.254 529.698C270.757 528.304 282.097 525.702 292.693 525.051C303.475 524.401 314.443 525.33 325.225 525.237C362.59 524.68 401.256 515.665 433.695 496.798C451.262 486.482 469.201 478.768 488.906 473.191C513.816 466.035 539.377 458.972 564.844 454.139C588.453 449.678 611.69 441.871 633.533 431.833C643.478 427.372 652.215 421.796 661.324 415.662C669.411 410.178 678.148 405.996 685.956 400.327C708.542 383.691 728.154 364.173 747.952 344.284C759.198 333.039 770.631 321.7 782.342 311.012C792.102 302.183 802.326 298.186 814.874 295.212C834.765 290.472 845.826 268.074 856.515 252.088C869.992 231.921 881.239 208.779 881.89 183.871C882.169 173.369 881.425 163.61 879.566 153.294C878.729 148.74 877.707 144.372 875.755 140.189C874.547 137.494 872.502 134.985 871.851 132.104C871.294 129.687 871.201 127.178 870.736 125.04C870.271 123.181 869.156 120.672 868.691 118.906C867.576 114.259 865.252 107.846 865.531 102.642V102.084C873.153 107.568 880.681 113.237 887.931 119.092C887.838 121.23 888.21 123.367 887.745 125.505C887.281 128.107 886.351 130.245 885.886 132.847C885.236 136.658 883.842 138.795 883.842 142.978C883.935 147.439 883.749 151.249 884.771 155.339C887.467 165.469 894.066 174.856 893.973 185.544C893.88 196.604 891.092 206.734 886.909 217.05C883.005 226.716 878.822 235.638 874.175 244.839C870.922 251.159 867.855 256.457 863.486 262.219C859.582 267.33 855.4 272.256 852.332 278.019C850.009 282.48 847.685 287.034 845.826 291.681C842.294 300.138 836.531 304.506 830.118 310.826C816.919 323.559 800.467 333.782 786.246 346.05C775.371 355.344 763.288 366.962 754.83 378.579C750.833 384.155 730.199 400.234 735.776 408.691C738.285 412.409 746.093 411.201 749.625 411.201C757.432 411.294 765.984 409.156 773.048 405.996C793.031 396.888 813.015 386.107 834.114 379.88C843.595 377.092 853.727 375.512 862.742 371.516C873.524 366.59 884.028 360.549 894.066 354.322C902.059 349.396 906.8 342.983 912.748 336.013C916.094 332.016 920.835 329.786 924.553 326.068C928.921 321.7 931.617 316.681 936.45 312.871C948.162 303.67 958.758 292.052 967.216 279.784C975.023 268.446 977.905 254.412 981.251 241.679C982.18 238.148 983.296 235.266 983.482 231.549C983.668 227.181 983.482 222.72 983.482 218.351V217.608C1041.11 293.818 1079.03 385.642 1090 485.645Z" fill="url(#paint2_linear)"/>
<path fill-rule="evenodd" clip-rule="evenodd" d="M840.807 129.315C838.762 141.676 837.553 153.944 835.137 166.305C832.72 178.573 832.07 192.421 827.05 203.853C818.592 223.556 815.99 245.397 802.605 262.776C796.935 270.212 792.567 278.111 785.317 284.338C782.528 286.662 779.647 287.219 776.673 289.078C773.884 290.937 770.91 293.725 768.121 295.77C753.807 306.179 738.564 316.96 726.016 329.507C712.446 342.89 699.433 355.995 683.353 366.497C678.52 369.657 673.5 371.887 668.481 374.582C664.299 376.813 660.86 379.787 656.398 381.46C650.728 383.598 647.103 384.713 642.084 388.245C638.18 390.94 633.812 393.728 629.443 395.401C621.729 398.468 614.2 402.093 606.485 405.067C602.953 406.554 599.235 407.297 595.61 408.598C585.386 412.502 577.95 412.13 564.844 413.152C560.662 411.294 564.194 411.108 567.54 409.621C570.142 408.319 570.886 407.669 573.024 405.438C575.719 402.743 579.251 399.118 582.319 396.888C588.081 392.706 595.703 390.661 601.931 386.85C609.924 381.832 617.732 375.791 625.539 370.4C632.046 365.939 636.972 358.783 642.363 353.206C648.126 347.072 655.19 341.589 661.51 335.92C668.946 329.321 675.266 321.793 682.702 315.287C690.882 308.41 696.552 300.789 701.478 291.681C703.523 287.777 706.962 284.989 709.1 281.085C711.144 277.368 713.561 273.929 715.234 270.026C717.093 265.472 719.51 261.196 721.462 256.735C723.692 251.624 723.599 245.583 724.715 240.099C728.061 224.021 731.314 207.756 734.288 191.585C736.798 178.109 736.984 163.796 737.356 150.041C737.82 136.843 741.538 124.018 741.631 110.635C741.631 105.43 741.91 100.969 739.679 96.229C736.891 90.002 733.731 84.5186 731.5 78.0128C724.622 58.1238 711.888 40.0006 694.971 27.5467C692.369 25.688 684.282 20.7622 676.196 14.907C734.288 29.0338 788.384 52.2686 837.461 83.2174H837.554C841.829 98.2736 843.316 114.352 840.807 129.315Z" fill="url(#paint3_radial)"/>
<path fill-rule="evenodd" clip-rule="evenodd" d="M682.423 130.244C681.215 137.122 677.032 142.42 675.081 149.018C672.85 156.546 671.177 164.074 670.061 171.881C668.481 183.592 669.504 195.302 668.109 207.105C665.414 229.225 658.164 251.159 648.312 271.141C638.459 291.123 621.728 307.573 603.418 319.934C584.456 332.852 563.357 342.797 542.63 352.37C530.825 357.76 518.37 359.991 506.287 364.638C496.156 368.448 486.21 372.723 476.172 376.72C466.227 380.623 457.025 387.408 447.079 390.661C440.852 392.705 434.81 394.75 428.583 396.981C417.987 400.791 408.32 406.367 397.91 410.829C383.317 417.148 368.167 422.074 352.551 425.699C337.215 429.323 322.343 427 306.914 425.048C294.087 423.468 280.889 422.353 268.248 419.379C244.825 413.803 219.636 415.383 195.748 415.383C177.623 415.383 156.71 417.148 140.723 407.297C136.169 404.509 131.057 401.535 128.454 396.702C125.294 390.754 124.922 383.225 123.528 376.72C120.739 363.429 108.098 354.414 99.4543 344.749C88.3005 331.923 84.0249 315.844 81.7942 299.394C79.9352 286.569 79.6564 270.025 82.7236 256.828C110.329 212.589 143.976 172.718 182.736 138.237C173.534 155.617 166.656 174.019 158.569 191.956C146.393 218.816 135.704 248.092 136.819 278.111C137.191 289.821 138.214 303.019 144.441 313.242C149.274 321.142 157.268 326.811 164.983 331.458C177.623 338.986 190.264 347.351 203.928 352.648C219.264 358.504 234.693 364.173 249.937 370.028C258.86 373.374 267.504 377.277 277.078 378.486C288.603 379.88 301.244 379.136 312.677 378.764C354.782 377.649 393.541 357.946 433.137 346.05C445.871 342.146 459.07 340.38 471.618 336.198C479.518 333.503 486.21 329.971 493.46 326.254C511.028 317.146 530.268 310.361 546.812 299.022C563.171 287.684 578.322 273.929 591.056 258.78C600.908 247.069 605.277 235.266 610.11 220.86C619.591 192.421 623.216 165.004 625.818 135.263C626.934 122.623 631.302 111.378 634.276 99.1098C636.228 91.024 635.113 81.6371 628.607 75.782C615.594 64.2575 596.354 57.1011 579.716 53.1048C569.585 50.6883 559.918 47.4354 549.508 47.4354C539.191 47.5284 528.966 47.4354 518.742 47.5284C508.89 47.6213 499.223 45.3908 489.278 45.3908C477.659 45.3908 466.784 48.6437 455.259 49.5731C443.269 50.5024 431.092 51.8965 419.288 54.0341C405.16 56.5435 391.59 62.1199 377.926 66.3021C351.343 74.3879 324.202 87.3994 302.452 104.407C296.783 108.775 290.741 112.214 284.792 116.025C279.68 119.463 277.821 123.46 274.475 128.572C267.318 139.631 263.414 149.018 259.975 161.937C257.745 170.673 258.023 179.038 258.116 188.053C258.302 199.577 256.536 212.031 254.677 223.37C251.982 239.82 236.088 264.17 253.469 277.275C258.395 280.992 264.251 282.014 270.292 281.178C278.844 280.063 288.324 277.368 296.504 275.044C320.577 268.259 345.766 260.267 370.676 257.107C378.205 256.177 385.362 256.735 392.891 254.783C397.538 253.482 402 251.995 406.74 251.066C417.708 249.021 428.583 241.958 437.227 234.801C441.131 231.548 444.384 227.459 448.381 224.206C453.865 219.745 460.464 216.771 465.669 211.938C473.105 205.061 480.262 197.533 487.326 190.19C501.733 175.041 512.143 156.175 524.319 139.445C532.034 128.943 540.678 117.419 542.723 104.314C544.303 94.184 531.941 88.7935 524.412 85.5406C517.069 82.3807 506.473 80.4289 498.387 81.916C486.117 84.0536 474.778 91.3958 463.438 96.3216C438.249 107.381 410.179 110.077 388.336 127.735C380.343 134.055 380.808 140.189 378.298 149.018C377.09 153.015 374.115 157.383 372.07 161.286C368.817 167.42 368.353 168.907 370.026 175.413C371.606 181.733 373.279 190.469 380.529 193.257C386.849 195.767 397.073 193.536 402.557 190.097C405.811 188.053 408.692 185.358 412.596 183.963C414.919 183.034 420.682 180.432 422.913 181.268C426.91 182.755 423.935 185.265 422.262 187.495C420.682 189.819 419.66 191.213 418.637 193.722C417.801 195.767 417.708 198.183 416.221 199.949C409.807 207.291 396.98 211.009 388.057 214.076C380.25 216.771 374.394 220.024 365.843 220.117C354.317 220.21 358.965 211.659 357.292 203.388C355.061 192.7 342.699 188.703 341.398 177.551C340.096 166.863 343.442 154.13 347.997 144.464C349.949 140.189 352.551 136.657 355.154 132.847C359.43 126.341 365.657 122.438 372.163 118.162C391.311 105.523 415.198 99.4815 436.855 92.2322C458.605 84.7971 482.214 83.5889 503.685 75.9678C518.277 70.7632 533.707 69.0903 548.764 66.3021C562.707 63.7928 574.883 69.2762 580.738 82.0089C586.873 95.4851 594.123 109.984 589.847 124.854C584.085 145.394 577.206 165.747 566.424 184.242C553.133 207.105 536.96 228.667 512.979 241.214C495.97 250.136 477.752 255.155 459.906 261.847C445.964 267.051 432.672 271.234 418.173 273.464C395.865 276.81 375.509 290.007 353.667 295.491C323.645 303.019 293.251 308.874 262.671 313.149C251.052 314.729 241.479 315.844 230.046 314.079C224.934 313.335 220.194 313.8 215.267 311.662C211.828 310.175 208.296 308.502 204.857 307.108C192.96 301.996 181.434 293.446 182.829 279.04C184.13 265.471 189.056 251.809 191.566 238.426C193.332 229.597 193.518 220.767 195.655 211.938C197.235 205.154 198.816 198.276 200.675 191.584C202.162 186.287 204.485 179.502 207.646 175.041C213.966 166.212 218.799 155.803 225.585 147.345C228.373 143.907 231.161 141.211 233.299 137.401C235.437 133.59 236.088 131.824 239.155 128.386C241.757 125.505 243.523 121.88 246.219 119.092C250.959 114.073 257.837 109.984 263.414 105.987C276.52 96.6933 290.648 87.7712 305.427 81.2654C319.834 75.0385 334.891 70.8562 349.67 65.8374C362.962 61.2834 375.231 54.0341 388.429 48.9225C402.929 43.3461 419.288 39.6285 434.717 37.7698C466.413 33.8663 497.829 31.0781 529.896 31.1711C569.771 31.3569 614.014 16.2078 651.937 35.2604C662.347 40.5579 668.388 46.8778 673.129 57.5658C679.914 73.0867 682.981 91.2099 682.795 108.125C682.702 115.467 683.632 123.088 682.423 130.244Z" fill="url(#paint4_radial)"/>
<path fill-rule="evenodd" clip-rule="evenodd" d="M64.5988 301.997C67.2943 309.339 71.0122 315.752 73.4288 323.28C75.1948 328.949 76.7749 333.41 79.8422 338.522C82.8166 343.355 84.5826 348.838 87.4639 353.857C90.4383 359.061 93.4126 365.474 94.8998 371.329C96.1081 375.883 96.294 380.623 97.5023 385.177C99.0824 391.033 100.663 396.888 102.243 402.65C103.265 406.367 105.217 409.62 107.262 412.873C109.4 416.312 111.909 421.702 115.255 424.026C126.037 431.647 141.467 428.394 153.922 427.093C165.261 425.885 176.694 425.792 188.034 424.212C193.796 423.375 200.21 423.468 205.973 423.84C211.271 424.119 217.87 424.77 223.075 425.792C228.001 426.721 232.742 426.907 237.668 427.651C244.732 428.766 251.703 430.625 258.86 431.182C266.76 431.833 274.847 432.948 282.84 433.134C294.18 433.32 305.706 432.205 317.045 433.413C326.898 434.435 336.843 436.108 346.789 436.108C359.801 436.201 372.721 432.205 384.804 427.836C404.881 420.494 425.516 414.546 445.685 407.204C453.028 404.509 459.906 399.955 466.691 396.051C472.826 392.427 479.425 390.103 485.374 386.107C496.063 378.95 509.447 374.396 521.902 371.701C534.543 368.913 546.812 364.359 559.36 361.385C567.633 359.433 575.905 355.158 584.271 354.043C582.69 360.641 568.283 363.058 563.171 364.824C551.274 369.099 538.354 371.422 526.829 376.627C519.3 379.973 514.002 386.478 508.053 392.055C502.569 397.166 498.48 402.371 492.252 406.553C485.746 410.922 479.611 413.524 471.804 415.104C455.445 418.357 439.644 424.119 423.471 427.651C407.577 431.182 391.59 434.9 376.811 441.777C372.721 443.636 360.638 448.469 360.08 454.417C359.708 459.157 365.471 457.391 368.817 457.391C376.067 457.391 385.548 455.625 392.333 458.507C397.538 460.737 401.814 463.061 407.484 464.269C418.916 466.778 433.416 464.641 444.105 460.458C459.627 454.417 476.451 451.35 492.717 448.283C503.964 446.146 514.931 442.893 526.178 440.476C535.008 438.617 543.373 438.246 552.296 437.409C565.03 436.201 577.764 434.714 590.405 432.576C600.536 430.904 611.597 429.881 620.799 425.327C628.514 421.517 637.53 419.193 644.315 413.896C646.081 412.501 656.305 403.672 658.722 405.717C663.741 409.992 635.392 426.071 633.44 427.465C624.238 433.692 614.757 437.595 604.44 441.777C591.52 447.075 578.322 449.398 564.937 452.744C549.694 456.555 534.357 459.715 519.114 463.618C503.778 467.522 487.976 469.473 472.919 474.585C465.297 477.187 457.675 479.697 450.518 483.321C443.919 486.667 436.948 488.991 430.442 492.429C416.407 499.957 403.208 510.46 388.057 515.385C374.859 519.661 361.01 523.285 347.16 524.401C328.943 525.888 310.632 523.285 292.507 521.426C274.103 519.475 255.328 517.988 236.831 518.359C219.636 518.638 202.441 522.263 185.245 523.099C173.441 523.657 163.867 519.475 152.992 515.385C140.723 510.831 130.22 504.976 119.066 498.192C109.4 492.336 98.3389 488.991 86.9992 489.455C84.3037 489.548 82.4448 490.571 79.8422 491.035C76.8679 491.593 74.7301 490.106 72.1275 488.898C61.9962 484.158 51.8649 476.351 46.9387 465.849C41.6406 454.603 39.224 442.614 37.458 430.439C36.4356 423.561 37.2721 416.312 37.1791 409.342C37.0862 400.048 35.5061 390.847 35.599 381.46C35.692 366.682 33.926 350.976 38.5734 336.663C42.9419 323.187 51.9578 310.64 60.1373 299.208C64.7847 292.796 68.5955 285.825 73.4288 279.598C75.1019 282.944 71.1051 289.45 70.2686 292.981C69.1532 297.814 67.2013 307.015 64.5988 301.997Z" fill="url(#paint5_linear)"/>
<path fill-rule="evenodd" clip-rule="evenodd" d="M763.654 379.343C760.204 383.825 753.964 389.484 753.083 395.362C752.202 400.947 758.515 400.212 762.626 399.551C771.581 398.155 780.83 397.346 789.272 393.819C794.264 391.762 798.962 388.896 803.953 386.765C808.064 385.001 812.542 384.413 816.652 382.65C826.489 378.461 837.059 376.33 846.822 371.774C855.557 367.732 862.971 361.486 869.798 354.873C874.643 350.243 879.194 346.716 882.497 340.764C884.919 336.355 887.782 332.093 889.837 327.463C892.333 321.805 893.875 314.089 894.609 307.99C894.976 304.683 895.196 300.642 894.756 297.261C893.655 289.105 885.433 288.37 878.533 289.325C870.018 290.501 863.191 295.498 856.878 300.936C850.786 306.153 845.721 312.399 838.894 316.588C831.333 321.217 823.919 325.92 816.579 330.917C812.615 333.636 809.018 336.061 805.641 339.515C802.852 342.381 800.209 345.393 797.2 347.965C794.19 350.611 790.74 352.742 787.364 354.873C784.574 356.636 782.005 359.061 779.216 360.531C775.472 362.515 772.095 364.72 769.086 367.732C767.104 369.716 764.901 371.627 763.58 374.199C761.378 378.535 761.818 383.972 763.654 379.343Z" fill="url(#paint6_linear)"/>
<path fill-rule="evenodd" clip-rule="evenodd" d="M884.399 233.408C886.258 227.645 887.467 225.415 892.858 222.627C896.204 220.861 898.62 220.396 900.851 224.114C905.22 231.27 902.059 239.913 899.271 246.791C897.226 251.81 889.14 256.828 885.515 250.508C883.005 246.233 883.098 233.593 889.047 231.828L884.399 233.408Z" fill="url(#paint7_linear)"/>
<path fill-rule="evenodd" clip-rule="evenodd" d="M427.282 445.216C430.07 440.012 430.721 439.454 435.554 437.595C439.458 436.108 441.41 434.993 445.592 434.528C449.868 434.157 454.608 431.74 458.977 433.32C465.669 435.737 464.368 441.592 459.906 445.774C457.676 447.819 455.817 449.213 453.214 449.77C449.682 450.514 446.15 451.35 442.525 451.257C436.39 451.164 431.185 451.536 425.887 447.912C425.701 446.796 426.166 445.867 427.282 445.216Z" fill="url(#paint8_linear)"/>
<path fill-rule="evenodd" clip-rule="evenodd" d="M171.303 830.729C188.498 837.142 207.367 839.559 225.678 839.93C247.52 840.395 269.549 840.023 291.299 837.979C305.799 836.584 320.206 836.956 334.705 834.912C341.676 833.889 348.369 834.261 355.34 833.889C359.337 833.703 363.612 831.38 367.516 832.588C382.759 837.235 355.712 845.971 352.644 847.551C341.676 853.035 329.314 854.893 317.603 858.332C313.141 859.633 308.494 860.935 304.126 862.422C299.85 863.909 296.039 866.139 291.578 867.069C273.639 870.972 255.7 872.645 237.854 876.548C231.254 877.942 224.004 879.058 217.219 877.757C210.062 876.363 203.463 872.18 197.05 868.927C189.242 865.024 181.248 861.678 174.184 856.473C171.117 854.243 166.284 850.897 163.774 848.016C161.822 845.878 161.915 844.484 160.893 841.882C159.034 837.235 159.127 835.376 163.124 832.03C166.191 829.428 169.909 828.499 173.906 829.614C174.184 829.893 174.277 830.265 171.303 830.729Z" fill="url(#paint9_linear)"/>
<path fill-rule="evenodd" clip-rule="evenodd" d="M635.02 1010.47C625.911 1013.35 617.36 1016.61 609.366 1022.18C605.927 1024.6 601.745 1028.78 606.764 1031.85C613.642 1036.03 624.703 1033.8 632.139 1033.15C644.873 1032.04 657.42 1029.71 670.061 1028.04C678.613 1026.92 687.071 1025.99 695.622 1024.32C706.683 1022.09 717.465 1018.47 728.247 1014.93C736.24 1012.24 743.676 1008.99 750.833 1004.43C758.083 999.785 765.798 995.882 772.397 990.306C781.134 982.963 792.66 977.201 796.099 965.491C798.887 955.732 777.788 959.264 773.698 959.822C758.176 961.866 742.282 966.327 727.596 971.532C721.183 973.762 714.212 975.528 707.984 978.316C699.619 982.034 691.439 986.495 682.888 989.841C678.799 991.421 675.174 994.023 671.084 995.51C667.459 996.811 663.834 998.02 660.209 999.507C656.212 1001.18 652.122 1002.95 648.033 1004.34C638.552 1007.22 629.257 1009.73 635.02 1010.47Z" fill="url(#paint10_linear)"/>
<path fill-rule="evenodd" clip-rule="evenodd" d="M803.628 939.375C805.208 934.078 808.647 931.661 812.551 927.851C815.618 924.877 818.499 921.717 822.961 921.066C826.214 920.602 831.326 924.412 829.932 928.13C829.281 930.081 826.772 932.126 825.47 933.892C823.797 936.122 822.217 938.074 819.708 939.375C814.688 941.978 809.855 941.513 804.65 940.305L803.628 939.375Z" fill="url(#paint11_linear)"/>
<path fill-rule="evenodd" clip-rule="evenodd" d="M858.56 811.397C854.749 813.163 851.031 815.858 846.941 816.881C843.967 817.717 840.714 817.996 837.647 818.461C828.352 819.948 818.685 820.598 809.297 821.528C797.307 822.736 785.317 824.409 773.327 825.338C752.134 826.918 729.827 828.777 709.471 835.283C692.183 840.859 676.103 847.644 660.116 856.287C646.267 863.722 632.696 871.808 620.427 881.659C616.338 885.005 612.62 888.909 608.995 892.719C606.578 895.229 603.975 897.924 602.581 901.177C600.351 906.196 602.395 909.634 606.764 912.422C613.642 916.791 621.914 917.162 629.722 918.278C641.341 919.858 652.866 921.345 664.485 923.11C676.289 924.969 688.651 926.549 700.641 927.107C713.096 927.665 726.016 927.386 737.82 922.925C746.372 919.672 754.179 916.512 762.173 911.958C769.795 907.59 777.323 903.314 784.573 898.296C789.685 894.764 795.169 891.883 799.817 887.608C801.769 885.749 803.813 884.076 805.951 882.31C809.204 879.615 811.528 876.083 814.781 873.388C821.938 867.533 828.816 860.005 834.393 852.662C838.855 846.807 844.246 841.788 848.614 835.933C851.217 832.494 853.912 830.636 855.493 826.36C855.957 824.409 858.374 816.323 858.56 811.397Z" fill="url(#paint12_linear)"/>
<path fill-rule="evenodd" clip-rule="evenodd" d="M883.935 794.111C886.351 789.557 888.21 788.162 891.742 784.724C894.345 782.307 897.691 778.032 901.223 776.917C903.175 776.266 905.313 776.359 906.521 777.753C907.822 779.147 908.38 781.471 908.101 783.144C907.357 787.419 903.175 790.765 899.643 792.531C895.181 794.854 892.672 793.646 887.931 792.995L883.935 794.111Z" fill="url(#paint13_linear)"/>
<path fill-rule="evenodd" clip-rule="evenodd" d="M1045.48 642.805C1043.25 644.757 1040.83 646.523 1039.16 648.939C1036.28 653.029 1033.95 657.211 1030.79 661.114C1027.35 665.204 1024.66 669.758 1022.06 674.312C1018.71 680.074 1014.81 685.465 1011.74 691.413C1005.05 704.145 999.748 717.529 993.706 730.54C990.732 737.046 988.036 743.738 985.155 750.336C981.995 757.4 979.206 764.556 977.998 772.177C977.161 777.661 975.767 786.954 983.11 787.977C992.219 789.185 1001.42 781.378 1008.02 776.173C1025.49 762.418 1040.27 745.225 1052.17 726.451C1063.97 707.77 1075.41 685.279 1072.53 662.509C1071.22 652.285 1071.97 641.69 1073.27 631.56C1074.66 620.686 1078.01 609.812 1078.2 598.752C1078.29 590.945 1079.59 583.231 1077.92 575.517C1077.45 573.38 1076.71 570.22 1074.57 569.012C1072.53 567.803 1071.13 569.104 1069.27 570.406C1063.7 574.495 1059.42 579.607 1056.45 585.741C1052.82 593.176 1052.64 601.354 1049.57 608.975C1048.55 611.578 1047.89 614.552 1046.59 617.061C1045.48 619.199 1044.08 621.243 1042.97 623.288C1040.92 627.099 1040.27 631.188 1039.16 635.37C1038.51 637.973 1038.04 640.296 1037.39 642.898C1036.83 644.943 1036 647.081 1035.53 649.032C1035.16 650.798 1035.81 652.75 1045.48 642.805Z" fill="url(#paint14_linear)"/>
<path fill-rule="evenodd" clip-rule="evenodd" d="M955.791 834.998C953.932 836.764 942.871 847.452 947.147 850.24C948.355 850.984 951.608 850.055 952.723 849.683C955.233 848.753 956.813 846.987 958.858 845.408C961.646 843.27 961.832 841.597 961.925 838.065C961.925 833.233 958.858 833.418 954.861 834.998H955.791Z" fill="url(#paint15_linear)"/>
<path fill-rule="evenodd" clip-rule="evenodd" d="M987.571 803.312C989.895 800.152 990.639 798.758 993.892 797.55C996.587 796.527 998.632 794.576 1001.51 794.111C1005.05 793.553 1006.63 794.855 1006.9 798.386C1007.37 804.427 999.933 812.234 996.587 816.602C992.405 821.993 987.85 827.476 982.459 831.659C974.838 837.607 969.261 828.034 972.142 820.878C973.908 816.509 974.559 811.491 977.254 807.587C981.53 801.546 987.757 801.546 994.542 800.338L987.571 803.312Z" fill="url(#paint16_linear)"/>
<path fill-rule="evenodd" clip-rule="evenodd" d="M398.375 145.022C391.032 149.762 388.058 153.386 385.455 161.844C384.433 165.282 383.038 172.625 385.92 175.692C390.846 180.803 404.138 175.227 408.971 173.368C418.359 169.744 427.839 164.446 437.599 162.123C456.003 157.847 476.265 156.174 492.066 144.836C500.989 138.423 508.704 129.594 514.932 120.579C518.928 114.723 524.226 109.983 524.691 102.548C525.713 87.3063 504.521 86.3769 494.483 88.7004C473.198 93.6262 452.285 100.132 432.487 109.705C420.868 115.281 406.368 122.437 398.189 132.94C396.237 135.449 394.285 139.445 393.263 142.419C392.426 144.743 390.195 151.62 398.375 145.022Z" fill="url(#paint17_linear)"/>
<path fill-rule="evenodd" clip-rule="evenodd" d="M643.171 774.281C635.828 779.021 632.854 782.646 630.251 791.103C629.229 794.542 627.835 801.884 630.716 804.951C635.642 810.063 648.934 804.486 653.767 802.628C663.155 799.003 672.636 793.706 682.395 791.382C700.799 787.107 721.062 785.434 736.863 774.095C745.786 767.682 753.5 758.853 759.728 749.838C763.725 743.983 769.023 739.243 769.487 731.808C770.51 716.566 749.318 715.636 739.279 717.96C717.994 722.886 697.081 729.391 677.283 738.964C665.665 744.541 651.165 751.697 642.985 762.199C641.033 764.708 639.081 768.705 638.059 771.679C637.223 774.002 634.992 780.88 643.171 774.281Z" fill="url(#paint18_radial)"/>
<path fill-rule="evenodd" clip-rule="evenodd" d="M437.97 187.681C435.461 182.012 434.253 181.547 438.435 178.108C441.317 175.692 446.429 172.811 449.775 171.138C453.679 169.186 460.557 167.142 465.018 167.699C475.614 169 470.781 180.99 467.528 186.752C465.483 190.376 463.903 193.722 460.464 195.674C456.374 197.997 453.679 199.206 449.124 197.626C445.964 196.603 442.99 194.373 440.573 192.235C438.807 190.655 434.624 187.681 434.996 184.8C435.461 184.707 435.926 184.614 436.297 184.521L437.97 187.681Z" fill="url(#paint19_linear)"/>
<path fill-rule="evenodd" clip-rule="evenodd" d="M363.24 318.726C363.519 313.707 363.054 312.592 366.215 309.339C370.955 304.599 377.74 300.974 383.317 297.349C395.958 289.171 409.435 283.316 423.657 278.576C436.39 274.393 449.124 271.698 462.323 269.654C472.082 268.167 481.377 264.914 491.23 263.52C506.38 261.382 525.063 254.133 537.146 268.445C546.905 280.063 528.874 295.491 520.415 301.811C512.887 307.48 505.079 310.268 495.97 312.592C485.467 315.194 475.15 318.354 464.647 320.956C445.127 325.789 427.003 335.083 408.32 342.332C395.493 347.351 386.291 346.886 374.766 339.172C368.26 335.083 357.663 324.023 363.24 318.726Z" fill="url(#paint20_linear)"/>
<path fill-rule="evenodd" clip-rule="evenodd" d="M540.027 231.921C537.518 236.568 531.197 245.118 539.284 248.092C543.931 249.765 547.184 246.048 550.716 243.352C554.527 240.471 558.989 237.683 561.498 233.408C564.287 228.761 562.8 224.393 557.966 222.255C548.393 217.98 543.838 227.181 538.447 233.408L540.027 231.921Z" fill="url(#paint21_linear)"/>
<path fill-rule="evenodd" clip-rule="evenodd" d="M689.395 138.982C681.029 147.718 675.917 157.941 677.218 170.488C678.52 182.756 686.792 185.265 697.016 180.154C699.712 178.853 703.43 177.458 705.846 175.6C708.728 173.369 710.401 169.28 712.539 166.399C717.372 159.986 719.974 153.201 719.789 145.023C719.696 137.309 720.718 129.13 718.673 121.695C717.558 117.605 715.978 112.122 712.26 109.52C707.984 106.639 704.731 110.449 701.571 112.959C698.411 115.468 695.994 116.769 693.949 120.301C690.231 126.435 688.279 133.591 686.327 140.469L689.395 138.982Z" fill="url(#paint22_linear)"/>
<path fill-rule="evenodd" clip-rule="evenodd" d="M517.162 401.07C517.534 395.308 517.348 394.936 521.531 391.683C524.598 389.267 527.758 386.571 531.197 384.62C536.588 381.46 545.79 378.672 552.204 378.207C557.873 377.835 563.915 378.021 569.027 380.902C572.28 382.761 572.931 386.571 572.094 390.382C570.886 395.865 565.495 399.397 561.405 402.65C557.316 405.903 551.646 410.178 546.534 411.479C540.027 413.059 533.893 413.896 527.386 412.223C523.576 411.2 515.489 409.62 515.582 404.23L517.162 401.07Z" fill="url(#paint23_linear)"/>
<path fill-rule="evenodd" clip-rule="evenodd" d="M591.892 347.723C595.61 342.425 598.027 337.778 603.697 334.246C606.206 332.759 612.434 328.112 615.594 328.112C617.732 328.112 620.52 330.993 620.799 333.224C621.171 335.919 618.475 339.451 617.081 341.589C613.921 346.236 608.995 350.604 604.068 352.648C601.466 353.764 599.235 354.321 596.447 353.485C593.751 352.648 592.636 350.046 590.312 349.21L591.892 347.723Z" fill="url(#paint24_linear)"/>
<path fill-rule="evenodd" clip-rule="evenodd" d="M294.738 122.159C287.302 129.594 281.167 137.401 278.751 148.089C278.007 151.435 278.007 154.502 280.981 157.012C284.978 160.543 289.997 158.592 294.645 157.012C307.658 152.55 320.02 144.837 331.359 137.308C341.676 130.524 355.619 128.572 363.519 118.721C367.795 113.33 372.349 107.382 368.167 100.319C364.542 94.2775 355.433 91.6752 349.019 91.5822C339.91 91.3963 330.151 94.3704 322.25 98.7386C307.379 107.01 297.898 117.977 294.738 122.159Z" fill="url(#paint25_linear)"/>
<path fill-rule="evenodd" clip-rule="evenodd" d="M252.075 90.1879C266.482 87.3997 278.937 84.4257 291.578 76.7117C294.087 75.1317 296.597 74.4811 299.106 73.087C301.337 71.7859 301.988 70.113 303.754 68.4401C302.545 62.5849 286.744 66.1166 283.119 67.6036C278.286 69.6483 273.36 72.5294 268.712 74.8529C266.296 76.0611 263.6 77.2693 261.37 78.8493C256.629 82.288 253.841 88.422 250.681 93.162L252.075 90.1879Z" fill="url(#paint26_linear)"/>
<path fill-rule="evenodd" clip-rule="evenodd" d="M700.084 411.201C695.994 413.524 691.625 416.498 687.257 418.264C680.007 421.238 673.408 425.421 666.251 428.488C657.792 432.112 648.683 434.529 640.039 437.503C627.677 441.778 615.966 446.611 604.812 453.488C593.565 460.366 582.783 470.31 577.021 482.3C573.674 489.177 572.373 498.471 576.37 505.441C578.694 509.531 582.412 513.806 586.687 515.758C594.03 519.104 601.28 516.966 608.716 515.2C618.011 513.062 627.305 509.996 635.857 505.627C640.411 503.211 644.78 500.423 649.334 498.006C654.167 495.497 659.465 493.638 664.484 491.593C668.388 490.014 672.385 488.619 676.382 487.318C681.773 485.645 685.491 483.229 690.045 479.976C697.946 474.307 705.382 466.407 710.122 457.856C716.349 446.611 719.696 435.086 717.465 422.539C715.885 412.781 708.728 408.041 700.084 411.201Z" fill="url(#paint27_linear)"/>
<path fill-rule="evenodd" clip-rule="evenodd" d="M561.87 481.276C559.082 477.559 557.223 477.931 552.761 478.209C549.415 478.395 545.79 479.325 542.444 479.975C525.527 483.507 508.332 485.366 491.509 489.641C482.121 492.057 473.291 494.567 464.74 499.121C456.188 503.675 447.451 507.764 439.179 512.69C419.846 524.214 399.862 533.137 377.74 537.784C364.17 540.665 350.507 543.36 336.936 545.962C328.757 547.449 320.391 548.75 312.212 550.516C303.94 552.282 295.853 554.606 287.674 556.371C272.802 559.624 258.581 563.156 244.36 568.547C229.953 573.937 215.36 579.049 204.021 589.923C198.258 595.499 190.822 603.678 190.915 612.228C190.915 618.269 193.518 623.938 196.585 628.957C207.832 647.638 229.488 658.698 248.264 668.178C274.289 681.375 305.334 683.141 333.776 686.394C370.955 690.669 408.599 688.252 445.22 680.817C461.672 677.472 478.31 674.219 494.762 671.059C514.653 667.341 534.822 664.646 554.713 660.464C571.072 657.025 587.524 653.214 603.604 648.474C612.341 645.965 621.264 643.084 629.536 639.366C636.972 636.021 643.85 631.745 650.821 627.563C656.398 624.217 662.533 620.778 667.645 616.782C672.199 613.157 676.01 608.325 679.542 603.771C685.398 596.242 689.209 587.878 693.856 579.699C697.016 574.123 700.269 568.268 703.987 563.063C707.798 557.859 712.26 552.933 716.442 548.007C725.087 537.598 735.776 528.583 743.862 517.709C748.602 511.389 753.157 503.489 753.9 495.496C754.365 490.106 754.365 484.436 748.695 482.02C743.304 479.696 736.984 479.511 731.221 480.161C725.365 480.905 719.51 483.321 713.933 485.087C703.987 488.154 694.228 491.593 685.026 496.519C661.789 508.972 639.017 524.4 612.898 529.977C602.117 532.3 591.335 533.508 581.017 529.233C573.396 526.073 565.774 522.542 558.989 517.709C549.973 511.203 552.668 503.489 556.665 494.567C558.338 490.849 563.171 482.299 561.87 481.276Z" fill="url(#paint28_radial)"/>
<path fill-rule="evenodd" clip-rule="evenodd" d="M1033.28 324C1033.28 335.705 1031.49 347.069 1028.82 358.66C1027.75 363.774 1026.32 368.888 1025.07 374.001C1023.47 380.82 1018.3 386.956 1015.8 393.661C1011.16 405.82 1002.24 416.389 994.216 427.639C986.012 439.117 980.839 451.162 972.813 462.754C950.518 495.482 937.141 530.256 915.381 563.097C904.501 579.348 894.691 596.166 882.919 612.19C872.217 626.508 859.375 640.258 848.139 654.463C844.036 659.691 832.443 669.464 841.183 675.032C848.139 679.464 860.802 675.373 868.115 672.873C897.545 662.873 910.03 639.122 928.044 622.531C937.141 614.121 951.231 607.758 960.863 599.462C973.348 588.553 988.152 575.598 996.357 563.325C1013.48 537.869 1023.82 511.505 1038.63 485.595C1050.76 464.231 1052.72 443.435 1052.72 420.934C1052.72 411.502 1054.32 402.07 1049.86 392.979C1045.58 384.57 1042.37 370.479 1033.28 324Z" fill="url(#paint29_radial)"/>
<path fill-rule="evenodd" clip-rule="evenodd" d="M1034.32 386.851C1027.91 393.078 1014.71 408.32 1020.94 418.543C1024.38 424.119 1034.51 421.703 1038.04 416.87C1041.11 412.781 1040.37 405.903 1040.46 401.07C1040.46 398.468 1041.3 394.472 1040.27 392.055C1039.34 389.825 1036.93 389.36 1036.37 386.851H1034.32Z" fill="url(#paint30_linear)"/>
<path fill-rule="evenodd" clip-rule="evenodd" d="M782.98 607C774.057 611.833 767.365 617.409 759.185 623.264C752.028 628.376 744.221 632.094 736.32 635.904C715.964 645.756 695.051 651.89 672.837 655.793C644.58 660.719 615.767 664.437 588.44 673.452C567.713 680.329 547.078 687.578 526.444 694.921C507.018 701.798 484.989 706.724 467.701 718.341C463.425 721.223 457.755 725.591 459.242 731.353C461.659 740.461 480.527 740.926 487.22 741.204C507.482 742.041 527.931 741.112 548.194 741.112C557.86 741.112 567.62 740.554 577.286 741.576C589.927 742.877 600.802 742.784 613.536 741.576C628.686 740.182 644.581 740.554 659.173 735.814C687.43 726.799 715.221 716.204 742.826 705.33C767.551 695.571 803.428 675.403 801.198 644.548C800.268 631.35 791.996 612.762 782.98 607Z" fill="url(#paint31_linear)"/>
<path fill-rule="evenodd" clip-rule="evenodd" d="M950.95 705.726C946.86 697.175 945.745 695.038 950.206 687.231C952.995 682.305 961.453 674.963 967.774 674.963C980.322 674.963 980.786 689.368 977.905 698.105C975.488 705.726 972.142 717.436 963.126 717.901C959.315 718.087 958.014 717.622 955.133 715.391C952.158 713.161 948.069 706.19 944.908 705.633H950.95V705.726Z" fill="url(#paint32_radial)"/>
<path fill-rule="evenodd" clip-rule="evenodd" d="M65.1565 730.169C62.9257 739.742 61.5315 748.478 66.1789 757.679C72.6852 770.505 86.8133 779.055 100.105 783.238C108.47 785.84 116.836 786.769 125.573 787.141C135.146 787.606 144.72 789.093 154.386 789.279C169.165 789.557 182.643 790.487 197.328 792.717C205.229 793.926 212.851 796.156 220.751 797.178C227.072 797.922 232.742 798.758 238.969 800.152C251.796 803.127 264.53 803.219 277.542 805.078C290.927 806.937 305.427 806.101 318.811 804.056C330.616 802.29 343.164 800.71 348.833 789.279C353.295 780.263 350.042 775.431 342.141 769.297C335.17 763.813 323.366 761.49 315.186 758.794C302.638 754.612 290.09 750.802 277.171 747.642C259.139 743.274 241.85 736.861 224.004 731.563C187.383 720.782 152.342 705.726 114.047 702.287C98.2459 700.8 79.4704 700.614 64.8776 707.771C59.8584 710.187 56.8841 714.648 54.7463 719.574C51.3072 727.102 55.1181 731.656 65.1565 730.169Z" fill="url(#paint33_linear)"/>
<path fill-rule="evenodd" clip-rule="evenodd" d="M63.1116 663.067C65.2494 669.759 64.7846 671.803 71.0121 673.755C75.1018 674.963 79.3775 676.171 83.5601 674.963C88.7652 673.476 94.9927 669.573 95.7363 664.089C96.4799 657.955 91.0889 653.494 86.1627 650.799C76.1243 645.408 68.1308 645.873 63.1116 657.026V663.067Z" fill="url(#paint34_linear)"/>
<path fill-rule="evenodd" clip-rule="evenodd" d="M491.787 214.076C491.694 209.894 492.159 207.384 494.018 203.574C496.156 199.113 498.201 194.466 500.989 190.469C502.941 187.588 504.149 184.521 506.008 181.64C508.611 177.551 511.214 173.74 513.444 169.372C516.326 163.703 520.601 159.056 524.598 154.223C527.386 150.784 529.617 148.089 531.662 144C533.242 140.933 535.659 138.609 537.332 135.635C539.47 131.918 540.864 127.549 542.816 123.646C544.954 119.371 546.998 115.374 549.601 111.471C551.367 108.776 553.133 105.523 555.736 103.478C557.502 102.084 559.825 99.2958 561.777 98.4593C566.61 96.3217 569.213 97.9946 571.723 102.549C575.719 109.798 577.299 120.114 576.928 128.293C576.463 137.401 574.883 146.695 571.908 155.338C569.771 161.472 566.239 167.142 563.078 172.718C557.13 183.313 549.88 193.072 542.909 202.923C538.819 208.778 531.755 213.611 526.178 218.072C522.46 220.953 518.742 222.812 514.374 224.299C511.957 225.136 508.611 226.716 506.008 226.251C503.592 225.786 501.082 224.113 498.851 223.37C492.903 221.139 490.207 216.121 491.787 214.076Z" fill="url(#paint35_linear)"/>
<path fill-rule="evenodd" clip-rule="evenodd" d="M469.48 222.255C465.948 224.021 462.323 225.322 460.743 229.133C460.371 230.155 459.627 232.385 460.371 233.501C463.066 237.59 472.826 232.107 475.057 229.876C477.287 227.646 479.704 223.649 477.566 220.768C475.707 218.259 471.711 217.887 469.387 220.21V222.255H469.48Z" fill="url(#paint36_linear)"/>
<path fill-rule="evenodd" clip-rule="evenodd" d="M649.241 76.9909C647.289 78.1992 644.315 79.3144 642.828 81.2662C641.805 82.5673 641.434 84.8908 640.876 86.3778C638.552 92.7906 636.879 99.4823 636.136 106.36C635.485 113.051 635.206 124.948 643.107 127.643C658.35 132.94 680.565 121.974 681.773 104.966C682.517 95.3 677.219 86.2849 671.549 78.9427C668.76 75.318 665.507 71.1358 661.882 68.3476C659.465 66.4888 655.841 65.1876 652.773 65.8382C647.568 66.8605 643.478 72.0652 649.241 76.9909Z" fill="url(#paint37_linear)"/>
<path fill-rule="evenodd" clip-rule="evenodd" d="M646.174 160.264C646.081 156.918 645.988 156.175 648.405 153.944C649.706 152.736 651.565 150.784 653.331 150.227C656.956 149.019 659.279 151.714 659.465 155.153C659.558 157.755 659.744 162.96 657.328 164.818C655.097 166.491 645.523 165.004 646.174 161.287V160.264Z" fill="url(#paint38_linear)"/>
<path fill-rule="evenodd" clip-rule="evenodd" d="M756.968 91.2107C755.388 97.5306 755.666 104.036 754.458 110.542C752.506 120.951 751.298 132.104 750.926 142.699C750.74 148.275 750.926 153.759 750.647 159.335C750.275 166.213 749.253 172.904 749.997 179.782C750.926 188.611 751.855 197.812 757.711 204.876C761.894 209.894 767.657 208.036 773.234 205.991C777.695 204.318 781.599 200.786 785.503 198.184C788.57 196.139 791.451 194.002 794.147 191.399C806.23 180.154 817.198 167.7 822.031 151.435C825.563 139.632 829.002 126.249 826.121 113.888C824.169 105.802 821.381 99.0176 815.897 92.6977C811.807 87.9578 807.067 84.9838 801.583 82.0097C797.121 79.5933 792.288 79.4074 787.362 78.2921C783.179 77.3627 779.461 76.991 775.185 76.991C771.468 76.991 767.471 77.3627 763.753 78.1062C756.131 79.5933 754.179 90.1884 756.968 91.2107Z" fill="url(#paint39_linear)"/>
<path fill-rule="evenodd" clip-rule="evenodd" d="M769.144 223.277C770.538 218.909 773.698 214.262 778.903 216.678C782.528 218.351 784.759 223.091 782.9 226.809C781.506 229.597 777.974 231.084 774.999 230.155C773.233 229.597 771.189 227.738 770.073 226.251C768.214 223.835 769.701 221.883 770.166 219.095L769.144 223.277Z" fill="url(#paint40_linear)"/>
<path fill-rule="evenodd" clip-rule="evenodd" d="M783.365 331.923C779.275 332.295 775.371 333.131 771.56 334.432C771.189 335.362 770.724 336.105 770.073 336.849C769.237 337.964 766.82 339.358 767.192 340.845C772.304 343.076 779.647 339.544 784.015 337.127C786.153 335.919 788.756 334.618 790.522 332.852C791.358 332.016 793.496 330.064 793.961 329.135C795.634 326.161 794.054 324.674 790.987 324.674C787.733 324.674 780.576 326.997 780.298 330.808L783.365 331.923Z" fill="url(#paint41_radial)"/>
<path fill-rule="evenodd" clip-rule="evenodd" d="M951.972 314.73C952.065 319.191 951.322 320.585 949.742 324.674C948.254 328.299 946.303 332.667 946.86 336.663C948.254 346.236 961.546 344.377 968.331 343.448C976.232 342.426 983.853 340.753 989.709 334.99C994.357 330.529 996.587 327.091 997.517 320.585C998.911 310.454 1001.23 293.168 986.27 293.354C979.671 293.446 974.466 296.235 968.982 299.673C965.171 302.09 962.847 305.157 959.966 308.503C956.434 312.592 952.623 316.031 951.972 314.73Z" fill="url(#paint42_radial)"/>
<path fill-rule="evenodd" clip-rule="evenodd" d="M841 924.406C845.369 910.186 852.247 898.011 865.352 890.019C868.42 888.16 871.022 885.65 874.647 887.602C877.621 889.182 877.064 892.621 876.134 895.595C874.926 899.498 871.301 904.889 868.606 908.142C865.631 911.58 862.192 914.926 858.939 917.993C857.08 919.759 854.385 922.083 851.875 922.547C849.272 922.826 846.391 922.361 841 924.406Z" fill="url(#paint43_radial)"/>
<path fill-rule="evenodd" clip-rule="evenodd" d="M360.097 756.776C360.375 751.292 363.536 748.783 367.811 745.158C376.92 737.537 388.91 732.333 400.064 728.801C410.01 725.641 421.907 723.503 432.224 726.292C436.872 727.593 442.634 729.823 444.586 734.563C447.932 742.742 439.195 754.731 432.689 759.192C424.509 764.861 412.612 766.534 403.317 769.415C394.952 771.925 385.007 772.854 376.362 771.646C373.202 771.181 369.763 771.088 366.789 769.88C364 768.765 360.747 768.672 358.052 767.185C355.542 765.884 352.196 763.746 352.01 760.679C351.917 759.099 352.475 756.869 353.218 755.475C354.799 753.151 358.145 752.779 360.097 756.776Z" fill="url(#paint44_radial)"/>
<path fill-rule="evenodd" clip-rule="evenodd" d="M937.287 278.019C933.94 280.25 927.713 283.41 928.735 288.428C929.2 290.752 930.594 292.703 931.338 295.027C931.988 296.979 932.36 299.023 932.546 301.161C932.825 303.949 934.312 308.317 936.264 310.455C937.751 312.128 939.424 310.362 940.447 308.875C941.562 307.202 942.771 305.436 942.863 303.392C942.956 300.696 943.142 298.094 943.793 295.492C944.072 294.469 944.815 293.633 945.094 292.518C945.373 291.124 945.28 289.636 945.28 288.149C945.094 284.989 942.77 279.134 937.287 278.019Z" fill="url(#paint45_linear)"/>
<defs>
<radialGradient id="paint0_radial" cx="0" cy="0" r="1" gradientUnits="userSpaceOnUse" gradientTransform="translate(1183.5 913) rotate(-124.84) scale(1112.4 1073.24)">
<stop stop-color="#00F0FF"/>
<stop offset="0.427083" stop-color="#AA00D5"/>
<stop offset="1" stop-color="#16064C"/>
</radialGradient>
<radialGradient id="paint1_radial" cx="0" cy="0" r="1" gradientUnits="userSpaceOnUse" gradientTransform="translate(974.5 876.5) rotate(-119.431) scale(1006.37 3646.86)">
<stop stop-color="#FF50A4"/>
<stop offset="0.510191" stop-color="#7000FF"/>
<stop offset="1" stop-color="#47007E" stop-opacity="0"/>
</radialGradient>
<linearGradient id="paint2_linear" x1="893" y1="859" x2="642.5" y2="411" gradientUnits="userSpaceOnUse">
<stop stop-color="#BC187A"/>
<stop offset="0.760117" stop-color="#23006D"/>
</linearGradient>
<radialGradient id="paint3_radial" cx="0" cy="0" r="1" gradientUnits="userSpaceOnUse" gradientTransform="translate(713.491 413.467) rotate(-110.573) scale(425.681 686.052)">
<stop stop-color="#7A0676"/>
<stop offset="1" stop-color="#0A0049"/>
</radialGradient>
<radialGradient id="paint4_radial" cx="0" cy="0" r="1" gradientUnits="userSpaceOnUse" gradientTransform="translate(507 378.5) rotate(-128.949) scale(355.534 1285.72)">
<stop stop-color="#23006D"/>
<stop offset="1" stop-color="#920EE2"/>
</radialGradient>
<linearGradient id="paint5_linear" x1="660.53" y1="525.398" x2="400.744" y2="70.9205" gradientUnits="userSpaceOnUse">
<stop stop-color="#BC187A"/>
<stop offset="1" stop-color="#23006D"/>
</linearGradient>
<linearGradient id="paint6_linear" x1="895.276" y1="400.252" x2="759.934" y2="281.203" gradientUnits="userSpaceOnUse">
<stop stop-color="#BC187A"/>
<stop offset="1" stop-color="#23006D"/>
</linearGradient>
<linearGradient id="paint7_linear" x1="903.048" y1="253.542" x2="875.42" y2="242.293" gradientUnits="userSpaceOnUse">
<stop stop-color="#BC187A"/>
<stop offset="1" stop-color="#23006D"/>
</linearGradient>
<linearGradient id="paint8_linear" x1="463.699" y1="451.306" x2="442.244" y2="421.142" gradientUnits="userSpaceOnUse">
<stop stop-color="#BC187A"/>
<stop offset="1" stop-color="#23006D"/>
</linearGradient>
<linearGradient id="paint9_linear" x1="372.556" y1="878.445" x2="335.981" y2="769.834" gradientUnits="userSpaceOnUse">
<stop stop-color="#BC187A"/>
<stop offset="1" stop-color="#23006D"/>
</linearGradient>
<linearGradient id="paint10_linear" x1="700.398" y1="958.743" x2="700.398" y2="1034.33" gradientUnits="userSpaceOnUse">
<stop stop-color="#4737FF"/>
<stop offset="1" stop-color="#430238"/>
</linearGradient>
<linearGradient id="paint11_linear" x1="816.897" y1="921.028" x2="816.897" y2="941.274" gradientUnits="userSpaceOnUse">
<stop stop-color="#4737FF"/>
<stop offset="1" stop-color="#430238"/>
</linearGradient>
<linearGradient id="paint12_linear" x1="748" y1="802.5" x2="802.5" y2="900.5" gradientUnits="userSpaceOnUse">
<stop stop-color="#4122FF"/>
<stop offset="1" stop-color="#D11866"/>
</linearGradient>
<linearGradient id="paint13_linear" x1="896.053" y1="776.528" x2="896.053" y2="794.111" gradientUnits="userSpaceOnUse">
<stop stop-color="#4122FF"/>
<stop offset="1" stop-color="#D11866"/>
</linearGradient>
<linearGradient id="paint14_linear" x1="1028.04" y1="568.532" x2="1028.04" y2="788.102" gradientUnits="userSpaceOnUse">
<stop stop-color="#4122FF"/>
<stop offset="1" stop-color="#D11866"/>
</linearGradient>
<linearGradient id="paint15_linear" x1="954.048" y1="834" x2="954.048" y2="850.521" gradientUnits="userSpaceOnUse">
<stop stop-color="#4122FF"/>
<stop offset="1" stop-color="#D11866"/>
</linearGradient>
<linearGradient id="paint16_linear" x1="989.148" y1="793.987" x2="989.148" y2="833.522" gradientUnits="userSpaceOnUse">
<stop stop-color="#4122FF"/>
<stop offset="1" stop-color="#D11866"/>
</linearGradient>
<linearGradient id="paint17_linear" x1="525" y1="178" x2="414.565" y2="59.512" gradientUnits="userSpaceOnUse">
<stop stop-color="#BC187A"/>
<stop offset="1" stop-color="#23006D"/>
</linearGradient>
<radialGradient id="paint18_radial" cx="0" cy="0" r="1" gradientUnits="userSpaceOnUse" gradientTransform="translate(728.472 796.054) rotate(-130.074) scale(80.9525 294.987)">
<stop stop-color="#F047AD"/>
<stop offset="0.447917" stop-color="#9723CD"/>
<stop offset="1" stop-color="#23006D"/>
</radialGradient>
<linearGradient id="paint19_linear" x1="471.573" y1="198.411" x2="434.546" y2="168.152" gradientUnits="userSpaceOnUse">
<stop stop-color="#BC187A"/>
<stop offset="1" stop-color="#23006D"/>
</linearGradient>
<linearGradient id="paint20_linear" x1="540.313" y1="345.819" x2="441.15" y2="204.2" gradientUnits="userSpaceOnUse">
<stop stop-color="#BC187A"/>
<stop offset="1" stop-color="#23006D"/>
</linearGradient>
<linearGradient id="paint21_linear" x1="562.95" y1="248.572" x2="531.457" y2="226.723" gradientUnits="userSpaceOnUse">
<stop stop-color="#BC187A"/>
<stop offset="1" stop-color="#23006D"/>
</linearGradient>
<linearGradient id="paint22_linear" x1="720.047" y1="182.818" x2="657.379" y2="157.865" gradientUnits="userSpaceOnUse">
<stop stop-color="#BC187A"/>
<stop offset="1" stop-color="#23006D"/>
</linearGradient>
<linearGradient id="paint23_linear" x1="572.536" y1="413.22" x2="529.669" y2="365.45" gradientUnits="userSpaceOnUse">
<stop stop-color="#BC187A"/>
<stop offset="1" stop-color="#23006D"/>
</linearGradient>
<linearGradient id="paint24_linear" x1="620.893" y1="353.946" x2="589.864" y2="328.682" gradientUnits="userSpaceOnUse">
<stop stop-color="#BC187A"/>
<stop offset="1" stop-color="#23006D"/>
</linearGradient>
<linearGradient id="paint25_linear" x1="370.001" y1="159.147" x2="287.318" y2="82.0016" gradientUnits="userSpaceOnUse">
<stop stop-color="#BC187A"/>
<stop offset="1" stop-color="#23006D"/>
</linearGradient>
<linearGradient id="paint26_linear" x1="277.217" y1="65.1831" x2="277.217" y2="93.162" gradientUnits="userSpaceOnUse">
<stop stop-color="#4737FF"/>
<stop offset="1" stop-color="#430238"/>
</linearGradient>
<linearGradient id="paint27_linear" x1="718.438" y1="517.762" x2="586.947" y2="396.193" gradientUnits="userSpaceOnUse">
<stop stop-color="#BC187A"/>
<stop offset="1" stop-color="#23006D"/>
</linearGradient>
<radialGradient id="paint28_radial" cx="0" cy="0" r="1" gradientUnits="userSpaceOnUse" gradientTransform="translate(178.779 532.373) rotate(7.5038) scale(507.141 330.547)">
<stop stop-color="#30B1FF"/>
<stop offset="1" stop-color="#6700CD"/>
</radialGradient>
<radialGradient id="paint29_radial" cx="0" cy="0" r="1" gradientUnits="userSpaceOnUse" gradientTransform="translate(860 677) rotate(-59.3391) scale(356.894 311.628)">
<stop stop-color="#F047AD"/>
<stop offset="0.475886" stop-color="#9723CD"/>
<stop offset="1" stop-color="#23006D"/>
</radialGradient>
<linearGradient id="paint30_linear" x1="1040.82" y1="421.835" x2="1010.03" y2="408.814" gradientUnits="userSpaceOnUse">
<stop stop-color="#BC187A"/>
<stop offset="1" stop-color="#23006D"/>
</linearGradient>
<linearGradient id="paint31_linear" x1="653.98" y1="596.599" x2="713.094" y2="717.755" gradientUnits="userSpaceOnUse">
<stop stop-color="#4122FF"/>
<stop offset="1" stop-color="#D11866"/>
</linearGradient>
<radialGradient id="paint32_radial" cx="0" cy="0" r="1" gradientUnits="userSpaceOnUse" gradientTransform="translate(963.493 717.972) rotate(-113.237) scale(46.8026 83.1186)">
<stop stop-color="#7A0676"/>
<stop offset="1" stop-color="#1205A3"/>
</radialGradient>
<linearGradient id="paint33_linear" x1="351.428" y1="806.349" x2="247.061" y2="602.461" gradientUnits="userSpaceOnUse">
<stop stop-color="#BC187A"/>
<stop offset="1" stop-color="#23006D"/>
</linearGradient>
<linearGradient id="paint34_linear" x1="79.4585" y1="647.45" x2="79.4585" y2="675.464" gradientUnits="userSpaceOnUse">
<stop stop-color="#4737FF"/>
<stop offset="1" stop-color="#430238"/>
</linearGradient>
<linearGradient id="paint35_linear" x1="577.147" y1="226.627" x2="457.4" y2="171.881" gradientUnits="userSpaceOnUse">
<stop stop-color="#BC187A"/>
<stop offset="1" stop-color="#23006D"/>
</linearGradient>
<linearGradient id="paint36_linear" x1="478.431" y1="235.012" x2="459.022" y2="220.007" gradientUnits="userSpaceOnUse">
<stop stop-color="#BC187A"/>
<stop offset="1" stop-color="#23006D"/>
</linearGradient>
<linearGradient id="paint37_linear" x1="681.932" y1="129.129" x2="619.694" y2="98.0355" gradientUnits="userSpaceOnUse">
<stop stop-color="#BC187A"/>
<stop offset="1" stop-color="#23006D"/>
</linearGradient>
<linearGradient id="paint38_linear" x1="659.538" y1="165.536" x2="642.777" y2="155.636" gradientUnits="userSpaceOnUse">
<stop stop-color="#BC187A"/>
<stop offset="1" stop-color="#23006D"/>
</linearGradient>
<linearGradient id="paint39_linear" x1="827" y1="208" x2="749.62" y2="77.3686" gradientUnits="userSpaceOnUse">
<stop stop-color="#23006D"/>
<stop offset="1" stop-color="#BC187A"/>
</linearGradient>
<linearGradient id="paint40_linear" x1="783.598" y1="230.464" x2="767.046" y2="219.075" gradientUnits="userSpaceOnUse">
<stop stop-color="#BC187A"/>
<stop offset="1" stop-color="#23006D"/>
</linearGradient>
<radialGradient id="paint41_radial" cx="0" cy="0" r="1" gradientUnits="userSpaceOnUse" gradientTransform="translate(794.636 324.67) rotate(148.371) scale(32.272 102.704)">
<stop stop-color="#078FE1"/>
<stop offset="1" stop-color="#2A1BD0"/>
</radialGradient>
<radialGradient id="paint42_radial" cx="0" cy="0" r="1" gradientUnits="userSpaceOnUse" gradientTransform="translate(974.697 344.276) rotate(-118.593) scale(57.9938 119.382)">
<stop stop-color="#7A0676"/>
<stop offset="1" stop-color="#1205A3"/>
</radialGradient>
<radialGradient id="paint43_radial" cx="0" cy="0" r="1" gradientUnits="userSpaceOnUse" gradientTransform="translate(860.353 924.436) rotate(-95.5577) scale(24.8908 38.3404)">
<stop stop-color="#7B2978"/>
<stop offset="1" stop-color="#2A1CD0"/>
</radialGradient>
<radialGradient id="paint44_radial" cx="0" cy="0" r="1" gradientUnits="userSpaceOnUse" gradientTransform="translate(402.343 772.209) rotate(-136.658) scale(68.778 168.181)">
<stop stop-color="#7A0676"/>
<stop offset="1" stop-color="#1205A3"/>
</radialGradient>
<linearGradient id="paint45_linear" x1="945.327" y1="311.209" x2="920.159" y2="302.496" gradientUnits="userSpaceOnUse">
<stop stop-color="#BC187A"/>
<stop offset="1" stop-color="#23006D"/>
</linearGradient>
</defs>
</svg>
