<svg width="706" height="845" viewBox="0 0 706 845" fill="none" xmlns="http://www.w3.org/2000/svg">
<path fill-rule="evenodd" clip-rule="evenodd" d="M164.995 67.0722L170.618 74.5976L171.251 95.698L162.274 94.611L158.039 81.4431L164.995 67.0722Z" fill="url(#paint0_linear)"/>
<path opacity="0.88" fill-rule="evenodd" clip-rule="evenodd" d="M164.995 67.0722L161.81 77.8664L167.529 85.4242L171.251 95.698L170.618 74.5976L164.995 67.0722Z" fill="url(#paint1_linear)"/>
<path fill-rule="evenodd" clip-rule="evenodd" d="M158.039 81.4432L161.81 77.8664L167.529 85.4242L171.251 95.6981L160.813 101.541L158.039 81.4432Z" fill="#1C0843"/>
<path opacity="0.4" fill-rule="evenodd" clip-rule="evenodd" d="M23.5152 263.643L42.7307 279.896L44.8842 300.926L37.8919 302.8L23.5933 288.013L23.5152 263.643Z" fill="url(#paint2_radial)"/>
<path opacity="0.4" fill-rule="evenodd" clip-rule="evenodd" d="M23.5152 263.643L25.9926 276.67L42.9109 285.267L42.7307 279.896L23.5152 263.643Z" fill="url(#paint3_linear)"/>
<path opacity="0.4" fill-rule="evenodd" clip-rule="evenodd" d="M25.9926 276.67L25.7259 287.53L37.8919 302.799L22.2051 292.339L23.5152 263.643L25.9926 276.67Z" fill="url(#paint4_radial)"/>
<path opacity="0.4" d="M23.41 263.691L23.618 263.586L32.222 279.987L44.9846 300.86L44.7815 300.983L32.0165 280.101L23.41 263.691Z" fill="#00ADFF"/>
<path opacity="0.4" d="M23.5354 288.127L23.6447 287.911L29.4061 290.95L41.3618 301.801L41.2011 301.972L29.2595 291.137L23.5354 288.127Z" fill="#00ADFF"/>
<path fill-rule="evenodd" clip-rule="evenodd" d="M661.389 126.04C661.389 126.04 675.254 113.187 683.045 83.0999L688.673 75.8932C688.673 75.8932 648.436 88.7763 632.482 90.2492L630.976 83.0345L612.808 79.1875C612.808 79.1875 605.694 54.0642 609.208 30.2025L604.344 27.6365C604.344 27.6365 588.128 42.0613 583.707 54.3419L592.179 80.0523L596.151 79.5329C596.13 79.5278 626.851 126.01 661.389 126.04Z" fill="url(#paint5_radial)"/>
<path fill-rule="evenodd" clip-rule="evenodd" d="M602.916 28.9326L597.229 70.1589L592.166 80.0599L583.694 54.3496C583.686 54.3365 587.277 40.6305 602.916 28.9326Z" fill="url(#paint6_linear)"/>
<path fill-rule="evenodd" clip-rule="evenodd" d="M632.461 90.2444L628.577 108.292L652.747 91.1964L685.52 76.8799L632.064 87.591L632.461 90.2444Z" fill="#1C0843"/>
<path fill-rule="evenodd" clip-rule="evenodd" d="M604.44 90.4707L606.657 76.9739L606.685 62.5201L599.049 81.5961L604.44 90.4707Z" fill="url(#paint7_linear)"/>
<path fill-rule="evenodd" clip-rule="evenodd" d="M630.955 83.0293L608.971 87.6648L612.787 79.1823L630.955 83.0293Z" fill="#1C0843"/>
<path d="M627.616 112.769L650.131 99.8605L677.131 89.3363L678.376 91.3853L678.317 91.4931L664.588 116.217L653.112 125.297L652.874 124.995L664.332 115.944L677.939 91.4008L676.972 89.8086L650.29 100.211L627.801 113.104L627.616 112.769Z" fill="url(#paint8_linear)"/>
<path d="M651.029 103.692L666.218 96.8416L667.114 98.3164L667.093 98.4003L661.551 114.453L648.215 124.001L647.991 123.691L661.23 114.219L666.692 98.358L666.066 97.3269L651.214 104.026L632.192 116.154L631.98 115.836L651.029 103.692Z" fill="#00ADFF"/>
<path d="M607.296 93.1137L616.693 90.4066L616.772 90.4481L624.179 95.7579L622.498 108.697L622.123 108.638L623.768 95.9356L616.625 90.8234L607.395 93.4825L607.296 93.1137Z" fill="#00ADFF"/>
<path d="M608.403 94.9067L613.599 94.0192L613.673 94.0817L617.818 97.728L617.81 97.804L617.821 104.498L617.431 104.503L617.434 97.8899L613.489 94.4257L608.468 95.2782L608.403 94.9067Z" fill="#00ADFF"/>
<path opacity="0.5" fill-rule="evenodd" clip-rule="evenodd" d="M584.557 345.435L587.51 333.631L599.922 312.163L614.714 307.107L624.861 311.329C624.861 311.329 620.209 334.114 597.922 356.417L584.557 345.435Z" fill="url(#paint9_radial)"/>
<path opacity="0.5" fill-rule="evenodd" clip-rule="evenodd" d="M597.929 356.435L604.002 325.669L624.885 311.339C624.885 311.339 621.945 333.266 597.929 356.435Z" fill="url(#paint10_linear)"/>
<path opacity="0.5" fill-rule="evenodd" clip-rule="evenodd" d="M32.9783 802.141L35.9309 813.945L48.3427 835.413L63.1353 840.469L73.2817 836.247C73.2817 836.247 68.6296 813.462 46.343 791.158L32.9783 802.141Z" fill="url(#paint11_radial)"/>
<path opacity="0.5" fill-rule="evenodd" clip-rule="evenodd" d="M46.3501 791.141L52.4233 821.907L73.3056 836.236C73.3056 836.236 70.3655 814.31 46.3501 791.141Z" fill="url(#paint12_linear)"/>
<path fill-rule="evenodd" clip-rule="evenodd" d="M565.487 680.439L580.32 670.891L587.471 636.56L578.172 637.603L578.059 631.218C578.059 631.218 563.604 638.048 557.685 673.958L565.487 680.439Z" fill="url(#paint13_linear)"/>
<path fill-rule="evenodd" clip-rule="evenodd" d="M577.719 632.853L578.175 637.59L587.474 636.547L578.251 668.457L564.631 678.036L557.705 673.936C557.705 673.936 557.286 660.371 562.185 649.101C567.068 637.84 577.719 632.853 577.719 632.853Z" fill="url(#paint14_radial)"/>
<path opacity="0.88" fill-rule="evenodd" clip-rule="evenodd" d="M580.324 670.878L578.238 668.453L564.618 678.032L565.487 680.439L580.324 670.878Z" fill="url(#paint15_linear)"/>
<path d="M565.139 677.499L565.456 677.626L580.611 637.401L580.294 637.274L565.139 677.499Z" fill="#00ADFF"/>
<path d="M586.175 636.634L579.357 664.012L579.685 664.1L586.502 636.721L586.175 636.634Z" fill="#00ADFF"/>
<defs>
<linearGradient id="paint0_linear" x1="158.228" y1="82.7549" x2="171.502" y2="80.9223" gradientUnits="userSpaceOnUse">
<stop stop-color="#4F0E6F"/>
<stop offset="1" stop-color="#450086"/>
</linearGradient>
<linearGradient id="paint1_linear" x1="171.491" y1="80.9201" x2="162.405" y2="82.1746" gradientUnits="userSpaceOnUse">
<stop stop-color="#4122FF"/>
<stop offset="1" stop-color="#FF3389"/>
</linearGradient>
<radialGradient id="paint2_radial" cx="0" cy="0" r="1" gradientUnits="userSpaceOnUse" gradientTransform="translate(23.28 286.907) rotate(-62.2245) scale(30.3348 74.0773)">
<stop stop-color="#7A0676"/>
<stop offset="1" stop-color="#0A0049"/>
</radialGradient>
<linearGradient id="paint3_linear" x1="40.733" y1="272.44" x2="25.9225" y2="276.408" gradientUnits="userSpaceOnUse">
<stop stop-color="#4122FF"/>
<stop offset="1" stop-color="#FF3389"/>
</linearGradient>
<radialGradient id="paint4_radial" cx="0" cy="0" r="1" gradientUnits="userSpaceOnUse" gradientTransform="translate(20.9095 287.542) rotate(-75.7811) scale(25.5125 53.2457)">
<stop stop-color="#7A0676"/>
<stop offset="1" stop-color="#0A0049"/>
</radialGradient>
<radialGradient id="paint5_radial" cx="0" cy="0" r="1" gradientUnits="userSpaceOnUse" gradientTransform="translate(605.465 26.8506) rotate(36.9905) scale(122.508 206.411)">
<stop stop-color="#7A0676"/>
<stop offset="1" stop-color="#0A0049"/>
</radialGradient>
<linearGradient id="paint6_linear" x1="606.828" y1="74.5757" x2="581.425" y2="71.9136" gradientUnits="userSpaceOnUse">
<stop stop-color="#4122FF"/>
<stop offset="1" stop-color="#18D1BB"/>
</linearGradient>
<linearGradient id="paint7_linear" x1="611.461" y1="86.2053" x2="599.664" y2="66.7855" gradientUnits="userSpaceOnUse">
<stop stop-color="#FF33BA"/>
<stop offset="1" stop-color="#3F10DB" stop-opacity="0"/>
</linearGradient>
<linearGradient id="paint8_linear" x1="661.035" y1="122.634" x2="640.911" y2="110.879" gradientUnits="userSpaceOnUse">
<stop stop-color="#4122FF"/>
<stop offset="1" stop-color="#18D1BB"/>
</linearGradient>
<radialGradient id="paint9_radial" cx="0" cy="0" r="1" gradientUnits="userSpaceOnUse" gradientTransform="translate(615.551 349.038) rotate(-146.796) scale(48.2984 109.667)">
<stop stop-color="#7A0676"/>
<stop offset="1" stop-color="#0A0049"/>
</radialGradient>
<linearGradient id="paint10_linear" x1="607.166" y1="316.2" x2="630.298" y2="326.993" gradientUnits="userSpaceOnUse">
<stop stop-color="#4122FF"/>
<stop offset="1" stop-color="#18D1BB"/>
</linearGradient>
<radialGradient id="paint11_radial" cx="0" cy="0" r="1" gradientUnits="userSpaceOnUse" gradientTransform="translate(63.9721 798.538) rotate(146.796) scale(48.2984 109.667)">
<stop stop-color="#7A0676"/>
<stop offset="1" stop-color="#0A0049"/>
</radialGradient>
<linearGradient id="paint12_linear" x1="55.5865" y1="831.376" x2="78.7185" y2="820.583" gradientUnits="userSpaceOnUse">
<stop stop-color="#4122FF"/>
<stop offset="1" stop-color="#18D1BB"/>
</linearGradient>
<linearGradient id="paint13_linear" x1="562.534" y1="653.343" x2="583.517" y2="658.965" gradientUnits="userSpaceOnUse">
<stop stop-color="#4F0E6F"/>
<stop offset="1" stop-color="#450086"/>
</linearGradient>
<radialGradient id="paint14_radial" cx="0" cy="0" r="1" gradientUnits="userSpaceOnUse" gradientTransform="translate(561.201 650.852) rotate(64.3102) scale(33.2443 80.5078)">
<stop stop-color="#7A0676"/>
<stop offset="1" stop-color="#0A0049"/>
</radialGradient>
<linearGradient id="paint15_linear" x1="578.865" y1="676.323" x2="565.999" y2="672.875" gradientUnits="userSpaceOnUse">
<stop stop-color="#4122FF"/>
<stop offset="1" stop-color="#FF3389"/>
</linearGradient>
</defs>
</svg>
