<svg width="1440" height="1026" viewBox="0 0 1440 1026" fill="none" xmlns="http://www.w3.org/2000/svg">
<rect y="3" width="1440" height="1024" fill="url(#paint0_radial)"/>
<path d="M102.635 604.466L30.6265 532.466" stroke="url(#paint1_radial)" stroke-width="2" stroke-linecap="round"/>
<path d="M190.577 153.04L17.5774 76.5396" stroke="url(#paint2_radial)" stroke-width="2" stroke-linecap="round"/>
<path d="M1334.15 550.533L1262.15 478.533" stroke="url(#paint3_radial)" stroke-width="2" stroke-linecap="round"/>
<path d="M1243.11 92.9355L1070.11 169.436" stroke="url(#paint4_radial)" stroke-width="2" stroke-linecap="round"/>
<circle cx="662.48" cy="389.436" r="0.473168" transform="rotate(101.821 662.48 389.436)" fill="white"/>
<circle cx="539.526" cy="524.198" r="0.473168" transform="rotate(101.821 539.526 524.198)" fill="white"/>
<circle cx="333.208" cy="641.513" r="0.473168" transform="rotate(101.821 333.208 641.513)" fill="white"/>
<circle cx="536.722" cy="297.371" r="0.473168" transform="rotate(101.821 536.722 297.371)" fill="white"/>
<circle cx="825.921" cy="96.0302" r="0.473168" transform="rotate(14.4191 825.921 96.0302)" fill="white"/>
<circle cx="675.491" cy="408.111" r="0.946335" transform="rotate(101.821 675.491 408.111)" fill="white"/>
<circle cx="529.447" cy="676.299" r="0.946335" transform="rotate(101.821 529.447 676.299)" fill="white"/>
<circle cx="259.186" cy="221.4" r="0.946335" transform="rotate(101.821 259.186 221.4)" fill="white"/>
<circle cx="1202.48" cy="58.4945" r="0.946335" transform="rotate(14.4191 1202.48 58.4945)" fill="white"/>
<circle cx="272.31" cy="560.606" r="0.946335" transform="rotate(101.821 272.31 560.606)" fill="white"/>
<circle cx="143.82" cy="671.006" r="0.946335" transform="rotate(101.821 143.82 671.006)" fill="white"/>
<circle cx="162.689" cy="636.282" r="0.946335" transform="rotate(101.821 162.689 636.282)" fill="white"/>
<circle cx="781.536" cy="109.047" r="1.4195" transform="rotate(14.4191 781.536 109.047)" fill="white"/>
<circle cx="495.342" cy="338.019" r="1.4195" transform="rotate(101.821 495.342 338.019)" fill="white"/>
<circle cx="542.257" cy="238.585" r="1.4195" transform="rotate(101.821 542.257 238.585)" fill="white"/>
<circle cx="51.1016" cy="307.891" r="1.4195" transform="rotate(101.821 51.1016 307.891)" fill="white"/>
<circle cx="1184.93" cy="90.6257" r="1.4195" transform="rotate(14.4191 1184.93 90.6257)" fill="white"/>
<circle cx="961.146" cy="56.5377" r="2.36584" transform="rotate(14.4191 961.146 56.5377)" fill="white"/>
<circle cx="942.504" cy="888.451" r="2.36584" transform="rotate(71.2393 942.504 888.451)" fill="white"/>
<circle cx="736.343" cy="623.955" r="2.36584" transform="rotate(71.2393 736.343 623.955)" fill="white"/>
<circle cx="1122.35" cy="79.4195" r="2.36584" transform="rotate(14.4191 1122.35 79.4195)" fill="white"/>
<path d="M0 1024.74H1440V648.466H0V1024.74Z" fill="url(#paint5_linear)" fill-opacity="0.8"/>
<path d="M1440 1027H0V567.162H1440V1027Z" fill="url(#paint6_linear)"/>
<path d="M0 0.625977H1440V1024.63H0V0.625977Z" fill="url(#paint7_linear)" fill-opacity="0.8"/>
<defs>
<radialGradient id="paint0_radial" cx="0" cy="0" r="1" gradientUnits="userSpaceOnUse" gradientTransform="translate(1054.83 934.298) rotate(-134.844) scale(2063.62 1781.27)">
<stop offset="0.495189" stop-color="#0B0238"/>
<stop offset="1" stop-color="#4122FF"/>
</radialGradient>
<radialGradient id="paint1_radial" cx="0" cy="0" r="1" gradientUnits="userSpaceOnUse" gradientTransform="translate(102.037 602.911) rotate(-48.2586) scale(248.791 68.2499)">
<stop stop-color="white"/>
<stop offset="1" stop-color="white" stop-opacity="0"/>
</radialGradient>
<radialGradient id="paint2_radial" cx="0" cy="0" r="1" gradientUnits="userSpaceOnUse" gradientTransform="translate(189.603 151.688) rotate(-144.019) scale(186.632 113.033)">
<stop stop-color="white"/>
<stop offset="0.941699" stop-color="white" stop-opacity="0"/>
</radialGradient>
<radialGradient id="paint3_radial" cx="0" cy="0" r="1" gradientUnits="userSpaceOnUse" gradientTransform="translate(1333.56 548.978) rotate(-48.2586) scale(248.791 68.2499)">
<stop stop-color="white"/>
<stop offset="1" stop-color="white" stop-opacity="0"/>
</radialGradient>
<radialGradient id="paint4_radial" cx="0" cy="0" r="1" gradientUnits="userSpaceOnUse" gradientTransform="translate(1242.13 94.2871) rotate(144.019) scale(186.632 113.033)">
<stop stop-color="white"/>
<stop offset="0.941699" stop-color="white" stop-opacity="0"/>
</radialGradient>
<linearGradient id="paint5_linear" x1="1032.51" y1="836.605" x2="1574.7" y2="1908.32" gradientUnits="userSpaceOnUse">
<stop stop-color="#FF3389" stop-opacity="0"/>
<stop offset="1" stop-color="#FF3389"/>
</linearGradient>
<linearGradient id="paint6_linear" x1="348.304" y1="786.229" x2="-84.0838" y2="2229.91" gradientUnits="userSpaceOnUse">
<stop stop-color="#001AFF" stop-opacity="0"/>
<stop offset="1" stop-color="#1A00BB"/>
</linearGradient>
<linearGradient id="paint7_linear" x1="1353.55" y1="134.017" x2="2021.36" y2="-279.759" gradientUnits="userSpaceOnUse">
<stop stop-color="#FF3389" stop-opacity="0"/>
<stop offset="0.453786" stop-color="#FF3389"/>
</linearGradient>
</defs>
</svg>
