<svg width="1332" height="892" viewBox="0 0 1332 892" fill="none" xmlns="http://www.w3.org/2000/svg">
<path d="M86.6352 604.466L14.6265 532.466" stroke="url(#paint0_radial)" stroke-width="2" stroke-linecap="round"/>
<path d="M174.577 153.04L1.57739 76.5396" stroke="url(#paint1_radial)" stroke-width="2" stroke-linecap="round"/>
<path d="M1318.15 550.533L1246.15 478.533" stroke="url(#paint2_radial)" stroke-width="2" stroke-linecap="round"/>
<path d="M1227.11 92.9355L1054.11 169.436" stroke="url(#paint3_radial)" stroke-width="2" stroke-linecap="round"/>
<circle cx="646.48" cy="389.436" r="0.473168" transform="rotate(101.821 646.48 389.436)" fill="white"/>
<circle cx="523.526" cy="524.198" r="0.473168" transform="rotate(101.821 523.526 524.198)" fill="white"/>
<circle cx="317.208" cy="641.513" r="0.473168" transform="rotate(101.821 317.208 641.513)" fill="white"/>
<circle cx="520.722" cy="297.371" r="0.473168" transform="rotate(101.821 520.722 297.371)" fill="white"/>
<circle cx="809.921" cy="96.0302" r="0.473168" transform="rotate(14.4191 809.921 96.0302)" fill="white"/>
<circle cx="659.491" cy="408.111" r="0.946335" transform="rotate(101.821 659.491 408.111)" fill="white"/>
<circle cx="513.447" cy="676.299" r="0.946335" transform="rotate(101.821 513.447 676.299)" fill="white"/>
<circle cx="243.186" cy="221.4" r="0.946335" transform="rotate(101.821 243.186 221.4)" fill="white"/>
<circle cx="1186.48" cy="58.4945" r="0.946335" transform="rotate(14.4191 1186.48 58.4945)" fill="white"/>
<circle cx="256.31" cy="560.606" r="0.946335" transform="rotate(101.821 256.31 560.606)" fill="white"/>
<circle cx="127.82" cy="671.006" r="0.946335" transform="rotate(101.821 127.82 671.006)" fill="white"/>
<circle cx="146.689" cy="636.282" r="0.946335" transform="rotate(101.821 146.689 636.282)" fill="white"/>
<circle cx="765.536" cy="109.047" r="1.4195" transform="rotate(14.4191 765.536 109.047)" fill="white"/>
<circle cx="479.342" cy="338.019" r="1.4195" transform="rotate(101.821 479.342 338.019)" fill="white"/>
<circle cx="526.257" cy="238.585" r="1.4195" transform="rotate(101.821 526.257 238.585)" fill="white"/>
<circle cx="35.1016" cy="307.891" r="1.4195" transform="rotate(101.821 35.1016 307.891)" fill="white"/>
<circle cx="1168.93" cy="90.6257" r="1.4195" transform="rotate(14.4191 1168.93 90.6257)" fill="white"/>
<circle cx="945.146" cy="56.5377" r="2.36584" transform="rotate(14.4191 945.146 56.5377)" fill="white"/>
<circle cx="926.504" cy="888.451" r="2.36584" transform="rotate(71.2393 926.504 888.451)" fill="white"/>
<circle cx="720.343" cy="623.955" r="2.36584" transform="rotate(71.2393 720.343 623.955)" fill="white"/>
<circle cx="1106.35" cy="79.4195" r="2.36584" transform="rotate(14.4191 1106.35 79.4195)" fill="white"/>
<defs>
<radialGradient id="paint0_radial" cx="0" cy="0" r="1" gradientUnits="userSpaceOnUse" gradientTransform="translate(86.0367 602.911) rotate(-48.2586) scale(248.791 68.2499)">
<stop stop-color="white"/>
<stop offset="1" stop-color="white" stop-opacity="0"/>
</radialGradient>
<radialGradient id="paint1_radial" cx="0" cy="0" r="1" gradientUnits="userSpaceOnUse" gradientTransform="translate(173.603 151.688) rotate(-144.019) scale(186.632 113.033)">
<stop stop-color="white"/>
<stop offset="0.941699" stop-color="white" stop-opacity="0"/>
</radialGradient>
<radialGradient id="paint2_radial" cx="0" cy="0" r="1" gradientUnits="userSpaceOnUse" gradientTransform="translate(1317.56 548.978) rotate(-48.2586) scale(248.791 68.2499)">
<stop stop-color="white"/>
<stop offset="1" stop-color="white" stop-opacity="0"/>
</radialGradient>
<radialGradient id="paint3_radial" cx="0" cy="0" r="1" gradientUnits="userSpaceOnUse" gradientTransform="translate(1226.13 94.2871) rotate(144.019) scale(186.632 113.033)">
<stop stop-color="white"/>
<stop offset="0.941699" stop-color="white" stop-opacity="0"/>
</radialGradient>
</defs>
</svg>
