<svg width="69" height="73" viewBox="0 0 69 73" fill="none" xmlns="http://www.w3.org/2000/svg">
<g opacity="0.8">
<circle cx="34.4563" cy="34.4563" r="34.4563" fill="url(#paint0_radial)"/>
<path opacity="0.88" fill-rule="evenodd" clip-rule="evenodd" d="M67.3263 44.8216C62.3054 57.6384 49.8286 66.7148 35.232 66.7148C16.2023 66.7148 0.775726 51.2882 0.775726 32.2586C0.775726 28.6468 1.33142 25.1649 2.36199 21.8936C0.837152 25.786 0 30.0235 0 34.4565C0 53.4862 15.4266 68.9128 34.4563 68.9128C49.8742 68.9128 62.9269 58.7863 67.3263 44.8216Z" fill="url(#paint1_radial)"/>
<path fill-rule="evenodd" clip-rule="evenodd" d="M10.3922 16.8611L10.5496 14.1074C10.5496 14.1074 19.6707 6.38559 32.7707 4.5254L34.5804 6.45865L35.8167 8.41438C35.8167 8.41438 24.6331 14.349 17.4171 24.004L18.2657 24.7627L26.0886 20.3511L33.7767 21.7561L33.6362 24.004C33.6362 24.004 24.4364 35.0079 14.0676 42.4767L6.71676 42.4767L4.23276 26.2071L3.74945 23.0037L8.20605 17.7997L10.3922 16.8611Z" fill="url(#paint2_linear)"/>
<path fill-rule="evenodd" clip-rule="evenodd" d="M55.6663 12.1519C55.6663 12.1519 48.8493 13.5456 40.6498 21.5203L37.5027 22.7117C37.5027 22.7117 52.6203 26.3478 57.9199 28.933L57.0151 31.49L61.9943 36.1714C61.9943 36.1714 59.4316 45.433 53.7667 52.2669L54.8064 54.0034C54.8064 54.0034 62.6631 52.5647 66.4003 49.5468L68.6483 39.8412L67.2995 39.2455C67.3051 39.2511 66.524 18.7609 55.6663 12.1519Z" fill="url(#paint3_radial)"/>
<path fill-rule="evenodd" clip-rule="evenodd" d="M24.7005 62.2587L30.1181 57.3413L44.64 58.1618L43.2238 61.7754L45.7696 62.506C45.7696 62.506 41.4816 67.5639 26.4595 66.0803L24.7005 62.2587Z" fill="url(#paint4_linear)"/>
<path fill-rule="evenodd" clip-rule="evenodd" d="M18.1646 64.7544L18.1646 66.7551L25.2681 69.7168L30.6857 68.7389C30.6857 68.7333 22.683 67.6487 18.1646 64.7544Z" fill="url(#paint5_radial)"/>
<path fill-rule="evenodd" clip-rule="evenodd" d="M41.9818 67.7608L44.2354 64.7541L50.3386 60.1289L55.1549 60.4605L57.5378 62.8771C57.5378 62.8771 53.4858 68.8061 44.4714 72.4871L41.9818 67.7608Z" fill="url(#paint6_radial)"/>
<path fill-rule="evenodd" clip-rule="evenodd" d="M42.6224 16.9341C42.6224 16.9341 45.5504 9.08302 47.7309 6.45852C47.7309 6.45852 52.3505 6.41918 54.6491 9.72369L51.9908 12.3201C51.9965 12.3257 48.2648 12.5168 42.6224 16.9341Z" fill="url(#paint7_linear)"/>
<path fill-rule="evenodd" clip-rule="evenodd" d="M32.7707 4.5254C32.7707 4.5254 20.4519 14.3771 15.8379 23.4983L11.0666 29.8488L26.0886 20.3511L33.7767 21.7561C33.7767 21.7561 20.8228 35.5923 12.0501 41.2404L6.71676 42.4767L3.74945 23.0037L8.59944 17.7659L9.26821 24.004L10.5496 16.1137L10.5496 14.1074C10.5496 14.1074 19.6763 6.03153 32.7707 4.5254Z" fill="url(#paint8_linear)"/>
<path fill-rule="evenodd" clip-rule="evenodd" d="M44.4714 72.4929L49.8834 64.462L57.5434 62.8828C57.5434 62.8828 54.0815 68.7725 44.4714 72.4929Z" fill="url(#paint9_linear)"/>
<path fill-rule="evenodd" clip-rule="evenodd" d="M55.5033 53.8686L65.1696 41.9881L68.6539 39.8413L66.4059 49.5469C66.4059 49.5525 62.6575 53.1774 55.5033 53.8686Z" fill="url(#paint10_linear)"/>
<path fill-rule="evenodd" clip-rule="evenodd" d="M49.8834 57.218L56.2002 54.3462L58.1391 55.6613L55.5033 58.623L49.7598 59.3311L49.8834 57.218Z" fill="url(#paint11_linear)"/>
<path fill-rule="evenodd" clip-rule="evenodd" d="M58.1391 55.6611L51.6705 57.7742L49.7598 59.3309L55.5033 58.6228L58.1391 55.6611Z" fill="url(#paint12_linear)"/>
<path fill-rule="evenodd" clip-rule="evenodd" d="M17.4171 24.004L11.0666 29.8488L15.8379 23.4983C15.8379 23.4983 23.8238 10.3195 32.7707 4.52539L37.986 8.17835C37.9916 8.17835 24.2116 15.1021 17.4171 24.004Z" fill="#1C0843"/>
<path fill-rule="evenodd" clip-rule="evenodd" d="M33.7767 21.7559L33.6812 23.2564L36.0696 23.498C36.0696 23.498 25.2007 36.2047 14.9162 42.5777L14.0676 42.4709L33.7767 21.7559Z" fill="url(#paint13_radial)"/>
<path fill-rule="evenodd" clip-rule="evenodd" d="M42.6224 16.934L52.8282 12.9439L51.9965 12.32L54.6547 9.72363C54.6547 9.72925 48.5852 9.85289 42.6224 16.934Z" fill="#1C0843"/>
<path fill-rule="evenodd" clip-rule="evenodd" d="M57.9255 28.9385L62.5956 24.0043L51.7267 24.7629L38.6829 23.0039L57.5433 29.849L57.9255 28.9385Z" fill="#1C0843"/>
<path fill-rule="evenodd" clip-rule="evenodd" d="M27.9938 35.3003L40.2227 26.8086L52.5697 28.798L52.5697 33.0804L41.9312 38.987L27.9938 35.3003Z" fill="url(#paint14_radial)"/>
<path fill-rule="evenodd" clip-rule="evenodd" d="M26.0886 40.3806L28.1343 39.251L33.3552 39.813L32.782 41.9879L29.3931 42.5836L26.0886 40.3806Z" fill="url(#paint15_linear)"/>
<path fill-rule="evenodd" clip-rule="evenodd" d="M27.9938 35.3003L35.8167 35.8792L43.3193 27.5279L40.2227 26.8086L27.9938 35.3003Z" fill="url(#paint16_linear)"/>
<path opacity="0.88" fill-rule="evenodd" clip-rule="evenodd" d="M26.0886 40.3806L28.6401 41.5327L30.697 40.3806L33.3552 39.813L28.1343 39.251L26.0886 40.3806Z" fill="url(#paint17_linear)"/>
<path fill-rule="evenodd" clip-rule="evenodd" d="M35.8167 35.8793L41.9818 37.6945L52.5697 33.0806L44.1904 40.4427L27.9938 35.3004L35.8167 35.8793Z" fill="url(#paint18_radial)"/>
<path fill-rule="evenodd" clip-rule="evenodd" d="M29.3931 42.5836L28.6401 41.5327L30.697 40.3806L33.3552 39.813L34.4398 42.5836L29.3931 42.5836Z" fill="#1C0843"/>
<path fill-rule="evenodd" clip-rule="evenodd" d="M66.7825 34.2212L63.5061 38.0427L60.7355 42.5836L66.7825 38.0427L66.7825 34.2212Z" fill="url(#paint19_linear)"/>
<path fill-rule="evenodd" clip-rule="evenodd" d="M45.0783 62.467L43.2294 61.7757L44.6456 58.1621L30.8712 58.4319L25.5716 62.8604L26.4708 66.075C26.4708 66.075 31.8603 67.6991 36.9014 66.946C41.9368 66.1986 45.0783 62.467 45.0783 62.467Z" fill="url(#paint20_radial)"/>
<path opacity="0.88" fill-rule="evenodd" clip-rule="evenodd" d="M30.1237 57.3413L30.8712 58.4372L25.5716 62.8657L24.7005 62.2587L30.1237 57.3413Z" fill="url(#paint21_linear)"/>
<path fill-rule="evenodd" clip-rule="evenodd" d="M57.0207 31.4956L64.8211 34.2381L61.9999 36.177L57.0207 31.4956Z" fill="#1C0843"/>
<path d="M6.75051 39.6837L6.68869 39.56C6.81795 39.4926 19.7325 33.0184 24.0205 29.7982C27.9432 26.8534 29.4044 24.4312 29.6292 24.0322L26.527 22.2001L5.31743 33.1421L5.25561 33.0184L26.5326 22.0371L29.8147 23.976L29.7866 24.0322C29.7753 24.0603 28.4097 26.6679 24.1048 29.905C19.8 33.1365 6.87977 39.6162 6.75051 39.6837Z" fill="#00ADFF"/>
<path d="M6.13227 38.5035L6.07045 38.3799L14.7364 33.9008L22.2896 26.8141L21.514 26.2914L5.45226 34.0244L5.39044 33.9008L21.5252 26.1284L22.52 26.7972L22.4525 26.859L14.8094 34.0244L6.13227 38.5035Z" fill="#00ADFF"/>
<path d="M5.12636 31.3491L5.0252 31.2536L17.7206 16.6867L29.6742 5.02539L29.7697 5.12655L17.8218 16.7823L5.12636 31.3491Z" fill="#00ADFF"/>
<path d="M4.52496 29.7925L8.17229 18.1761L8.30717 18.221L4.92397 28.9944L11.9882 19.1034L22.3514 7.28467L22.4581 7.38021L12.1006 19.1877L4.52496 29.7925Z" fill="#00ADFF"/>
<path d="M63.7534 22.7788L54.2051 22.5372L43.7015 20.6882L43.7015 19.8059L43.7408 19.7834L52.7833 14.6299L58.1278 13.9668L58.1447 14.1073L52.8114 14.7648L43.842 19.8846L43.842 20.5702L54.222 22.3967L63.759 22.6383L63.7534 22.7788Z" fill="url(#paint22_linear)"/>
<path d="M54.6547 21.1604L48.5684 20.4129L48.5684 19.7779L48.5908 19.7554L53.4015 15.7653L59.4204 15.3101L59.4317 15.4506L53.4577 15.9002L48.7089 19.8453L48.7089 20.2893L54.6604 21.0199L62.961 20.8401L62.9666 20.9806L54.6547 21.1604Z" fill="#00ADFF"/>
<path d="M66.3891 32.8442L62.916 31.9L62.8992 31.8719L61.5841 28.7866L64.5851 25.0381L64.6919 25.128L61.7471 28.8091L63.0172 31.782L66.4285 32.7093L66.3891 32.8442Z" fill="#00ADFF"/>
<path d="M66.3835 32.0687L64.5795 31.355L64.5683 31.3213L63.9613 29.3824L63.9782 29.3599L65.2539 27.2524L65.3775 27.3255L64.113 29.4049L64.6919 31.2482L66.4341 31.9395L66.3835 32.0687Z" fill="#00ADFF"/>
<path d="M28.005 35.3676L27.9769 35.2327L38.666 32.8274L52.5472 28.7305L52.5866 28.8654L38.6997 32.9623L28.005 35.3676Z" fill="#00ADFF"/>
<path d="M41.9874 39.0375L41.8806 38.942L44.4995 36.1152L52.5304 30.9448L52.6034 31.0628L44.5838 36.2276L41.9874 39.0375Z" fill="#00ADFF"/>
<path d="M25.8414 62.7142L25.8245 62.5737L43.5666 60.8203L43.5835 60.9608L25.8414 62.7142Z" fill="#00ADFF"/>
<path d="M44.4714 58.6731L32.7708 58.4652L32.7708 58.3247L44.4714 58.5326L44.4714 58.6731Z" fill="#00ADFF"/>
<path fill-rule="evenodd" clip-rule="evenodd" d="M5.30615 50.564L5.30615 54.4249L7.61594 57.2123C7.61594 57.2123 13.3876 59.5558 17.7711 59.3254L16.0514 55.9479L16.9225 54.4249L5.30615 50.564Z" fill="url(#paint23_linear)"/>
<path fill-rule="evenodd" clip-rule="evenodd" d="M4.72168 47.4783L6.89659 48.6978L12.7188 48.6978L13.9103 46.6353L5.91872 45.7417L4.72168 47.4783Z" fill="url(#paint24_linear)"/>
<path fill-rule="evenodd" clip-rule="evenodd" d="M4.72168 47.4783L7.62156 47.9391L12.8593 47.4783L13.9103 46.6353L5.91872 45.7417L4.72168 47.4783Z" fill="url(#paint25_linear)"/>
<path fill-rule="evenodd" clip-rule="evenodd" d="M5.30615 50.564L5.30615 54.4249L8.70059 56.5042L13.9103 55.6612L16.9282 54.4249L5.30615 50.564Z" fill="url(#paint26_linear)"/>
<path fill-rule="evenodd" clip-rule="evenodd" d="M13.9102 46.6357L12.8593 47.4787L6.89655 48.6983L13.4719 49.2715L13.9102 46.6357Z" fill="#1C0843"/>
<path fill-rule="evenodd" clip-rule="evenodd" d="M16.0571 55.9534L12.0501 57.3415L17.7712 59.331L16.9282 55.9534L16.9282 54.4248L16.0571 55.9534Z" fill="#1C0843"/>
</g>
<defs>
<radialGradient id="paint0_radial" cx="0" cy="0" r="1" gradientUnits="userSpaceOnUse" gradientTransform="translate(8.92113 62.0601) rotate(-43.4225) scale(48.1525 49.2059)">
<stop stop-color="#FA24FE"/>
<stop offset="0.5" stop-color="#4C00AD"/>
<stop offset="1" stop-color="#13033A"/>
</radialGradient>
<radialGradient id="paint1_radial" cx="0" cy="0" r="1" gradientUnits="userSpaceOnUse" gradientTransform="translate(8.92112 62.0603) rotate(-43.4224) scale(48.1525 49.2058)">
<stop offset="0.0572917" stop-color="#00E0FF"/>
<stop offset="0.703125" stop-color="#3000B8"/>
</radialGradient>
<linearGradient id="paint2_linear" x1="19.784" y1="42.4759" x2="19.784" y2="4.52539" gradientUnits="userSpaceOnUse">
<stop stop-color="#4F0E6F"/>
<stop offset="1" stop-color="#450086"/>
</linearGradient>
<radialGradient id="paint3_radial" cx="0" cy="0" r="1" gradientUnits="userSpaceOnUse" gradientTransform="translate(54.3038 54.0365) rotate(-111.731) scale(45.0861 75.965)">
<stop stop-color="#7A0676"/>
<stop offset="1" stop-color="#0A0049"/>
</radialGradient>
<linearGradient id="paint4_linear" x1="35.2391" y1="66.3507" x2="35.2391" y2="57.3407" gradientUnits="userSpaceOnUse">
<stop stop-color="#4F0E6F"/>
<stop offset="1" stop-color="#450086"/>
</linearGradient>
<radialGradient id="paint5_radial" cx="0" cy="0" r="1" gradientUnits="userSpaceOnUse" gradientTransform="translate(24.919 69.7207) rotate(-143.5) scale(8.34866 19.5555)">
<stop stop-color="#7A0676"/>
<stop offset="1" stop-color="#0A0049"/>
</radialGradient>
<radialGradient id="paint6_radial" cx="0" cy="0" r="1" gradientUnits="userSpaceOnUse" gradientTransform="translate(50.3733 72.4969) rotate(-123.987) scale(14.9152 33.8665)">
<stop stop-color="#7A0676"/>
<stop offset="1" stop-color="#0A0049"/>
</radialGradient>
<linearGradient id="paint7_linear" x1="48.6365" y1="16.9346" x2="48.6365" y2="6.45998" gradientUnits="userSpaceOnUse">
<stop stop-color="#4F0E6F"/>
<stop offset="1" stop-color="#450086"/>
</linearGradient>
<linearGradient id="paint8_linear" x1="20.8536" y1="1.61254" x2="39.9508" y2="13.8729" gradientUnits="userSpaceOnUse">
<stop stop-color="#4122FF"/>
<stop offset="1" stop-color="#18D1BB"/>
</linearGradient>
<linearGradient id="paint9_linear" x1="51.9175" y1="62.1452" x2="57.2102" y2="67.9869" gradientUnits="userSpaceOnUse">
<stop stop-color="#4122FF"/>
<stop offset="1" stop-color="#18D1BB"/>
</linearGradient>
<linearGradient id="paint10_linear" x1="62.9942" y1="38.7647" x2="70.4757" y2="44.456" gradientUnits="userSpaceOnUse">
<stop stop-color="#4122FF"/>
<stop offset="1" stop-color="#18D1BB"/>
</linearGradient>
<linearGradient id="paint11_linear" x1="53.9492" y1="59.3306" x2="53.9492" y2="54.3465" gradientUnits="userSpaceOnUse">
<stop stop-color="#8B1EC0"/>
<stop offset="1" stop-color="#450086"/>
</linearGradient>
<linearGradient id="paint12_linear" x1="53.9494" y1="55.6611" x2="53.9494" y2="59.3309" gradientUnits="userSpaceOnUse">
<stop stop-color="#FF33BA"/>
<stop offset="1" stop-color="#3F10DB" stop-opacity="0"/>
</linearGradient>
<radialGradient id="paint13_radial" cx="0" cy="0" r="1" gradientUnits="userSpaceOnUse" gradientTransform="translate(25.9364 42.5941) rotate(-119.508) scale(23.9425 50.2759)">
<stop stop-color="#0A0049"/>
<stop offset="1" stop-color="#7A0676"/>
</radialGradient>
<radialGradient id="paint14_radial" cx="0" cy="0" r="1" gradientUnits="userSpaceOnUse" gradientTransform="translate(41.251 38.9966) rotate(-137.224) scale(17.9453 43.8223)">
<stop stop-color="#7A0676"/>
<stop offset="1" stop-color="#0A0049"/>
</radialGradient>
<linearGradient id="paint15_linear" x1="29.7228" y1="42.5816" x2="29.7228" y2="39.2484" gradientUnits="userSpaceOnUse">
<stop stop-color="#4F0E6F"/>
<stop offset="1" stop-color="#450086"/>
</linearGradient>
<linearGradient id="paint16_linear" x1="35.6565" y1="26.8086" x2="35.6565" y2="35.8792" gradientUnits="userSpaceOnUse">
<stop stop-color="#4122FF"/>
<stop offset="1" stop-color="#FF3389"/>
</linearGradient>
<linearGradient id="paint17_linear" x1="29.7219" y1="39.251" x2="29.7219" y2="41.5327" gradientUnits="userSpaceOnUse">
<stop stop-color="#4122FF"/>
<stop offset="1" stop-color="#FF3389"/>
</linearGradient>
<radialGradient id="paint18_radial" cx="0" cy="0" r="1" gradientUnits="userSpaceOnUse" gradientTransform="translate(41.251 40.4485) rotate(-150.781) scale(15.0926 31.4989)">
<stop stop-color="#7A0676"/>
<stop offset="1" stop-color="#0A0049"/>
</radialGradient>
<linearGradient id="paint19_linear" x1="63.759" y1="34.2212" x2="63.759" y2="42.5836" gradientUnits="userSpaceOnUse">
<stop stop-color="#FF33BA"/>
<stop offset="1" stop-color="#3F10DB" stop-opacity="0"/>
</linearGradient>
<radialGradient id="paint20_radial" cx="0" cy="0" r="1" gradientUnits="userSpaceOnUse" gradientTransform="translate(36.0943 67.1524) rotate(-139.31) scale(13.7886 33.392)">
<stop stop-color="#7A0676"/>
<stop offset="1" stop-color="#0A0049"/>
</radialGradient>
<linearGradient id="paint21_linear" x1="27.7858" y1="57.3413" x2="27.7858" y2="62.8657" gradientUnits="userSpaceOnUse">
<stop stop-color="#4122FF"/>
<stop offset="1" stop-color="#FF3389"/>
</linearGradient>
<linearGradient id="paint22_linear" x1="55.1267" y1="13.2905" x2="59.2105" y2="20.833" gradientUnits="userSpaceOnUse">
<stop stop-color="#4122FF"/>
<stop offset="1" stop-color="#18D1BB"/>
</linearGradient>
<linearGradient id="paint23_linear" x1="6.85241" y1="56.3716" x2="14.2838" y2="54.4078" gradientUnits="userSpaceOnUse">
<stop stop-color="#4122FF"/>
<stop offset="1" stop-color="#18D1BB"/>
</linearGradient>
<linearGradient id="paint24_linear" x1="9.31771" y1="48.6969" x2="9.31771" y2="45.7439" gradientUnits="userSpaceOnUse">
<stop stop-color="#4F0E6F"/>
<stop offset="1" stop-color="#450086"/>
</linearGradient>
<linearGradient id="paint25_linear" x1="9.31597" y1="45.7417" x2="9.31597" y2="47.9391" gradientUnits="userSpaceOnUse">
<stop stop-color="#4122FF"/>
<stop offset="1" stop-color="#FF3389"/>
</linearGradient>
<linearGradient id="paint26_linear" x1="11.1172" y1="50.564" x2="11.1172" y2="56.5042" gradientUnits="userSpaceOnUse">
<stop stop-color="#4122FF"/>
<stop offset="1" stop-color="#FF3389"/>
</linearGradient>
</defs>
</svg>
