<svg width="851" height="819" viewBox="0 0 851 819" fill="none" xmlns="http://www.w3.org/2000/svg">
<g filter="url(#filter0_d)">
<path d="M232.229 586.537C256.294 583.589 287.909 584.064 298.621 605.815C309.218 627.332 282.842 647.357 272.939 669.202C264.537 687.735 264.455 711.307 246.477 720.839C225.412 732.008 198.892 731.64 178.507 719.272C157.314 706.414 139.558 682.643 143.082 658.106C146.248 636.058 175.573 632.706 192.942 618.761C206.838 607.605 214.541 588.704 232.229 586.537Z" fill="url(#paint0_radial)"/>
<path d="M232.229 586.537C256.294 583.589 287.909 584.064 298.621 605.815C309.218 627.332 282.842 647.357 272.939 669.202C264.537 687.735 264.455 711.307 246.477 720.839C225.412 732.008 198.892 731.64 178.507 719.272C157.314 706.414 139.558 682.643 143.082 658.106C146.248 636.058 175.573 632.706 192.942 618.761C206.838 607.605 214.541 588.704 232.229 586.537Z" fill="url(#paint1_linear)" fill-opacity="0.8"/>
</g>
<g filter="url(#filter1_d)">
<path d="M422.109 238.136C446.174 241.084 477.789 240.609 488.501 218.858C499.098 197.341 472.722 177.317 462.819 155.472C454.417 136.939 454.335 113.367 436.357 103.834C415.292 92.6649 388.772 93.0335 368.387 105.401C347.194 118.26 329.438 142.03 332.962 166.567C336.128 188.615 365.453 191.968 382.822 205.912C396.718 217.068 404.421 235.969 422.109 238.136Z" fill="url(#paint2_radial)"/>
<path d="M422.109 238.136C446.174 241.084 477.789 240.609 488.501 218.858C499.098 197.341 472.722 177.317 462.819 155.472C454.417 136.939 454.335 113.367 436.357 103.834C415.292 92.6649 388.772 93.0335 368.387 105.401C347.194 118.26 329.438 142.03 332.962 166.567C336.128 188.615 365.453 191.968 382.822 205.912C396.718 217.068 404.421 235.969 422.109 238.136Z" fill="url(#paint3_linear)" fill-opacity="0.8"/>
</g>
<g filter="url(#filter2_d)">
<path d="M701.344 601.06C677.279 604.008 645.664 603.533 634.952 581.782C624.355 560.265 650.731 540.241 660.634 518.396C669.035 499.862 669.118 476.29 687.096 466.758C708.161 455.589 734.681 455.957 755.066 468.325C776.259 481.184 794.015 504.954 790.491 529.491C787.324 551.539 758 554.891 740.631 568.836C726.735 579.992 719.031 598.893 701.344 601.06Z" fill="url(#paint4_radial)"/>
<path d="M701.344 601.06C677.279 604.008 645.664 603.533 634.952 581.782C624.355 560.265 650.731 540.241 660.634 518.396C669.035 499.862 669.118 476.29 687.096 466.758C708.161 455.589 734.681 455.957 755.066 468.325C776.259 481.184 794.015 504.954 790.491 529.491C787.324 551.539 758 554.891 740.631 568.836C726.735 579.992 719.031 598.893 701.344 601.06Z" fill="url(#paint5_linear)" fill-opacity="0.8"/>
</g>
<rect opacity="0.3" x="63.8915" y="251.382" width="549.096" height="420" rx="20" transform="rotate(-15 63.8915 251.382)" fill="url(#paint6_radial)"/>
<rect opacity="0.6" x="87.8569" y="261.379" width="549.096" height="420" rx="20" transform="rotate(-15 87.8569 261.379)" fill="url(#paint7_radial)"/>
<rect opacity="0.8" x="109.534" y="267.379" width="549.096" height="420" rx="20" transform="rotate(-15 109.534 267.379)" fill="url(#paint8_radial)"/>
<rect opacity="0.3" x="33.2476" y="391.665" width="112" height="84" rx="14" transform="rotate(-15 33.2476 391.665)" fill="url(#paint9_linear)"/>
<rect opacity="0.6" x="35.2476" y="392.665" width="112" height="84" rx="14" transform="rotate(-15 35.2476 392.665)" fill="url(#paint10_linear)"/>
<g filter="url(#filter3_d)">
<rect x="37.7728" y="392.967" width="112" height="84" rx="14" transform="rotate(-15 37.7728 392.967)" fill="url(#paint11_linear)"/>
</g>
<path d="M71.7243 405.748L71.4777 404.024L74.8053 403.133L75.9998 407.591C75.818 407.783 75.5637 407.972 75.2367 408.158C74.9098 408.345 74.5689 408.512 74.214 408.661C73.8592 408.81 73.5352 408.924 73.2422 409.002C72.3214 409.249 71.4717 409.293 70.6933 409.134C69.9127 408.966 69.2465 408.606 68.6948 408.054C68.1515 407.5 67.7554 406.758 67.5064 405.829C67.318 405.126 67.2711 404.465 67.3658 403.848C67.4606 403.23 67.6698 402.672 67.9936 402.172C68.3173 401.673 68.7327 401.247 69.2398 400.896C69.7468 400.545 70.3143 400.285 70.9421 400.117C71.2267 400.041 71.5485 399.986 71.9075 399.952C72.2641 399.911 72.6203 399.901 72.9759 399.922C73.3293 399.935 73.6351 399.988 73.8931 400.08L73.6289 401.806C73.1342 401.768 72.7222 401.771 72.3929 401.814C72.0613 401.849 71.7532 401.905 71.4686 401.981C71.1337 402.071 70.8121 402.26 70.5037 402.549C70.2015 402.828 69.9806 403.192 69.841 403.642C69.6991 404.084 69.7067 404.598 69.8637 405.184C70.0275 405.795 70.2729 406.258 70.5998 406.575C70.9329 406.88 71.2935 407.071 71.6816 407.146C72.078 407.219 72.4521 407.209 72.8037 407.115C73.0548 407.047 73.316 406.95 73.5871 406.824L73.1935 405.355L71.7243 405.748ZM77.7433 403.247L76.6998 401.764C76.9797 401.536 77.3468 401.299 77.8009 401.052C78.2528 400.796 78.7299 400.601 79.2322 400.466C80.061 400.244 80.7505 400.306 81.3008 400.652C81.8511 400.998 82.2295 401.556 82.4358 402.326L83.4452 406.094L82.3402 406.39L81.519 405.937C81.3915 406.231 81.2285 406.477 81.03 406.673C80.8399 406.868 80.615 407 80.3555 407.069C79.5854 407.276 78.9603 407.237 78.4804 406.953C78.0005 406.669 77.6765 406.213 77.5083 405.585C77.331 404.923 77.4295 404.404 77.8037 404.025C78.1756 403.638 78.7131 403.351 79.4163 403.162L80.1446 402.967L80.1152 402.908C80.0128 402.693 79.877 402.554 79.7078 402.492C79.5385 402.43 79.3576 402.424 79.1651 402.476C78.9558 402.532 78.719 402.636 78.4545 402.788C78.1878 402.931 77.9508 403.084 77.7433 403.247ZM79.4068 405.036C79.4405 405.161 79.5062 405.256 79.604 405.319C79.7079 405.372 79.8184 405.383 79.9356 405.352C80.1951 405.282 80.4327 405.097 80.6484 404.797L80.4936 404.22L79.7904 404.408C79.6398 404.448 79.5265 404.528 79.4507 404.647C79.3833 404.764 79.3687 404.893 79.4068 405.036ZM87.938 404.89L85.6526 405.502L84.0208 399.412L85.3769 399.048L85.947 399.569C86.1967 399.295 86.5116 399.014 86.8914 398.723C87.269 398.425 87.688 398.214 88.1484 398.091C88.5753 397.976 88.9449 397.949 89.257 398.009C89.5776 398.066 89.8529 398.19 90.0832 398.38C90.3352 398.115 90.6408 397.849 91 397.582C91.3592 397.315 91.7523 397.125 92.1792 397.01C92.715 396.867 93.1658 396.858 93.5316 396.985C93.9035 397.1 94.2047 397.32 94.4351 397.644C94.6633 397.96 94.8379 398.344 94.959 398.796L96.0122 402.726L93.7268 403.339L92.7308 399.622C92.6793 399.429 92.6051 399.27 92.5084 399.143C92.4094 399.008 92.2218 398.978 91.9455 399.052C91.8367 399.081 91.671 399.165 91.4484 399.306C91.2258 399.446 91.0378 399.582 90.8845 399.713C90.8979 399.763 90.9125 399.817 90.9282 399.876L91.9814 403.806L89.696 404.419L88.7 400.702C88.6484 400.509 88.5743 400.35 88.4775 400.223C88.3786 400.088 88.191 400.058 87.9147 400.132C87.8059 400.161 87.6402 400.246 87.4176 400.386C87.195 400.526 87.0028 400.663 86.8411 400.796L87.938 404.89ZM103.372 398.103L99.6677 399.095C99.8187 399.324 100.027 399.484 100.294 399.574C100.56 399.664 100.886 399.657 101.271 399.554C101.639 399.455 101.949 399.323 102.201 399.157C102.461 398.988 102.671 398.834 102.83 398.692L103.884 400.065C103.689 400.306 103.374 400.556 102.941 400.816C102.506 401.067 102.033 401.261 101.523 401.398C100.828 401.584 100.172 401.63 99.5542 401.535C98.9366 401.44 98.406 401.201 97.9623 400.817C97.5247 400.423 97.2139 399.883 97.03 399.197C96.846 398.51 96.8313 397.886 96.9859 397.324C97.1488 396.76 97.4424 396.282 97.8668 395.89C98.2995 395.496 98.8214 395.217 99.4325 395.054C100.086 394.879 100.665 394.88 101.17 395.059C101.682 395.227 102.107 395.526 102.447 395.955C102.792 396.374 103.041 396.868 103.194 397.437L103.372 398.103ZM99.3021 397.982L100.884 397.558C100.853 397.441 100.79 397.323 100.695 397.205C100.609 397.084 100.495 396.994 100.353 396.933C100.218 396.862 100.054 396.852 99.861 396.904C99.6517 396.96 99.4869 397.098 99.3666 397.319C99.2524 397.529 99.2309 397.75 99.3021 397.982ZM105.415 399.588L105.668 397.972C105.856 398.003 106.063 398.023 106.29 398.034C106.524 398.034 106.751 398.027 106.971 398.013C107.192 397.999 107.373 397.973 107.515 397.935C107.666 397.894 107.785 397.836 107.872 397.758C107.959 397.681 107.991 397.601 107.969 397.517C107.955 397.467 107.881 397.424 107.746 397.388C107.617 397.342 107.457 397.313 107.265 397.302C106.899 397.274 106.526 397.222 106.146 397.144C105.764 397.058 105.425 396.916 105.13 396.717C104.843 396.515 104.65 396.231 104.551 395.862C104.38 395.226 104.486 394.664 104.866 394.176C105.247 393.688 105.86 393.331 106.706 393.105C106.873 393.06 107.095 393.018 107.372 392.98C107.657 392.939 107.959 392.926 108.276 392.94C108.594 392.953 108.895 393.021 109.179 393.142L108.925 394.758C108.653 394.714 108.374 394.694 108.088 394.699C107.803 394.704 107.551 394.736 107.333 394.794C107.149 394.843 107.005 394.909 106.901 394.99C106.798 395.072 106.757 395.155 106.779 395.238C106.793 395.289 106.867 395.331 107.002 395.367C107.146 395.4 107.319 395.426 107.521 395.443C107.887 395.471 108.257 395.529 108.63 395.617C109.002 395.697 109.331 395.838 109.618 396.039C109.903 396.232 110.096 396.516 110.197 396.893C110.368 397.529 110.288 398.085 109.957 398.559C109.635 399.031 109.051 399.38 108.206 399.607C108.038 399.652 107.786 399.697 107.448 399.743C107.119 399.786 106.769 399.804 106.399 399.795C106.026 399.778 105.698 399.709 105.415 399.588ZM122.848 395.791L121.703 395.237C121.446 395.584 121.142 395.889 120.791 396.154C120.449 396.416 120.064 396.604 119.637 396.719C119.01 396.887 118.403 396.933 117.817 396.857C117.24 396.778 116.734 396.564 116.299 396.214C115.87 395.853 115.567 395.342 115.39 394.681C115.285 394.287 115.276 393.868 115.363 393.423C115.458 392.976 115.631 392.566 115.881 392.194C115.693 392.029 115.534 391.852 115.402 391.663C115.277 391.463 115.18 391.233 115.11 390.974C114.989 390.522 114.998 390.071 115.138 389.621C115.275 389.162 115.526 388.758 115.89 388.41C116.254 388.061 116.713 387.812 117.265 387.664C118.244 387.402 119.158 387.431 120.007 387.751L119.809 389.473C119.481 389.39 119.175 389.351 118.889 389.356C118.601 389.352 118.327 389.385 118.068 389.455C117.758 389.538 117.549 389.679 117.441 389.878C117.339 390.067 117.311 390.245 117.355 390.413C117.398 390.572 117.508 390.713 117.684 390.836C117.859 390.951 118.123 391.1 118.477 391.283L120.467 392.23C120.502 391.925 120.516 391.625 120.509 391.331C120.499 391.028 120.48 390.755 120.451 390.512L122.675 390.777C122.736 391.173 122.756 391.581 122.733 392C122.719 392.416 122.667 392.825 122.577 393.226L123.747 393.774L122.848 395.791ZM119.843 394.322L118.25 393.551C118.157 393.504 118.064 393.457 117.97 393.411C117.885 393.362 117.797 393.318 117.706 393.279C117.66 393.507 117.668 393.738 117.731 393.973C117.825 394.324 117.996 394.579 118.245 394.737C118.502 394.892 118.815 394.921 119.183 394.822C119.317 394.786 119.436 394.727 119.539 394.646C119.649 394.553 119.75 394.445 119.843 394.322ZM88.313 426.53L87.8562 426.181C87.6667 426.412 87.44 426.62 87.1762 426.808C86.9123 426.995 86.6256 427.13 86.3158 427.213C85.7214 427.372 85.1554 427.403 84.6177 427.305C84.0883 427.204 83.6227 426.957 83.2208 426.562C82.8251 426.157 82.5308 425.594 82.3379 424.874C82.1427 424.146 82.1151 423.507 82.2552 422.958C82.4013 422.399 82.6846 421.932 83.1051 421.56C83.5256 421.187 84.054 420.915 84.6902 420.745C84.9665 420.67 85.2456 420.641 85.5275 420.655L84.8445 418.106L87.0928 417.355L89.4683 426.22L88.313 426.53ZM84.6952 424.229C84.8186 424.689 85.0102 425.019 85.27 425.219C85.5276 425.41 85.8364 425.457 86.1964 425.361C86.3638 425.316 86.5311 425.204 86.6984 425.025L86.012 422.463C85.7546 422.406 85.5212 422.406 85.3119 422.462C85.0273 422.538 84.8204 422.737 84.6913 423.059C84.5683 423.37 84.5696 423.76 84.6952 424.229ZM92.266 416.319L94.5514 415.707L100.002 423.29L97.8148 424.119L96.715 422.475L93.7641 423.266L93.6248 425.107L91.3519 425.716L92.266 416.319ZM95.5809 420.855L94.1045 418.76L93.9108 421.302L95.5809 420.855ZM104.85 424.912L102.598 425.65L100.233 416.822L101.376 416.516L101.821 416.773C102.011 416.543 102.238 416.334 102.501 416.147C102.765 415.96 103.052 415.824 103.362 415.741C103.965 415.58 104.531 415.549 105.06 415.65C105.589 415.75 106.051 415.999 106.444 416.396C106.846 416.791 107.145 417.352 107.34 418.081C107.533 418.801 107.556 419.44 107.41 420C107.272 420.557 106.993 421.022 106.573 421.395C106.16 421.766 105.632 422.037 104.987 422.21C104.711 422.284 104.432 422.314 104.15 422.3L104.85 424.912ZM103.481 417.594C103.314 417.639 103.147 417.751 102.979 417.93L103.666 420.492C103.923 420.548 104.156 420.549 104.366 420.493C104.65 420.416 104.854 420.223 104.977 419.911C105.106 419.59 105.108 419.194 104.982 418.726C104.857 418.257 104.665 417.927 104.408 417.736C104.15 417.545 103.841 417.497 103.481 417.594ZM113.126 422.694L110.875 423.432L108.509 414.604L109.652 414.298L110.098 414.556C110.287 414.325 110.514 414.117 110.778 413.929C111.042 413.742 111.328 413.607 111.638 413.524C112.241 413.362 112.807 413.332 113.336 413.432C113.866 413.533 114.327 413.781 114.721 414.178C115.122 414.573 115.421 415.135 115.616 415.863C115.809 416.583 115.832 417.223 115.686 417.782C115.548 418.34 115.269 418.805 114.849 419.177C114.437 419.548 113.908 419.82 113.264 419.992C112.988 420.067 112.708 420.096 112.427 420.082L113.126 422.694ZM111.758 415.376C111.59 415.421 111.423 415.533 111.256 415.712L111.942 418.274C112.199 418.331 112.433 418.331 112.642 418.275C112.927 418.199 113.131 418.005 113.254 417.694C113.383 417.372 113.384 416.977 113.259 416.508C113.133 416.039 112.942 415.709 112.684 415.518C112.426 415.327 112.118 415.28 111.758 415.376ZM117.832 418.001L118.086 416.386C118.273 416.416 118.481 416.437 118.708 416.448C118.942 416.448 119.168 416.441 119.389 416.427C119.609 416.412 119.791 416.386 119.933 416.348C120.084 416.308 120.203 416.249 120.29 416.172C120.377 416.095 120.409 416.014 120.387 415.931C120.373 415.88 120.299 415.837 120.164 415.802C120.035 415.756 119.874 415.727 119.683 415.715C119.317 415.688 118.944 415.635 118.564 415.558C118.182 415.472 117.843 415.329 117.548 415.13C117.26 414.929 117.067 414.644 116.969 414.276C116.798 413.64 116.903 413.078 117.284 412.59C117.665 412.102 118.278 411.745 119.123 411.518C119.291 411.473 119.513 411.432 119.79 411.393C120.075 411.353 120.377 411.339 120.694 411.353C121.012 411.367 121.313 411.434 121.596 411.555L121.343 413.171C121.071 413.127 120.792 413.108 120.506 413.113C120.22 413.117 119.969 413.149 119.751 413.207C119.567 413.257 119.423 413.322 119.319 413.404C119.215 413.485 119.175 413.568 119.197 413.652C119.211 413.702 119.285 413.745 119.42 413.78C119.564 413.814 119.736 413.839 119.939 413.857C120.305 413.884 120.675 413.942 121.048 414.031C121.42 414.111 121.749 414.251 122.036 414.452C122.321 414.645 122.514 414.93 122.615 415.307C122.785 415.943 122.705 416.498 122.375 416.972C122.053 417.445 121.469 417.794 120.623 418.02C120.456 418.065 120.204 418.111 119.866 418.156C119.536 418.2 119.187 418.217 118.817 418.209C118.444 418.192 118.116 418.123 117.832 418.001ZM73.5489 449.468L72.6659 449.839L70.8338 448.526L71.9407 452.658L69.6554 453.27L67.3674 444.731L68.937 444.311L72.3827 446.873L73.8719 442.988L75.3913 442.581L77.6793 451.12L75.3939 451.732L74.287 447.601L73.5489 449.468ZM79.7982 446.178L78.7547 444.695C79.0347 444.467 79.4018 444.23 79.8559 443.983C80.3078 443.727 80.7849 443.532 81.2872 443.397C82.1159 443.175 82.8055 443.237 83.3558 443.583C83.9061 443.929 84.2844 444.487 84.4908 445.257L85.5002 449.024L84.3952 449.321L83.574 448.868C83.4465 449.162 83.2835 449.408 83.085 449.604C82.8948 449.799 82.67 449.931 82.4105 450C81.6403 450.207 81.0153 450.168 80.5354 449.884C80.0555 449.6 79.7315 449.144 79.5632 448.516C79.386 447.854 79.4845 447.335 79.8586 446.956C80.2305 446.569 80.7681 446.282 81.4713 446.093L82.1996 445.898L82.1702 445.839C82.0678 445.624 81.932 445.485 81.7627 445.423C81.5935 445.361 81.4126 445.355 81.2201 445.407C81.0108 445.463 80.7739 445.567 80.5095 445.719C80.2428 445.862 80.0057 446.015 79.7982 446.178ZM81.4618 447.967C81.4954 448.092 81.5612 448.187 81.6589 448.25C81.7628 448.303 81.8734 448.314 81.9906 448.283C82.2501 448.213 82.4877 448.028 82.7034 447.728L82.5486 447.151L81.8454 447.339C81.6947 447.379 81.5815 447.459 81.5057 447.578C81.4383 447.695 81.4237 447.824 81.4618 447.967ZM89.993 447.821L87.7076 448.433L86.0791 442.355L87.2218 442.049L87.9728 442.642C88.1088 442.48 88.2753 442.314 88.4721 442.145C88.6751 441.965 88.8921 441.804 89.1231 441.661C89.3601 441.508 89.5917 441.401 89.8177 441.34L90.7736 443.049C90.4722 443.13 90.1584 443.281 89.832 443.503C89.5057 443.725 89.2397 443.971 89.034 444.242L89.993 447.821ZM96.0772 446.19L93.7918 446.803L91.4534 438.076L93.7018 437.325L94.9131 441.846L96.6711 439.315L98.4604 440.518L97.1669 442.17L100.158 445.097L97.6971 445.756L95.8826 443.807L95.5523 444.231L96.0772 446.19ZM106.947 440.627L103.242 441.619C103.393 441.848 103.602 442.007 103.868 442.097C104.135 442.188 104.46 442.181 104.846 442.078C105.214 441.979 105.524 441.847 105.775 441.681C106.035 441.512 106.245 441.357 106.405 441.216L107.459 442.589C107.263 442.83 106.949 443.08 106.516 443.339C106.081 443.591 105.608 443.785 105.097 443.921C104.403 444.108 103.746 444.153 103.129 444.059C102.511 443.964 101.981 443.725 101.537 443.341C101.099 442.947 100.788 442.407 100.605 441.72C100.421 441.034 100.406 440.41 100.56 439.848C100.723 439.284 101.017 438.806 101.441 438.414C101.874 438.02 102.396 437.741 103.007 437.577C103.66 437.402 104.239 437.404 104.745 437.583C105.256 437.751 105.682 438.049 106.021 438.479C106.367 438.898 106.616 439.392 106.768 439.961L106.947 440.627ZM102.877 440.506L104.459 440.082C104.427 439.965 104.364 439.847 104.27 439.729C104.184 439.608 104.07 439.518 103.928 439.457C103.792 439.386 103.628 439.376 103.436 439.427C103.226 439.484 103.061 439.622 102.941 439.843C102.827 440.053 102.805 440.274 102.877 440.506ZM112.251 435.598L112.945 437.337L111.137 437.821L111.541 439.328C111.608 439.579 111.725 439.764 111.891 439.881C112.063 439.987 112.258 440.011 112.475 439.953C112.601 439.919 112.739 439.864 112.889 439.788C113.036 439.704 113.17 439.6 113.29 439.479L114.36 440.861C114.282 440.971 114.158 441.094 113.988 441.23C113.826 441.363 113.639 441.485 113.427 441.595C113.225 441.712 113.023 441.798 112.822 441.852C112.337 441.982 111.853 442.017 111.371 441.958C110.886 441.89 110.457 441.714 110.084 441.428C109.72 441.14 109.466 440.728 109.323 440.192L108.852 438.434L107.91 438.686L107.429 436.891L108.37 436.638L107.93 434.993L110.131 434.067L110.656 436.026L112.251 435.598ZM119.291 442.783L117.039 443.521L114.674 434.694L115.816 434.387L116.262 434.645C116.452 434.415 116.678 434.206 116.942 434.018C117.206 433.831 117.493 433.696 117.803 433.613C118.405 433.451 118.971 433.421 119.501 433.521C120.03 433.622 120.491 433.87 120.885 434.267C121.287 434.662 121.585 435.224 121.78 435.952C121.973 436.672 121.997 437.312 121.851 437.871C121.713 438.429 121.434 438.894 121.013 439.267C120.601 439.637 120.073 439.909 119.428 440.082C119.152 440.156 118.873 440.186 118.591 440.171L119.291 442.783ZM117.922 435.465C117.755 435.51 117.587 435.622 117.42 435.801L118.106 438.363C118.364 438.42 118.597 438.42 118.806 438.364C119.091 438.288 119.295 438.094 119.418 437.783C119.547 437.461 119.549 437.066 119.423 436.597C119.298 436.128 119.106 435.798 118.848 435.607C118.591 435.416 118.282 435.369 117.922 435.465ZM126.914 437.928L124.629 438.54L122.29 429.813L124.539 429.062L126.914 437.928ZM128.781 433.053L127.737 431.57C128.017 431.342 128.385 431.105 128.839 430.858C129.291 430.602 129.768 430.407 130.27 430.272C131.099 430.05 131.788 430.112 132.339 430.458C132.889 430.804 133.267 431.362 133.474 432.132L134.483 435.9L133.378 436.196L132.557 435.743C132.429 436.037 132.266 436.283 132.068 436.479C131.878 436.674 131.653 436.806 131.393 436.876C130.623 437.082 129.998 437.043 129.518 436.759C129.038 436.475 128.714 436.019 128.546 435.391C128.369 434.73 128.467 434.21 128.841 433.831C129.213 433.444 129.751 433.157 130.454 432.968L131.182 432.773L131.153 432.714C131.051 432.499 130.915 432.361 130.745 432.298C130.576 432.236 130.395 432.231 130.203 432.282C129.994 432.338 129.757 432.442 129.492 432.594C129.226 432.737 128.988 432.89 128.781 433.053ZM130.445 434.842C130.478 434.967 130.544 435.062 130.642 435.125C130.746 435.178 130.856 435.189 130.973 435.158C131.233 435.088 131.47 434.903 131.686 434.603L131.531 434.026L130.828 434.214C130.677 434.254 130.564 434.334 130.488 434.453C130.421 434.57 130.406 434.699 130.445 434.842ZM140.537 432.084L141.598 433.482C141.413 433.729 141.203 433.933 140.968 434.095C140.731 434.248 140.499 434.368 140.271 434.456C140.043 434.544 139.846 434.611 139.678 434.656C139.025 434.831 138.415 434.864 137.848 434.756C137.278 434.639 136.788 434.385 136.378 433.992C135.974 433.589 135.681 433.048 135.499 432.37C135.315 431.684 135.297 431.061 135.443 430.501C135.597 429.939 135.891 429.461 136.324 429.067C136.756 428.673 137.299 428.389 137.952 428.214C138.12 428.169 138.324 428.128 138.565 428.09C138.806 428.052 139.069 428.045 139.353 428.067C139.635 428.081 139.918 428.149 140.202 428.271L139.982 430.012C139.705 429.951 139.474 429.924 139.287 429.929C139.097 429.926 138.894 429.953 138.676 430.012C138.366 430.095 138.124 430.294 137.948 430.61C137.773 430.927 137.743 431.302 137.86 431.738C137.974 432.165 138.183 432.459 138.487 432.62C138.79 432.781 139.097 432.82 139.406 432.737C139.607 432.683 139.794 432.61 139.967 432.519C140.138 432.419 140.328 432.274 140.537 432.084ZM148.585 429.47L144.881 430.462C145.032 430.691 145.24 430.85 145.507 430.94C145.773 431.031 146.099 431.024 146.484 430.921C146.852 430.822 147.162 430.69 147.414 430.524C147.674 430.355 147.883 430.2 148.043 430.059L149.097 431.432C148.902 431.673 148.587 431.923 148.154 432.183C147.719 432.434 147.246 432.628 146.736 432.765C146.041 432.951 145.385 432.996 144.767 432.902C144.15 432.807 143.619 432.568 143.175 432.184C142.738 431.79 142.427 431.25 142.243 430.563C142.059 429.877 142.044 429.253 142.199 428.691C142.362 428.127 142.655 427.649 143.08 427.257C143.512 426.863 144.034 426.584 144.645 426.42C145.298 426.245 145.878 426.247 146.383 426.426C146.895 426.594 147.32 426.893 147.66 427.322C148.005 427.741 148.254 428.235 148.407 428.804L148.585 429.47ZM144.515 429.349L146.097 428.925C146.066 428.808 146.003 428.69 145.908 428.572C145.822 428.451 145.708 428.361 145.566 428.3C145.431 428.229 145.266 428.219 145.074 428.27C144.865 428.327 144.7 428.465 144.58 428.686C144.465 428.896 144.444 429.117 144.515 429.349Z" fill="white"/>
<rect opacity="0.3" x="484.592" y="554.159" width="112" height="84" rx="14" transform="rotate(-15 484.592 554.159)" fill="url(#paint12_linear)"/>
<rect opacity="0.6" x="487.592" y="555.159" width="112" height="84" rx="14" transform="rotate(-15 487.592 555.159)" fill="url(#paint13_linear)"/>
<g filter="url(#filter4_d)">
<rect x="490.967" y="556.509" width="112" height="84" rx="14" transform="rotate(-15 490.967 556.509)" fill="url(#paint14_linear)"/>
</g>
<path d="M539.064 576.37L538.817 574.647L542.145 573.755L543.339 578.213C543.158 578.405 542.903 578.594 542.576 578.781C542.249 578.967 541.908 579.134 541.554 579.283C541.199 579.432 540.875 579.546 540.582 579.624C539.661 579.871 538.811 579.915 538.033 579.756C537.252 579.588 536.586 579.228 536.034 578.676C535.491 578.122 535.095 577.38 534.846 576.451C534.658 575.748 534.611 575.087 534.705 574.47C534.8 573.852 535.009 573.294 535.333 572.794C535.657 572.295 536.072 571.869 536.579 571.518C537.086 571.167 537.654 570.907 538.282 570.739C538.566 570.663 538.888 570.608 539.247 570.575C539.604 570.533 539.96 570.523 540.316 570.544C540.669 570.557 540.975 570.61 541.233 570.702L540.968 572.428C540.474 572.39 540.062 572.393 539.732 572.436C539.401 572.471 539.093 572.527 538.808 572.603C538.473 572.693 538.152 572.882 537.843 573.171C537.541 573.45 537.32 573.814 537.181 574.264C537.039 574.706 537.046 575.22 537.203 575.806C537.367 576.417 537.612 576.881 537.939 577.197C538.272 577.502 538.633 577.693 539.021 577.768C539.418 577.841 539.792 577.831 540.143 577.737C540.394 577.669 540.656 577.572 540.927 577.446L540.533 575.977L539.064 576.37ZM545.083 573.869L544.039 572.386C544.319 572.158 544.686 571.921 545.141 571.674C545.592 571.418 546.069 571.223 546.572 571.088C547.401 570.866 548.09 570.928 548.64 571.274C549.191 571.62 549.569 572.178 549.775 572.949L550.785 576.716L549.68 577.012L548.859 576.559C548.731 576.853 548.568 577.099 548.37 577.296C548.179 577.49 547.955 577.622 547.695 577.692C546.925 577.898 546.3 577.859 545.82 577.575C545.34 577.291 545.016 576.835 544.848 576.207C544.671 575.546 544.769 575.026 545.143 574.647C545.515 574.261 546.053 573.973 546.756 573.785L547.484 573.589L547.455 573.53C547.352 573.315 547.217 573.177 547.047 573.114C546.878 573.052 546.697 573.047 546.505 573.098C546.295 573.154 546.059 573.258 545.794 573.41C545.527 573.553 545.29 573.706 545.083 573.869ZM546.746 575.658C546.78 575.783 546.846 575.878 546.944 575.941C547.047 575.994 547.158 576.005 547.275 575.974C547.535 575.904 547.772 575.719 547.988 575.419L547.833 574.842L547.13 575.03C546.979 575.071 546.866 575.15 546.79 575.269C546.723 575.386 546.708 575.516 546.746 575.658ZM555.278 575.512L552.992 576.124L551.36 570.034L552.716 569.671L553.287 570.191C553.536 569.918 553.851 569.636 554.231 569.346C554.609 569.047 555.028 568.836 555.488 568.713C555.915 568.598 556.284 568.571 556.597 568.631C556.917 568.689 557.192 568.812 557.423 569.002C557.675 568.737 557.98 568.471 558.34 568.204C558.699 567.938 559.092 567.747 559.519 567.633C560.055 567.489 560.505 567.48 560.871 567.607C561.243 567.722 561.544 567.942 561.775 568.266C562.003 568.582 562.177 568.966 562.299 569.418L563.352 573.348L561.066 573.961L560.07 570.244C560.019 570.051 559.945 569.892 559.848 569.765C559.749 569.63 559.561 569.6 559.285 569.674C559.176 569.703 559.011 569.788 558.788 569.928C558.565 570.068 558.377 570.204 558.224 570.335C558.238 570.385 558.252 570.439 558.268 570.498L559.321 574.428L557.036 575.041L556.04 571.324C555.988 571.131 555.914 570.972 555.817 570.845C555.718 570.71 555.531 570.68 555.254 570.754C555.145 570.783 554.98 570.868 554.757 571.008C554.535 571.148 554.342 571.285 554.181 571.418L555.278 575.512ZM570.712 568.725L567.007 569.718C567.158 569.946 567.367 570.106 567.633 570.196C567.9 570.286 568.225 570.279 568.611 570.176C568.979 570.077 569.289 569.945 569.54 569.779C569.8 569.611 570.01 569.456 570.17 569.314L571.224 570.687C571.028 570.928 570.714 571.178 570.281 571.438C569.846 571.689 569.373 571.883 568.862 572.02C568.168 572.206 567.511 572.252 566.894 572.157C566.276 572.062 565.746 571.823 565.302 571.44C564.864 571.045 564.553 570.505 564.37 569.819C564.186 569.132 564.171 568.508 564.325 567.946C564.488 567.382 564.782 566.904 565.206 566.512C565.639 566.118 566.161 565.839 566.772 565.676C567.425 565.501 568.004 565.502 568.51 565.681C569.021 565.849 569.447 566.148 569.786 566.577C570.132 566.996 570.381 567.49 570.533 568.059L570.712 568.725ZM566.642 568.604L568.224 568.18C568.192 568.063 568.129 567.945 568.035 567.827C567.949 567.707 567.835 567.616 567.693 567.555C567.557 567.484 567.393 567.474 567.201 567.526C566.991 567.582 566.826 567.72 566.706 567.941C566.592 568.151 566.57 568.372 566.642 568.604ZM543.829 603.133L541.578 603.871L539.212 595.043L540.355 594.737L540.801 594.995C540.99 594.764 541.217 594.556 541.481 594.368C541.745 594.181 542.031 594.046 542.341 593.963C542.944 593.801 543.51 593.771 544.039 593.871C544.569 593.971 545.03 594.22 545.424 594.617C545.825 595.012 546.124 595.574 546.319 596.302C546.512 597.022 546.535 597.662 546.389 598.221C546.251 598.778 545.972 599.243 545.552 599.616C545.14 599.987 544.611 600.259 543.967 600.431C543.69 600.505 543.411 600.535 543.129 600.521L543.829 603.133ZM542.461 595.815C542.293 595.86 542.126 595.972 541.959 596.151L542.645 598.713C542.902 598.77 543.136 598.77 543.345 598.714C543.63 598.638 543.833 598.444 543.956 598.133C544.086 597.811 544.087 597.416 543.962 596.947C543.836 596.478 543.645 596.148 543.387 595.957C543.129 595.766 542.821 595.718 542.461 595.815ZM551.327 598.311L549.042 598.923L547.413 592.846L548.556 592.54L549.307 593.133C549.443 592.97 549.609 592.805 549.806 592.635C550.009 592.455 550.226 592.294 550.457 592.151C550.694 591.998 550.926 591.891 551.152 591.831L552.108 593.54C551.806 593.62 551.492 593.772 551.166 593.994C550.84 594.216 550.574 594.462 550.368 594.732L551.327 598.311ZM554.277 590.105C553.942 590.195 553.62 590.151 553.313 589.973C553.005 589.795 552.806 589.539 552.716 589.204C552.624 588.861 552.667 588.536 552.845 588.228C553.02 587.912 553.276 587.709 553.61 587.619C553.954 587.527 554.28 587.574 554.59 587.76C554.907 587.935 555.111 588.195 555.203 588.538C555.292 588.873 555.244 589.195 555.058 589.505C554.88 589.813 554.62 590.013 554.277 590.105ZM557.286 596.715L555 597.327L553.369 591.237L555.654 590.624L557.286 596.715ZM562.525 588.783L562.978 590.021L561.328 593.707L563.802 593.044L564.496 594.782L559.298 596.175L558.705 595.069L560.37 591.285L558.361 591.824L557.666 590.085L562.525 588.783ZM571.382 590.286L567.678 591.279C567.829 591.507 568.038 591.667 568.304 591.757C568.57 591.847 568.896 591.84 569.281 591.737C569.65 591.639 569.96 591.506 570.211 591.34C570.471 591.172 570.681 591.017 570.84 590.875L571.895 592.248C571.699 592.489 571.385 592.739 570.952 592.999C570.517 593.25 570.044 593.444 569.533 593.581C568.838 593.767 568.182 593.813 567.564 593.718C566.947 593.623 566.416 593.384 565.972 593.001C565.535 592.607 565.224 592.066 565.04 591.38C564.856 590.693 564.842 590.069 564.996 589.507C565.159 588.943 565.453 588.465 565.877 588.074C566.31 587.679 566.832 587.4 567.443 587.237C568.096 587.062 568.675 587.064 569.18 587.242C569.692 587.41 570.117 587.709 570.457 588.138C570.802 588.557 571.051 589.051 571.204 589.621L571.382 590.286ZM567.312 590.165L568.894 589.741C568.863 589.624 568.8 589.506 568.706 589.388C568.619 589.268 568.506 589.177 568.364 589.116C568.228 589.045 568.064 589.035 567.871 589.087C567.662 589.143 567.497 589.281 567.377 589.502C567.263 589.712 567.241 589.933 567.312 590.165ZM573.425 591.771L573.678 590.155C573.866 590.186 574.073 590.206 574.301 590.217C574.534 590.218 574.761 590.211 574.981 590.196C575.202 590.182 575.383 590.156 575.526 590.118C575.676 590.078 575.795 590.019 575.882 589.942C575.969 589.865 576.001 589.784 575.979 589.7C575.965 589.65 575.891 589.607 575.756 589.572C575.627 589.526 575.467 589.497 575.275 589.485C574.909 589.458 574.536 589.405 574.156 589.327C573.774 589.241 573.436 589.099 573.14 588.9C572.853 588.699 572.66 588.414 572.561 588.046C572.391 587.409 572.496 586.847 572.876 586.359C573.257 585.872 573.87 585.514 574.716 585.288C574.883 585.243 575.105 585.201 575.382 585.163C575.667 585.123 575.969 585.109 576.287 585.123C576.604 585.136 576.905 585.204 577.189 585.325L576.935 586.941C576.663 586.897 576.384 586.878 576.099 586.882C575.813 586.887 575.561 586.919 575.343 586.977C575.159 587.026 575.015 587.092 574.912 587.174C574.808 587.255 574.767 587.338 574.79 587.422C574.803 587.472 574.877 587.515 575.012 587.55C575.156 587.584 575.329 587.609 575.531 587.627C575.897 587.654 576.267 587.712 576.641 587.8C577.012 587.88 577.341 588.021 577.628 588.222C577.913 588.415 578.106 588.7 578.207 589.076C578.378 589.713 578.298 590.268 577.967 590.742C577.645 591.214 577.061 591.564 576.216 591.79C576.048 591.835 575.796 591.88 575.458 591.926C575.129 591.969 574.779 591.987 574.409 591.978C574.037 591.961 573.709 591.892 573.425 591.771Z" fill="white"/>
<rect opacity="0.3" x="512.705" y="102.24" width="112" height="84" rx="14" transform="rotate(-15 512.705 102.24)" fill="url(#paint15_linear)"/>
<rect opacity="0.6" x="515.705" y="104.24" width="112" height="84" rx="14" transform="rotate(-15 515.705 104.24)" fill="url(#paint16_linear)"/>
<g filter="url(#filter5_d)">
<rect x="518.809" y="106.003" width="112" height="84" rx="14" transform="rotate(-15 518.809 106.003)" fill="url(#paint17_linear)"/>
</g>
<path d="M557.687 130.84L558.382 132.578L555.657 133.308L557.464 140.051L555.178 140.664L553.371 133.921L550.86 134.594L550.379 132.798L557.687 130.84ZM564.234 138.237L561.948 138.85L560.32 132.772L561.462 132.466L562.213 133.059C562.349 132.897 562.516 132.731 562.713 132.562C562.916 132.382 563.133 132.22 563.364 132.078C563.601 131.924 563.832 131.818 564.058 131.757L565.014 133.466C564.713 133.547 564.399 133.698 564.073 133.92C563.746 134.142 563.48 134.388 563.275 134.659L564.234 138.237ZM573.058 133.222L569.354 134.214C569.505 134.443 569.713 134.602 569.98 134.692C570.246 134.783 570.572 134.776 570.957 134.673C571.325 134.574 571.635 134.442 571.887 134.276C572.147 134.107 572.357 133.952 572.516 133.811L573.57 135.184C573.375 135.425 573.06 135.675 572.627 135.934C572.192 136.186 571.719 136.38 571.209 136.516C570.514 136.703 569.858 136.748 569.24 136.654C568.623 136.559 568.092 136.32 567.648 135.936C567.211 135.542 566.9 135.002 566.716 134.315C566.532 133.629 566.517 133.005 566.672 132.443C566.835 131.879 567.128 131.401 567.553 131.009C567.985 130.615 568.507 130.336 569.119 130.172C569.771 129.997 570.351 129.999 570.856 130.178C571.368 130.346 571.793 130.644 572.133 131.074C572.478 131.493 572.727 131.987 572.88 132.556L573.058 133.222ZM568.988 133.101L570.57 132.677C570.539 132.56 570.476 132.442 570.381 132.324C570.295 132.203 570.181 132.113 570.039 132.052C569.904 131.981 569.74 131.971 569.547 132.022C569.338 132.079 569.173 132.217 569.053 132.438C568.938 132.648 568.917 132.869 568.988 133.101ZM575.091 130.954L574.048 129.471C574.327 129.243 574.695 129.006 575.149 128.758C575.601 128.503 576.078 128.308 576.58 128.173C577.409 127.951 578.098 128.013 578.649 128.359C579.199 128.705 579.577 129.263 579.784 130.033L580.793 133.8L579.688 134.096L578.867 133.644C578.739 133.938 578.576 134.183 578.378 134.38C578.188 134.575 577.963 134.707 577.703 134.776C576.933 134.983 576.308 134.944 575.828 134.66C575.348 134.375 575.024 133.919 574.856 133.292C574.679 132.63 574.777 132.11 575.151 131.732C575.523 131.345 576.061 131.058 576.764 130.869L577.492 130.674L577.463 130.615C577.361 130.4 577.225 130.261 577.056 130.199C576.886 130.137 576.705 130.131 576.513 130.183C576.304 130.239 576.067 130.343 575.802 130.494C575.536 130.638 575.299 130.791 575.091 130.954ZM576.755 132.743C576.788 132.868 576.854 132.963 576.952 133.026C577.056 133.079 577.166 133.09 577.283 133.058C577.543 132.989 577.78 132.804 577.996 132.504L577.841 131.926L577.138 132.115C576.988 132.155 576.874 132.235 576.798 132.354C576.731 132.471 576.716 132.6 576.755 132.743ZM582.494 132.725L582.747 131.11C582.935 131.14 583.142 131.161 583.37 131.172C583.603 131.172 583.83 131.165 584.051 131.151C584.271 131.137 584.452 131.111 584.595 131.072C584.745 131.032 584.864 130.973 584.951 130.896C585.038 130.819 585.071 130.739 585.048 130.655C585.035 130.605 584.96 130.562 584.825 130.526C584.696 130.48 584.536 130.451 584.344 130.44C583.978 130.412 583.605 130.36 583.225 130.282C582.844 130.196 582.505 130.053 582.209 129.854C581.922 129.653 581.729 129.368 581.63 129C581.46 128.364 581.565 127.802 581.946 127.314C582.326 126.826 582.94 126.469 583.785 126.242C583.952 126.198 584.175 126.156 584.451 126.118C584.737 126.077 585.038 126.064 585.356 126.077C585.673 126.091 585.974 126.158 586.258 126.28L586.004 127.895C585.733 127.852 585.454 127.832 585.168 127.837C584.882 127.842 584.63 127.873 584.413 127.932C584.228 127.981 584.084 128.046 583.981 128.128C583.877 128.21 583.836 128.292 583.859 128.376C583.872 128.426 583.947 128.469 584.082 128.505C584.225 128.538 584.398 128.564 584.6 128.581C584.966 128.609 585.336 128.667 585.71 128.755C586.081 128.835 586.411 128.975 586.698 129.177C586.983 129.369 587.176 129.654 587.277 130.031C587.447 130.667 587.367 131.222 587.037 131.697C586.714 132.169 586.131 132.518 585.285 132.745C585.118 132.79 584.865 132.835 584.527 132.88C584.198 132.924 583.848 132.941 583.478 132.933C583.106 132.916 582.778 132.847 582.494 132.725ZM592.161 124.24L594.446 123.628L596.078 129.718L594.973 130.014L594.152 129.561C593.9 129.826 593.581 130.109 593.195 130.41C592.817 130.709 592.381 130.924 591.887 131.056C591.377 131.193 590.931 131.205 590.551 131.092C590.168 130.97 589.85 130.754 589.597 130.445C589.35 130.126 589.166 129.74 589.045 129.288L587.992 125.358L590.277 124.745L591.273 128.462C591.322 128.646 591.413 128.801 591.546 128.927C591.678 129.053 591.87 129.083 592.121 129.015C592.263 128.977 592.446 128.888 592.668 128.748C592.899 128.605 593.096 128.467 593.257 128.334L592.161 124.24ZM600.624 128.487L598.339 129.099L596.711 123.021L597.853 122.715L598.604 123.308C598.74 123.146 598.907 122.98 599.104 122.811C599.307 122.631 599.524 122.469 599.755 122.327C599.992 122.174 600.223 122.067 600.449 122.006L601.405 123.715C601.104 123.796 600.79 123.947 600.464 124.169C600.137 124.391 599.871 124.637 599.666 124.908L600.624 128.487ZM605.937 127.09L605.95 126.938L602.265 121.923L604.213 120.755L606.438 124.089L606.684 120.335L608.957 119.726L608.106 127.249C608.068 127.609 607.944 127.965 607.733 128.318C607.522 128.67 607.254 128.993 606.929 129.287C606.604 129.58 606.253 129.827 605.876 130.027L604.636 128.462C604.814 128.324 604.999 128.176 605.189 128.017C605.389 127.856 605.56 127.693 605.705 127.529C605.849 127.365 605.926 127.218 605.937 127.09Z" fill="white"/>
<g opacity="0.1">
<path d="M259.429 413.986C260.094 427.284 263.582 440.302 269.659 452.165C270.746 454.286 273.318 455.118 275.411 454.05C277.515 452.964 278.332 450.379 277.259 448.254C271.75 437.483 268.581 425.655 267.967 413.573C267.833 411.196 265.833 409.366 263.472 409.491C263.168 409.496 262.861 409.547 262.577 409.624C260.684 410.131 259.319 411.926 259.429 413.986ZM273.825 394.394C269.262 418.635 276.052 443.691 292.251 462.307C293.814 464.101 296.503 464.287 298.279 462.72C300.056 461.153 300.231 458.448 298.667 456.654C284.14 440.064 278.079 417.671 282.225 396.031C282.668 393.699 281.146 391.433 278.817 390.997C278.157 390.867 277.511 390.902 276.913 391.062C275.372 391.459 274.141 392.726 273.825 394.394ZM296.995 374.648C296.089 376.104 295.227 377.611 294.429 379.131C277.845 411.049 290.109 450.557 321.857 467.435L321.872 467.431C323.97 468.544 326.543 467.732 327.645 465.639C328.743 463.531 327.926 460.938 325.842 459.822C298.272 445.159 287.631 410.855 302.019 383.151C302.688 381.835 303.465 380.52 304.242 379.267C305.503 377.255 304.896 374.59 302.891 373.314C301.842 372.642 300.613 372.495 299.503 372.793C298.507 373.06 297.592 373.689 296.995 374.648ZM311.091 420.595C305.031 397.864 318.381 374.541 340.93 368.469C363.5 362.421 386.741 375.955 392.834 398.693C398.926 421.431 385.565 444.771 362.995 450.819C340.425 456.867 317.184 443.333 311.091 420.595ZM302.837 422.807C310.188 450.125 338.092 466.374 365.223 459.134C392.362 451.863 408.409 423.807 401.087 396.481C393.762 369.141 365.826 352.886 338.702 360.154C311.577 367.421 295.512 395.467 302.837 422.807Z" fill="url(#paint18_linear)"/>
<path d="M432.419 393.753C429.394 382.464 431.048 370.614 444.33 367.054C451.461 365.144 455.877 366.897 458.305 368.997L452.723 348.167L463.956 345.157L479.687 403.869L474.918 405.147L470.548 399.028C468.979 403.987 465.669 408.35 456.332 410.852C443.138 414.371 435.423 404.963 432.419 393.753ZM443.9 390.677C445.878 398.061 449.287 402.581 456.993 400.516C464.854 398.41 464.993 393.024 462.993 385.561C461.103 378.507 458.471 373.593 450.439 375.745C442.651 377.815 441.942 383.371 443.9 390.677ZM326.843 416.338C322.949 401.806 324.143 387.868 344.619 382.382C365.265 376.849 373.179 388.364 377.09 402.959C380.963 417.412 379.862 431.325 359.215 436.858C338.646 442.369 330.737 430.871 326.843 416.338ZM338.727 413.154C341.351 422.947 345.282 430.095 356.591 427.065C368.072 423.988 367.828 415.869 365.225 406.155C362.601 396.362 358.728 389.114 347.247 392.19C335.937 395.221 336.124 403.439 338.727 413.154ZM527.799 374.068L538.861 371.104C540.042 375.513 543.61 378.016 550.244 376.239C556.303 374.615 557.563 371.426 557.12 369.773C555.251 362.798 529.257 375.281 524.901 360.332C522.83 352.602 526.436 345.054 540.029 341.412C553.965 337.678 560.431 342.796 562.925 352.102L552.438 354.911C550.842 350.631 548.342 348.449 542.019 350.143C536.442 351.638 535.285 354.529 535.842 356.608C537.471 362.685 563.73 350.198 568.05 366.321C569.809 372.886 566.371 381.368 552.855 384.989C538.434 388.836 530.709 384.865 527.799 374.068ZM483.004 389.463C480.844 381.402 485.163 376.515 497.16 372.136L508.033 368.16C506.686 363.441 503.646 360.611 497.416 362.28C491.42 363.887 490.445 367.084 491.559 371.241L480.441 374.304C478.104 365.582 479.74 357.583 494.81 353.545C512.272 348.867 516.819 356.018 519.844 367.307L526.298 391.396L521.544 392.67L517.174 386.551C515.746 391.102 511.794 395.991 503.281 398.272C493.94 400.758 485.447 398.579 483.004 389.463ZM500.952 379.389C495.282 381.533 493.974 383.486 494.573 385.722C495.353 388.635 498.132 390.118 503.616 388.648C510.576 386.783 511.507 381.37 510.095 375.792L500.952 379.389ZM420.745 419.662L414.295 395.589C412.667 389.511 410.511 386.376 403.536 388.245C396.483 390.135 395.908 394.204 397.557 400.36L403.94 424.182L392.724 427.187L381.325 384.646L386.001 383.393L390.407 389.333C392.104 384.17 395.083 380.25 404.264 377.79C417.547 374.231 422.587 381.605 425.768 393.476L431.978 416.652L420.745 419.662Z" fill="white"/>
</g>
<path d="M274.692 420.082C275.357 433.379 278.845 446.397 284.922 458.26C286.009 460.382 288.581 461.214 290.674 460.146C292.778 459.06 293.595 456.474 292.522 454.349C287.013 443.579 283.844 431.751 283.23 419.669C283.096 417.292 281.096 415.462 278.735 415.587C278.431 415.592 278.124 415.643 277.84 415.719C275.947 416.227 274.582 418.021 274.692 420.082ZM289.088 400.489C284.525 424.73 291.315 449.786 307.514 468.403C309.077 470.197 311.766 470.383 313.542 468.816C315.319 467.249 315.494 464.543 313.93 462.75C299.403 446.159 293.342 423.766 297.488 402.126C297.931 399.795 296.409 397.529 294.08 397.093C293.42 396.962 292.773 396.997 292.176 397.157C290.635 397.555 289.404 398.822 289.088 400.489ZM312.258 380.743C311.352 382.2 310.49 383.707 309.692 385.226C293.108 417.145 305.372 456.653 337.12 473.531L337.135 473.527C339.233 474.64 341.806 473.827 342.908 471.734C344.006 469.627 343.189 467.034 341.105 465.917C313.535 451.254 302.894 416.95 317.282 389.247C317.951 387.931 318.728 386.616 319.505 385.363C320.766 383.35 320.159 380.686 318.154 379.409C317.105 378.738 315.876 378.591 314.766 378.888C313.77 379.155 312.855 379.784 312.258 380.743ZM326.354 426.691C320.294 403.96 333.644 380.637 356.193 374.565C378.763 368.517 402.004 382.05 408.096 404.788C414.189 427.526 400.828 450.867 378.258 456.915C355.688 462.962 332.447 449.429 326.354 426.691ZM318.1 428.903C325.451 456.221 353.355 472.469 380.486 465.23C407.625 457.958 423.672 429.902 416.35 402.577C409.025 375.236 381.089 358.981 353.964 366.249C326.84 373.517 310.775 401.562 318.1 428.903Z" fill="url(#paint19_linear)"/>
<path d="M447.682 399.849C444.657 388.56 446.311 376.709 459.593 373.15C466.724 371.239 471.14 372.992 473.568 375.093L467.986 354.262L479.219 351.253L494.95 409.964L490.181 411.242L485.811 405.123C484.242 410.083 480.932 414.446 471.595 416.948C458.401 420.466 450.686 411.059 447.682 399.849ZM459.163 396.772C461.141 404.157 464.55 408.677 472.256 406.612C480.117 404.506 480.256 399.119 478.256 391.656C476.366 384.603 473.734 379.689 465.702 381.841C457.914 383.911 457.205 389.467 459.163 396.772ZM342.106 422.434C338.212 407.902 339.406 393.964 359.882 388.477C380.528 382.945 388.442 394.459 392.353 409.055C396.226 423.508 395.125 437.421 374.478 442.953C353.909 448.465 346 436.966 342.106 422.434ZM353.99 419.249C356.614 429.043 360.545 436.191 371.854 433.16C383.335 430.084 383.091 421.965 380.488 412.251C377.864 402.458 373.991 395.21 362.51 398.286C351.2 401.317 351.387 409.535 353.99 419.249ZM543.062 380.164L554.124 377.2C555.305 381.609 558.873 384.112 565.507 382.334C571.566 380.711 572.826 377.521 572.383 375.868C570.514 368.893 544.52 381.377 540.164 366.428C538.093 358.697 541.699 351.15 555.292 347.508C569.228 343.774 575.694 348.892 578.188 358.197L567.701 361.007C566.105 356.727 563.605 354.545 557.282 356.239C551.705 357.733 550.548 360.625 551.105 362.703C552.734 368.781 578.993 356.294 583.313 372.416C585.072 378.982 581.634 387.463 568.118 391.085C553.697 394.932 545.972 390.961 543.062 380.164ZM498.267 395.559C496.107 387.498 500.426 382.611 512.423 378.232L523.296 374.255C521.949 369.537 518.909 366.706 512.679 368.376C506.683 369.983 505.708 373.18 506.822 377.337L495.704 380.4C493.367 371.678 495.003 363.679 510.073 359.641C527.535 354.962 532.082 362.114 535.107 373.403L541.561 397.492L536.807 398.766L532.437 392.647C531.009 397.197 527.057 402.087 518.544 404.368C509.203 406.854 500.71 404.675 498.267 395.559ZM516.215 385.485C510.545 387.628 509.237 389.582 509.836 391.818C510.616 394.73 513.395 396.213 518.879 394.744C525.839 392.879 526.77 387.466 525.358 381.887L516.215 385.485ZM436.008 425.758L429.558 401.684C427.93 395.607 425.774 392.472 418.799 394.341C411.746 396.231 411.171 400.3 412.82 406.456L419.203 430.278L407.987 433.283L396.588 390.741L401.264 389.488L405.67 395.429C407.367 390.266 410.346 386.346 419.527 383.886C432.81 380.327 437.85 387.701 441.031 399.572L447.241 422.748L436.008 425.758Z" fill="white"/>
<g filter="url(#filter6_d)">
<path d="M156.75 404.219L212.306 389.332L229.568 453.754L268.576 443.302" stroke="#00ADFF" stroke-width="2" stroke-linecap="round" stroke-linejoin="round" stroke-dasharray="5 5"/>
</g>
<g filter="url(#filter7_d)">
<path d="M597.676 172.684L614.146 234.15L336.365 308.582L348.559 354.091" stroke="#00ADFF" stroke-width="2" stroke-linecap="round" stroke-linejoin="round" stroke-dasharray="5 5"/>
</g>
<g filter="url(#filter8_d)">
<path d="M545.581 543.279L528.002 477.675L395.613 513.149L385.608 475.812" stroke="#00ADFF" stroke-width="2" stroke-linecap="round" stroke-linejoin="round" stroke-dasharray="5 5"/>
</g>
<g opacity="0.25">
<g filter="url(#filter9_d)">
<circle cx="601.439" cy="432.832" r="3.49852" stroke="#00ADFF" stroke-width="3"/>
</g>
<g filter="url(#filter10_d)">
<circle cx="493.804" cy="109.075" r="3.49852" stroke="#F9CA06" stroke-width="3"/>
</g>
<g filter="url(#filter11_d)">
<circle cx="23.324" cy="385.659" r="3.49852" stroke="#FF3389" stroke-width="3"/>
</g>
<g filter="url(#filter12_d)">
<circle cx="482.127" cy="640.137" r="3.49852" stroke="#684EF4" stroke-width="3"/>
</g>
<g filter="url(#filter13_d)">
<path d="M671.12 162.234C671.454 162.042 671.87 162.284 671.869 162.669L671.845 172.552C671.844 172.937 671.427 173.177 671.094 172.983L662.547 168.021C662.214 167.828 662.215 167.347 662.549 167.155L671.12 162.234Z" stroke="#FF3389" stroke-width="3" stroke-linejoin="round"/>
</g>
<g filter="url(#filter14_d)">
<path d="M137.816 476.021C138.174 475.88 138.55 476.18 138.493 476.561L137.019 486.333C136.962 486.714 136.514 486.89 136.213 486.65L128.487 480.487C128.186 480.247 128.257 479.771 128.616 479.631L137.816 476.021Z" stroke="#F9CB07" stroke-width="3" stroke-linejoin="round"/>
</g>
<g filter="url(#filter15_d)">
<path d="M634.704 570.7C635.023 570.485 635.456 570.696 635.483 571.08L636.177 580.938C636.204 581.322 635.806 581.592 635.46 581.423L626.574 577.095C626.228 576.926 626.195 576.446 626.514 576.231L634.704 570.7Z" stroke="#00ADFF" stroke-width="3" stroke-linejoin="round"/>
</g>
<g filter="url(#filter16_d)">
<mask id="path-33-inside-1" fill="white">
<rect x="161.78" y="323.777" width="12" height="12" rx="2" transform="rotate(7.3268 161.78 323.777)"/>
</mask>
<rect x="161.78" y="323.777" width="12" height="12" rx="2" transform="rotate(7.3268 161.78 323.777)" stroke="#00ADFF" stroke-width="6" mask="url(#path-33-inside-1)"/>
</g>
<g filter="url(#filter17_d)">
<mask id="path-34-inside-2" fill="white">
<rect x="493.617" y="518.297" width="12" height="12" rx="2" transform="rotate(7.3268 493.617 518.297)"/>
</mask>
<rect x="493.617" y="518.297" width="12" height="12" rx="2" transform="rotate(7.3268 493.617 518.297)" stroke="#F9CB07" stroke-width="6" mask="url(#path-34-inside-2)"/>
</g>
<g filter="url(#filter18_d)">
<mask id="path-35-inside-3" fill="white">
<rect x="382.047" y="330.493" width="12" height="12" rx="2" transform="rotate(7.3268 382.047 330.493)"/>
</mask>
<rect x="382.047" y="330.493" width="12" height="12" rx="2" transform="rotate(7.3268 382.047 330.493)" stroke="#FF3389" stroke-width="6" mask="url(#path-35-inside-3)"/>
</g>
<g filter="url(#filter19_d)">
<mask id="path-36-inside-4" fill="white">
<rect x="522.779" y="214.075" width="12" height="12" rx="2" transform="rotate(7.3268 522.779 214.075)"/>
</mask>
<rect x="522.779" y="214.075" width="12" height="12" rx="2" transform="rotate(7.3268 522.779 214.075)" stroke="#684EF4" stroke-width="6" mask="url(#path-36-inside-4)"/>
</g>
</g>
<g opacity="0.8">
<g filter="url(#filter20_d)">
<circle cx="605" cy="435.34" r="3.49852" stroke="#00ADFF" stroke-width="3"/>
</g>
<g filter="url(#filter21_d)">
<circle cx="497.366" cy="111.583" r="3.49852" stroke="#F9CA06" stroke-width="3"/>
</g>
<g filter="url(#filter22_d)">
<circle cx="26.8852" cy="388.167" r="3.49852" stroke="#FF3389" stroke-width="3"/>
</g>
<g filter="url(#filter23_d)">
<circle cx="485.688" cy="642.646" r="3.49852" stroke="#684EF4" stroke-width="3"/>
</g>
<g filter="url(#filter24_d)">
<path d="M674.682 164.742C675.015 164.551 675.431 164.792 675.431 165.177L675.407 175.06C675.406 175.445 674.988 175.685 674.656 175.492L666.108 170.529C665.775 170.336 665.777 169.855 666.11 169.663L674.682 164.742Z" stroke="#FF3389" stroke-width="3" stroke-linejoin="round"/>
</g>
<g filter="url(#filter25_d)">
<path d="M141.377 478.529C141.736 478.388 142.112 478.688 142.054 479.069L140.581 488.842C140.523 489.222 140.075 489.398 139.774 489.158L132.048 482.995C131.747 482.755 131.819 482.28 132.177 482.139L141.377 478.529Z" stroke="#F9CB07" stroke-width="3" stroke-linejoin="round"/>
</g>
<g filter="url(#filter26_d)">
<path d="M638.266 573.209C638.585 572.993 639.017 573.204 639.044 573.588L639.739 583.447C639.766 583.831 639.367 584.1 639.021 583.931L630.136 579.603C629.79 579.435 629.756 578.955 630.075 578.739L638.266 573.209Z" stroke="#00ADFF" stroke-width="3" stroke-linejoin="round"/>
</g>
<g filter="url(#filter27_d)">
<mask id="path-44-inside-5" fill="white">
<rect x="165.341" y="326.285" width="12" height="12" rx="2" transform="rotate(7.3268 165.341 326.285)"/>
</mask>
<rect x="165.341" y="326.285" width="12" height="12" rx="2" transform="rotate(7.3268 165.341 326.285)" stroke="#00ADFF" stroke-width="6" mask="url(#path-44-inside-5)"/>
</g>
<g filter="url(#filter28_d)">
<mask id="path-45-inside-6" fill="white">
<rect x="497.178" y="520.805" width="12" height="12" rx="2" transform="rotate(7.3268 497.178 520.805)"/>
</mask>
<rect x="497.178" y="520.805" width="12" height="12" rx="2" transform="rotate(7.3268 497.178 520.805)" stroke="#F9CB07" stroke-width="6" mask="url(#path-45-inside-6)"/>
</g>
<g filter="url(#filter29_d)">
<mask id="path-46-inside-7" fill="white">
<rect x="385.608" y="333.001" width="12" height="12" rx="2" transform="rotate(7.3268 385.608 333.001)"/>
</mask>
<rect x="385.608" y="333.001" width="12" height="12" rx="2" transform="rotate(7.3268 385.608 333.001)" stroke="#FF3389" stroke-width="6" mask="url(#path-46-inside-7)"/>
</g>
<g filter="url(#filter30_d)">
<mask id="path-47-inside-8" fill="white">
<rect x="526.34" y="216.583" width="12" height="12" rx="2" transform="rotate(7.3268 526.34 216.583)"/>
</mask>
<rect x="526.34" y="216.583" width="12" height="12" rx="2" transform="rotate(7.3268 526.34 216.583)" stroke="#684EF4" stroke-width="6" mask="url(#path-47-inside-8)"/>
</g>
</g>
<defs>
<filter id="filter0_d" x="52.6333" y="515.246" width="318.454" height="303.651" filterUnits="userSpaceOnUse" color-interpolation-filters="sRGB">
<feFlood flood-opacity="0" result="BackgroundImageFix"/>
<feColorMatrix in="SourceAlpha" type="matrix" values="0 0 0 0 0 0 0 0 0 0 0 0 0 0 0 0 0 0 127 0"/>
<feOffset dx="-10" dy="10"/>
<feGaussianBlur stdDeviation="40"/>
<feColorMatrix type="matrix" values="0 0 0 0 0 0 0 0 0 0.677083 0 0 0 0 1 0 0 0 0.8 0"/>
<feBlend mode="normal" in2="BackgroundImageFix" result="effect1_dropShadow"/>
<feBlend mode="normal" in="SourceGraphic" in2="effect1_dropShadow" result="shape"/>
</filter>
<filter id="filter1_d" x="227.513" y="0.776367" width="318.454" height="303.651" filterUnits="userSpaceOnUse" color-interpolation-filters="sRGB">
<feFlood flood-opacity="0" result="BackgroundImageFix"/>
<feColorMatrix in="SourceAlpha" type="matrix" values="0 0 0 0 0 0 0 0 0 0 0 0 0 0 0 0 0 0 127 0"/>
<feOffset dx="-25" dy="-15"/>
<feGaussianBlur stdDeviation="40"/>
<feColorMatrix type="matrix" values="0 0 0 0 0.407843 0 0 0 0 0.305882 0 0 0 0 0.956863 0 0 0 0.8 0"/>
<feBlend mode="normal" in2="BackgroundImageFix" result="effect1_dropShadow"/>
<feBlend mode="normal" in="SourceGraphic" in2="effect1_dropShadow" result="shape"/>
</filter>
<filter id="filter2_d" x="532.485" y="408.7" width="318.454" height="303.651" filterUnits="userSpaceOnUse" color-interpolation-filters="sRGB">
<feFlood flood-opacity="0" result="BackgroundImageFix"/>
<feColorMatrix in="SourceAlpha" type="matrix" values="0 0 0 0 0 0 0 0 0 0 0 0 0 0 0 0 0 0 127 0"/>
<feOffset dx="-20" dy="30"/>
<feGaussianBlur stdDeviation="40"/>
<feColorMatrix type="matrix" values="0 0 0 0 1 0 0 0 0 0.2 0 0 0 0 0.536 0 0 0 0.6 0"/>
<feBlend mode="normal" in2="BackgroundImageFix" result="effect1_dropShadow"/>
<feBlend mode="normal" in="SourceGraphic" in2="effect1_dropShadow" result="shape"/>
</filter>
<filter id="filter3_d" x="0.915771" y="327.123" width="203.639" height="183.84" filterUnits="userSpaceOnUse" color-interpolation-filters="sRGB">
<feFlood flood-opacity="0" result="BackgroundImageFix"/>
<feColorMatrix in="SourceAlpha" type="matrix" values="0 0 0 0 0 0 0 0 0 0 0 0 0 0 0 0 0 0 127 0"/>
<feOffset/>
<feGaussianBlur stdDeviation="20"/>
<feColorMatrix type="matrix" values="0 0 0 0 0.0941176 0 0 0 0 0.682353 0 0 0 0 0.988235 0 0 0 1 0"/>
<feBlend mode="normal" in2="BackgroundImageFix" result="effect1_dropShadow"/>
<feBlend mode="normal" in="SourceGraphic" in2="effect1_dropShadow" result="shape"/>
</filter>
<filter id="filter4_d" x="454.11" y="490.665" width="203.639" height="183.84" filterUnits="userSpaceOnUse" color-interpolation-filters="sRGB">
<feFlood flood-opacity="0" result="BackgroundImageFix"/>
<feColorMatrix in="SourceAlpha" type="matrix" values="0 0 0 0 0 0 0 0 0 0 0 0 0 0 0 0 0 0 127 0"/>
<feOffset/>
<feGaussianBlur stdDeviation="20"/>
<feColorMatrix type="matrix" values="0 0 0 0 0.0941176 0 0 0 0 0.682353 0 0 0 0 0.988235 0 0 0 1 0"/>
<feBlend mode="normal" in2="BackgroundImageFix" result="effect1_dropShadow"/>
<feBlend mode="normal" in="SourceGraphic" in2="effect1_dropShadow" result="shape"/>
</filter>
<filter id="filter5_d" x="481.952" y="40.1582" width="203.639" height="183.84" filterUnits="userSpaceOnUse" color-interpolation-filters="sRGB">
<feFlood flood-opacity="0" result="BackgroundImageFix"/>
<feColorMatrix in="SourceAlpha" type="matrix" values="0 0 0 0 0 0 0 0 0 0 0 0 0 0 0 0 0 0 127 0"/>
<feOffset/>
<feGaussianBlur stdDeviation="20"/>
<feColorMatrix type="matrix" values="0 0 0 0 0.0941176 0 0 0 0 0.682353 0 0 0 0 0.988235 0 0 0 1 0"/>
<feBlend mode="normal" in2="BackgroundImageFix" result="effect1_dropShadow"/>
<feBlend mode="normal" in="SourceGraphic" in2="effect1_dropShadow" result="shape"/>
</filter>
<filter id="filter6_d" x="151.75" y="384.332" width="121.826" height="74.4222" filterUnits="userSpaceOnUse" color-interpolation-filters="sRGB">
<feFlood flood-opacity="0" result="BackgroundImageFix"/>
<feColorMatrix in="SourceAlpha" type="matrix" values="0 0 0 0 0 0 0 0 0 0 0 0 0 0 0 0 0 0 127 0"/>
<feOffset/>
<feGaussianBlur stdDeviation="2"/>
<feColorMatrix type="matrix" values="0 0 0 0 0 0 0 0 0 0.677083 0 0 0 0 1 0 0 0 1 0"/>
<feBlend mode="normal" in2="BackgroundImageFix" result="effect1_dropShadow"/>
<feBlend mode="normal" in="SourceGraphic" in2="effect1_dropShadow" result="shape"/>
</filter>
<filter id="filter7_d" x="331.364" y="167.684" width="287.782" height="191.407" filterUnits="userSpaceOnUse" color-interpolation-filters="sRGB">
<feFlood flood-opacity="0" result="BackgroundImageFix"/>
<feColorMatrix in="SourceAlpha" type="matrix" values="0 0 0 0 0 0 0 0 0 0 0 0 0 0 0 0 0 0 127 0"/>
<feOffset/>
<feGaussianBlur stdDeviation="2"/>
<feColorMatrix type="matrix" values="0 0 0 0 0 0 0 0 0 0.677083 0 0 0 0 1 0 0 0 1 0"/>
<feBlend mode="normal" in2="BackgroundImageFix" result="effect1_dropShadow"/>
<feBlend mode="normal" in="SourceGraphic" in2="effect1_dropShadow" result="shape"/>
</filter>
<filter id="filter8_d" x="380.608" y="470.812" width="169.973" height="77.4676" filterUnits="userSpaceOnUse" color-interpolation-filters="sRGB">
<feFlood flood-opacity="0" result="BackgroundImageFix"/>
<feColorMatrix in="SourceAlpha" type="matrix" values="0 0 0 0 0 0 0 0 0 0 0 0 0 0 0 0 0 0 127 0"/>
<feOffset/>
<feGaussianBlur stdDeviation="2"/>
<feColorMatrix type="matrix" values="0 0 0 0 0 0 0 0 0 0.677083 0 0 0 0 1 0 0 0 1 0"/>
<feBlend mode="normal" in2="BackgroundImageFix" result="effect1_dropShadow"/>
<feBlend mode="normal" in="SourceGraphic" in2="effect1_dropShadow" result="shape"/>
</filter>
<filter id="filter9_d" x="586.441" y="417.833" width="29.997" height="29.997" filterUnits="userSpaceOnUse" color-interpolation-filters="sRGB">
<feFlood flood-opacity="0" result="BackgroundImageFix"/>
<feColorMatrix in="SourceAlpha" type="matrix" values="0 0 0 0 0 0 0 0 0 0 0 0 0 0 0 0 0 0 127 0"/>
<feOffset/>
<feGaussianBlur stdDeviation="5"/>
<feColorMatrix type="matrix" values="0 0 0 0 0 0 0 0 0 0.677083 0 0 0 0 1 0 0 0 0.5 0"/>
<feBlend mode="normal" in2="BackgroundImageFix" result="effect1_dropShadow"/>
<feBlend mode="normal" in="SourceGraphic" in2="effect1_dropShadow" result="shape"/>
</filter>
<filter id="filter10_d" x="478.806" y="94.0762" width="29.997" height="29.997" filterUnits="userSpaceOnUse" color-interpolation-filters="sRGB">
<feFlood flood-opacity="0" result="BackgroundImageFix"/>
<feColorMatrix in="SourceAlpha" type="matrix" values="0 0 0 0 0 0 0 0 0 0 0 0 0 0 0 0 0 0 127 0"/>
<feOffset/>
<feGaussianBlur stdDeviation="5"/>
<feColorMatrix type="matrix" values="0 0 0 0 0.976471 0 0 0 0 0.792157 0 0 0 0 0.0235294 0 0 0 0.5 0"/>
<feBlend mode="normal" in2="BackgroundImageFix" result="effect1_dropShadow"/>
<feBlend mode="normal" in="SourceGraphic" in2="effect1_dropShadow" result="shape"/>
</filter>
<filter id="filter11_d" x="8.32544" y="370.66" width="29.997" height="29.997" filterUnits="userSpaceOnUse" color-interpolation-filters="sRGB">
<feFlood flood-opacity="0" result="BackgroundImageFix"/>
<feColorMatrix in="SourceAlpha" type="matrix" values="0 0 0 0 0 0 0 0 0 0 0 0 0 0 0 0 0 0 127 0"/>
<feOffset/>
<feGaussianBlur stdDeviation="5"/>
<feColorMatrix type="matrix" values="0 0 0 0 1 0 0 0 0 0.2 0 0 0 0 0.536 0 0 0 0.5 0"/>
<feBlend mode="normal" in2="BackgroundImageFix" result="effect1_dropShadow"/>
<feBlend mode="normal" in="SourceGraphic" in2="effect1_dropShadow" result="shape"/>
</filter>
<filter id="filter12_d" x="467.129" y="625.139" width="29.997" height="29.997" filterUnits="userSpaceOnUse" color-interpolation-filters="sRGB">
<feFlood flood-opacity="0" result="BackgroundImageFix"/>
<feColorMatrix in="SourceAlpha" type="matrix" values="0 0 0 0 0 0 0 0 0 0 0 0 0 0 0 0 0 0 127 0"/>
<feOffset/>
<feGaussianBlur stdDeviation="5"/>
<feColorMatrix type="matrix" values="0 0 0 0 0.407843 0 0 0 0 0.305882 0 0 0 0 0.956863 0 0 0 0.5 0"/>
<feBlend mode="normal" in2="BackgroundImageFix" result="effect1_dropShadow"/>
<feBlend mode="normal" in="SourceGraphic" in2="effect1_dropShadow" result="shape"/>
</filter>
<filter id="filter13_d" x="650.798" y="150.665" width="32.5712" height="33.8893" filterUnits="userSpaceOnUse" color-interpolation-filters="sRGB">
<feFlood flood-opacity="0" result="BackgroundImageFix"/>
<feColorMatrix in="SourceAlpha" type="matrix" values="0 0 0 0 0 0 0 0 0 0 0 0 0 0 0 0 0 0 127 0"/>
<feOffset/>
<feGaussianBlur stdDeviation="5"/>
<feColorMatrix type="matrix" values="0 0 0 0 1 0 0 0 0 0.2 0 0 0 0 0.536 0 0 0 0.5 0"/>
<feBlend mode="normal" in2="BackgroundImageFix" result="effect1_dropShadow"/>
<feBlend mode="normal" in="SourceGraphic" in2="effect1_dropShadow" result="shape"/>
</filter>
<filter id="filter14_d" x="116.798" y="464.483" width="33.2018" height="33.7779" filterUnits="userSpaceOnUse" color-interpolation-filters="sRGB">
<feFlood flood-opacity="0" result="BackgroundImageFix"/>
<feColorMatrix in="SourceAlpha" type="matrix" values="0 0 0 0 0 0 0 0 0 0 0 0 0 0 0 0 0 0 127 0"/>
<feOffset/>
<feGaussianBlur stdDeviation="5"/>
<feColorMatrix type="matrix" values="0 0 0 0 0.976471 0 0 0 0 0.796078 0 0 0 0 0.027451 0 0 0 0.5 0"/>
<feBlend mode="normal" in2="BackgroundImageFix" result="effect1_dropShadow"/>
<feBlend mode="normal" in="SourceGraphic" in2="effect1_dropShadow" result="shape"/>
</filter>
<filter id="filter15_d" x="614.793" y="559.112" width="32.8856" height="33.8647" filterUnits="userSpaceOnUse" color-interpolation-filters="sRGB">
<feFlood flood-opacity="0" result="BackgroundImageFix"/>
<feColorMatrix in="SourceAlpha" type="matrix" values="0 0 0 0 0 0 0 0 0 0 0 0 0 0 0 0 0 0 127 0"/>
<feOffset/>
<feGaussianBlur stdDeviation="5"/>
<feColorMatrix type="matrix" values="0 0 0 0 0 0 0 0 0 0.677083 0 0 0 0 1 0 0 0 0.5 0"/>
<feBlend mode="normal" in2="BackgroundImageFix" result="effect1_dropShadow"/>
<feBlend mode="normal" in="SourceGraphic" in2="effect1_dropShadow" result="shape"/>
</filter>
<filter id="filter16_d" x="150.488" y="314.015" width="32.9553" height="32.9553" filterUnits="userSpaceOnUse" color-interpolation-filters="sRGB">
<feFlood flood-opacity="0" result="BackgroundImageFix"/>
<feColorMatrix in="SourceAlpha" type="matrix" values="0 0 0 0 0 0 0 0 0 0 0 0 0 0 0 0 0 0 127 0"/>
<feOffset/>
<feGaussianBlur stdDeviation="5"/>
<feColorMatrix type="matrix" values="0 0 0 0 0 0 0 0 0 0.677083 0 0 0 0 1 0 0 0 1 0"/>
<feBlend mode="normal" in2="BackgroundImageFix" result="effect1_dropShadow"/>
<feBlend mode="normal" in="SourceGraphic" in2="effect1_dropShadow" result="shape"/>
</filter>
<filter id="filter17_d" x="482.325" y="508.535" width="32.9553" height="32.9553" filterUnits="userSpaceOnUse" color-interpolation-filters="sRGB">
<feFlood flood-opacity="0" result="BackgroundImageFix"/>
<feColorMatrix in="SourceAlpha" type="matrix" values="0 0 0 0 0 0 0 0 0 0 0 0 0 0 0 0 0 0 127 0"/>
<feOffset/>
<feGaussianBlur stdDeviation="5"/>
<feColorMatrix type="matrix" values="0 0 0 0 0.976471 0 0 0 0 0.796078 0 0 0 0 0.027451 0 0 0 0.5 0"/>
<feBlend mode="normal" in2="BackgroundImageFix" result="effect1_dropShadow"/>
<feBlend mode="normal" in="SourceGraphic" in2="effect1_dropShadow" result="shape"/>
</filter>
<filter id="filter18_d" x="370.755" y="320.731" width="32.9553" height="32.9553" filterUnits="userSpaceOnUse" color-interpolation-filters="sRGB">
<feFlood flood-opacity="0" result="BackgroundImageFix"/>
<feColorMatrix in="SourceAlpha" type="matrix" values="0 0 0 0 0 0 0 0 0 0 0 0 0 0 0 0 0 0 127 0"/>
<feOffset/>
<feGaussianBlur stdDeviation="5"/>
<feColorMatrix type="matrix" values="0 0 0 0 1 0 0 0 0 0.2 0 0 0 0 0.536 0 0 0 1 0"/>
<feBlend mode="normal" in2="BackgroundImageFix" result="effect1_dropShadow"/>
<feBlend mode="normal" in="SourceGraphic" in2="effect1_dropShadow" result="shape"/>
</filter>
<filter id="filter19_d" x="511.487" y="204.313" width="32.9553" height="32.9553" filterUnits="userSpaceOnUse" color-interpolation-filters="sRGB">
<feFlood flood-opacity="0" result="BackgroundImageFix"/>
<feColorMatrix in="SourceAlpha" type="matrix" values="0 0 0 0 0 0 0 0 0 0 0 0 0 0 0 0 0 0 127 0"/>
<feOffset/>
<feGaussianBlur stdDeviation="5"/>
<feColorMatrix type="matrix" values="0 0 0 0 0.407843 0 0 0 0 0.305882 0 0 0 0 0.956863 0 0 0 1 0"/>
<feBlend mode="normal" in2="BackgroundImageFix" result="effect1_dropShadow"/>
<feBlend mode="normal" in="SourceGraphic" in2="effect1_dropShadow" result="shape"/>
</filter>
<filter id="filter20_d" x="590.002" y="420.341" width="29.997" height="29.997" filterUnits="userSpaceOnUse" color-interpolation-filters="sRGB">
<feFlood flood-opacity="0" result="BackgroundImageFix"/>
<feColorMatrix in="SourceAlpha" type="matrix" values="0 0 0 0 0 0 0 0 0 0 0 0 0 0 0 0 0 0 127 0"/>
<feOffset/>
<feGaussianBlur stdDeviation="5"/>
<feColorMatrix type="matrix" values="0 0 0 0 0 0 0 0 0 0.677083 0 0 0 0 1 0 0 0 0.5 0"/>
<feBlend mode="normal" in2="BackgroundImageFix" result="effect1_dropShadow"/>
<feBlend mode="normal" in="SourceGraphic" in2="effect1_dropShadow" result="shape"/>
</filter>
<filter id="filter21_d" x="482.367" y="96.5845" width="29.997" height="29.997" filterUnits="userSpaceOnUse" color-interpolation-filters="sRGB">
<feFlood flood-opacity="0" result="BackgroundImageFix"/>
<feColorMatrix in="SourceAlpha" type="matrix" values="0 0 0 0 0 0 0 0 0 0 0 0 0 0 0 0 0 0 127 0"/>
<feOffset/>
<feGaussianBlur stdDeviation="5"/>
<feColorMatrix type="matrix" values="0 0 0 0 0.976471 0 0 0 0 0.792157 0 0 0 0 0.0235294 0 0 0 0.5 0"/>
<feBlend mode="normal" in2="BackgroundImageFix" result="effect1_dropShadow"/>
<feBlend mode="normal" in="SourceGraphic" in2="effect1_dropShadow" result="shape"/>
</filter>
<filter id="filter22_d" x="11.8867" y="373.168" width="29.997" height="29.997" filterUnits="userSpaceOnUse" color-interpolation-filters="sRGB">
<feFlood flood-opacity="0" result="BackgroundImageFix"/>
<feColorMatrix in="SourceAlpha" type="matrix" values="0 0 0 0 0 0 0 0 0 0 0 0 0 0 0 0 0 0 127 0"/>
<feOffset/>
<feGaussianBlur stdDeviation="5"/>
<feColorMatrix type="matrix" values="0 0 0 0 1 0 0 0 0 0.2 0 0 0 0 0.536 0 0 0 0.5 0"/>
<feBlend mode="normal" in2="BackgroundImageFix" result="effect1_dropShadow"/>
<feBlend mode="normal" in="SourceGraphic" in2="effect1_dropShadow" result="shape"/>
</filter>
<filter id="filter23_d" x="470.69" y="627.647" width="29.997" height="29.997" filterUnits="userSpaceOnUse" color-interpolation-filters="sRGB">
<feFlood flood-opacity="0" result="BackgroundImageFix"/>
<feColorMatrix in="SourceAlpha" type="matrix" values="0 0 0 0 0 0 0 0 0 0 0 0 0 0 0 0 0 0 127 0"/>
<feOffset/>
<feGaussianBlur stdDeviation="5"/>
<feColorMatrix type="matrix" values="0 0 0 0 0.407843 0 0 0 0 0.305882 0 0 0 0 0.956863 0 0 0 0.5 0"/>
<feBlend mode="normal" in2="BackgroundImageFix" result="effect1_dropShadow"/>
<feBlend mode="normal" in="SourceGraphic" in2="effect1_dropShadow" result="shape"/>
</filter>
<filter id="filter24_d" x="654.359" y="153.173" width="32.5712" height="33.8893" filterUnits="userSpaceOnUse" color-interpolation-filters="sRGB">
<feFlood flood-opacity="0" result="BackgroundImageFix"/>
<feColorMatrix in="SourceAlpha" type="matrix" values="0 0 0 0 0 0 0 0 0 0 0 0 0 0 0 0 0 0 127 0"/>
<feOffset/>
<feGaussianBlur stdDeviation="5"/>
<feColorMatrix type="matrix" values="0 0 0 0 1 0 0 0 0 0.2 0 0 0 0 0.536 0 0 0 0.5 0"/>
<feBlend mode="normal" in2="BackgroundImageFix" result="effect1_dropShadow"/>
<feBlend mode="normal" in="SourceGraphic" in2="effect1_dropShadow" result="shape"/>
</filter>
<filter id="filter25_d" x="120.359" y="466.991" width="33.2018" height="33.7779" filterUnits="userSpaceOnUse" color-interpolation-filters="sRGB">
<feFlood flood-opacity="0" result="BackgroundImageFix"/>
<feColorMatrix in="SourceAlpha" type="matrix" values="0 0 0 0 0 0 0 0 0 0 0 0 0 0 0 0 0 0 127 0"/>
<feOffset/>
<feGaussianBlur stdDeviation="5"/>
<feColorMatrix type="matrix" values="0 0 0 0 0.976471 0 0 0 0 0.796078 0 0 0 0 0.027451 0 0 0 0.5 0"/>
<feBlend mode="normal" in2="BackgroundImageFix" result="effect1_dropShadow"/>
<feBlend mode="normal" in="SourceGraphic" in2="effect1_dropShadow" result="shape"/>
</filter>
<filter id="filter26_d" x="618.354" y="561.62" width="32.8856" height="33.8647" filterUnits="userSpaceOnUse" color-interpolation-filters="sRGB">
<feFlood flood-opacity="0" result="BackgroundImageFix"/>
<feColorMatrix in="SourceAlpha" type="matrix" values="0 0 0 0 0 0 0 0 0 0 0 0 0 0 0 0 0 0 127 0"/>
<feOffset/>
<feGaussianBlur stdDeviation="5"/>
<feColorMatrix type="matrix" values="0 0 0 0 0 0 0 0 0 0.677083 0 0 0 0 1 0 0 0 0.5 0"/>
<feBlend mode="normal" in2="BackgroundImageFix" result="effect1_dropShadow"/>
<feBlend mode="normal" in="SourceGraphic" in2="effect1_dropShadow" result="shape"/>
</filter>
<filter id="filter27_d" x="154.05" y="316.523" width="32.9553" height="32.9553" filterUnits="userSpaceOnUse" color-interpolation-filters="sRGB">
<feFlood flood-opacity="0" result="BackgroundImageFix"/>
<feColorMatrix in="SourceAlpha" type="matrix" values="0 0 0 0 0 0 0 0 0 0 0 0 0 0 0 0 0 0 127 0"/>
<feOffset/>
<feGaussianBlur stdDeviation="5"/>
<feColorMatrix type="matrix" values="0 0 0 0 0 0 0 0 0 0.677083 0 0 0 0 1 0 0 0 1 0"/>
<feBlend mode="normal" in2="BackgroundImageFix" result="effect1_dropShadow"/>
<feBlend mode="normal" in="SourceGraphic" in2="effect1_dropShadow" result="shape"/>
</filter>
<filter id="filter28_d" x="485.887" y="511.043" width="32.9553" height="32.9553" filterUnits="userSpaceOnUse" color-interpolation-filters="sRGB">
<feFlood flood-opacity="0" result="BackgroundImageFix"/>
<feColorMatrix in="SourceAlpha" type="matrix" values="0 0 0 0 0 0 0 0 0 0 0 0 0 0 0 0 0 0 127 0"/>
<feOffset/>
<feGaussianBlur stdDeviation="5"/>
<feColorMatrix type="matrix" values="0 0 0 0 0.976471 0 0 0 0 0.796078 0 0 0 0 0.027451 0 0 0 0.5 0"/>
<feBlend mode="normal" in2="BackgroundImageFix" result="effect1_dropShadow"/>
<feBlend mode="normal" in="SourceGraphic" in2="effect1_dropShadow" result="shape"/>
</filter>
<filter id="filter29_d" x="374.316" y="323.24" width="32.9553" height="32.9553" filterUnits="userSpaceOnUse" color-interpolation-filters="sRGB">
<feFlood flood-opacity="0" result="BackgroundImageFix"/>
<feColorMatrix in="SourceAlpha" type="matrix" values="0 0 0 0 0 0 0 0 0 0 0 0 0 0 0 0 0 0 127 0"/>
<feOffset/>
<feGaussianBlur stdDeviation="5"/>
<feColorMatrix type="matrix" values="0 0 0 0 1 0 0 0 0 0.2 0 0 0 0 0.536 0 0 0 1 0"/>
<feBlend mode="normal" in2="BackgroundImageFix" result="effect1_dropShadow"/>
<feBlend mode="normal" in="SourceGraphic" in2="effect1_dropShadow" result="shape"/>
</filter>
<filter id="filter30_d" x="515.048" y="206.822" width="32.9553" height="32.9553" filterUnits="userSpaceOnUse" color-interpolation-filters="sRGB">
<feFlood flood-opacity="0" result="BackgroundImageFix"/>
<feColorMatrix in="SourceAlpha" type="matrix" values="0 0 0 0 0 0 0 0 0 0 0 0 0 0 0 0 0 0 127 0"/>
<feOffset/>
<feGaussianBlur stdDeviation="5"/>
<feColorMatrix type="matrix" values="0 0 0 0 0.407843 0 0 0 0 0.305882 0 0 0 0 0.956863 0 0 0 1 0"/>
<feBlend mode="normal" in2="BackgroundImageFix" result="effect1_dropShadow"/>
<feBlend mode="normal" in="SourceGraphic" in2="effect1_dropShadow" result="shape"/>
</filter>
<radialGradient id="paint0_radial" cx="0" cy="0" r="1" gradientUnits="userSpaceOnUse" gradientTransform="translate(221.86 657.071) rotate(-85.4661) scale(251.537 550.741)">
<stop stop-color="#0B0238"/>
<stop offset="1" stop-color="#4122FF"/>
</radialGradient>
<linearGradient id="paint1_linear" x1="251.455" y1="608.783" x2="-19.3903" y2="861.684" gradientUnits="userSpaceOnUse">
<stop stop-color="#00ADFF" stop-opacity="0"/>
<stop offset="1" stop-color="#00ADFF"/>
</linearGradient>
<radialGradient id="paint2_radial" cx="0" cy="0" r="1" gradientUnits="userSpaceOnUse" gradientTransform="translate(411.74 167.602) rotate(85.4661) scale(251.537 550.741)">
<stop stop-color="#0B0238"/>
<stop offset="1" stop-color="#4122FF"/>
</radialGradient>
<linearGradient id="paint3_linear" x1="446.128" y1="167.602" x2="285.968" y2="-54.2654" gradientUnits="userSpaceOnUse">
<stop stop-color="#684EF4" stop-opacity="0"/>
<stop offset="1" stop-color="#684EF4"/>
</linearGradient>
<radialGradient id="paint4_radial" cx="0" cy="0" r="1" gradientUnits="userSpaceOnUse" gradientTransform="translate(711.712 530.526) rotate(94.5339) scale(251.537 550.741)">
<stop stop-color="#0B0238"/>
<stop offset="1" stop-color="#4122FF"/>
</radialGradient>
<linearGradient id="paint5_linear" x1="653.874" y1="499.62" x2="803.811" y2="737.765" gradientUnits="userSpaceOnUse">
<stop stop-color="#FF3389" stop-opacity="0"/>
<stop offset="0.954148" stop-color="#FF3389"/>
</linearGradient>
<radialGradient id="paint6_radial" cx="0" cy="0" r="1" gradientUnits="userSpaceOnUse" gradientTransform="translate(338.44 461.382) rotate(-37.4369) scale(1414.12 1531.44)">
<stop offset="0.0637406" stop-color="#0B0238"/>
<stop offset="1" stop-color="#4122FF"/>
</radialGradient>
<radialGradient id="paint7_radial" cx="0" cy="0" r="1" gradientUnits="userSpaceOnUse" gradientTransform="translate(362.405 471.379) rotate(-37.4369) scale(1414.12 1531.44)">
<stop offset="0.0637406" stop-color="#0B0238"/>
<stop offset="1" stop-color="#4122FF"/>
</radialGradient>
<radialGradient id="paint8_radial" cx="0" cy="0" r="1" gradientUnits="userSpaceOnUse" gradientTransform="translate(384.083 477.379) rotate(-37.4369) scale(1414.12 1531.44)">
<stop offset="0.0637406" stop-color="#0B0238"/>
<stop offset="1" stop-color="#4122FF"/>
</radialGradient>
<linearGradient id="paint9_linear" x1="178.824" y1="515.202" x2="21.2426" y2="386.439" gradientUnits="userSpaceOnUse">
<stop stop-color="#005AF6"/>
<stop offset="1" stop-color="#00CCFF"/>
</linearGradient>
<linearGradient id="paint10_linear" x1="180.824" y1="516.202" x2="23.2426" y2="387.439" gradientUnits="userSpaceOnUse">
<stop stop-color="#005AF6"/>
<stop offset="1" stop-color="#00CCFF"/>
</linearGradient>
<linearGradient id="paint11_linear" x1="183.35" y1="516.504" x2="25.7678" y2="387.741" gradientUnits="userSpaceOnUse">
<stop stop-color="#005AF6"/>
<stop offset="1" stop-color="#00CCFF"/>
</linearGradient>
<linearGradient id="paint12_linear" x1="544.371" y1="616.73" x2="527.688" y2="555.714" gradientUnits="userSpaceOnUse">
<stop stop-color="#005AF6"/>
<stop offset="1" stop-color="#00CCFF"/>
</linearGradient>
<linearGradient id="paint13_linear" x1="547.371" y1="617.73" x2="530.688" y2="556.714" gradientUnits="userSpaceOnUse">
<stop stop-color="#005AF6"/>
<stop offset="1" stop-color="#00CCFF"/>
</linearGradient>
<linearGradient id="paint14_linear" x1="550.747" y1="619.081" x2="534.064" y2="558.065" gradientUnits="userSpaceOnUse">
<stop stop-color="#005AF6"/>
<stop offset="1" stop-color="#00CCFF"/>
</linearGradient>
<linearGradient id="paint15_linear" x1="578.054" y1="57.7448" x2="552.446" y2="204.501" gradientUnits="userSpaceOnUse">
<stop stop-color="#005AF6"/>
<stop offset="1" stop-color="#00CCFF"/>
</linearGradient>
<linearGradient id="paint16_linear" x1="581.054" y1="59.7448" x2="555.446" y2="206.501" gradientUnits="userSpaceOnUse">
<stop stop-color="#005AF6"/>
<stop offset="1" stop-color="#00CCFF"/>
</linearGradient>
<linearGradient id="paint17_linear" x1="584.158" y1="61.5075" x2="558.551" y2="208.264" gradientUnits="userSpaceOnUse">
<stop stop-color="#005AF6"/>
<stop offset="1" stop-color="#00CCFF"/>
</linearGradient>
<linearGradient id="paint18_linear" x1="259.783" y1="412.032" x2="397.078" y2="433.676" gradientUnits="userSpaceOnUse">
<stop stop-color="#684EF4"/>
<stop offset="1" stop-color="#00CCFF"/>
</linearGradient>
<linearGradient id="paint19_linear" x1="275.045" y1="418.128" x2="412.341" y2="439.772" gradientUnits="userSpaceOnUse">
<stop stop-color="#684EF4"/>
<stop offset="1" stop-color="#00CCFF"/>
</linearGradient>
</defs>
</svg>
