<svg width="1350" height="341" viewBox="0 0 1350 341" fill="none" xmlns="http://www.w3.org/2000/svg">
<mask id="mask0" mask-type="alpha" maskUnits="userSpaceOnUse" x="0" y="-720" width="1608" height="1760">
<rect x="0.500061" y="527.705" width="1440" height="1024" transform="rotate(-60 0.500061 527.705)" fill="#171824"/>
</mask>
<g mask="url(#mask0)">
<circle cx="673.541" cy="689.964" r="545" transform="rotate(-60 673.541 689.964)" fill="url(#paint0_radial)"/>
<circle cx="673.541" cy="689.964" r="545" transform="rotate(-60 673.541 689.964)" fill="url(#paint1_radial)"/>
<path fill-rule="evenodd" clip-rule="evenodd" d="M893.138 190.901C895.267 194.276 897.443 197.572 900.172 200.65C904.14 205.302 906.863 209.879 909.917 215.185C913.544 221.357 918.753 226.833 922.947 232.581C932.504 245.397 944.058 257.542 954.448 269.658C966.169 283.187 977.949 296.427 988.49 310.885C993.302 317.42 996.646 324.824 1001.25 331.347C1005.98 337.835 1010.39 344.138 1014.43 351.084C1024.27 368.248 1034.89 384.792 1044.16 402.379C1060.92 433.95 1072.83 467.228 1086 500.373C1092.65 517.096 1096.68 534.66 1101.29 552.135C1106.44 571.848 1113.96 590.788 1118.63 610.765C1122.32 626.31 1125.82 642.178 1126.82 658.103C1127.41 667.133 1128.53 676.153 1128.98 685.216C1129.54 696.701 1127.01 708.334 1126.2 719.779C1123.3 757.706 1113.92 794.58 1105.95 831.621C1098.03 867.832 1094.38 905.007 1084.2 940.666C1082.09 948.035 1079.02 954.846 1076.54 962.11C1073.87 969.903 1071.98 977.826 1068.65 985.455C1061.98 1000.71 1058.82 1017.35 1051.18 1032.25C1045.85 1042.59 1038.48 1050.9 1032.28 1060.52C1024.3 1072.87 1018.5 1086.26 1012.04 1099.49C1005 1114.1 996.107 1127.64 986.169 1140.58C973.564 1149.4 960.581 1157.57 947.335 1165.27C947.728 1164.96 948.088 1164.53 948.481 1164.22C955.878 1157.54 965.041 1152.64 971.76 1145.46C978.884 1137.77 985.631 1129.43 992.412 1121.21C1001.79 1109.99 1008.21 1098.68 1013.57 1085.13C1016.24 1078.09 1019.23 1071.23 1021.58 1064C1024.18 1056.16 1029.99 1050.18 1032.38 1042.33C1035.62 1031.32 1043.7 1021.6 1049.05 1011.6C1058.29 994.287 1061.68 973.919 1067.86 955.593C1074.71 935.183 1078.1 914.066 1086.58 894.17C1091.43 882.801 1092.59 872.419 1095.26 860.545C1097.58 850.398 1095.95 842.056 1094.7 831.778C1092.34 812.066 1089.76 792.006 1092.37 772.05C1094.94 752.174 1100.03 732.575 1106.46 713.639C1111.76 698.133 1113.83 678.936 1110.56 662.666C1109.04 655.454 1107.21 648.39 1105.56 641.212C1103.59 632.349 1102.46 623.537 1099.56 614.993C1096.27 605.259 1094.01 595.047 1090.67 585.394C1086.91 574.633 1081.59 564.695 1077.78 554.014C1071.67 537.074 1074.4 518.041 1067.96 501.123C1066.68 497.59 1064.41 494.456 1063.17 490.842C1061.94 487.02 1062 483.942 1059.57 480.715C1056.6 476.748 1049.72 467.298 1043.99 466.997C1032.42 466.219 1041.93 503.268 1043.42 509.062C1045.5 518.098 1048.39 526.1 1048.41 535.554C1048.36 541.214 1048.6 546.933 1047.85 552.51C1046.58 561.762 1041.84 570.722 1038.97 579.586C1030.99 604.383 1020.55 628.409 1011.14 652.705C998.381 685.585 987.126 719.764 977.267 753.569C967.994 785.243 959.908 817.28 950.474 848.861C945.511 865.637 940.662 882.585 935.411 899.302C928.979 919.737 924.262 940.733 917.346 960.889C905.946 994.018 895.072 1028.09 878.31 1058.99C865.104 1083.35 852.602 1107.79 838.799 1131.7C820.163 1163.97 803.433 1200.57 777.522 1227.79C777.209 1228.15 776.816 1228.46 776.503 1228.81C754.719 1233.09 732.688 1235.93 710.57 1237.44C722.379 1228.69 733.375 1218.94 742.832 1207.76C749.647 1199.68 757.316 1191.23 767.031 1186.85C773.534 1183.96 779.61 1181.24 784.947 1176.27C803.445 1159.47 813.638 1140.89 819.545 1116.72C821.673 1107.64 823.754 1098.65 825.673 1089.56C827.075 1082.86 826.669 1075.75 828.393 1069.23C833.422 1050.67 839.971 1032.45 845.564 1014.21C848.208 1005.55 851.407 996.659 853.475 987.872C855.745 977.806 855.953 967.408 857.347 957.373C859.924 938.039 861.689 919.739 868.492 901.451C872.81 889.883 878.539 876.985 879.16 864.571C879.443 860.549 879.966 854.626 875.501 852.692C870.025 850.282 867.489 857.833 865.995 861.908C861.619 873.763 856.218 885.349 852.935 897.727C846.978 919.94 838.645 940.136 828.454 960.762C813.423 991.258 797.905 1022.22 779.366 1050.8C764.635 1073.53 748.972 1095.83 735.69 1119.39C722.872 1142.15 708.126 1163.04 688.634 1180.44C666.55 1200.11 645.039 1220.64 619.678 1235.94C544.721 1228.4 470.077 1205.27 400.536 1165.12C330.914 1124.92 273.443 1071.67 229.497 1010.24C236.297 1018.35 243.617 1026.12 249.896 1034.57C262.387 1051.23 276.573 1065.32 294.521 1075.69C301.329 1079.51 309.072 1083.01 315.194 1087.84C323.27 1094.11 328.533 1098.01 338.827 1100.62C346.335 1102.49 353.031 1105.39 360.89 1106.28C363.781 1106.66 365.525 1106.05 368.306 1105.51C371.086 1104.97 373.597 1105.46 376.641 1105.39C385.15 1105.15 396.681 1104.51 404.114 1100C408.657 1097.15 413.448 1092.94 417.292 1089.26C422.109 1084.63 424.007 1082.83 425.202 1076.11C426.123 1071.17 427.491 1064.34 429.713 1059.93C431.259 1057.07 433.929 1055.61 435.992 1053.15C438.507 1050.09 440.044 1046.69 442.767 1043.64C453.704 1031.39 465.019 1019.79 473.084 1005.45C479.383 994.164 487.682 984.252 494.235 972.902C502.135 959.218 510.299 946.007 516.416 931.508C520.46 921.715 523.877 910.594 528.611 901.092C533.439 891.429 539.728 882.395 545.038 873.012C563.238 840.374 574.764 802.38 574.644 764.854C574.493 744.482 576.782 725.09 581.806 705.236C588.063 680.086 594.726 654.418 603.275 629.945C611.216 607.269 616.073 583.242 618.302 559.307C619.411 548.463 618.95 538.108 618.193 527.153C617.487 517.408 618.234 507.75 617.228 498.154C614.114 470.276 607.017 443.533 599.692 416.443C595.576 401.08 591.473 385.51 588.072 370.023C585.306 357.157 586.957 346.304 590.655 333.95C596.496 314.354 582.629 293.576 574.129 276.326C563.402 254.571 548.984 233.26 527.739 220.242C518.783 214.75 509.96 210.514 500.096 206.966C495.734 205.414 491.44 204.115 486.842 203.714C483.904 203.413 480.708 203.929 477.888 203.052C475.516 202.327 473.296 201.153 471.213 200.486C469.371 199.959 466.64 199.671 464.878 199.19C460.296 197.833 453.581 196.639 449.213 193.795L448.73 193.516C457.289 189.657 465.964 185.972 474.659 182.621C476.464 183.77 478.501 184.517 480.12 185.988C482.141 187.692 483.528 189.566 485.549 191.269C488.524 193.738 489.678 196.014 493.3 198.105C497.21 200.255 500.417 202.322 504.47 203.481C514.59 206.212 526.019 205.19 535.229 210.614C544.761 216.225 552.14 223.705 558.982 232.485C565.401 240.699 571.037 248.782 576.681 257.408C580.528 263.385 583.582 268.69 586.388 275.354C588.863 281.291 591.037 287.376 594.494 292.914C597.196 297.157 599.978 301.446 603.073 305.379C608.631 312.667 609.533 319.842 611.799 328.556C616.227 346.352 616.854 365.712 620.368 384.162C622.98 398.226 626.999 414.5 632.831 427.633C635.662 433.883 639.269 459.792 649.382 459.191C653.856 458.876 656.714 451.511 658.48 448.452C662.464 441.737 664.888 433.262 665.684 425.565C667.788 403.704 668.443 381.007 673.6 359.621C675.926 350.017 679.623 340.453 680.67 330.647C681.795 318.846 681.815 306.73 681.441 294.923C681.172 285.537 677.989 278.226 674.927 269.589C673.139 264.693 673.577 259.472 672.217 254.394C670.618 248.426 667.619 243.583 666.736 237.492C664.623 222.749 659.86 207.763 653.465 194.304C647.549 181.873 636.836 172.361 627.483 163.097C624.889 160.526 622.951 158.12 619.825 156.1C616.135 153.755 612.179 151.685 608.396 149.501L607.752 149.129C702.566 137.328 801.049 150.398 893.138 190.901Z" fill="url(#paint2_linear)"/>
<path fill-rule="evenodd" clip-rule="evenodd" d="M459.951 228.543C469.633 236.494 479.653 243.675 489.15 251.948C498.566 260.175 510.233 267.662 517.624 277.725C530.458 294.901 548.071 308.076 556.43 328.357C560.035 336.985 564.692 344.718 566.459 354.11C567.077 357.687 566.12 360.461 566.242 363.966C566.458 367.31 567.385 371.28 567.762 374.717C569.619 392.318 571.334 410.91 575.926 428.05C580.731 446.494 585.574 464.316 586.629 483.492C586.949 489.258 586.371 494.72 586.195 500.415C586.036 505.152 586.892 509.617 586.11 514.318C585.126 520.297 584.28 523.994 584.829 530.106C585.211 534.835 585.441 540.012 584.706 544.632C583.504 552.846 582.879 561.179 581.597 569.347C581.119 573.149 579.904 576.741 579.218 580.531C577.487 591.337 573.447 597.591 567.78 609.452C564.078 612.145 565.683 608.993 566.069 605.351C566.243 602.447 566.052 601.478 565.189 598.511C564.202 594.829 562.829 589.958 562.431 586.186C561.691 579.104 563.731 571.482 563.545 564.183C563.195 554.751 561.867 544.969 561.103 535.512C560.492 527.647 556.758 519.803 554.624 512.346C552.193 504.288 550.976 495.429 549.227 487.12C547.23 477.381 543.871 468.144 541.955 458.451C540.088 447.929 536.323 439.208 530.899 430.388C528.54 426.665 527.845 422.293 525.534 418.49C523.337 414.86 521.567 411.048 519.023 407.647C516.009 403.76 513.514 399.53 510.627 395.609C507.316 391.121 502.037 388.181 497.846 384.473C485.595 373.536 473.136 362.587 460.618 351.925C450.202 343.014 437.9 335.696 426.174 328.497C414.977 321.496 405.729 311.863 394.185 305.091C389.678 302.489 385.954 300.016 380.733 299.578C373.946 298.88 367.617 298.875 360.868 297.554C340.204 293.566 318.142 295.532 298.899 303.956C295.988 305.28 287.679 309.82 278.565 313.896C319.845 270.65 367.015 235.419 418.356 208.392L418.402 208.311C433.579 212.136 448.247 218.888 459.951 228.543Z" fill="url(#paint3_radial)"/>
<path fill-rule="evenodd" clip-rule="evenodd" d="M381.564 366.172C386.915 370.657 389.412 376.928 394.151 381.918C399.555 387.614 405.238 392.827 411.441 397.696C420.792 404.92 431.445 409.89 440.97 416.999C458.778 430.393 474.149 447.638 486.527 466.162C498.906 484.685 504.787 507.399 506.336 529.438C508.044 552.318 506.106 575.562 504.033 598.299C502.799 611.217 498.503 623.119 496.486 635.907C494.72 646.586 493.45 657.337 491.892 668.028C490.299 678.593 491.574 689.954 489.419 700.194C488.076 706.609 486.825 712.864 485.643 719.372C483.645 730.454 483.641 741.614 482.3 752.86C480.476 768.658 477.167 784.241 472.498 799.577C467.969 814.671 458.521 826.388 449.116 838.775C441.335 849.093 433.77 859.966 424.873 869.426C408.333 886.923 397.107 909.527 385.163 930.214C376.1 945.911 367.173 964.905 350.648 973.824C345.956 976.374 340.824 979.315 335.338 979.152C328.606 978.915 321.901 975.473 315.57 973.427C302.666 969.197 288.538 975.637 275.845 978.29C259.161 981.537 243.099 977.2 227.737 970.907C215.7 966.104 201.234 958.074 191.338 948.819C166.829 902.792 149.123 853.717 138.642 802.911C149.092 819.57 161.589 834.727 173.08 850.699C190.253 874.674 210.262 898.568 236.818 912.612C247.145 918.145 259.086 923.859 271.053 923.577C280.311 923.341 289.218 919.253 297.099 914.896C309.939 907.712 323.504 900.947 334.923 891.763C347.662 881.409 360.287 870.882 372.979 860.608C380.338 854.553 388.041 849.019 393.874 841.332C400.844 832.048 406.52 820.729 411.915 810.642C432.002 773.62 434.318 730.202 443.813 689.963C446.8 676.983 451.87 664.67 454.522 651.712C456.138 643.522 456.426 635.961 456.831 627.823C457.727 608.056 461.471 588.001 459.924 568.003C458.284 548.167 453.947 528.169 447.194 509.566C441.979 495.179 433.941 485.494 423.882 474.105C403.994 451.675 382.062 434.827 357.607 417.703C347.219 410.417 339.664 401.011 330.527 392.301C324.5 386.568 315.813 382.84 307.489 385.547C291.002 391.055 275.185 404.139 263.405 416.549C256.247 424.115 248.596 430.86 243.391 439.876C238.313 448.857 233.12 457.665 228.089 466.566C223.243 475.145 216.478 482.401 211.505 491.014C205.696 501.076 203.076 512.12 198.118 522.567C192.927 533.415 188.047 544.657 183.996 555.949C179.105 569.439 177.149 583.979 173.939 597.903C167.65 624.968 165.348 654.978 169.202 682.318C170.15 689.412 170.108 696.364 170.433 703.421C170.855 709.567 173.387 713.175 176.141 718.629C182.14 730.357 188.318 738.431 197.786 747.869C204.236 754.169 211.62 758.11 219.473 762.537C229.547 768.138 239.449 775.894 248.339 783.174C261.238 793.733 274.379 819.673 294.418 811.172C300.101 808.765 303.914 804.205 306.21 798.555C309.52 790.591 311.926 781.033 314.004 772.788C320.165 748.547 325.837 722.737 335.556 699.584C338.515 692.599 342.577 686.68 344.651 679.184C345.848 674.509 346.791 669.901 348.356 665.331C352.069 654.811 351.39 641.861 349.514 630.797C348.649 625.789 346.734 620.927 345.915 615.84C344.794 608.86 345.518 601.658 343.935 594.734C341.697 584.855 338.756 574.893 335.929 565.104C330.013 545.053 318.879 526.604 310.48 507.695C305.242 495.763 299.583 482.514 289.257 474.191C281.274 467.758 270.425 475.768 263.843 480.662C257.435 485.441 250.447 493.642 247.691 501.388C243.408 513.082 244.097 526.574 242.693 538.857C239.676 566.201 227.975 591.859 232.347 619.604C233.823 629.687 239.368 632.351 245.759 638.939C248.616 641.984 250.912 646.744 253.27 650.466C256.956 656.351 258.011 657.497 264.482 659.301C270.745 661.092 279.147 664.011 285.187 659.127C290.52 654.908 293.701 644.938 293.465 638.47C293.321 634.63 292.427 630.787 293.172 626.709C293.529 624.232 294.156 617.94 295.996 616.426C299.282 613.709 299.968 617.539 301.063 620.103C302.286 622.634 302.982 624.216 304.644 626.356C305.996 628.103 308.042 629.392 308.828 631.563C311.98 640.788 308.786 653.755 306.981 663.016C305.411 671.125 305.3 677.823 301.105 685.275C295.423 695.303 290.342 687.003 282.342 684.316C271.97 680.904 262.328 689.611 252.019 685.162C242.112 680.945 232.758 671.681 226.665 662.904C223.938 659.076 222.181 655.056 220.182 650.897C216.686 643.941 216.419 636.596 215.97 628.824C214.597 605.922 221.309 582.214 225.86 559.834C230.296 537.281 241.054 516.231 245.189 493.826C247.978 478.586 254.244 464.387 259.358 449.953C264.156 436.624 274.993 428.821 288.948 430.116C303.686 431.541 319.867 432.512 330.607 443.65C345.514 458.91 359.701 475.044 370.327 493.629C383.482 516.571 394.068 541.358 392.944 568.4C392.166 587.591 387.404 605.878 384.276 624.679C381.812 639.355 378.788 652.957 373.47 666.63C365.214 687.621 366.465 711.849 360.293 733.507C351.801 763.271 341.675 792.52 330.087 821.141C325.646 831.993 321.825 840.841 314.58 849.859C311.38 853.915 309.412 858.252 305.098 861.45C302.09 863.685 298.876 865.907 295.949 868.188C285.573 875.936 272.406 881.642 260.627 873.232C249.527 865.32 240.158 854.223 229.823 845.358C223.059 839.414 215.506 834.838 208.928 828.572C203.843 823.812 198.677 819.004 193.811 814.049C189.967 810.112 185.253 804.707 182.97 799.74C178.484 789.852 171.886 780.461 167.954 770.356C166.37 766.222 165.43 762.46 163.199 758.703C160.968 754.946 159.764 753.5 158.32 749.124C157.126 745.43 154.87 742.088 153.803 738.36C151.827 731.745 151.724 723.744 151.052 716.916C149.556 700.919 148.893 684.223 150.648 668.171C152.459 652.581 156.366 637.449 159.409 622.141C162.111 608.354 161.967 594.103 164.14 580.117C166.56 564.772 171.52 548.746 177.625 534.454C190.092 505.054 203.386 476.452 219.5 448.728C239.598 414.288 248.6 368.398 284.061 345.082C293.854 338.716 302.348 336.643 313.975 337.882C330.809 339.766 348.037 346.172 362.593 354.79C368.905 358.542 375.97 361.547 381.564 366.172Z" fill="url(#paint4_radial)"/>
<path fill-rule="evenodd" clip-rule="evenodd" d="M637.904 420.374C640.061 425.603 641.842 433.836 646.492 437.538C650.888 441.093 653.409 435.259 654.891 431.368C658.16 422.914 662.084 414.5 663.25 405.426C663.964 400.074 663.831 394.573 664.482 389.184C665.01 384.743 666.739 380.571 667.267 376.129C668.558 365.516 671.998 355.296 672.934 344.564C673.801 334.978 672.099 325.434 669.785 316.215C668.198 309.705 667.419 304 663.916 298.163C661.308 293.861 659.049 289.25 656.067 285.156C652.415 280.165 646.504 274.972 641.589 271.287C638.908 269.316 635.518 267.104 632.371 265.795C624.756 262.671 620.009 269.423 617.386 275.876C614.147 283.839 615.061 292.249 616.614 300.435C618.086 308.32 620.963 315.83 621.177 323.836C621.406 332.699 621.772 341.471 622.429 350.326C622.802 355.119 623.103 359.446 624.406 364.097C625.493 367.946 626.781 371.741 627.504 375.633C628.29 379.562 628.41 383.616 628.568 387.605C628.7 390.903 629.516 394.34 629.394 397.491C629.24 401.725 629.461 405.752 630.565 409.864C631.293 412.573 631.846 415.435 633.413 417.866C636.066 421.94 640.996 424.278 637.904 420.374Z" fill="url(#paint5_linear)"/>
<path fill-rule="evenodd" clip-rule="evenodd" d="M571.893 242.837C567.833 238.346 566.505 236.184 566.786 230.121C566.93 226.34 567.736 224.015 572.07 223.942C580.452 223.737 586.358 230.795 590.919 236.649C594.243 240.929 594.546 250.442 587.261 250.421C582.304 250.457 571.404 244.057 572.849 238.022L571.893 242.837Z" fill="url(#paint6_linear)"/>
<path fill-rule="evenodd" clip-rule="evenodd" d="M1006.98 308.038C1007.56 310.946 1007.88 313.921 1009.13 316.579C1011.23 321.119 1013.69 325.222 1015.49 329.911C1017.32 334.934 1019.91 339.545 1022.56 344.076C1025.87 349.855 1028.59 355.931 1032.21 361.561C1039.89 373.723 1048.83 385.003 1057.08 396.741C1061.22 402.57 1065.67 408.25 1069.94 414.045C1074.48 420.313 1079.28 426.306 1085.28 431.163C1089.61 434.629 1096.96 440.484 1101.52 434.636C1107.12 427.352 1104.96 415.479 1103.75 407.162C1100.58 385.151 1093.08 363.755 1082.77 344.065C1072.49 324.502 1058.73 303.355 1037.57 294.465C1028.06 290.481 1019.26 284.539 1011.14 278.347C1002.42 271.703 994.674 263.368 985.189 257.677C978.475 253.693 972.445 248.709 964.928 246.301C962.844 245.635 959.736 244.699 957.621 245.946C955.552 247.113 955.982 248.971 956.179 251.231C956.932 258.106 959.221 264.364 963.046 270.007C967.673 276.864 974.663 281.114 979.729 287.581C981.471 289.768 983.722 291.818 985.244 294.2C986.538 296.235 987.611 298.464 988.824 300.453C991.102 304.129 994.318 306.737 997.382 309.794C999.311 311.659 1001.09 313.223 1003.02 315.088C1004.51 316.593 1005.94 318.386 1007.4 319.764C1008.75 320.969 1010.76 321.382 1006.98 308.038Z" fill="url(#paint7_linear)"/>
<path fill-rule="evenodd" clip-rule="evenodd" d="M392.616 364.503C395.999 376.116 402.296 385.654 413.813 390.801C425.088 395.808 431.397 389.899 432.083 378.488C432.304 375.503 432.955 371.586 432.554 368.564C432.063 364.954 429.358 361.46 427.932 358.168C424.795 350.776 420.22 345.13 413.044 341.201C406.317 337.425 399.746 332.45 392.284 330.503C388.185 329.425 382.646 328.051 378.534 329.97C373.901 332.232 375.574 336.955 376.167 340.946C376.76 344.938 376.679 347.681 378.715 351.218C382.168 357.505 387.39 362.773 392.37 367.903L392.616 364.503Z" fill="url(#paint8_linear)"/>
<path fill-rule="evenodd" clip-rule="evenodd" d="M724.788 159.201C734.924 165.054 743.874 172.28 752.575 180.393C756.468 183.877 760.184 187.669 763.988 191.307C769.09 196.107 771.818 203.654 776.376 209.169C784.588 219.265 789.281 232.273 795.011 244.849C800.849 257.693 808.695 268.195 814.72 280.942C831.916 316.614 855.342 345.586 872.904 380.851C881.537 398.399 891.198 415.304 899.188 433.51C906.238 449.937 911.725 467.934 918.408 484.768C920.884 490.934 923.551 505.861 932.743 501.076C940.059 497.268 942.848 484.256 944.34 476.672C950.394 446.186 936.068 423.498 930.707 399.601C927.972 387.519 929.506 372.134 927.138 359.645C923.932 343.378 920.115 324.08 913.589 310.838C900.105 283.282 882.445 261.14 867.409 235.365C854.971 214.179 837.942 202.082 818.456 190.832C810.288 186.116 802.922 180.01 792.819 179.326C783.396 178.828 769.588 174.563 724.788 159.201Z" fill="url(#paint9_radial)"/>
<path fill-rule="evenodd" clip-rule="evenodd" d="M779.742 189.72C781.928 198.387 788.528 217.439 800.496 217.157C807.044 216.967 810.017 206.985 807.598 201.51C805.59 196.808 799.262 194.014 795.123 191.517C792.87 190.216 789.827 187.493 787.223 187.17C784.827 186.86 783.216 188.72 780.764 187.949L779.742 189.72Z" fill="url(#paint10_linear)"/>
<path fill-rule="evenodd" clip-rule="evenodd" d="M318.854 368.281C318.924 370.576 318.403 373.709 319.349 375.973C319.965 377.509 321.791 378.993 322.8 380.219C327.192 385.438 332.151 390.233 337.735 394.316C343.205 398.225 353.368 404.414 359.652 398.92C371.862 388.367 373.471 363.646 359.346 354.095C351.347 348.619 340.891 348.699 331.698 349.938C327.164 350.541 321.916 351.267 317.689 353.012C314.871 354.176 311.931 356.664 310.961 359.646C309.244 364.665 311.706 370.809 318.854 368.281Z" fill="url(#paint11_linear)"/>
<path fill-rule="evenodd" clip-rule="evenodd" d="M385.031 282.098C389.715 286.626 395.488 289.637 400.518 293.937C408.557 300.832 417.611 307.455 426.601 313.074C431.337 316.023 436.179 318.604 440.869 321.634C446.639 325.394 451.923 329.626 458.251 332.42C466.362 336.03 474.795 339.826 483.84 338.286C490.278 337.173 491.549 331.253 492.567 325.401C493.349 320.701 492.242 315.554 491.941 310.872C491.703 307.194 491.293 303.629 490.387 299.994C486.69 283.907 481.388 268.181 469.719 255.863C461.263 246.903 451.393 237.233 439.247 233.548C431.269 231.195 423.999 230.218 415.784 231.807C409.634 232.979 404.688 235.597 399.371 238.859C395.047 241.515 392.47 245.608 389.041 249.316C386.144 252.474 383.964 255.508 381.826 259.211C379.967 262.431 378.29 266.078 377.075 269.669C374.552 277.013 382.752 284.001 385.031 282.098Z" fill="url(#paint12_linear)"/>
<path fill-rule="evenodd" clip-rule="evenodd" d="M505.492 337.586C502.407 334.194 499.962 329.134 504.658 325.834C507.919 323.532 513.139 323.97 515.429 327.438C517.147 330.04 516.668 333.842 514.376 335.953C513.01 337.204 510.378 338.045 508.533 338.268C505.511 338.67 504.564 336.406 502.382 334.609L505.492 337.586Z" fill="url(#paint13_linear)"/>
<path fill-rule="evenodd" clip-rule="evenodd" d="M676.107 224.978C680.017 227.128 680.852 228.469 683.604 231.882C685.999 234.982 688.806 238.857 692.546 240.372C701.533 243.951 706.569 231.511 709.157 225.17C712.222 217.817 714.584 210.379 712.522 202.427C710.982 196.172 709.119 192.521 703.95 188.463C695.874 182.19 682.065 171.534 674.744 184.587C671.524 190.349 671.336 196.251 671.573 202.719C671.76 207.228 673.254 210.774 674.711 214.942C676.486 220.045 677.559 225.065 676.107 224.978Z" fill="url(#paint14_radial)"/>
<path fill-rule="evenodd" clip-rule="evenodd" d="M636.972 219.341C637.23 223.354 636.853 230.327 641.711 231.951C643.955 232.711 646.343 232.479 648.727 232.997C650.742 233.409 652.699 234.11 654.643 235.017C657.197 236.17 661.724 237.066 664.551 236.444C666.743 235.993 666.05 233.661 665.274 232.032C664.383 230.23 663.458 228.3 661.733 227.198C659.446 225.769 657.285 224.307 655.357 222.443C654.611 221.69 654.258 220.628 653.432 219.829C652.364 218.89 651.029 218.227 649.742 217.484C646.912 216.065 640.679 215.15 636.972 219.341Z" fill="url(#paint15_linear)"/>
</g>
<defs>
<radialGradient id="paint0_radial" cx="0" cy="0" r="1" gradientUnits="userSpaceOnUse" gradientTransform="translate(1309.04 1057.96) rotate(-124.84) scale(1112.4 1073.24)">
<stop stop-color="#00F0FF"/>
<stop offset="0.427083" stop-color="#AA00D5"/>
<stop offset="1" stop-color="#16064C"/>
</radialGradient>
<radialGradient id="paint1_radial" cx="0" cy="0" r="1" gradientUnits="userSpaceOnUse" gradientTransform="translate(1100.04 1021.46) rotate(-119.431) scale(1006.37 3646.86)">
<stop stop-color="#FF50A4"/>
<stop offset="0.510191" stop-color="#7000FF"/>
<stop offset="1" stop-color="#47007E" stop-opacity="0"/>
</radialGradient>
<linearGradient id="paint2_linear" x1="1117.97" y1="548.185" x2="604.743" y2="541.124" gradientUnits="userSpaceOnUse">
<stop stop-color="#BC187A"/>
<stop offset="0.760117" stop-color="#23006D"/>
</linearGradient>
<radialGradient id="paint3_radial" cx="0" cy="0" r="1" gradientUnits="userSpaceOnUse" gradientTransform="translate(642.376 480.877) rotate(-170.573) scale(425.681 686.052)">
<stop stop-color="#7A0676"/>
<stop offset="1" stop-color="#0A0049"/>
</radialGradient>
<radialGradient id="paint4_radial" cx="0" cy="0" r="1" gradientUnits="userSpaceOnUse" gradientTransform="translate(508.848 642.221) rotate(171.051) scale(355.534 1285.72)">
<stop stop-color="#23006D"/>
<stop offset="1" stop-color="#920EE2"/>
</radialGradient>
<linearGradient id="paint5_linear" x1="721.823" y1="316.84" x2="551.053" y2="374.525" gradientUnits="userSpaceOnUse">
<stop stop-color="#BC187A"/>
<stop offset="1" stop-color="#23006D"/>
</linearGradient>
<linearGradient id="paint6_linear" x1="598.654" y1="236.754" x2="575.098" y2="255.056" gradientUnits="userSpaceOnUse">
<stop stop-color="#BC187A"/>
<stop offset="1" stop-color="#23006D"/>
</linearGradient>
<linearGradient id="paint7_linear" x1="933.939" y1="286.005" x2="1124.09" y2="395.79" gradientUnits="userSpaceOnUse">
<stop stop-color="#4122FF"/>
<stop offset="1" stop-color="#D11866"/>
</linearGradient>
<linearGradient id="paint8_linear" x1="445.905" y1="359.875" x2="392.962" y2="401.671" gradientUnits="userSpaceOnUse">
<stop stop-color="#BC187A"/>
<stop offset="1" stop-color="#23006D"/>
</linearGradient>
<radialGradient id="paint9_radial" cx="0" cy="0" r="1" gradientUnits="userSpaceOnUse" gradientTransform="translate(943.856 485.764) rotate(-119.339) scale(356.894 311.628)">
<stop stop-color="#F047AD"/>
<stop offset="0.475886" stop-color="#9723CD"/>
<stop offset="1" stop-color="#23006D"/>
</radialGradient>
<linearGradient id="paint10_linear" x1="813.288" y1="201.584" x2="786.618" y2="221.737" gradientUnits="userSpaceOnUse">
<stop stop-color="#BC187A"/>
<stop offset="1" stop-color="#23006D"/>
</linearGradient>
<linearGradient id="paint11_linear" x1="380.352" y1="366.039" x2="322.305" y2="404.392" gradientUnits="userSpaceOnUse">
<stop stop-color="#BC187A"/>
<stop offset="1" stop-color="#23006D"/>
</linearGradient>
<linearGradient id="paint12_linear" x1="521.19" y1="279.843" x2="369.37" y2="281.54" gradientUnits="userSpaceOnUse">
<stop stop-color="#23006D"/>
<stop offset="1" stop-color="#BC187A"/>
</linearGradient>
<linearGradient id="paint13_linear" x1="518.943" y1="328.662" x2="500.805" y2="337.301" gradientUnits="userSpaceOnUse">
<stop stop-color="#BC187A"/>
<stop offset="1" stop-color="#23006D"/>
</linearGradient>
<radialGradient id="paint14_radial" cx="0" cy="0" r="1" gradientUnits="userSpaceOnUse" gradientTransform="translate(713.057 220.071) rotate(-178.593) scale(57.9938 119.382)">
<stop stop-color="#7A0676"/>
<stop offset="1" stop-color="#1205A3"/>
</radialGradient>
<linearGradient id="paint15_linear" x1="669.735" y1="228.972" x2="649.606" y2="246.413" gradientUnits="userSpaceOnUse">
<stop stop-color="#BC187A"/>
<stop offset="1" stop-color="#23006D"/>
</linearGradient>
</defs>
</svg>
