<svg width="676" height="600" viewBox="0 0 676 600" fill="none" xmlns="http://www.w3.org/2000/svg">
<path d="M310.13 207.276L215.562 136.019C209.583 131.513 208.281 123.064 212.628 116.968L318.484 191.335L318.354 191.654L310.13 207.276Z" fill="#301270"/>
<path d="M502.214 333.879L504.635 315.149L413.219 243.688L400.67 255.316L502.214 333.879Z" fill="#180F44"/>
<path d="M387.153 268.41L483.064 337.121C489.24 341.546 497.839 340.09 502.214 333.878L400.989 255.446L387.153 268.41Z" fill="#301270"/>
<path d="M148.731 23.6098L235.373 91.2661L248.335 85.0144L160.173 23.6027C156.735 21.2072 152.167 21.21 148.731 23.6098Z" fill="#180F44"/>
<path d="M169.518 30.1116L160.173 23.6026C156.734 21.2071 152.167 21.2099 148.731 23.6097L163.406 35.0694L169.518 30.1116Z" fill="#0070C0"/>
<path d="M150.221 27.7824L148.731 23.6097L236.2 91.9749L234.924 101.499L155.024 34.6734C152.838 32.8451 151.18 30.4661 150.221 27.7824Z" fill="#301270"/>
<path d="M150.221 27.7823L148.731 23.6097L163.403 35.0774L166.113 43.9482L155.024 34.6733C152.838 32.845 151.18 30.466 150.221 27.7823Z" fill="#18BBFF"/>
<path d="M610.36 369.747L519.925 305.01L518.435 287.663L605.312 357.551C608.965 360.489 610.868 365.087 610.36 369.747Z" fill="#180F44"/>
<path d="M594.084 348.519L605.312 357.551C608.965 360.489 610.868 365.087 610.36 369.747L591.927 356.552L594.084 348.519Z" fill="#0070C0"/>
<path d="M516.877 311.58L519.606 304.88L610.36 369.747L606.898 369.828C603.533 369.906 600.229 368.922 597.457 367.014L516.877 311.58Z" fill="#301270"/>
<path d="M610.36 369.747L606.898 369.828C603.533 369.906 600.229 368.922 597.457 367.014L583.416 357.355L591.921 356.568L610.36 369.747Z" fill="#18BBFF"/>
<path d="M212.628 116.968L230.86 106.911L328.302 176.363L320.457 192.883L212.628 116.968Z" fill="#180F44"/>
<path d="M516.173 288.26L515.879 285.203L518.188 283.177L521.119 280.605L495.737 244.103L471.283 222.588L441.752 200.806L429.115 233.173L516.722 297.016L516.889 295.719L516.173 288.26Z" fill="#180F44" stroke="url(#paint0_linear)" stroke-width="12"/>
<path d="M252.574 83.5837L252.124 87.1298L248.791 88.4224L243.018 90.6617L332.913 156.361L352.324 133.473L296.982 93.1564L253.038 79.9231L252.574 83.5837Z" fill="#180F44" stroke="url(#paint1_linear)" stroke-width="12"/>
<path d="M226.109 99.3962L232.69 90.5453L333.879 164.499L325.207 180.31L230.718 109.085L226.476 102.149L226.109 99.3962Z" fill="#301270"/>
<path d="M378.341 113.792L386.684 109.75L349.748 153.851L332.473 164.298L359.743 131.14L378.341 113.792Z" fill="#301270"/>
<path d="M353.552 149.077L381.708 115.23C387.167 108.668 396.816 107.546 403.634 112.681L444.866 143.732C450.774 148.181 452.863 156.099 449.919 162.883L430.658 207.269L353.552 149.077Z" fill="#180F44"/>
<path d="M427.161 214.028L452.149 157.249L452.374 162.176L422.093 236.515L427.161 214.028Z" fill="#301270"/>
<path d="M515.045 317.902L521.378 307.834L421.844 235.298L411.482 245.213L504.505 315.468L515.045 317.902Z" fill="#301270"/>
<path d="M276.622 63.0578L348.613 151.157L360.145 138.371L289.059 64.2955C285.782 60.8805 280.508 60.3557 276.622 63.0578Z" fill="#180F44"/>
<path d="M297.732 73.3331L289.059 64.2954C285.782 60.8805 280.508 60.3556 276.622 63.0577L290.028 79.4624L297.732 73.3331Z" fill="#FF557E"/>
<path d="M278.376 73.0565L340.333 152.628C341.521 154.154 343.69 154.497 345.291 153.411C347.076 152.2 347.438 149.719 346.073 148.049L282.261 69.9579C280.669 68.0101 277.523 69.3895 277.877 71.8799C277.938 72.309 278.11 72.7146 278.376 73.0565Z" fill="#301270"/>
<path d="M276.622 63.0578L277.37 68.3179C277.763 71.0809 278.872 73.6931 280.587 75.8951L290.271 88.3331L290.028 79.4626L276.622 63.0578Z" fill="#FF8484"/>
<path d="M536.477 257.07L429.795 212.126L437.381 196.244L529.321 244.333C534.016 246.789 536.822 251.782 536.477 257.07Z" fill="#180F44"/>
<path d="M517.111 237.947L529.321 244.333C534.016 246.789 536.822 251.782 536.477 257.069L514.887 247.974L517.111 237.947Z" fill="#FF557E"/>
<path d="M530.777 258.336L536.477 257.069L429.796 212.126L428.153 218.896L521.173 257.496C524.212 258.757 527.566 259.05 530.777 258.336Z" fill="#301270"/>
<path d="M530.777 258.337L536.477 257.07L514.887 247.974L505.477 250.983L521.173 257.496C524.212 258.757 527.566 259.05 530.777 258.337Z" fill="#FF8484"/>
<path d="M434.068 113.056L450.636 133.569L449.029 144.818L447.41 147.879L438.407 155.371L432.912 154.248L396.362 127.084L394.093 121.696L398.015 108.414L409.442 102.281L434.068 113.056Z" fill="#301270"/>
<path d="M448.331 133.746L447.245 143.719L435.039 151.767L434.991 149.144L420.834 131.845L400.734 123.657L398.111 123.705L400.438 109.773L409.17 104.774L432.78 114.392L448.331 133.746Z" fill="url(#paint2_radial)"/>
<path d="M409.17 104.774L432.78 114.392L420.834 131.845L400.734 123.658L398.111 123.705L400.438 109.773L409.17 104.774Z" fill="url(#paint3_radial)"/>
<path d="M353.552 149.077L350.268 152.575L345.447 156.191L358.278 158.48L420.36 204.241L426.677 219.783L429.228 210.779L430.658 207.269L353.552 149.077Z" fill="#301270"/>
<path d="M359.247 159.194L420.36 204.242C425.7 208.178 428.057 215.002 426.285 221.396L422.093 236.515L387.153 268.41L328.118 266.31L310.13 207.276L332.473 164.298L340.952 158.712C346.549 155.025 353.852 155.217 359.247 159.194Z" fill="#180F44"/>
<path d="M360.071 170.433L408.661 206.702C414.499 211.06 416.656 218.812 413.908 225.56L411.138 232.358L386.811 253.923C384.274 256.172 380.958 257.341 377.572 257.18L343.405 255.559C338.026 255.304 333.361 251.759 331.675 246.645L321.047 214.414C319.964 211.131 320.234 207.552 321.796 204.468L338.087 172.314L341.591 169.965C347.227 166.187 354.633 166.374 360.071 170.433Z" fill="url(#paint4_radial)"/>
<path d="M361.337 175.397L403.988 207.186C409.833 211.542 411.994 219.299 409.244 226.05L407.154 231.181L381.399 253.957L337.305 251.825L323.483 210.111L340.52 176.504L342.884 174.924C348.515 171.16 355.906 171.35 361.337 175.397Z" fill="url(#paint5_linear)"/>
<path d="M334.342 212.675L345.489 191.861C346.856 189.308 349.045 187.291 351.702 186.137C354.985 184.711 358.714 184.718 361.992 186.156L377.801 193.093C379.591 193.878 381.18 195.056 382.451 196.54L393.023 208.882C395.632 211.929 396.689 216.01 395.886 219.94L395.644 221.127C395.167 223.464 394.055 225.625 392.432 227.373L376.363 244.671L345.097 241.979L334.342 212.675Z" fill="url(#paint6_diamond)"/>
<path d="M350.249 192.962L358.026 189.587L377.93 198.32L391.925 214.647L390.04 223.881L374.447 240.659L348.157 238.389L339.108 213.762L350.249 192.962Z" fill="url(#paint7_radial)"/>
<path d="M336.328 212.367L346.789 192.9C347.975 190.692 349.913 188.982 352.251 188.08C354.743 187.118 357.508 187.144 359.982 188.152L376.417 194.846C378.39 195.65 380.135 196.926 381.499 198.562L391.011 209.975C393.467 212.921 394.39 216.854 393.5 220.585C393.047 222.482 392.145 224.242 390.87 225.717L375.926 243.005L268.887 356.012L336.328 212.367Z" fill="url(#paint8_diamond)"/>
<g style="mix-blend-mode:hard-light" filter="url(#filter0_f)">
<path d="M349.66 184.411L351.908 183.613C354.67 182.632 357.684 182.613 360.458 183.56L378.356 189.67C380.914 190.543 383.137 192.192 384.714 194.388L395.435 209.311C397.205 211.774 398.058 214.779 397.846 217.805L397.655 220.527C397.464 223.251 396.421 225.844 394.673 227.942L378.796 246.991L194.703 468.044L331.547 210.521L342.621 190.395C344.156 187.606 346.66 185.477 349.66 184.411Z" fill="url(#paint9_diamond)"/>
</g>
<path d="M373.452 168.715L407.899 194.65L421.167 169.518C425.729 160.876 423.346 150.178 415.576 144.252C406.437 137.284 393.28 139.401 386.842 148.92L373.452 168.715Z" fill="#301270"/>
<g style="mix-blend-mode:color-dodge" filter="url(#filter1_f)">
<path d="M406.866 209.106L358.276 172.837C353.858 169.54 347.84 169.387 343.261 172.457L340.409 174.369L324.472 205.824C323.27 208.196 323.063 210.949 323.896 213.475L334.524 245.705C335.821 249.639 339.409 252.366 343.547 252.563L377.714 254.183C380.319 254.307 382.869 253.408 384.821 251.678L408.624 230.578L411.129 224.428C413.363 218.946 411.61 212.647 406.866 209.106Z" stroke="url(#paint10_radial)" stroke-width="6"/>
</g>
<path d="M465.003 320.209L477.194 329.536C481.083 332.511 486.448 332.633 490.468 329.838L471.053 314.489L465.003 320.209Z" fill="url(#paint11_linear)"/>
<path d="M461.434 318.011L467.614 311.973L442.656 292.879L436.158 298.787L461.434 318.011Z" fill="url(#paint12_linear)"/>
<path d="M432.719 296.271L439.667 290.173L413.496 270.285C411.555 268.81 408.829 268.969 407.072 270.658C404.843 272.801 405.103 276.442 407.615 278.245L432.719 296.271Z" fill="url(#paint13_linear)"/>
<g style="mix-blend-mode:color-dodge" filter="url(#filter2_f)">
<path d="M462.404 326.59L474.595 335.917C478.484 338.892 483.849 339.014 487.869 336.219L468.453 320.871L462.404 326.59Z" fill="url(#paint14_linear)"/>
<path d="M458.835 324.392L465.015 318.354L440.057 299.26L433.558 305.168L458.835 324.392Z" fill="url(#paint15_linear)"/>
<path d="M430.12 302.652L437.067 296.554L407.525 274.104L400.187 281.159L430.12 302.652Z" fill="url(#paint16_linear)"/>
</g>
<path d="M235.711 146.819L220.928 136.219C216.948 133.365 215.265 128.269 216.763 123.606L238.773 139.101L235.711 146.819Z" fill="url(#paint17_linear)"/>
<path d="M238.218 149.329L241.547 141.394L270.675 161.873L266.665 170.454L238.218 149.329Z" fill="url(#paint18_linear)"/>
<path d="M270.077 173.006L273.876 164.579L303.346 185.503C305.349 186.925 306.01 189.599 304.9 191.79C303.507 194.54 299.971 195.367 297.503 193.521L270.077 173.006Z" fill="url(#paint19_linear)"/>
<g style="mix-blend-mode:color-dodge" filter="url(#filter3_f)">
<path d="M233.112 153.2L218.329 142.6C214.349 139.746 212.666 134.65 214.164 129.987L236.174 145.482L233.112 153.2Z" fill="url(#paint20_linear)"/>
<path d="M235.619 155.71L238.948 147.775L268.075 168.254L264.066 176.835L235.619 155.71Z" fill="url(#paint21_linear)"/>
<path d="M267.478 179.387L271.277 170.96L304.232 194.359L299.632 203.439L267.478 179.387Z" fill="url(#paint22_linear)"/>
</g>
<path d="M253.054 121.181L240.589 112.223C236.613 109.366 234.938 104.267 236.446 99.6088L256.771 113.731L253.054 121.181Z" fill="url(#paint23_linear)"/>
<path d="M256.194 123.957L260.178 116.29L285.696 134.628L281.929 142.563L256.194 123.957Z" fill="url(#paint24_linear)"/>
<path d="M285.336 145.122L289.153 136.703L317.967 157.429C319.953 158.858 320.599 161.522 319.489 163.703C318.087 166.454 314.538 167.268 312.077 165.402L285.336 145.122Z" fill="url(#paint25_linear)"/>
<g style="mix-blend-mode:color-dodge" filter="url(#filter4_f)">
<path d="M250.455 127.561L237.99 118.604C234.014 115.747 232.339 110.648 233.847 105.99L254.172 120.112L250.455 127.561Z" fill="url(#paint26_linear)"/>
<path d="M253.594 130.338L257.578 122.671L283.097 141.009L279.33 148.943L253.594 130.338Z" fill="url(#paint27_linear)"/>
<path d="M282.737 151.503L286.554 143.084L318.82 166.294L314.2 175.364L282.737 151.503Z" fill="url(#paint28_linear)"/>
</g>
<path d="M489.686 299.69L501.937 308.938C505.845 311.888 511.211 311.976 515.213 309.155L495.699 293.931L489.686 299.69Z" fill="url(#paint29_linear)"/>
<path d="M486.104 297.515L492.244 291.437L467.165 272.504L460.704 278.454L486.104 297.515Z" fill="url(#paint30_linear)"/>
<path d="M457.249 275.959L463.464 270.107L435.145 248.82C433.431 247.531 431.022 247.732 429.545 249.287C427.805 251.118 428.051 254.058 430.073 255.575L457.249 275.959Z" fill="url(#paint31_linear)"/>
<g style="mix-blend-mode:color-dodge" filter="url(#filter5_f)">
<path d="M487.087 306.071L499.338 315.319C503.246 318.269 508.612 318.357 512.613 315.536L493.1 300.312L487.087 306.071Z" fill="url(#paint32_linear)"/>
<path d="M483.504 303.896L489.645 297.818L464.565 278.885L458.105 284.835L483.504 303.896Z" fill="url(#paint33_linear)"/>
<path d="M454.65 282.34L460.865 276.488L429.538 252.94L423.677 259.108L454.65 282.34Z" fill="url(#paint34_linear)"/>
</g>
<defs>
<filter id="filter0_f" x="186.703" y="174.863" width="219.175" height="301.181" filterUnits="userSpaceOnUse" color-interpolation-filters="sRGB">
<feFlood flood-opacity="0" result="BackgroundImageFix"/>
<feBlend mode="normal" in="SourceGraphic" in2="BackgroundImageFix" result="shape"/>
<feGaussianBlur stdDeviation="4" result="effect1_foregroundBlur"/>
</filter>
<filter id="filter1_f" x="304.393" y="151.255" width="126.698" height="121.94" filterUnits="userSpaceOnUse" color-interpolation-filters="sRGB">
<feFlood flood-opacity="0" result="BackgroundImageFix"/>
<feBlend mode="normal" in="SourceGraphic" in2="BackgroundImageFix" result="shape"/>
<feGaussianBlur stdDeviation="8" result="effect1_foregroundBlur"/>
</filter>
<filter id="filter2_f" x="384.187" y="258.104" width="119.681" height="96.1305" filterUnits="userSpaceOnUse" color-interpolation-filters="sRGB">
<feFlood flood-opacity="0" result="BackgroundImageFix"/>
<feBlend mode="normal" in="SourceGraphic" in2="BackgroundImageFix" result="shape"/>
<feGaussianBlur stdDeviation="8" result="effect1_foregroundBlur"/>
</filter>
<filter id="filter3_f" x="197.623" y="113.987" width="122.609" height="105.452" filterUnits="userSpaceOnUse" color-interpolation-filters="sRGB">
<feFlood flood-opacity="0" result="BackgroundImageFix"/>
<feBlend mode="normal" in="SourceGraphic" in2="BackgroundImageFix" result="shape"/>
<feGaussianBlur stdDeviation="8" result="effect1_foregroundBlur"/>
</filter>
<filter id="filter4_f" x="217.299" y="89.9895" width="117.521" height="101.374" filterUnits="userSpaceOnUse" color-interpolation-filters="sRGB">
<feFlood flood-opacity="0" result="BackgroundImageFix"/>
<feBlend mode="normal" in="SourceGraphic" in2="BackgroundImageFix" result="shape"/>
<feGaussianBlur stdDeviation="8" result="effect1_foregroundBlur"/>
</filter>
<filter id="filter5_f" x="407.677" y="236.94" width="120.936" height="96.6534" filterUnits="userSpaceOnUse" color-interpolation-filters="sRGB">
<feFlood flood-opacity="0" result="BackgroundImageFix"/>
<feBlend mode="normal" in="SourceGraphic" in2="BackgroundImageFix" result="shape"/>
<feGaussianBlur stdDeviation="8" result="effect1_foregroundBlur"/>
</filter>
<linearGradient id="paint0_linear" x1="494.686" y1="214.007" x2="459.517" y2="267.011" gradientUnits="userSpaceOnUse">
<stop offset="0.0989583" stop-color="#5422A2"/>
<stop offset="1" stop-color="#4D0FFF"/>
</linearGradient>
<linearGradient id="paint1_linear" x1="305.592" y1="90.11" x2="281.28" y2="132.338" gradientUnits="userSpaceOnUse">
<stop offset="0.0989583" stop-color="#5422A2"/>
<stop offset="1" stop-color="#4D0FFF"/>
</linearGradient>
<radialGradient id="paint2_radial" cx="0" cy="0" r="1" gradientUnits="userSpaceOnUse" gradientTransform="translate(453.265 132.147) rotate(-169.802) scale(51.2481 52.3231)">
<stop stop-color="#30B1FF"/>
<stop offset="0.859375" stop-color="#6700CD"/>
</radialGradient>
<radialGradient id="paint3_radial" cx="0" cy="0" r="1" gradientUnits="userSpaceOnUse" gradientTransform="translate(394.213 125.623) rotate(-15.9148) scale(39.7677 34.2404)">
<stop stop-color="#9C1F98"/>
<stop offset="1" stop-color="#3A2BE7"/>
</radialGradient>
<radialGradient id="paint4_radial" cx="0" cy="0" r="1" gradientUnits="userSpaceOnUse" gradientTransform="translate(375.132 196.555) rotate(123.364) scale(70.9415 83.6961)">
<stop stop-color="#04FEFE"/>
<stop offset="1" stop-color="#5C23FF"/>
</radialGradient>
<linearGradient id="paint5_linear" x1="395.133" y1="180.806" x2="347.844" y2="245.203" gradientUnits="userSpaceOnUse">
<stop stop-color="#171824"/>
<stop offset="1" stop-color="#313351"/>
</linearGradient>
<radialGradient id="paint6_diamond" cx="0" cy="0" r="1" gradientUnits="userSpaceOnUse" gradientTransform="translate(376.196 200.336) rotate(126.091) scale(44.3678 35.1334)">
<stop stop-color="#E02A1E"/>
<stop offset="1" stop-color="#7824E3" stop-opacity="0.51"/>
</radialGradient>
<radialGradient id="paint7_radial" cx="0" cy="0" r="1" gradientUnits="userSpaceOnUse" gradientTransform="translate(363.553 216.761) rotate(124.692) scale(25.4095 31.3059)">
<stop stop-color="#FFD600"/>
<stop offset="1" stop-color="#9216CC"/>
</radialGradient>
<radialGradient id="paint8_diamond" cx="0" cy="0" r="1" gradientUnits="userSpaceOnUse" gradientTransform="translate(364.262 215.934) rotate(125.038) scale(160.793 92.854)">
<stop stop-color="#FFB084"/>
<stop offset="0.483887" stop-color="#FF2459" stop-opacity="0.24"/>
<stop offset="1" stop-color="#1524DA" stop-opacity="0.1"/>
</radialGradient>
<radialGradient id="paint9_diamond" cx="0" cy="0" r="1" gradientUnits="userSpaceOnUse" gradientTransform="translate(357.151 224.315) rotate(123.247) scale(276.723 138.787)">
<stop stop-color="#FFAD62"/>
<stop offset="0.483887" stop-color="#FF2459" stop-opacity="0"/>
<stop offset="1" stop-color="#1524DA" stop-opacity="0"/>
</radialGradient>
<radialGradient id="paint10_radial" cx="0" cy="0" r="1" gradientUnits="userSpaceOnUse" gradientTransform="translate(372.403 203.255) rotate(124.625) scale(63.8602 62.6711)">
<stop stop-color="#00CCFF"/>
<stop offset="1" stop-color="#684EF4"/>
</radialGradient>
<linearGradient id="paint11_linear" x1="440.745" y1="307.629" x2="453.605" y2="284.538" gradientUnits="userSpaceOnUse">
<stop stop-color="#684EF4"/>
<stop offset="1" stop-color="#00CCFF"/>
</linearGradient>
<linearGradient id="paint12_linear" x1="440.745" y1="307.629" x2="453.605" y2="284.538" gradientUnits="userSpaceOnUse">
<stop stop-color="#684EF4"/>
<stop offset="1" stop-color="#00CCFF"/>
</linearGradient>
<linearGradient id="paint13_linear" x1="440.745" y1="307.629" x2="453.605" y2="284.538" gradientUnits="userSpaceOnUse">
<stop stop-color="#684EF4"/>
<stop offset="1" stop-color="#00CCFF"/>
</linearGradient>
<linearGradient id="paint14_linear" x1="438.145" y1="314.01" x2="451.005" y2="290.919" gradientUnits="userSpaceOnUse">
<stop stop-color="#684EF4"/>
<stop offset="1" stop-color="#00CCFF"/>
</linearGradient>
<linearGradient id="paint15_linear" x1="438.145" y1="314.01" x2="451.005" y2="290.919" gradientUnits="userSpaceOnUse">
<stop stop-color="#684EF4"/>
<stop offset="1" stop-color="#00CCFF"/>
</linearGradient>
<linearGradient id="paint16_linear" x1="438.145" y1="314.01" x2="451.005" y2="290.919" gradientUnits="userSpaceOnUse">
<stop stop-color="#684EF4"/>
<stop offset="1" stop-color="#00CCFF"/>
</linearGradient>
<linearGradient id="paint17_linear" x1="255.949" y1="168.05" x2="275.395" y2="147.964" gradientUnits="userSpaceOnUse">
<stop stop-color="#684EF4"/>
<stop offset="1" stop-color="#00CCFF"/>
</linearGradient>
<linearGradient id="paint18_linear" x1="255.949" y1="168.05" x2="275.395" y2="147.964" gradientUnits="userSpaceOnUse">
<stop stop-color="#684EF4"/>
<stop offset="1" stop-color="#00CCFF"/>
</linearGradient>
<linearGradient id="paint19_linear" x1="255.949" y1="168.05" x2="275.395" y2="147.964" gradientUnits="userSpaceOnUse">
<stop stop-color="#684EF4"/>
<stop offset="1" stop-color="#00CCFF"/>
</linearGradient>
<linearGradient id="paint20_linear" x1="253.35" y1="174.431" x2="272.795" y2="154.346" gradientUnits="userSpaceOnUse">
<stop stop-color="#684EF4"/>
<stop offset="1" stop-color="#00CCFF"/>
</linearGradient>
<linearGradient id="paint21_linear" x1="253.35" y1="174.431" x2="272.795" y2="154.346" gradientUnits="userSpaceOnUse">
<stop stop-color="#684EF4"/>
<stop offset="1" stop-color="#00CCFF"/>
</linearGradient>
<linearGradient id="paint22_linear" x1="253.35" y1="174.431" x2="272.795" y2="154.346" gradientUnits="userSpaceOnUse">
<stop stop-color="#684EF4"/>
<stop offset="1" stop-color="#00CCFF"/>
</linearGradient>
<linearGradient id="paint23_linear" x1="273.142" y1="141.659" x2="291.935" y2="122.208" gradientUnits="userSpaceOnUse">
<stop stop-color="#684EF4"/>
<stop offset="1" stop-color="#00CCFF"/>
</linearGradient>
<linearGradient id="paint24_linear" x1="273.142" y1="141.659" x2="291.935" y2="122.208" gradientUnits="userSpaceOnUse">
<stop stop-color="#684EF4"/>
<stop offset="1" stop-color="#00CCFF"/>
</linearGradient>
<linearGradient id="paint25_linear" x1="273.142" y1="141.659" x2="291.935" y2="122.208" gradientUnits="userSpaceOnUse">
<stop stop-color="#684EF4"/>
<stop offset="1" stop-color="#00CCFF"/>
</linearGradient>
<linearGradient id="paint26_linear" x1="270.543" y1="148.039" x2="289.335" y2="128.589" gradientUnits="userSpaceOnUse">
<stop stop-color="#684EF4"/>
<stop offset="1" stop-color="#00CCFF"/>
</linearGradient>
<linearGradient id="paint27_linear" x1="270.543" y1="148.039" x2="289.335" y2="128.589" gradientUnits="userSpaceOnUse">
<stop stop-color="#684EF4"/>
<stop offset="1" stop-color="#00CCFF"/>
</linearGradient>
<linearGradient id="paint28_linear" x1="270.543" y1="148.039" x2="289.335" y2="128.589" gradientUnits="userSpaceOnUse">
<stop stop-color="#684EF4"/>
<stop offset="1" stop-color="#00CCFF"/>
</linearGradient>
<linearGradient id="paint29_linear" x1="464.582" y1="286.943" x2="477.282" y2="263.703" gradientUnits="userSpaceOnUse">
<stop stop-color="#684EF4"/>
<stop offset="1" stop-color="#00CCFF"/>
</linearGradient>
<linearGradient id="paint30_linear" x1="464.582" y1="286.943" x2="477.282" y2="263.703" gradientUnits="userSpaceOnUse">
<stop stop-color="#684EF4"/>
<stop offset="1" stop-color="#00CCFF"/>
</linearGradient>
<linearGradient id="paint31_linear" x1="464.582" y1="286.943" x2="477.282" y2="263.703" gradientUnits="userSpaceOnUse">
<stop stop-color="#684EF4"/>
<stop offset="1" stop-color="#00CCFF"/>
</linearGradient>
<linearGradient id="paint32_linear" x1="461.983" y1="293.324" x2="474.683" y2="270.085" gradientUnits="userSpaceOnUse">
<stop stop-color="#684EF4"/>
<stop offset="1" stop-color="#00CCFF"/>
</linearGradient>
<linearGradient id="paint33_linear" x1="461.983" y1="293.324" x2="474.683" y2="270.085" gradientUnits="userSpaceOnUse">
<stop stop-color="#684EF4"/>
<stop offset="1" stop-color="#00CCFF"/>
</linearGradient>
<linearGradient id="paint34_linear" x1="461.983" y1="293.324" x2="474.683" y2="270.085" gradientUnits="userSpaceOnUse">
<stop stop-color="#684EF4"/>
<stop offset="1" stop-color="#00CCFF"/>
</linearGradient>
</defs>
</svg>
