<svg width="1440" height="1409" viewBox="0 0 1440 1409" fill="none" xmlns="http://www.w3.org/2000/svg">
<rect y="-0.298828" width="1440" height="1408.38" fill="url(#paint0_radial)"/>
<path d="M803.267 219.815L644.096 112.868" stroke="url(#paint1_radial)" stroke-width="2" stroke-linecap="round"/>
<path d="M104.392 669.918L-10.4236 823.51" stroke="url(#paint2_radial)" stroke-width="2" stroke-linecap="round"/>
<path d="M692.48 196.701L602.647 131.034" stroke="url(#paint3_radial)" stroke-width="2" stroke-linecap="round"/>
<path d="M171.76 897.912L121.274 997.075" stroke="url(#paint4_radial)" stroke-width="2" stroke-linecap="round"/>
<circle r="0.473168" transform="matrix(-0.204848 -0.978794 -0.978794 0.204848 751.595 27.6455)" fill="white"/>
<circle r="0.473168" transform="matrix(-0.204848 -0.978794 -0.978794 0.204848 353.43 83.9043)" fill="white"/>
<circle r="0.473168" transform="matrix(-0.204848 -0.978794 -0.978794 0.204848 625.837 119.71)" fill="white"/>
<circle r="0.473168" transform="matrix(0.9685 -0.249013 -0.249013 -0.9685 915.036 321.051)" fill="white"/>
<circle r="0.946335" transform="matrix(-0.204848 -0.978794 -0.978794 0.204848 764.607 8.96974)" fill="white"/>
<circle r="0.946335" transform="matrix(-0.204848 -0.978794 -0.978794 0.204848 348.302 195.681)" fill="white"/>
<circle r="0.946335" transform="matrix(0.9685 -0.249013 -0.249013 -0.9685 1291.59 358.587)" fill="white"/>
<circle r="1.4195" transform="matrix(0.9685 -0.249013 -0.249013 -0.9685 870.651 308.034)" fill="white"/>
<circle r="1.4195" transform="matrix(-0.204848 -0.978794 -0.978794 0.204848 584.458 79.062)" fill="white"/>
<circle r="1.4195" transform="matrix(-0.204848 -0.978794 -0.978794 0.204848 356.963 105.402)" fill="white"/>
<circle r="1.4195" transform="matrix(-0.204848 -0.978794 -0.978794 0.204848 631.373 178.496)" fill="white"/>
<circle r="1.4195" transform="matrix(-0.204848 -0.978794 -0.978794 0.204848 140.217 109.19)" fill="white"/>
<circle r="1.4195" transform="matrix(0.9685 -0.249013 -0.249013 -0.9685 1274.05 326.455)" fill="white"/>
<circle r="2.36584" transform="matrix(-0.204848 -0.978794 -0.978794 0.204848 669.826 15.7544)" fill="white"/>
<circle r="2.36584" transform="matrix(0.9685 -0.249013 -0.249013 -0.9685 1050.26 360.543)" fill="white"/>
<circle r="2.36584" transform="matrix(-0.204848 -0.978794 -0.978794 0.204848 377.341 59.5635)" fill="white"/>
<circle r="2.36584" transform="matrix(-0.204848 -0.978794 -0.978794 0.204848 856.241 65.689)" fill="white"/>
<circle r="2.36584" transform="matrix(-0.204848 -0.978794 -0.978794 0.204848 609.487 180.176)" fill="white"/>
<circle r="2.36584" transform="matrix(0.9685 -0.249013 -0.249013 -0.9685 1211.46 337.662)" fill="white"/>
<circle r="0.473168" transform="matrix(0.204848 0.978794 0.978794 -0.204848 625.12 1206.23)" fill="white"/>
<circle r="0.473168" transform="matrix(0.204848 0.978794 0.978794 -0.204848 803.267 1222.62)" fill="white"/>
<circle r="0.473168" transform="matrix(0.836961 0.547262 0.547262 -0.836961 133.902 963.731)" fill="white"/>
<circle r="0.473168" transform="matrix(0.204848 0.978794 0.978794 -0.204848 1078.48 1031.6)" fill="white"/>
<circle r="0.473168" transform="matrix(0.204848 0.978794 0.978794 -0.204848 806.071 995.79)" fill="white"/>
<circle r="0.473168" transform="matrix(-0.9685 0.249013 0.249013 0.9685 516.872 794.45)" fill="white"/>
<circle r="0.946335" transform="matrix(0.204848 0.978794 0.978794 -0.204848 612.109 1224.91)" fill="white"/>
<circle r="0.946335" transform="matrix(0.836961 0.547262 0.547262 -0.836961 19.7377 1127.09)" fill="white"/>
<circle r="0.946335" transform="matrix(0.204848 0.978794 0.978794 -0.204848 1234.83 903.511)" fill="white"/>
<circle r="0.946335" transform="matrix(-0.9685 0.249013 0.249013 0.9685 140.315 756.914)" fill="white"/>
<circle r="0.946335" transform="matrix(0.204848 0.978794 0.978794 -0.204848 1070.48 1259.03)" fill="white"/>
<circle r="0.946335" transform="matrix(0.836961 0.547262 0.547262 -0.836961 288.675 850.668)" fill="white"/>
<circle r="0.946335" transform="matrix(0.836961 0.547262 0.547262 -0.836961 250.778 839.457)" fill="white"/>
<circle r="0.946335" transform="matrix(0.204848 0.978794 0.978794 -0.204848 1120.7 1207.91)" fill="white"/>
<circle r="1.4195" transform="matrix(0.204848 0.978794 0.978794 -0.204848 757.664 1249.56)" fill="white"/>
<circle r="1.4195" transform="matrix(-0.9685 0.249013 0.249013 0.9685 561.257 807.466)" fill="white"/>
<circle r="1.4195" transform="matrix(0.204848 0.978794 0.978794 -0.204848 847.451 1036.44)" fill="white"/>
<circle r="1.4195" transform="matrix(0.204848 0.978794 0.978794 -0.204848 1074.95 1010.1)" fill="white"/>
<circle r="1.4195" transform="matrix(0.204848 0.978794 0.978794 -0.204848 685.892 713.945)" fill="white"/>
<circle r="1.4195" transform="matrix(0.204848 0.978794 0.978794 -0.204848 1291.69 1006.31)" fill="white"/>
<circle r="1.4195" transform="matrix(-0.9685 0.249013 0.249013 0.9685 157.859 789.045)" fill="white"/>
<circle r="2.36584" transform="matrix(0.204848 0.978794 0.978794 -0.204848 762.082 1099.75)" fill="white"/>
<circle r="2.36584" transform="matrix(-0.9685 0.249013 0.249013 0.9685 381.648 754.957)" fill="white"/>
<circle r="2.36584" transform="matrix(0.204848 0.978794 0.978794 -0.204848 1281.31 1145.26)" fill="white"/>
<circle r="2.36584" transform="matrix(-0.321617 0.94687 0.94687 0.321617 606.45 1322.37)" fill="white"/>
<circle r="2.36584" transform="matrix(0.204848 0.978794 0.978794 -0.204848 1115.83 1223.91)" fill="white"/>
<circle r="2.36584" transform="matrix(0.204848 0.978794 0.978794 -0.204848 575.667 1049.81)" fill="white"/>
<circle r="2.36584" transform="matrix(0.204848 0.978794 0.978794 -0.204848 707.778 712.264)" fill="white"/>
<circle r="2.36584" transform="matrix(-0.9685 0.249013 0.249013 0.9685 220.444 777.839)" fill="white"/>
<path d="M1440 1404.46H0V0.0839844H1440V1404.46Z" fill="url(#paint5_linear)"/>
<path d="M0 -0.298828H1440V1408.15H0V-0.298828Z" fill="url(#paint6_linear)" fill-opacity="0.8"/>
<defs>
<radialGradient id="paint0_radial" cx="0" cy="0" r="1" gradientUnits="userSpaceOnUse" gradientTransform="translate(900.41 833.735) rotate(-133.509) scale(2419.88 4957.06)">
<stop offset="0.583812" stop-color="#0B0238"/>
<stop offset="1" stop-color="#4122FF"/>
</radialGradient>
<radialGradient id="paint1_radial" cx="0" cy="0" r="1" gradientUnits="userSpaceOnUse" gradientTransform="translate(802.126 218.601) rotate(-70.4286) scale(248.791 68.2499)">
<stop stop-color="white"/>
<stop offset="1" stop-color="white" stop-opacity="0"/>
</radialGradient>
<radialGradient id="paint2_radial" cx="0" cy="0" r="1" gradientUnits="userSpaceOnUse" gradientTransform="translate(103.122 670.996) rotate(-157.546) scale(248.791 68.2499)">
<stop stop-color="white"/>
<stop offset="1" stop-color="white" stop-opacity="0"/>
</radialGradient>
<radialGradient id="paint3_radial" cx="0" cy="0" r="1" gradientUnits="userSpaceOnUse" gradientTransform="translate(694.453 196.104) rotate(-144.473) scale(112.837 30.9542)">
<stop stop-color="white"/>
<stop offset="1" stop-color="white" stop-opacity="0"/>
</radialGradient>
<radialGradient id="paint4_radial" cx="0" cy="0" r="1" gradientUnits="userSpaceOnUse" gradientTransform="translate(170.855 896.059) rotate(116.343) scale(112.837 30.9542)">
<stop stop-color="white"/>
<stop offset="1" stop-color="white" stop-opacity="0"/>
</radialGradient>
<linearGradient id="paint5_linear" x1="361.894" y1="905.497" x2="-1436.66" y2="2277.38" gradientUnits="userSpaceOnUse">
<stop stop-color="#001AFF" stop-opacity="0"/>
<stop offset="1" stop-color="#1A00BB"/>
</linearGradient>
<linearGradient id="paint6_linear" x1="1032.51" y1="703.924" x2="3062.84" y2="84.1088" gradientUnits="userSpaceOnUse">
<stop stop-color="#FF3389" stop-opacity="0"/>
<stop offset="1" stop-color="#FF3389"/>
</linearGradient>
</defs>
</svg>
