<svg width="1440" height="1025" viewBox="0 0 1440 1025" fill="none" xmlns="http://www.w3.org/2000/svg">
<rect y="0.929688" width="1440" height="1024" fill="url(#paint0_radial)"/>
<path d="M1181.14 829.662L1307.2 974.162" stroke="url(#paint1_radial)" stroke-width="2" stroke-linecap="round"/>
<path d="M102.635 238.123L30.6265 166.123" stroke="url(#paint2_radial)" stroke-width="2" stroke-linecap="round"/>
<path d="M1282.17 880.662L1351.94 967.342" stroke="url(#paint3_radial)" stroke-width="2" stroke-linecap="round"/>
<path d="M190.684 311.123L17.6842 234.623" stroke="url(#paint4_radial)" stroke-width="2" stroke-linecap="round"/>
<path d="M1155.06 166.123L1083.05 238.123" stroke="url(#paint5_radial)" stroke-width="2" stroke-linecap="round"/>
<path d="M1243.11 93.1228L1070.11 169.623" stroke="url(#paint6_radial)" stroke-width="2" stroke-linecap="round"/>
<circle cx="662.48" cy="389.622" r="0.473168" transform="rotate(101.821 662.48 389.622)" fill="white"/>
<circle cx="539.526" cy="524.385" r="0.473168" transform="rotate(101.821 539.526 524.385)" fill="white"/>
<circle cx="333.208" cy="641.7" r="0.473168" transform="rotate(101.821 333.208 641.7)" fill="white"/>
<circle cx="264.315" cy="333.364" r="0.473168" transform="rotate(101.821 264.315 333.364)" fill="white"/>
<circle cx="536.722" cy="297.558" r="0.473168" transform="rotate(101.821 536.722 297.558)" fill="white"/>
<circle cx="825.921" cy="96.2174" r="0.473168" transform="rotate(14.4191 825.921 96.2174)" fill="white"/>
<circle cx="675.491" cy="408.298" r="0.946335" transform="rotate(101.821 675.491 408.298)" fill="white"/>
<circle cx="529.447" cy="676.486" r="0.946335" transform="rotate(101.821 529.447 676.486)" fill="white"/>
<circle cx="259.186" cy="221.587" r="0.946335" transform="rotate(101.821 259.186 221.587)" fill="white"/>
<circle cx="1202.48" cy="58.6815" r="0.946335" transform="rotate(14.4191 1202.48 58.6815)" fill="white"/>
<circle cx="272.31" cy="560.793" r="0.946335" transform="rotate(101.821 272.31 560.793)" fill="white"/>
<circle cx="143.82" cy="671.193" r="0.946335" transform="rotate(101.821 143.82 671.193)" fill="white"/>
<circle cx="162.689" cy="636.469" r="0.946335" transform="rotate(101.821 162.689 636.469)" fill="white"/>
<circle cx="222.097" cy="509.677" r="0.946335" transform="rotate(101.821 222.097 509.677)" fill="white"/>
<circle cx="585.129" cy="551.332" r="1.4195" transform="rotate(101.821 585.129 551.332)" fill="white"/>
<circle cx="781.536" cy="109.233" r="1.4195" transform="rotate(14.4191 781.536 109.233)" fill="white"/>
<circle cx="495.342" cy="338.206" r="1.4195" transform="rotate(101.821 495.342 338.206)" fill="white"/>
<circle cx="267.847" cy="311.865" r="1.4195" transform="rotate(101.821 267.847 311.865)" fill="white"/>
<circle cx="542.257" cy="238.772" r="1.4195" transform="rotate(101.821 542.257 238.772)" fill="white"/>
<circle cx="51.1016" cy="308.078" r="1.4195" transform="rotate(101.821 51.1016 308.078)" fill="white"/>
<circle cx="1184.93" cy="90.8125" r="1.4195" transform="rotate(14.4191 1184.93 90.8125)" fill="white"/>
<circle cx="580.711" cy="401.514" r="2.36584" transform="rotate(101.821 580.711 401.514)" fill="white"/>
<circle cx="961.146" cy="56.7247" r="2.36584" transform="rotate(14.4191 961.146 56.7247)" fill="white"/>
<circle cx="288.226" cy="357.704" r="2.36584" transform="rotate(101.821 288.226 357.704)" fill="white"/>
<circle cx="702.854" cy="734.461" r="2.36584" transform="rotate(71.2393 702.854 734.461)" fill="white"/>
<circle cx="736.343" cy="624.142" r="2.36584" transform="rotate(71.2393 736.343 624.142)" fill="white"/>
<circle cx="226.966" cy="525.682" r="2.36584" transform="rotate(101.821 226.966 525.682)" fill="white"/>
<circle cx="767.126" cy="351.579" r="2.36584" transform="rotate(101.821 767.126 351.579)" fill="white"/>
<circle cx="520.372" cy="237.092" r="2.36584" transform="rotate(101.821 520.372 237.092)" fill="white"/>
<circle cx="1122.35" cy="79.6068" r="2.36584" transform="rotate(14.4191 1122.35 79.6068)" fill="white"/>
<ellipse cx="289.673" cy="351.237" rx="17.8753" ry="17.4349" fill="black" fill-opacity="0.3"/>
<defs>
<radialGradient id="paint0_radial" cx="0" cy="0" r="1" gradientUnits="userSpaceOnUse" gradientTransform="translate(882.488 789.019) rotate(-138.507) scale(2200.28 4357.47)">
<stop offset="0.339769" stop-color="#0B0238"/>
<stop offset="1" stop-color="#4122FF"/>
</radialGradient>
<radialGradient id="paint1_radial" cx="0" cy="0" r="1" gradientUnits="userSpaceOnUse" gradientTransform="translate(1181.93 831.13) rotate(124.571) scale(248.791 68.2499)">
<stop stop-color="white"/>
<stop offset="1" stop-color="white" stop-opacity="0"/>
</radialGradient>
<radialGradient id="paint2_radial" cx="0" cy="0" r="1" gradientUnits="userSpaceOnUse" gradientTransform="translate(102.037 236.568) rotate(-48.2586) scale(248.791 68.2499)">
<stop stop-color="white"/>
<stop offset="1" stop-color="white" stop-opacity="0"/>
</radialGradient>
<radialGradient id="paint3_radial" cx="0" cy="0" r="1" gradientUnits="userSpaceOnUse" gradientTransform="translate(1280.11 880.728) rotate(50.5274) scale(112.837 30.9542)">
<stop stop-color="white"/>
<stop offset="1" stop-color="white" stop-opacity="0"/>
</radialGradient>
<radialGradient id="paint4_radial" cx="0" cy="0" r="1" gradientUnits="userSpaceOnUse" gradientTransform="translate(189.71 309.771) rotate(-144.019) scale(186.632 113.033)">
<stop stop-color="white"/>
<stop offset="0.941699" stop-color="white" stop-opacity="0"/>
</radialGradient>
<radialGradient id="paint5_radial" cx="0" cy="0" r="1" gradientUnits="userSpaceOnUse" gradientTransform="translate(1154.46 167.678) rotate(48.2586) scale(248.791 68.2499)">
<stop stop-color="white"/>
<stop offset="1" stop-color="white" stop-opacity="0"/>
</radialGradient>
<radialGradient id="paint6_radial" cx="0" cy="0" r="1" gradientUnits="userSpaceOnUse" gradientTransform="translate(1242.13 94.4743) rotate(144.019) scale(186.632 113.033)">
<stop stop-color="white"/>
<stop offset="0.941699" stop-color="white" stop-opacity="0"/>
</radialGradient>
</defs>
</svg>
