<svg width="1357" height="923" viewBox="0 0 1357 923" fill="none" xmlns="http://www.w3.org/2000/svg">
<path d="M1165.14 776.662L1291.2 921.162" stroke="url(#paint0_radial)" stroke-width="2" stroke-linecap="round"/>
<path d="M86.6352 185.123L14.6265 113.123" stroke="url(#paint1_radial)" stroke-width="2" stroke-linecap="round"/>
<path d="M1266.17 827.662L1335.94 914.342" stroke="url(#paint2_radial)" stroke-width="2" stroke-linecap="round"/>
<path d="M174.684 258.123L1.6842 181.623" stroke="url(#paint3_radial)" stroke-width="2" stroke-linecap="round"/>
<path d="M1139.06 113.123L1067.05 185.123" stroke="url(#paint4_radial)" stroke-width="2" stroke-linecap="round"/>
<path d="M1227.11 40.1228L1054.11 116.623" stroke="url(#paint5_radial)" stroke-width="2" stroke-linecap="round"/>
<circle cx="646.48" cy="336.622" r="0.473168" transform="rotate(101.821 646.48 336.622)" fill="white"/>
<circle cx="523.526" cy="471.385" r="0.473168" transform="rotate(101.821 523.526 471.385)" fill="white"/>
<circle cx="317.208" cy="588.7" r="0.473168" transform="rotate(101.821 317.208 588.7)" fill="white"/>
<circle cx="248.315" cy="280.364" r="0.473168" transform="rotate(101.821 248.315 280.364)" fill="white"/>
<circle cx="520.722" cy="244.558" r="0.473168" transform="rotate(101.821 520.722 244.558)" fill="white"/>
<circle cx="809.921" cy="43.2174" r="0.473168" transform="rotate(14.4191 809.921 43.2174)" fill="white"/>
<circle cx="659.491" cy="355.298" r="0.946335" transform="rotate(101.821 659.491 355.298)" fill="white"/>
<circle cx="513.447" cy="623.486" r="0.946335" transform="rotate(101.821 513.447 623.486)" fill="white"/>
<circle cx="243.186" cy="168.587" r="0.946335" transform="rotate(101.821 243.186 168.587)" fill="white"/>
<circle cx="1186.48" cy="5.68147" r="0.946335" transform="rotate(14.4191 1186.48 5.68147)" fill="white"/>
<circle cx="256.31" cy="507.793" r="0.946335" transform="rotate(101.821 256.31 507.793)" fill="white"/>
<circle cx="127.82" cy="618.193" r="0.946335" transform="rotate(101.821 127.82 618.193)" fill="white"/>
<circle cx="146.689" cy="583.469" r="0.946335" transform="rotate(101.821 146.689 583.469)" fill="white"/>
<circle cx="206.097" cy="456.677" r="0.946335" transform="rotate(101.821 206.097 456.677)" fill="white"/>
<circle cx="569.129" cy="498.332" r="1.4195" transform="rotate(101.821 569.129 498.332)" fill="white"/>
<circle cx="765.536" cy="56.2334" r="1.4195" transform="rotate(14.4191 765.536 56.2334)" fill="white"/>
<circle cx="479.342" cy="285.206" r="1.4195" transform="rotate(101.821 479.342 285.206)" fill="white"/>
<circle cx="251.847" cy="258.865" r="1.4195" transform="rotate(101.821 251.847 258.865)" fill="white"/>
<circle cx="526.257" cy="185.772" r="1.4195" transform="rotate(101.821 526.257 185.772)" fill="white"/>
<circle cx="35.1016" cy="255.078" r="1.4195" transform="rotate(101.821 35.1016 255.078)" fill="white"/>
<circle cx="1168.93" cy="37.8125" r="1.4195" transform="rotate(14.4191 1168.93 37.8125)" fill="white"/>
<circle cx="564.711" cy="348.514" r="2.36584" transform="rotate(101.821 564.711 348.514)" fill="white"/>
<circle cx="945.146" cy="3.72468" r="2.36584" transform="rotate(14.4191 945.146 3.72468)" fill="white"/>
<circle cx="272.226" cy="304.704" r="2.36584" transform="rotate(101.821 272.226 304.704)" fill="white"/>
<circle cx="686.854" cy="681.461" r="2.36584" transform="rotate(71.2393 686.854 681.461)" fill="white"/>
<circle cx="720.343" cy="571.142" r="2.36584" transform="rotate(71.2393 720.343 571.142)" fill="white"/>
<circle cx="210.966" cy="472.682" r="2.36584" transform="rotate(101.821 210.966 472.682)" fill="white"/>
<circle cx="751.126" cy="298.579" r="2.36584" transform="rotate(101.821 751.126 298.579)" fill="white"/>
<circle cx="504.372" cy="184.092" r="2.36584" transform="rotate(101.821 504.372 184.092)" fill="white"/>
<circle cx="1106.35" cy="26.6068" r="2.36584" transform="rotate(14.4191 1106.35 26.6068)" fill="white"/>
<defs>
<radialGradient id="paint0_radial" cx="0" cy="0" r="1" gradientUnits="userSpaceOnUse" gradientTransform="translate(1165.93 778.13) rotate(124.571) scale(248.791 68.2499)">
<stop stop-color="white"/>
<stop offset="1" stop-color="white" stop-opacity="0"/>
</radialGradient>
<radialGradient id="paint1_radial" cx="0" cy="0" r="1" gradientUnits="userSpaceOnUse" gradientTransform="translate(86.0367 183.568) rotate(-48.2586) scale(248.791 68.2499)">
<stop stop-color="white"/>
<stop offset="1" stop-color="white" stop-opacity="0"/>
</radialGradient>
<radialGradient id="paint2_radial" cx="0" cy="0" r="1" gradientUnits="userSpaceOnUse" gradientTransform="translate(1264.11 827.728) rotate(50.5274) scale(112.837 30.9542)">
<stop stop-color="white"/>
<stop offset="1" stop-color="white" stop-opacity="0"/>
</radialGradient>
<radialGradient id="paint3_radial" cx="0" cy="0" r="1" gradientUnits="userSpaceOnUse" gradientTransform="translate(173.71 256.771) rotate(-144.019) scale(186.632 113.033)">
<stop stop-color="white"/>
<stop offset="0.941699" stop-color="white" stop-opacity="0"/>
</radialGradient>
<radialGradient id="paint4_radial" cx="0" cy="0" r="1" gradientUnits="userSpaceOnUse" gradientTransform="translate(1138.46 114.678) rotate(48.2586) scale(248.791 68.2499)">
<stop stop-color="white"/>
<stop offset="1" stop-color="white" stop-opacity="0"/>
</radialGradient>
<radialGradient id="paint5_radial" cx="0" cy="0" r="1" gradientUnits="userSpaceOnUse" gradientTransform="translate(1226.13 41.4743) rotate(144.019) scale(186.632 113.033)">
<stop stop-color="white"/>
<stop offset="0.941699" stop-color="white" stop-opacity="0"/>
</radialGradient>
</defs>
</svg>
