<svg width="193" height="200" viewBox="0 0 193 200" fill="none" xmlns="http://www.w3.org/2000/svg">
<g opacity="0.8">
<g filter="url(#filter0_d)">
<path d="M85.5837 22.4522C89.2339 20.4014 93.6891 20.4014 97.3393 22.4522L156.535 55.7103C160.317 57.8348 162.657 61.8347 162.657 66.1722V132.128C162.657 136.465 160.317 140.465 156.535 142.59L97.3393 175.848C93.6891 177.898 89.2339 177.898 85.5837 175.848L26.3878 142.59C22.6063 140.465 20.2656 136.465 20.2656 132.128V66.1722C20.2656 61.8347 22.6063 57.8348 26.3878 55.7103L85.5837 22.4522Z" fill="url(#paint0_radial)"/>
<path d="M86.196 23.542C89.466 21.7048 93.4571 21.7048 96.7271 23.542L155.923 56.8001C159.311 58.7033 161.407 62.2865 161.407 66.1722V132.128C161.407 136.013 159.311 139.596 155.923 141.5L96.7271 174.758C93.4571 176.595 89.466 176.595 86.196 174.758L27.0001 141.5C23.6125 139.596 21.5156 136.013 21.5156 132.128V66.1722C21.5156 62.2865 23.6125 58.7033 27.0001 56.8001L86.196 23.542Z" stroke="url(#paint1_radial)" stroke-width="2.5"/>
</g>
<g clip-path="url(#clip0)">
<path d="M77.1506 104.832L68.7943 102.593C67.0348 102.122 66.0725 100.233 66.7344 98.5466L71.4922 86.409L82.9063 89.4674L80.9579 102.358C80.6866 104.149 78.9101 105.304 77.1506 104.832Z" fill="#372885"/>
<path d="M77.1492 104.833L71.6066 103.348C73.3683 103.82 75.1432 102.663 75.4139 100.873L77.3626 87.9819L82.9052 89.467L80.9575 102.359C80.6868 104.148 78.9086 105.305 77.1492 104.833Z" fill="#180F44"/>
<path d="M106.864 112.794L98.5081 110.555C96.7487 110.084 95.7874 108.196 96.4483 106.508L101.207 94.3711L112.62 97.4292L110.673 110.32C110.402 112.111 108.625 113.266 106.864 112.794Z" fill="#372885"/>
<path d="M106.865 112.796L101.322 111.31C103.081 111.782 104.859 110.625 105.129 108.836L107.078 95.9441L112.621 97.4295L110.673 110.321C110.402 112.11 108.624 113.267 106.865 112.796Z" fill="#180F44"/>
<path d="M118.971 100.275L127.239 92.4591L61.3171 74.7954L64.569 85.6978C64.8717 86.7128 65.683 87.4991 66.7105 87.7744L116.078 101.003C117.106 101.278 118.202 101.003 118.971 100.275Z" fill="#7DA2B0"/>
<path d="M118.971 100.275L127.239 92.4591L61.3171 74.7954L64.569 85.6978C64.8717 86.7128 65.683 87.4991 66.7105 87.7744L116.078 101.003C117.106 101.278 118.202 101.003 118.971 100.275Z" fill="url(#paint2_linear)"/>
<path d="M75.9998 92.7279C74.7776 92.4004 74.0498 91.1498 74.3758 89.9335L77.2407 79.2413C77.5667 78.0249 78.8222 77.3058 80.0444 77.6332C81.2667 77.9607 81.9944 79.2113 81.6685 80.4277L78.8035 91.1199C78.4776 92.3362 77.222 93.0554 75.9998 92.7279Z" fill="url(#paint3_linear)"/>
<path d="M105.557 100.648C104.335 100.32 103.607 99.0695 103.933 97.8532L106.798 87.1609C107.124 85.9446 108.379 85.2254 109.602 85.5529C110.824 85.8804 111.552 87.131 111.226 88.3473L108.361 99.0396C108.035 100.256 106.779 100.975 105.557 100.648Z" fill="#557983"/>
<path d="M105.557 100.648C104.335 100.32 103.607 99.0695 103.933 97.8532L106.798 87.1609C107.124 85.9446 108.379 85.2254 109.602 85.5529C110.824 85.8804 111.552 87.131 111.226 88.3473L108.361 99.0396C108.035 100.256 106.779 100.975 105.557 100.648Z" fill="url(#paint4_linear)"/>
<path d="M96.472 60.6562L90.3374 83.5508L49.5385 72.6187L52.687 60.8682L82.0905 60.7256L96.472 60.6562Z" fill="#301270"/>
<path d="M82.0904 60.7256L96.472 60.6562L90.3374 83.5508L73.9079 79.1485L82.0904 60.7256Z" fill="#180F44"/>
<path d="M141.676 84.7128L138.528 96.4634L97.7289 85.5313L103.863 62.6367L116.284 69.8876L141.676 84.7128Z" fill="#301270"/>
<path d="M114.158 89.9336L97.7289 85.5313L103.863 62.6367L116.284 69.8876L114.158 89.9336Z" fill="#180F44"/>
<path d="M109.678 88.7342L78.3879 80.3501L94.7375 43.5394L96.6111 39.323L101.333 28.6893L107.769 14.1972C108.378 12.8326 109.898 12.1104 111.35 12.4994L115.057 13.4926C116.51 13.8819 117.464 15.2672 117.309 16.7536L115.637 32.5221L114.411 44.0923L113.924 48.6804L109.678 88.7342Z" fill="#301270"/>
<path d="M115.637 32.5211L101.333 28.6883L107.769 14.1973C108.378 12.8316 109.898 12.1091 111.35 12.4984L115.057 13.4916C116.509 13.8806 117.464 15.2662 117.309 16.7537L115.637 32.5211Z" fill="#FF557E"/>
<path d="M99.5765 86.0275L88.4892 83.0566L91.9946 74.0842L93.6644 69.8131L98.3456 57.8315C98.8558 56.5274 100.271 55.8153 101.632 56.18C102.311 56.3617 102.868 56.7842 103.23 57.3346C103.593 57.8849 103.759 58.5617 103.653 59.2536L101.716 71.9706L101.027 76.5044L99.5765 86.0275Z" fill="#00D2F9"/>
<path d="M99.5765 86.0275L88.4892 83.0566L91.9946 74.0842L93.6644 69.8131L98.3456 57.8315C98.8558 56.5274 100.271 55.8153 101.632 56.18C102.311 56.3617 102.868 56.7842 103.23 57.3346C103.593 57.8849 103.759 58.5617 103.653 59.2536L101.716 71.9706L101.027 76.5044L99.5765 86.0275Z" fill="url(#paint5_radial)"/>
<path d="M125.577 84.1002C124.354 83.7724 123.628 82.521 123.953 81.3057L130.254 57.7924C130.579 56.5772 131.834 55.8577 133.057 56.1855C134.279 56.513 135.007 57.7636 134.681 58.9788L128.381 82.4922C128.055 83.7074 126.8 84.4277 125.577 84.1002Z" fill="#A9D3D8"/>
<path d="M125.577 84.1002C124.354 83.7724 123.628 82.521 123.953 81.3057L130.254 57.7924C130.579 56.5772 131.834 55.8577 133.057 56.1855C134.279 56.513 135.007 57.7636 134.681 58.9788L128.381 82.4922C128.055 83.7074 126.8 84.4277 125.577 84.1002Z" fill="#18BBFF"/>
<path d="M66.9354 68.387C65.7131 68.0595 64.9857 66.8078 65.3113 65.5926L71.6117 42.0793C71.9373 40.864 73.1929 40.1449 74.4151 40.4724C75.6384 40.8002 76.3651 42.0504 76.0394 43.2657L69.7391 66.779C69.4134 67.9943 68.1587 68.7148 66.9354 68.387Z" fill="#A9D3D8"/>
<path d="M66.9354 68.387C65.7131 68.0595 64.9857 66.8078 65.3113 65.5926L71.6117 42.0793C71.9373 40.864 73.1929 40.1449 74.4151 40.4724C75.6384 40.8002 76.3651 42.0504 76.0394 43.2657L69.7391 66.779C69.4134 67.9943 68.1587 68.7148 66.9354 68.387Z" fill="#18BBFF"/>
<path d="M137.939 98.6659C136.717 98.3384 135.989 97.0867 136.315 95.8715L142.222 73.826C142.547 72.6107 143.803 71.8905 145.026 72.218C146.248 72.5455 146.975 73.7972 146.65 75.0124L140.743 97.0579C140.417 98.2731 139.161 98.9934 137.939 98.6659Z" fill="#180F44"/>
<path d="M48.9472 74.8207C47.725 74.4932 46.9975 73.2415 47.3231 72.0263L53.2302 49.9808C53.5558 48.7655 54.8117 48.0453 56.0339 48.3727C57.2561 48.7002 57.9836 49.9519 57.658 51.1672L51.7509 73.2127C51.4253 74.4279 50.1694 75.1482 48.9472 74.8207Z" fill="#180F44"/>
<path d="M100.672 78.8893L93.1845 71.0257L94.7442 67.0176L101.362 74.3197L100.672 78.8893Z" fill="#D6F1F2" fill-opacity="0.15"/>
<path d="M113.924 48.6803L94.7376 43.5394L96.6111 39.3229L114.409 44.092L113.924 48.6803Z" fill="#FF557E"/>
<path d="M65.542 110.397L66.441 105.772C66.5438 105.243 66.8329 104.77 67.2557 104.437C67.7034 104.086 68.2684 103.917 68.8363 103.967L71.6191 104.21C72.7422 104.308 73.8249 104.679 74.7728 105.292L76.5972 106.47C77.2847 106.915 77.7227 107.657 77.7785 108.473C77.807 108.89 77.7344 109.307 77.5671 109.688L75.61 114.155L60.8974 143.948L65.542 110.397Z" fill="url(#paint6_diamond)"/>
<path d="M95.5685 118.561L96.3976 113.923C96.4924 113.393 96.7743 112.915 97.192 112.576C97.6343 112.218 98.1968 112.041 98.7654 112.082L101.551 112.284C102.676 112.365 103.764 112.72 104.721 113.318L106.563 114.47C107.257 114.904 107.706 115.639 107.774 116.455C107.809 116.871 107.743 117.289 107.581 117.673L105.692 122.169L91.4308 152.179L95.5685 118.561Z" fill="url(#paint7_diamond)"/>
<g style="mix-blend-mode:hard-light" filter="url(#filter1_f)">
<path d="M64.5617 111.191L65.4465 106.87C65.6101 106.071 66.0619 105.361 66.7158 104.875C67.3142 104.43 68.0452 104.2 68.791 104.222L70.6785 104.278C72.3706 104.328 74.0064 104.902 75.3604 105.921L76.7285 106.951C77.3723 107.435 77.8267 108.13 78.0128 108.913C78.1809 109.622 78.1209 110.364 77.8412 111.035L76.0028 115.447L53.5169 169.459L64.5617 111.191Z" fill="url(#paint8_diamond)"/>
</g>
<g style="mix-blend-mode:hard-light" filter="url(#filter2_f)">
<path d="M94.6003 119.369L95.4199 115.035C95.5714 114.234 96.0124 113.518 96.6589 113.022C97.2504 112.568 97.9779 112.327 98.724 112.338L100.612 112.366C102.304 112.391 103.949 112.94 105.318 113.939L106.701 114.948C107.352 115.423 107.817 116.11 108.015 116.891C108.194 117.597 108.145 118.34 107.875 119.016L106.104 123.454L84.4363 177.798L94.6003 119.369Z" fill="url(#paint9_diamond)"/>
</g>
</g>
<g clip-path="url(#clip1)">
<g filter="url(#filter3_d)">
<rect x="107.395" y="129.74" width="50.6218" height="45" rx="5" transform="rotate(-15 107.395 129.74)" fill="url(#paint10_linear)"/>
</g>
<path d="M152.621 154.764L143.868 159.817C141.444 161.217 138.621 161.588 135.917 160.864L129.747 159.211C128.869 158.976 128.135 158.412 127.68 157.625L127.667 157.601C126.125 154.931 128.667 151.76 131.568 152.652L134.845 153.662C135.774 153.948 136.574 152.945 136.088 152.103L126.971 136.313C126.089 134.784 126.61 132.831 128.141 131.946C129.668 131.065 131.627 131.59 132.509 133.116L135.572 138.422C135.829 138.062 136.166 137.749 136.574 137.514C137.578 136.934 138.77 136.963 139.718 137.485C139.988 136.933 140.418 136.453 140.989 136.124C141.993 135.544 143.185 135.573 144.134 136.095C144.403 135.544 144.834 135.064 145.405 134.734C146.933 133.852 148.887 134.373 149.771 135.904L155.169 145.253C157.092 148.583 155.956 152.838 152.621 154.764Z" fill="#FCD1D6"/>
<path d="M155.169 145.253L149.771 135.904C148.887 134.373 146.933 133.851 145.405 134.734C144.834 135.064 144.403 135.543 144.134 136.095C143.185 135.573 141.993 135.544 140.989 136.124C140.418 136.453 139.988 136.933 139.718 137.485L150.426 156.031L152.621 154.764C155.956 152.838 157.092 148.583 155.169 145.253Z" fill="#FCCFD5"/>
</g>
</g>
<defs>
<filter id="filter0_d" x="0.265633" y="0.914062" width="182.392" height="196.472" filterUnits="userSpaceOnUse" color-interpolation-filters="sRGB">
<feFlood flood-opacity="0" result="BackgroundImageFix"/>
<feColorMatrix in="SourceAlpha" type="matrix" values="0 0 0 0 0 0 0 0 0 0 0 0 0 0 0 0 0 0 127 0"/>
<feOffset/>
<feGaussianBlur stdDeviation="10"/>
<feColorMatrix type="matrix" values="0 0 0 0 0 0 0 0 0 0.352941 0 0 0 0 0.964706 0 0 0 0.5 0"/>
<feBlend mode="normal" in2="BackgroundImageFix" result="effect1_dropShadow"/>
<feBlend mode="normal" in="SourceGraphic" in2="effect1_dropShadow" result="shape"/>
</filter>
<filter id="filter1_f" x="45.5169" y="96.2209" width="40.5892" height="81.2378" filterUnits="userSpaceOnUse" color-interpolation-filters="sRGB">
<feFlood flood-opacity="0" result="BackgroundImageFix"/>
<feBlend mode="normal" in="SourceGraphic" in2="BackgroundImageFix" result="shape"/>
<feGaussianBlur stdDeviation="4" result="effect1_foregroundBlur"/>
</filter>
<filter id="filter2_f" x="76.4362" y="104.338" width="39.6845" height="81.4603" filterUnits="userSpaceOnUse" color-interpolation-filters="sRGB">
<feFlood flood-opacity="0" result="BackgroundImageFix"/>
<feBlend mode="normal" in="SourceGraphic" in2="BackgroundImageFix" result="shape"/>
<feGaussianBlur stdDeviation="4" result="effect1_foregroundBlur"/>
</filter>
<filter id="filter3_d" x="93.5175" y="102.76" width="88.2988" height="84.3236" filterUnits="userSpaceOnUse" color-interpolation-filters="sRGB">
<feFlood flood-opacity="0" result="BackgroundImageFix"/>
<feColorMatrix in="SourceAlpha" type="matrix" values="0 0 0 0 0 0 0 0 0 0 0 0 0 0 0 0 0 0 127 0"/>
<feOffset/>
<feGaussianBlur stdDeviation="7.5"/>
<feColorMatrix type="matrix" values="0 0 0 0 1 0 0 0 0 0.516667 0 0 0 0 0.516667 0 0 0 0.5 0"/>
<feBlend mode="normal" in2="BackgroundImageFix" result="effect1_dropShadow"/>
<feBlend mode="normal" in="SourceGraphic" in2="effect1_dropShadow" result="shape"/>
</filter>
<radialGradient id="paint0_radial" cx="0" cy="0" r="1" gradientUnits="userSpaceOnUse" gradientTransform="translate(5.70864 60.4527) rotate(17.5182) scale(116.215 181.381)">
<stop stop-color="#30B1FF"/>
<stop offset="1" stop-color="#6700CD"/>
</radialGradient>
<radialGradient id="paint1_radial" cx="0" cy="0" r="1" gradientUnits="userSpaceOnUse" gradientTransform="translate(20.3486 35.139) rotate(29.2307) scale(138.064 215.482)">
<stop stop-color="#30B1FF"/>
<stop offset="1" stop-color="#6700CD"/>
</radialGradient>
<linearGradient id="paint2_linear" x1="84.7405" y1="80.3875" x2="82.327" y2="91.2129" gradientUnits="userSpaceOnUse">
<stop stop-color="#171824"/>
<stop offset="1" stop-color="#313351"/>
</linearGradient>
<linearGradient id="paint3_linear" x1="72.219" y1="89.8895" x2="73.0223" y2="82.3229" gradientUnits="userSpaceOnUse">
<stop stop-color="#171824"/>
<stop offset="1" stop-color="#313351"/>
</linearGradient>
<linearGradient id="paint4_linear" x1="101.776" y1="97.8092" x2="102.579" y2="90.2426" gradientUnits="userSpaceOnUse">
<stop stop-color="#171824"/>
<stop offset="1" stop-color="#313351"/>
</linearGradient>
<radialGradient id="paint5_radial" cx="0" cy="0" r="1" gradientUnits="userSpaceOnUse" gradientTransform="translate(98.2002 68.9891) rotate(27.6122) scale(8.71698 21.7237)">
<stop stop-color="#30B1FF"/>
<stop offset="0.859375" stop-color="#6700CD"/>
</radialGradient>
<radialGradient id="paint6_diamond" cx="0" cy="0" r="1" gradientUnits="userSpaceOnUse" gradientTransform="translate(71.4922 109.366) rotate(107.826) scale(34.3181 19.9313)">
<stop stop-color="#FFB084"/>
<stop offset="0.483887" stop-color="#FF2459" stop-opacity="0.24"/>
<stop offset="1" stop-color="#1524DA" stop-opacity="0.1"/>
</radialGradient>
<radialGradient id="paint7_diamond" cx="0" cy="0" r="1" gradientUnits="userSpaceOnUse" gradientTransform="translate(101.502 117.442) rotate(106.961) scale(34.3178 19.9315)">
<stop stop-color="#FFB084"/>
<stop offset="0.483887" stop-color="#FF2459" stop-opacity="0.24"/>
<stop offset="1" stop-color="#1524DA" stop-opacity="0.1"/>
</radialGradient>
<radialGradient id="paint8_diamond" cx="0" cy="0" r="1" gradientUnits="userSpaceOnUse" gradientTransform="translate(70.3985 112.337) rotate(106.025) scale(56.2736 28.3857)">
<stop stop-color="#FFAD62"/>
<stop offset="0.483887" stop-color="#FF2459" stop-opacity="0"/>
<stop offset="1" stop-color="#1524DA" stop-opacity="0"/>
</radialGradient>
<radialGradient id="paint9_diamond" cx="0" cy="0" r="1" gradientUnits="userSpaceOnUse" gradientTransform="translate(100.454 120.428) rotate(105.16) scale(56.2735 28.3857)">
<stop stop-color="#FFAD62"/>
<stop offset="0.483887" stop-color="#FF2459" stop-opacity="0"/>
<stop offset="1" stop-color="#1524DA" stop-opacity="0"/>
</radialGradient>
<linearGradient id="paint10_linear" x1="132.706" y1="174.74" x2="132.706" y2="129.74" gradientUnits="userSpaceOnUse">
<stop stop-color="#F35C80"/>
<stop offset="1" stop-color="#FFA68D"/>
</linearGradient>
<clipPath id="clip0">
<rect width="97" height="169" fill="white" transform="translate(66.4844 0.476562) rotate(15)"/>
</clipPath>
<clipPath id="clip1">
<rect width="81.3276" height="79.8634" fill="white" transform="translate(82.5699 130.727) rotate(-30)"/>
</clipPath>
</defs>
</svg>
