<svg width="205" height="219" viewBox="0 0 205 219" fill="none" xmlns="http://www.w3.org/2000/svg">
<g opacity="0.8">
<g filter="url(#filter0_d)">
<path d="M85.5837 22.1927C89.2339 20.1419 93.6891 20.1419 97.3393 22.1927L156.535 55.4508C160.317 57.5753 162.657 61.5752 162.657 65.9127V131.868C162.657 136.206 160.317 140.205 156.535 142.33L97.3393 175.588C93.6891 177.639 89.2339 177.639 85.5837 175.588L26.3878 142.33C22.6063 140.205 20.2656 136.206 20.2656 131.868V65.9127C20.2656 61.5752 22.6063 57.5753 26.3878 55.4508L85.5837 22.1927Z" fill="url(#paint0_radial)"/>
<path d="M96.7271 23.2825L155.923 56.5405C159.311 58.4438 161.407 62.027 161.407 65.9127V131.868C161.407 135.754 159.311 139.337 155.923 141.24L96.7271 174.498C93.4571 176.335 89.466 176.335 86.196 174.498L27.0001 141.24C23.6125 139.337 21.5156 135.754 21.5156 131.868V65.9127C21.5156 62.027 23.6125 58.4438 27.0001 56.5405L86.196 23.2825C89.466 21.4453 93.4571 21.4453 96.7271 23.2825Z" stroke="url(#paint1_radial)" stroke-width="2.5"/>
</g>
<g clip-path="url(#clip0)">
<path d="M142.852 83.1051L114.945 131.442C113.023 134.771 108.75 135.915 105.418 133.992L29.5855 90.2096C26.2543 88.2864 25.1083 84.014 27.0304 80.6848L54.9378 32.3478C56.8599 29.0186 61.1339 27.8732 64.465 29.7964L140.298 73.5786C143.629 75.5019 144.774 79.7759 142.852 83.1051V83.1051Z" fill="#301270"/>
<path d="M142.852 83.1051L114.945 131.442C113.023 134.771 108.75 135.915 105.418 133.992L29.5855 90.2096C26.2543 88.2864 25.1083 84.014 27.0304 80.6848L54.9378 32.3478C56.8599 29.0186 61.1339 27.8732 64.465 29.7964L140.298 73.5786C143.629 75.5019 144.774 79.7759 142.852 83.1051V83.1051Z" fill="url(#paint2_linear)"/>
<path d="M142.852 83.1052L114.945 131.442C113.023 134.771 108.75 135.915 105.418 133.992L98.9828 130.276C102.319 132.202 106.584 131.061 108.509 127.727L136.417 79.3896C138.343 76.0535 137.199 71.7892 133.862 69.863L140.298 73.5786C143.629 75.5019 144.774 79.7759 142.852 83.1052V83.1052Z" fill="#301270"/>
<path d="M61.1434 36.46L136.188 79.7869L108.74 127.329L33.6952 84.0017L61.1434 36.46Z" fill="#7F0BCF"/>
<path opacity="0.8" d="M131.037 76.813L136.188 79.787L108.74 127.329L103.588 124.355L131.037 76.813Z" fill="#301270" fill-opacity="0.58"/>
<path d="M104.32 105.718C102.701 106.277 100.921 106.105 99.4372 105.249C99.1676 105.093 98.9117 104.918 98.6737 104.723C97.6011 103.857 96.8572 102.631 96.5896 101.255C96.264 99.5703 96.6835 97.8286 97.742 96.479L102.944 89.8358C103.248 89.4483 103.793 89.3418 104.22 89.5887L110.608 93.2765C111.035 93.5234 111.215 94.0484 111.032 94.5051L107.881 102.333C107.242 103.924 105.943 105.159 104.32 105.718Z" fill="#EEF6FF"/>
<path d="M107.881 102.333C107.242 103.924 105.943 105.158 104.32 105.718C102.701 106.277 100.921 106.105 99.4373 105.249C99.1677 105.093 98.9117 104.918 98.6738 104.723C99.3766 104.882 100.267 104.6 101.197 103.914C102.336 103.076 103.416 101.716 104.159 100.184L107.821 92.6511C108.034 92.2111 108.034 91.7903 107.819 91.6664L110.608 93.2764C111.035 93.5232 111.215 94.0482 111.032 94.5049L107.881 102.333Z" fill="#DAE6EF"/>
<path d="M115.588 98.0462C115.316 98.1408 115.017 98.1103 114.768 97.9666L98.0782 88.3306C97.831 88.1878 97.6554 87.9447 97.6013 87.6618C97.5461 87.3806 97.616 87.0891 97.793 86.8618L101.774 81.7832C104.769 77.9594 110.197 76.9057 114.4 79.3325C114.436 79.3533 114.474 79.3751 114.509 79.3977C118.635 81.8509 120.391 87.0266 118.592 91.4935L116.183 97.4793C116.076 97.7471 115.859 97.9532 115.588 98.0462V98.0462Z" fill="#FF455C"/>
<path d="M115.588 98.0462C115.316 98.1408 115.017 98.1103 114.768 97.9666L98.0782 88.3306C97.831 88.1878 97.6554 87.9447 97.6013 87.6618C97.5461 87.3806 97.616 87.0891 97.793 86.8618L101.774 81.7832C104.769 77.9594 110.197 76.9057 114.4 79.3325C114.436 79.3533 114.474 79.3751 114.509 79.3977C118.635 81.8509 120.391 87.0266 118.592 91.4935L116.183 97.4793C116.076 97.7471 115.859 97.9532 115.588 98.0462V98.0462Z" fill="url(#paint3_linear)"/>
<path d="M115.588 98.0463C115.316 98.1408 115.017 98.1103 114.768 97.9666L111.095 95.8461C111.234 95.9264 111.428 95.8964 111.628 95.7602C111.827 95.6257 112.012 95.4006 112.136 95.1427L114.89 89.3562C116.931 85.0682 116.761 80.8262 114.509 79.3977C118.635 81.851 120.391 87.0267 118.592 91.4936L116.183 97.4793C116.076 97.7471 115.859 97.9533 115.588 98.0463V98.0463Z" fill="#E93772"/>
<path d="M73.9282 83.5262C69.6399 85.3864 64.6738 85.1252 60.6134 82.8313C60.5712 82.8092 60.5317 82.7864 60.4922 82.7636C53.3526 78.6416 50.8978 69.4745 55.0234 62.3287C59.1481 55.1846 68.3154 52.7253 75.455 56.8474C75.4928 56.8692 75.5288 56.89 75.5656 56.9136C79.4318 59.1869 82.046 63.03 82.7467 67.471C82.826 67.9721 82.5149 68.4515 82.0248 68.5826L71.5549 71.3906L74.4908 82.3615C74.6179 82.8354 74.3777 83.3306 73.9282 83.5262V83.5262Z" fill="url(#paint4_linear)"/>
<path d="M73.9283 83.5262C69.6399 85.3863 64.6738 85.1252 60.6135 82.8313C63.1969 84.2016 68.9886 83.6831 70.5362 81.0026L68.2037 72.2859C67.7094 70.4377 68.8061 68.5381 70.654 68.0419L78.7679 65.8645C80.2938 63.2217 77.9007 58.3691 75.5658 56.9133C79.4319 59.1867 82.0461 63.0298 82.7469 67.4707C82.8261 67.9719 82.515 68.4513 82.0249 68.5824L71.5551 71.3903L74.4909 82.3613C74.6179 82.8353 74.3778 83.3305 73.9283 83.5262V83.5262Z" fill="#C19311"/>
<path d="M70.2006 64.3919C70.9107 64.8018 71.8184 64.559 72.228 63.8496C72.6376 63.1401 72.394 62.2326 71.6839 61.8226C70.9738 61.4127 70.0661 61.6555 69.6565 62.3649C69.2469 63.0744 69.4905 63.9819 70.2006 64.3919Z" fill="#301270"/>
<path d="M79.6551 74.6843C78.945 74.2743 78.0372 74.5169 77.6275 75.2265C77.218 75.9359 77.4617 76.8433 78.1719 77.2534C78.8821 77.6634 79.7898 77.4207 80.1994 76.7114C80.6089 76.002 80.3653 75.0943 79.6551 74.6843Z" fill="#7F7289"/>
<path d="M84.2618 77.3401C83.5516 76.9301 82.6439 77.1727 82.2342 77.8823C81.8246 78.5916 82.0684 79.4991 82.7786 79.9091C83.4887 80.3191 84.3965 80.0765 84.806 79.3671C85.2157 78.6576 84.972 77.7501 84.2618 77.3401Z" fill="#7F7289"/>
<path d="M88.9706 80.062C88.2604 79.652 87.3527 79.8946 86.943 80.6042C86.5334 81.3136 86.7772 82.221 87.4873 82.631C88.1975 83.0411 89.1053 82.7984 89.5148 82.089C89.9244 81.3797 89.6808 80.472 88.9706 80.062Z" fill="#7F7289"/>
<path d="M93.8277 82.863C93.1175 82.453 92.2098 82.6957 91.8001 83.4052C91.3905 84.1146 91.6343 85.0221 92.3444 85.4321C93.0546 85.8421 93.9624 85.5994 94.3719 84.8901C94.7816 84.1805 94.5379 83.2731 93.8277 82.863Z" fill="#7F7289"/>
<path d="M61.1434 36.4602L136.188 79.7872L108.74 127.329L33.6952 84.0019L61.1434 36.4602Z" fill="url(#paint5_linear)"/>
</g>
<g clip-path="url(#clip1)">
<path d="M140.07 129.336L133.929 130.982C129.96 132.045 126.52 134.431 124.164 137.738L121.791 138.374C119.626 138.954 118.383 141.107 118.963 143.272L121.034 150.997C121.614 153.162 123.766 154.405 125.931 153.825L128.025 153.264C129.607 154.522 130.715 156.226 131.253 158.237L131.864 160.515C132.444 162.681 134.631 164.052 136.796 163.472L138.728 162.954C143.39 161.705 146.369 157.207 146.087 152.564L146.28 152.513C150.539 151.372 153.076 146.976 151.935 142.717L149.865 134.992C148.724 130.733 144.329 128.195 140.07 129.336ZM163.58 108.409L161.52 108.961L159.968 103.167C159.759 102.386 159.098 101.807 158.298 101.702C157.501 101.596 156.711 101.981 156.305 102.684L151.064 111.762L140.275 114.653C137.08 115.509 135.178 118.805 136.034 122L137.103 125.991C137.389 127.059 138.485 127.691 139.552 127.405L151.14 124.3C152.204 124.015 153.304 124.65 153.589 125.714L156.694 137.302C156.98 138.37 158.076 139.002 159.143 138.716L170.86 135.576C174.055 134.72 175.958 131.425 175.102 128.23L170.927 112.65C170.071 109.455 166.775 107.552 163.58 108.409Z" fill="url(#paint6_linear)"/>
<g filter="url(#filter1_d)">
<path d="M150.105 120.437L111.35 130.822C108.143 131.681 106.249 134.963 107.108 138.169L115.423 169.199C116.282 172.405 119.563 174.3 122.769 173.441L124.829 172.889L126.382 178.683C126.671 179.763 127.805 180.371 128.831 180.096C129.333 179.962 129.783 179.634 130.027 179.155L135.297 170.084L161.525 163.056C164.731 162.197 166.626 158.915 165.767 155.709L157.452 124.679C156.593 121.473 153.311 119.578 150.105 120.437ZM150.004 143.235C150.863 146.441 148.968 149.722 145.762 150.581L143.831 151.099C144.969 155.348 142.424 159.756 138.176 160.894L136.244 161.412C135.163 161.702 134.085 161.079 133.795 159.998L133.185 157.719C132.45 154.976 130.791 152.647 128.427 151.086L125.414 151.894C124.332 152.184 123.255 151.561 122.965 150.48L120.895 142.754C120.605 141.673 121.227 140.595 122.309 140.306L125.399 139.478C127.507 136.221 130.699 133.917 134.446 132.914L140.587 131.268C143.793 130.409 147.075 132.303 147.934 135.509L150.004 143.235Z" fill="url(#paint7_linear)"/>
</g>
</g>
</g>
<defs>
<filter id="filter0_d" x="0.265633" y="0.654541" width="182.392" height="196.472" filterUnits="userSpaceOnUse" color-interpolation-filters="sRGB">
<feFlood flood-opacity="0" result="BackgroundImageFix"/>
<feColorMatrix in="SourceAlpha" type="matrix" values="0 0 0 0 0 0 0 0 0 0 0 0 0 0 0 0 0 0 127 0"/>
<feOffset/>
<feGaussianBlur stdDeviation="10"/>
<feColorMatrix type="matrix" values="0 0 0 0 0.402083 0 0 0 0 0 0 0 0 0 0.804167 0 0 0 0.5 0"/>
<feBlend mode="normal" in2="BackgroundImageFix" result="effect1_dropShadow"/>
<feBlend mode="normal" in="SourceGraphic" in2="effect1_dropShadow" result="shape"/>
</filter>
<filter id="filter1_d" x="91.9011" y="105.23" width="89.0723" height="89.9317" filterUnits="userSpaceOnUse" color-interpolation-filters="sRGB">
<feFlood flood-opacity="0" result="BackgroundImageFix"/>
<feColorMatrix in="SourceAlpha" type="matrix" values="0 0 0 0 0 0 0 0 0 0 0 0 0 0 0 0 0 0 127 0"/>
<feOffset/>
<feGaussianBlur stdDeviation="7.5"/>
<feColorMatrix type="matrix" values="0 0 0 0 1 0 0 0 0 0.516667 0 0 0 0 0.516667 0 0 0 0.5 0"/>
<feBlend mode="normal" in2="BackgroundImageFix" result="effect1_dropShadow"/>
<feBlend mode="normal" in="SourceGraphic" in2="effect1_dropShadow" result="shape"/>
</filter>
<radialGradient id="paint0_radial" cx="0" cy="0" r="1" gradientUnits="userSpaceOnUse" gradientTransform="translate(173.671 239.601) rotate(-123.936) scale(179.358 830.699)">
<stop offset="0.292985" stop-color="#23006D"/>
<stop offset="1" stop-color="#920EE2"/>
</radialGradient>
<radialGradient id="paint1_radial" cx="0" cy="0" r="1" gradientUnits="userSpaceOnUse" gradientTransform="translate(142.063 178.89) rotate(-132.647) scale(169.242 783.846)">
<stop stop-color="#23006D"/>
<stop offset="1" stop-color="#920EE2"/>
</radialGradient>
<linearGradient id="paint2_linear" x1="146.339" y1="183.393" x2="52.2016" y2="12.9131" gradientUnits="userSpaceOnUse">
<stop stop-color="#4122FF"/>
<stop offset="1" stop-color="#FF3389"/>
</linearGradient>
<linearGradient id="paint3_linear" x1="97.7405" y1="88.7483" x2="120.984" y2="80.2422" gradientUnits="userSpaceOnUse">
<stop stop-color="#F4584E"/>
<stop offset="1" stop-color="#D253BE" stop-opacity="0.6"/>
</linearGradient>
<linearGradient id="paint4_linear" x1="79.1929" y1="63.0198" x2="54.5714" y2="72.6773" gradientUnits="userSpaceOnUse">
<stop offset="0.0388896" stop-color="#FFF148"/>
<stop offset="1" stop-color="#E2B513"/>
</linearGradient>
<linearGradient id="paint5_linear" x1="92.0931" y1="34.1196" x2="93.3156" y2="153.884" gradientUnits="userSpaceOnUse">
<stop stop-color="white" stop-opacity="0.4"/>
<stop offset="1" stop-color="#231A53" stop-opacity="0"/>
</linearGradient>
<linearGradient id="paint6_linear" x1="153.277" y1="159.056" x2="139.235" y2="106.652" gradientUnits="userSpaceOnUse">
<stop stop-color="#FFC2CC"/>
<stop offset="1" stop-color="#FFF2F4"/>
</linearGradient>
<linearGradient id="paint7_linear" x1="144.217" y1="175.974" x2="130.727" y2="125.63" gradientUnits="userSpaceOnUse">
<stop stop-color="#F35C80"/>
<stop offset="1" stop-color="#FFA68D"/>
</linearGradient>
<clipPath id="clip0">
<rect width="101.713" height="69.9277" fill="white" transform="translate(58.2803 26.217) rotate(30)"/>
</clipPath>
<clipPath id="clip1">
<rect width="111.521" height="115.057" fill="white" transform="translate(67.3112 107.429) rotate(-15)"/>
</clipPath>
</defs>
</svg>
