<svg width="226" height="168" viewBox="0 0 226 168" fill="none" xmlns="http://www.w3.org/2000/svg">
<g clip-path="url(#clip0)">
<path d="M207.757 157.081L208.748 155.907C228.611 132.275 230.343 110.871 214.047 90.4647C200.169 73.0941 175.666 59.4855 154.058 47.4796C149.5 44.9466 145.227 42.5563 141.11 40.1999L136.471 37.5244L131.838 40.1999C106.779 54.6573 80.4828 61.5092 49.038 61.7672L42.6594 61.8147L42.5711 65.4953C42.1296 83.6265 30.2554 98.8105 5.20959 113.268L0.569962 115.943L5.20959 118.626C9.28539 120.982 13.4359 123.467 17.8174 126.095C38.6244 138.57 62.2029 152.708 92.3027 160.728C127.626 170.14 164.75 169.135 205.691 157.672L207.757 157.081ZM136.43 48.1654C139.188 49.7205 142.027 51.2959 144.962 52.9189C187.989 76.8222 236.668 103.883 197.947 151.384C115.623 173.793 68.7242 145.646 27.314 120.826C24.4813 119.135 21.7505 117.492 19.0605 115.903C42.0276 101.717 53.7388 86.7026 55.5118 69.1894C85.8561 68.1844 111.846 61.4277 136.423 48.1654H136.43Z" fill="#0070C0"/>
<path d="M207.757 157.081V146.454L59.3702 103.523L0.889236 105.044L0.590347 115.943L77.6026 151.14L125.643 163.166L192.099 157.903L207.757 157.081Z" fill="#0070C0"/>
<path d="M225.086 118.524V108.542L219.76 115.862L225.086 118.524Z" fill="#7D90E2"/>
<path d="M9.86961 105.316C36.0906 90.1795 48.6916 74.2621 49.1603 54.9222C82.6702 54.6506 110.25 47.3777 136.471 32.248C179.491 57.0748 250.023 87.504 202.845 143.615C105.61 170.853 52.8897 130.143 9.86961 105.316Z" fill="url(#paint0_radial)"/>
<path d="M207.757 146.454L208.748 145.272C228.611 121.648 230.343 100.243 214.047 79.8372C200.169 62.4666 175.666 48.858 154.058 36.8453C149.5 34.3192 145.227 31.9288 141.11 29.5657L136.471 26.8901L131.838 29.5657C106.779 44.0299 80.4828 50.8817 49.072 51.1329L42.6934 51.1873L42.6051 54.8678C42.1635 72.999 30.2894 88.1422 5.24356 102.64L0.603958 105.316L5.24356 107.991C9.31937 110.355 13.4699 112.833 17.8514 115.461C38.6583 127.936 62.2368 142.081 92.3366 150.094C127.66 159.499 164.784 158.501 205.725 147.031L207.757 146.454ZM136.43 37.538C139.188 39.093 142.027 40.6685 144.962 42.2914C187.989 66.1879 236.668 93.2556 197.947 140.757C115.623 163.132 68.7242 135.018 27.314 110.198C24.4813 108.501 21.7505 106.864 19.0605 105.275C42.0277 91.0894 53.7388 76.0752 55.5118 58.562C85.8561 57.5501 111.846 50.7934 136.423 37.538H136.43Z" fill="#18BBFF"/>
<line x1="4" y1="-4" x2="51.9606" y2="-4" transform="matrix(0.866099 0.499873 -0.500127 0.865952 94.6528 89.1118)" stroke="#0B0238" stroke-width="8" stroke-linecap="round"/>
<g filter="url(#filter0_d)">
<path d="M144.271 72.6482C144.271 58.4352 134.285 41.1393 121.963 34.0295C115.849 30.4983 110.299 30.1452 106.271 32.4269H106.224L106.142 32.4744C105.503 32.8479 100.626 35.7136 100.545 35.7543L102.379 36.1346C100.171 38.8509 99.6615 41.7844 99.6615 46.8775C99.6615 61.0972 109.647 78.3863 121.963 85.4962C125.849 87.7371 129.503 88.7014 132.682 88.518L131.378 90.7589L137.56 87.1531L137.886 86.9697L138.049 86.8747C141.894 84.4911 144.271 79.5815 144.271 72.6482Z" fill="#1E074F"/>
<path d="M144.271 72.6482C144.271 58.4352 134.285 41.1393 121.963 34.0295C115.849 30.4983 110.299 30.1452 106.271 32.4269H106.224L106.142 32.4744C105.503 32.8479 100.626 35.7136 100.545 35.7543L102.379 36.1346C100.171 38.8509 99.6615 41.7844 99.6615 46.8775C99.6615 61.0972 109.647 78.3863 121.963 85.4962C125.849 87.7371 129.503 88.7014 132.682 88.518L131.378 90.7589L137.56 87.1531L137.886 86.9697L138.049 86.8747C141.894 84.4911 144.271 79.5815 144.271 72.6482Z" fill="url(#paint1_linear)" fill-opacity="0.6"/>
<path d="M132.402 90.8659C141.152 85.8385 141.184 69.4793 132.473 54.3267C123.762 39.174 109.606 30.9659 100.855 35.9933C92.1044 41.0207 92.0726 57.3799 100.784 72.5325C109.495 87.6852 123.651 95.8933 132.402 90.8659Z" fill="url(#paint2_linear)"/>
<path d="M131.901 72.5123C131.901 82.6984 124.755 86.8135 115.931 81.7273C115.387 81.4082 114.837 81.0482 114.3 80.6883C114.278 80.6809 114.259 80.6666 114.246 80.6476C106.217 75.0453 99.9807 63.6029 99.9807 54.0824C99.9807 43.8963 107.134 39.7744 115.951 44.8606C116.899 45.4164 117.807 46.0382 118.668 46.7213C126.188 52.5477 131.901 63.4128 131.901 72.5123Z" fill="#3D0179"/>
<path d="M131.901 72.5123C131.901 82.6983 124.755 86.8135 115.931 81.7273C115.387 81.4081 114.837 81.0482 114.3 80.6883C114.278 80.6809 114.259 80.6666 114.246 80.6476C106.699 74.8279 100.959 63.9424 100.959 54.8429C100.959 44.6569 108.105 40.5349 116.922 45.6279C117.513 45.9675 118.098 46.3409 118.668 46.7484C126.188 52.5476 131.901 63.4128 131.901 72.5123Z" fill="url(#paint3_linear)" fill-opacity="0.4"/>
<path d="M123.451 67.2834C122.929 66.2384 122.196 65.3134 121.297 64.5671C122.52 64.5671 123.057 63.6368 122.907 61.8509C122.861 61.2014 122.71 60.5638 122.459 59.963C122.204 59.3504 121.861 58.7785 121.44 58.2654C121.021 57.7332 120.555 57.2401 120.047 56.7918C119.501 56.3177 118.925 55.8799 118.322 55.4812V51.9093L116.427 50.8092L115.747 51.2098L116.427 52.2081V54.2996C116.101 54.1095 115.598 53.8243 114.925 53.4576V49.9468L113.023 48.8467L112.344 49.2473L113.023 49.9264V52.4457L111.828 51.7667L109.219 50.2456L108.54 50.6394L109.219 51.4543V52.5748L110.578 53.3625C110.874 53.5242 111.129 53.7536 111.32 54.0321C111.511 54.3106 111.634 54.6302 111.678 54.9651V59.0395L111.875 59.1685L111.678 59.0531V64.7709C111.61 65.2191 111.373 65.3209 110.965 65.0832L109.606 64.2955L108.927 64.6894L109.45 65.3684L109.24 66.6655L111.705 68.0847L112.385 68.4854L113.064 68.8724V72.5055L114.178 73.1438L114.266 73.9926L114.946 73.5988V70.0269C115.292 70.2374 115.788 70.5294 116.447 70.9097V74.4816L117.527 75.0995L117.649 75.9687L118.329 75.5749V71.9486C118.91 72.2562 119.509 72.5305 120.122 72.7703C120.605 72.956 121.109 73.0815 121.623 73.1438C122.027 73.2002 122.439 73.1511 122.819 73.0012C123.164 72.8248 123.443 72.5413 123.614 72.1931C123.843 71.7068 123.979 71.1815 124.014 70.6448C124.133 69.494 123.938 68.3325 123.451 67.2834ZM116.114 56.6831C116.291 56.7782 116.528 56.9276 116.827 57.1313C117.126 57.3351 117.378 57.5184 117.588 57.6814C117.827 57.8756 118.054 58.0842 118.267 58.3061C118.495 58.5266 118.694 58.7753 118.858 59.0463C119.015 59.3031 119.143 59.5764 119.239 59.8612C119.339 60.1587 119.39 60.4708 119.388 60.7847C119.399 61.0161 119.362 61.2473 119.28 61.4638C119.251 61.5423 119.207 61.6141 119.15 61.6748C119.093 61.7355 119.023 61.7839 118.947 61.8169C118.802 61.8804 118.649 61.9216 118.492 61.9391C118.289 61.9537 118.085 61.9259 117.894 61.8577C117.649 61.783 117.439 61.7151 117.262 61.6471C117.029 61.5574 116.802 61.453 116.583 61.3348L115.965 61.0088C115.829 60.9341 115.632 60.8255 115.394 60.6761L114.966 60.4248V56.038L115.455 56.3097L116.114 56.6831ZM120.142 68.7163C120.077 68.8702 119.974 69.0056 119.843 69.1101C119.698 69.2036 119.528 69.2531 119.354 69.2527C119.159 69.2621 118.963 69.2508 118.77 69.2188C118.539 69.1714 118.312 69.1055 118.091 69.0218C117.86 68.9381 117.633 68.8429 117.412 68.7366C117.208 68.6416 116.97 68.5261 116.692 68.3767L116.012 68.0236L115.414 67.6569L114.959 67.3921V62.5978L115.55 62.9034C115.876 63.08 116.141 63.2294 116.345 63.3516C116.556 63.4671 116.834 63.6436 117.201 63.8813C117.568 64.119 117.88 64.3363 118.111 64.5604C118.342 64.7844 118.628 65.0017 118.92 65.287C119.172 65.5459 119.399 65.8278 119.599 66.129C119.783 66.4175 119.935 66.7248 120.054 67.0457C120.174 67.372 120.236 67.7167 120.237 68.0644C120.249 68.2858 120.217 68.5073 120.142 68.7163Z" fill="#3D0179"/>
<g filter="url(#filter1_d)">
<path d="M122.751 67.6569C122.232 66.6105 121.498 65.685 120.597 64.9406C121.82 64.9406 122.359 64.0352 122.214 62.2243C122.162 61.5752 122.008 60.9382 121.759 60.3365C121.508 59.7237 121.167 59.1515 120.747 58.6389C120.336 58.1213 119.881 57.6397 119.388 57.1992C118.84 56.726 118.264 56.2861 117.663 55.8818V52.3031L115.768 51.2098V54.6935L114.26 53.8514V50.3406L112.364 49.2473V52.8328C112.093 52.6834 111.685 52.4593 111.169 52.1537L108.554 50.6326V52.9618L109.912 53.7563C110.208 53.9169 110.461 54.1452 110.651 54.4227C110.841 54.7001 110.963 55.0186 111.006 55.3522V59.4266L111.203 59.5556L111.006 59.4469V65.1579C110.945 65.6061 110.7 65.708 110.293 65.4771L108.934 64.6826L108.547 67.0661L111.013 68.4922L111.692 68.886L112.371 69.2799V72.9061L114.266 73.9994V70.4207C114.613 70.6312 115.116 70.9232 115.774 71.3035V74.8754L117.67 75.9687V72.3425C118.25 72.6526 118.849 72.927 119.463 73.1642C119.944 73.3498 120.446 73.4752 120.958 73.5376C121.362 73.6014 121.775 73.552 122.153 73.395C122.5 73.2207 122.779 72.9366 122.948 72.5869C123.186 72.1035 123.322 71.5767 123.349 71.0387C123.468 69.8778 123.261 68.7068 122.751 67.6569ZM114.266 56.4319L114.749 56.7103L115.428 57.077C115.605 57.1788 115.842 57.3282 116.148 57.5252C116.454 57.7221 116.698 57.9122 116.902 58.0752C117.139 58.2738 117.366 58.4846 117.581 58.7068C117.803 58.9299 118.002 59.1757 118.172 59.4402C118.327 59.6972 118.452 59.9705 118.546 60.255C118.648 60.5524 118.701 60.8643 118.702 61.1786C118.71 61.4098 118.673 61.6404 118.594 61.8576C118.534 62.0162 118.418 62.147 118.268 62.2243C118.119 62.2848 117.964 62.3259 117.806 62.3466C117.605 62.3548 117.404 62.3248 117.215 62.2583C116.97 62.1904 116.759 62.1157 116.576 62.0546C116.393 61.9935 116.168 61.878 115.897 61.7422C115.625 61.6064 115.421 61.4909 115.285 61.4095L114.708 61.0835L114.287 60.8255V56.4319H114.266ZM119.443 69.1101C119.381 69.2665 119.278 69.4028 119.144 69.504C119.001 69.6045 118.829 69.6568 118.655 69.6534C118.459 69.6603 118.263 69.6467 118.071 69.6126C117.839 69.5654 117.612 69.4996 117.391 69.4157C117.16 69.3317 116.934 69.2365 116.712 69.1305C116.515 69.0422 116.27 68.92 115.992 68.7706C115.713 68.6212 115.496 68.5057 115.313 68.4175L114.722 68.0711L114.266 67.7995V62.9917L114.851 63.3176L115.645 63.759C115.849 63.8813 116.135 64.0578 116.495 64.2955C116.855 64.5332 117.174 64.7505 117.405 64.9746C117.687 65.2022 117.957 65.4448 118.213 65.7012C118.468 65.9581 118.695 66.2403 118.892 66.5432C119.079 66.8302 119.232 67.1379 119.348 67.46C119.473 67.785 119.537 68.1303 119.538 68.4786C119.551 68.6934 119.518 68.9085 119.443 69.1101Z" fill="url(#paint4_linear)"/>
</g>
</g>
</g>
<defs>
<filter id="filter0_d" x="64.2712" y="0.986328" width="110" height="121.358" filterUnits="userSpaceOnUse" color-interpolation-filters="sRGB">
<feFlood flood-opacity="0" result="BackgroundImageFix"/>
<feColorMatrix in="SourceAlpha" type="matrix" values="0 0 0 0 0 0 0 0 0 0 0 0 0 0 0 0 0 0 127 0"/>
<feOffset/>
<feGaussianBlur stdDeviation="15"/>
<feColorMatrix type="matrix" values="0 0 0 0 0.402083 0 0 0 0 0 0 0 0 0 0.804167 0 0 0 1 0"/>
<feBlend mode="normal" in2="BackgroundImageFix" result="effect1_dropShadow"/>
<feBlend mode="normal" in="SourceGraphic" in2="effect1_dropShadow" result="shape"/>
</filter>
<filter id="filter1_d" x="84.5467" y="33.2473" width="54.8346" height="66.7214" filterUnits="userSpaceOnUse" color-interpolation-filters="sRGB">
<feFlood flood-opacity="0" result="BackgroundImageFix"/>
<feColorMatrix in="SourceAlpha" type="matrix" values="0 0 0 0 0 0 0 0 0 0 0 0 0 0 0 0 0 0 127 0"/>
<feOffset dx="-4" dy="4"/>
<feGaussianBlur stdDeviation="10"/>
<feColorMatrix type="matrix" values="0 0 0 0 0.407843 0 0 0 0 0.305882 0 0 0 0 0.956863 0 0 0 1 0"/>
<feBlend mode="normal" in2="BackgroundImageFix" result="effect1_dropShadow"/>
<feBlend mode="normal" in="SourceGraphic" in2="effect1_dropShadow" result="shape"/>
</filter>
<radialGradient id="paint0_radial" cx="0" cy="0" r="1" gradientUnits="userSpaceOnUse" gradientTransform="translate(132.886 88.6158) rotate(-29.3379) scale(91.3841 74.4627)">
<stop stop-color="#30B1FF"/>
<stop offset="0.859375" stop-color="#6700CD"/>
</radialGradient>
<linearGradient id="paint1_linear" x1="121.966" y1="30.9863" x2="121.966" y2="90.7589" gradientUnits="userSpaceOnUse">
<stop stop-color="#4122FF"/>
<stop offset="1" stop-color="#FF3389"/>
</linearGradient>
<linearGradient id="paint2_linear" x1="146.087" y1="118.919" x2="57.9347" y2="69.5276" gradientUnits="userSpaceOnUse">
<stop stop-color="#46007E"/>
<stop offset="0.478376" stop-color="#1D5FE0"/>
<stop offset="0.818525" stop-color="#CD1B9B"/>
</linearGradient>
<linearGradient id="paint3_linear" x1="116.43" y1="43.4451" x2="116.43" y2="83.9072" gradientUnits="userSpaceOnUse">
<stop stop-color="#4122FF"/>
<stop offset="1" stop-color="#FF3389"/>
</linearGradient>
<linearGradient id="paint4_linear" x1="125.07" y1="83.231" x2="95.9976" y2="66.5388" gradientUnits="userSpaceOnUse">
<stop stop-color="#46007E"/>
<stop offset="0.478376" stop-color="#1D5FE0"/>
<stop offset="0.818525" stop-color="#CD1B9B"/>
</linearGradient>
<clipPath id="clip0">
<rect width="226" height="167" fill="white" transform="matrix(-1 0 0 1 226 0.312988)"/>
</clipPath>
</defs>
</svg>
