<svg width="113" height="111" viewBox="0 0 113 111" fill="none" xmlns="http://www.w3.org/2000/svg">
<g filter="url(#filter0_d)">
<circle cx="55.9253" cy="57.2586" r="20.9759" fill="url(#paint0_radial)"/>
<path fill-rule="evenodd" clip-rule="evenodd" d="M38.8939 54.8211C39.2472 54.0671 39.5588 53.3737 39.6899 52.5312C39.7754 52.014 39.9909 51.2394 39.4263 50.9219C38.7759 50.5617 37.8191 51.6594 37.4995 52.1985C37.3443 52.4544 37.1876 52.7355 37.0365 53.0068C36.8761 53.3053 36.7837 53.6102 36.7421 53.9509C36.6414 54.7522 36.8844 55.4775 37.0893 56.246C37.2123 56.707 37.2749 57.2832 37.4962 57.7096C37.6954 58.0843 38.2515 58.6182 38.6118 58.8835C39.4519 59.4893 39.5414 58.5838 39.4897 57.9553C39.4381 57.2032 39.2423 56.5311 39.3183 55.7611C39.3391 55.5908 39.292 55.414 39.3127 55.2437C39.3247 55.1334 39.4313 55.0059 39.4417 54.9207C39.476 54.615 39.2805 54.2228 39.2006 53.9231L38.8939 54.8211Z" fill="#1E074F"/>
<path fill-rule="evenodd" clip-rule="evenodd" d="M37.761 62.3332C37.8833 62.4815 38.4122 62.8826 38.1049 63.0642C37.9761 63.1401 37.6947 63.1088 37.5677 63.0359C37.1749 62.804 37.0434 62.1558 36.9291 61.7582C36.8292 61.4145 36.8454 61.196 37.211 61.4188C37.4084 61.5386 37.7359 61.8046 37.8225 62.0366L37.761 62.3332Z" fill="#1E074F"/>
<path fill-rule="evenodd" clip-rule="evenodd" d="M41.5257 50.8509C41.8644 51.0974 42.0474 51.287 42.4523 51.285C42.6674 51.2848 42.9242 51.2238 43.1506 51.2041C44.0022 51.1395 44.6359 50.4747 45.2621 49.9684C45.8368 49.5171 46.4743 49.1149 47.0706 48.6825C47.7895 48.1512 48.2818 47.3598 48.5719 46.5239C48.9235 45.515 49.1223 44.3989 49.2347 43.3309C49.2977 42.7291 49.376 41.7196 49.0407 41.1757C48.6796 40.5975 48.0182 40.4132 47.379 40.5606C46.7475 40.7059 46.0599 40.8581 45.4648 41.1089C45.1374 41.2465 44.8557 41.4624 44.5263 41.5923C44.2565 41.6978 43.974 41.7245 43.7002 41.8147C43.4207 41.9146 43.1828 42.0775 42.9013 42.1698C42.3711 42.3538 41.9766 42.6741 41.5851 43.0678C41.205 43.442 40.9435 43.9819 40.6399 44.426C40.2528 44.9915 39.8081 45.5889 39.7018 46.2765C39.6132 46.844 39.7675 47.3295 39.9109 47.8675C40.0257 48.2978 40.0874 48.8084 40.2773 49.2102C40.3692 49.3997 40.4796 49.5346 40.5427 49.7401C40.5996 49.9224 40.6122 50.1249 40.6845 50.3031C40.8231 50.6365 41.1332 50.7754 41.5257 50.8509Z" fill="#1E074F"/>
<path fill-rule="evenodd" clip-rule="evenodd" d="M42.8118 53.6262C42.6467 54.0001 42.3801 54.5826 41.8669 54.3337C41.6015 54.2074 41.4318 53.726 41.5386 53.4748C41.7258 53.029 42.6142 53.2264 42.8118 53.6262Z" fill="#1E074F"/>
<path fill-rule="evenodd" clip-rule="evenodd" d="M65.7878 61.6232C65.1411 62.4562 64.6101 63.3817 64.0441 64.3001C63.5992 65.0211 63.0916 65.6932 62.6447 66.4065C62.2488 67.032 61.9592 67.9007 62.0067 68.6375C62.0542 69.3742 62.212 69.9659 62.5565 70.6062C62.8312 71.1088 63.0267 71.5009 63.5672 71.759C64.1077 72.0171 64.555 71.8637 65.1144 71.6966C65.8458 71.4914 66.3438 71.0938 66.8769 70.5796C67.7408 69.754 68.3583 68.7805 69.1378 67.887C69.841 67.0799 70.0505 66.1587 69.5504 65.7415C69.9313 65.153 70.1674 64.7352 70.2948 64.0337C70.459 63.067 70.4556 62.0302 70.2267 61.0787C70.0761 60.4521 69.8999 59.7912 69.3056 59.4241C68.4315 58.8769 67.1571 60.1178 66.5982 60.7213C66.3653 60.9652 66.1638 61.2336 65.9526 61.4964C65.6692 61.861 65.3368 62.3212 64.8233 62.3194C64.2285 62.3231 63.6425 61.8631 63.7651 61.237C63.9458 60.3318 64.9014 60.6264 65.4186 61.0142L65.7878 61.6232Z" fill="#1E074F"/>
<path fill-rule="evenodd" clip-rule="evenodd" d="M60.2685 74.5004C60.3554 74.0817 60.4704 73.8613 60.143 73.5953C59.8058 73.3237 59.3502 73.0427 58.9171 72.9699C58.5169 72.8965 57.976 73.0092 57.5797 73.0747C56.8799 73.1808 56.1994 73.4216 55.5123 73.6066C54.9101 73.7688 54.31 73.9386 53.7057 74.093C53.2559 74.2059 52.7881 74.2824 52.4168 74.5966C51.7756 75.1399 51.4919 75.7516 52.0308 76.4384C53.2983 78.0574 55.7568 77.9061 57.5207 77.4147C58.2387 77.2214 58.9921 77.068 59.5936 76.593C60.2832 76.045 61.1635 75.1572 60.2685 74.5004Z" fill="#1E074F"/>
<path fill-rule="evenodd" clip-rule="evenodd" d="M49.0885 73.5655C48.9454 74.1147 48.6438 74.5665 48.0137 74.4067C47.5878 74.299 47.17 73.942 47.1437 73.4714C47.1297 73.1704 47.3698 72.8916 47.6411 72.7609C48.1163 72.5259 48.6936 72.9223 49.1116 73.1556L49.0885 73.5655Z" fill="#1E074F"/>
<path fill-rule="evenodd" clip-rule="evenodd" d="M41.8748 57.2803C42.0592 56.6376 42.0973 56.5944 41.9313 55.9719C41.8514 55.6722 41.794 55.0534 41.3917 54.9723C41.1391 54.925 41.0041 55.1013 40.882 55.2331C40.6816 55.4435 40.5239 55.6589 40.4876 55.957C40.4279 56.3849 40.4526 56.8807 40.6347 57.2847C40.9468 57.9584 41.487 57.5329 41.8015 57.0364L41.867 57.2823L41.8748 57.2803Z" fill="#1E074F"/>
<path fill-rule="evenodd" clip-rule="evenodd" d="M55.1502 41.4663C55.58 41.3094 56.6283 41.1754 56.8353 40.6172C56.9266 40.3703 56.9803 40.1993 56.9415 39.9297C56.8179 39.1558 56.1115 38.6788 55.4296 38.4177C54.3871 38.0147 52.8584 38.0227 52.0835 38.9644C51.5105 39.6706 51.7166 40.7847 52.5415 41.1474C53.1694 41.4231 54.6938 41.9269 55.2389 41.3024L55.1502 41.4663Z" fill="#1E074F"/>
<path fill-rule="evenodd" clip-rule="evenodd" d="M52.2671 43.4697C51.7011 43.0538 51.5972 42.9747 51.1635 43.3962C50.9915 43.5579 50.8525 43.5953 50.8543 43.8501C50.8573 43.9235 50.9336 44.2406 50.9865 44.284C51.1572 44.4275 51.5205 44.3626 51.7346 44.2967C52.0394 44.1982 52.2264 43.9996 52.1707 43.6357L52.2671 43.4697Z" fill="#1E074F"/>
<path d="M56.2879 37.5137C62.2527 37.5137 67.8734 38.8719 71.3147 41.1423C75.2822 43.7641 77.2795 48.8253 76.6587 54.6905C75.8963 61.8735 70.6467 71.962 58.3459 76.7596C56.4701 77.4894 54.5268 77.8611 52.5632 77.8611C47.9547 77.8611 43.4405 75.8271 39.8508 72.1242C35.2625 67.3941 32.7524 60.4612 32.9616 53.1161C33.272 42.3451 44.9048 37.5137 56.2879 37.5137ZM56.2879 37.3447C45.1342 37.3447 33.1168 42.014 32.7929 53.1161C32.3813 67.4549 42.0236 78.0367 52.5632 78.0367C54.4998 78.0367 56.4701 77.6786 58.4066 76.9218C77.7856 69.3605 81.6992 47.7982 71.4091 41.0004C67.8464 38.6556 62.192 37.3447 56.2879 37.3447Z" fill="url(#paint1_radial)"/>
<path d="M45.593 38.3243C43.1909 40.2028 40.809 42.1151 38.6296 44.2436C36.4771 46.3857 34.4393 48.6831 33.0223 51.3185C31.6121 53.9538 31.1195 56.9472 31.6323 59.8326C32.1924 62.7179 33.4407 65.5019 34.9116 68.1034C37.8468 73.2795 42.8603 77.3135 48.6159 79.2056C51.4837 80.1583 54.5403 80.5773 57.5497 80.3813C60.5591 80.2056 63.528 79.3069 66.0584 77.7325C68.6157 76.158 70.7209 73.9417 72.2864 71.4212C73.8518 68.8873 74.8369 66.029 75.3768 63.0963C75.9166 60.1569 76.0043 57.1364 75.7884 54.143C75.5589 51.1495 75.1001 48.1628 74.3444 45.237C73.6831 42.3449 72.4011 39.6217 70.3431 37.554C68.2986 35.4863 65.5456 34.1686 62.6171 33.6753C59.6819 33.1753 56.605 33.4659 53.6968 34.2767C50.7819 35.0944 48.0222 36.4931 45.593 38.3243ZM45.5121 38.2162C47.9412 36.3512 50.6807 34.9052 53.5889 33.9186C56.4971 32.9388 59.6212 32.4658 62.7386 32.7969C65.8425 33.1212 68.9463 34.3849 71.254 36.6283C73.5954 38.8379 75.0056 41.8651 75.7411 44.8923C77.2391 50.8725 77.8194 57.1973 76.625 63.3396C76.0245 66.3938 74.9044 69.3805 73.1905 72.0023C71.4902 74.6309 69.1488 76.8405 66.443 78.3744C63.7372 79.9488 60.6468 80.6921 57.5767 80.8611C54.4931 81.0165 51.4094 80.5435 48.481 79.6245C45.5525 78.7055 42.7456 77.327 40.2557 75.4891C37.7659 73.6511 35.5864 71.3537 33.9535 68.6845C33.5082 68.0359 33.1708 67.3399 32.8132 66.6506C32.4353 65.9749 32.1317 65.2586 31.828 64.5356C31.2005 63.1098 30.7552 61.5895 30.4718 60.0353C29.9185 56.8999 30.6472 53.5551 32.2936 50.8995C33.9333 48.2304 36.1195 46.0208 38.4001 43.9869C40.6876 41.9665 43.0964 40.0812 45.5121 38.2162Z" fill="url(#paint2_linear)"/>
<path d="M72.4416 71.6308C73.0353 68.6103 73.8113 65.6236 74.6345 62.6572C75.0394 61.1706 75.4577 59.6907 75.8221 58.1974C76.1864 56.704 76.5171 55.1972 76.6453 53.67C76.7195 52.9065 76.6993 52.1429 76.6115 51.3861C76.4766 50.6428 76.2472 49.9063 75.9773 49.1968C75.7074 48.4805 75.3632 47.8048 74.9516 47.1561C74.5468 46.5074 74.0947 45.879 73.6966 45.2167C73.2917 44.5545 72.9341 43.8653 72.6237 43.1558C72.2999 42.453 72.0502 41.7097 71.7331 41.0273C71.1055 39.642 70.2284 38.3717 69.25 37.1959C67.2864 34.8647 64.8236 32.8713 61.9626 31.7969C60.5389 31.2766 58.9802 31.013 57.4755 31.2766C57.1044 31.3441 56.74 31.4658 56.3689 31.5536C55.9978 31.6482 55.6536 31.8239 55.296 31.9591C54.9384 32.0942 54.6078 32.2902 54.2569 32.4523C53.9263 32.6483 53.5956 32.8307 53.292 33.0605C52.0302 33.9457 51.2475 35.3174 50.2826 36.5134C49.3312 37.7297 48.2111 38.8109 47.0033 39.7704C46.4162 40.2705 45.7752 40.6962 45.1544 41.1556L43.2246 42.426C41.9359 43.2571 40.7348 44.2234 39.6282 45.2843C37.4217 47.4128 35.5527 49.8995 34.1559 52.6294C32.7659 55.3526 31.8348 58.3393 31.6931 61.3936C31.5379 64.4411 32.2936 67.5359 33.9265 70.1104C35.5662 72.6917 37.9278 74.7459 40.5526 76.3135C43.1369 77.942 45.9506 79.2462 48.9263 79.9354C51.902 80.6314 55.0261 80.6314 58.0288 80.03C61.0449 79.4624 63.8991 78.2461 66.6926 76.969C68.0826 76.3068 69.5334 75.7797 70.9234 75.131C71.2607 74.9553 71.6116 74.7864 71.9287 74.5769C72.2526 74.3742 72.5698 74.1377 72.7654 73.8201C72.8801 73.6647 72.8936 73.4687 72.8734 73.2863C72.8329 73.1038 72.7587 72.9282 72.671 72.7525C72.5023 72.4079 72.3471 72.0227 72.4416 71.6308ZM72.4753 71.6375C72.3943 72.0159 72.5428 72.3943 72.7115 72.7322C72.7992 72.9011 72.8734 73.0836 72.9206 73.2728C72.9409 73.4687 72.9274 73.6782 72.8127 73.8404C72.6102 74.1782 72.2864 74.4215 71.9625 74.6242C71.6386 74.8405 71.2945 75.0094 70.9571 75.1918C69.5671 75.8608 68.1231 76.3946 66.7399 77.0703C63.9599 78.3745 61.1057 79.6111 58.0693 80.226C55.0531 80.8679 51.8885 80.9085 48.8588 80.2327C45.8224 79.5773 42.9885 78.2191 40.3772 76.5838C37.7321 75.0026 35.3232 72.9079 33.6566 70.2726C31.99 67.6372 31.2275 64.4681 31.3894 61.3733C31.5311 58.265 32.5028 55.2377 33.9333 52.501C35.3637 49.7576 37.2665 47.2709 39.5067 45.1424C40.6268 44.0815 41.8414 43.1152 43.1437 42.2841L45.0735 41.0273C45.6942 40.5745 46.3353 40.1488 46.9223 39.6555C48.1301 38.7095 49.2435 37.6419 50.2016 36.4391C51.1665 35.2566 51.929 33.8578 53.2178 32.9456C53.5214 32.7091 53.8655 32.5199 54.1962 32.3172C54.547 32.1483 54.8777 31.9523 55.242 31.8104C55.6064 31.6753 55.9505 31.4928 56.3216 31.3982C56.6995 31.3036 57.0706 31.1752 57.4485 31.1076C58.9869 30.8238 60.5793 31.0874 62.0301 31.6009C64.945 32.6753 67.4484 34.6687 69.4524 37.0135C70.451 38.196 71.3484 39.4731 72.003 40.8921C72.3403 41.6016 72.5832 42.3247 72.9071 43.0206C73.2243 43.7166 73.5616 44.4059 73.953 45.0613C74.3376 45.7168 74.783 46.3452 75.1878 47.0074C75.5994 47.6696 75.9435 48.3724 76.2134 49.1022C76.4766 49.8319 76.706 50.5685 76.841 51.3456C76.9219 52.1226 76.9422 52.9065 76.8545 53.6768C76.7128 55.2242 76.3619 56.7311 75.984 58.2244C75.6062 59.7178 75.1743 61.1976 74.756 62.6774C73.8923 65.6439 73.0961 68.617 72.4753 71.6375Z" fill="url(#paint3_linear)"/>
<path d="M57.5294 36.1149C54.6415 36.4933 51.7468 36.7771 48.8723 37.196C46.0046 37.6285 43.1234 38.115 40.3772 39.0205C39.0141 39.48 37.6849 40.0543 36.4973 40.8382C35.9103 41.2369 35.3705 41.6896 34.9049 42.2167C34.4528 42.7505 34.0817 43.3451 33.8253 43.987C33.5554 44.629 33.4407 45.3115 33.3799 46.0277L33.2922 47.1021C33.272 47.4603 33.2855 47.8184 33.2787 48.1765C33.2922 49.6091 33.4812 51.0348 33.913 52.393C34.7497 55.1432 36.5041 57.515 38.1572 59.8935C39.0007 61.0828 39.8306 62.2788 40.6336 63.5019C41.0317 64.1101 41.4095 64.7452 41.8481 65.3128L42.4891 66.1845C42.7253 66.4548 42.9817 66.7116 43.2314 66.9751C45.2354 69.0631 47.8332 70.5294 50.5862 71.4146C53.3392 72.3268 56.2474 72.6917 59.1354 72.685C64.9383 72.6377 70.6197 70.9686 75.7479 68.3266C77.0299 67.6644 78.2917 66.9548 79.4253 66.0967C80.5319 65.2385 81.5642 64.1776 81.7937 62.8465C82.0433 61.5288 81.5575 60.1301 81.0717 58.7854C80.5724 57.4272 80.0326 56.0554 79.6142 54.6432C79.1891 53.2377 78.9125 51.7579 78.7168 50.3253C78.5009 48.886 78.2917 47.4467 78.015 46.0345C77.7316 44.6222 77.3673 43.2235 76.7735 41.9261C76.1864 40.6355 75.3632 39.4394 74.2634 38.5407C73.1838 37.615 71.8545 37.0001 70.4848 36.5744C69.1083 36.1554 67.671 35.9324 66.2271 35.8108C64.7831 35.6824 63.3256 35.6959 61.8749 35.7635C60.4174 35.8108 58.9734 35.9595 57.5294 36.1149ZM57.5227 36.0473C60.4107 35.6892 63.3256 35.4527 66.2405 35.6216C67.698 35.7027 69.1555 35.8851 70.5725 36.2771C71.9827 36.669 73.3727 37.2569 74.54 38.1961C75.7209 39.1083 76.6453 40.3449 77.2795 41.6896C77.9273 43.0343 78.3254 44.4668 78.6358 45.9061C78.9529 47.3454 79.1621 48.7914 79.3848 50.2307C79.5872 51.6835 79.8571 53.0688 80.2755 54.454C80.6871 55.8325 81.2201 57.1771 81.7262 58.5489C81.9826 59.2381 82.2255 59.9408 82.3942 60.6774C82.5629 61.4139 82.6304 62.2113 82.4752 62.9884C82.3267 63.7722 81.9489 64.4885 81.463 65.0831C80.9772 65.6777 80.4104 66.1845 79.8166 66.6373C78.6223 67.5292 77.3268 68.2387 76.0245 68.9009C70.8086 71.5498 64.9855 73.1039 59.1219 73.0634C56.1934 73.0228 53.2717 72.5701 50.4985 71.6511C47.7252 70.7321 45.1207 69.2388 43.0559 67.1508C42.8063 66.8873 42.5364 66.6305 42.3002 66.3535L41.6389 65.4615C41.1801 64.8804 40.8157 64.2587 40.3974 63.6573C39.5674 62.4613 38.7173 61.2855 37.8468 60.1165C36.1464 57.7718 34.2976 55.4203 33.3732 52.5687C32.9144 51.1565 32.7052 49.6631 32.6782 48.19C32.6849 47.8184 32.6714 47.4467 32.6849 47.0819L32.7659 45.9804C32.8199 45.2439 32.9683 44.4736 33.272 43.7776C33.5621 43.0748 33.9805 42.4261 34.4798 41.8585C34.9926 41.2977 35.5796 40.8247 36.2004 40.4125C37.4487 39.5881 38.8387 39.0543 40.2422 38.6286C43.0559 37.7907 45.9506 37.3852 48.8386 37.0339L57.5227 36.0473Z" fill="url(#paint4_radial)"/>
</g>
<defs>
<filter id="filter0_d" x="0.288818" y="0.991455" width="112.274" height="109.899" filterUnits="userSpaceOnUse" color-interpolation-filters="sRGB">
<feFlood flood-opacity="0" result="BackgroundImageFix"/>
<feColorMatrix in="SourceAlpha" type="matrix" values="0 0 0 0 0 0 0 0 0 0 0 0 0 0 0 0 0 0 127 0"/>
<feOffset/>
<feGaussianBlur stdDeviation="15"/>
<feColorMatrix type="matrix" values="0 0 0 0 0.407843 0 0 0 0 0.305882 0 0 0 0 0.956863 0 0 0 0.5 0"/>
<feBlend mode="normal" in2="BackgroundImageFix" result="effect1_dropShadow"/>
<feBlend mode="normal" in="SourceGraphic" in2="effect1_dropShadow" result="shape"/>
</filter>
<radialGradient id="paint0_radial" cx="0" cy="0" r="1" gradientUnits="userSpaceOnUse" gradientTransform="translate(34.9494 78.2345) rotate(-45) scale(59.3288 37.8256)">
<stop stop-color="#00C2DC"/>
<stop offset="0.512921" stop-color="#4815B5"/>
<stop offset="1"/>
</radialGradient>
<radialGradient id="paint1_radial" cx="0" cy="0" r="1" gradientUnits="userSpaceOnUse" gradientTransform="translate(56.6026 78.0689) rotate(-96.3008) scale(27.0376 47.1314)">
<stop stop-color="#7B2978"/>
<stop offset="1" stop-color="#2A1CD0"/>
</radialGradient>
<linearGradient id="paint2_linear" x1="68.4518" y1="69.1681" x2="55.1295" y2="50.5474" gradientUnits="userSpaceOnUse">
<stop stop-color="#46007E"/>
<stop offset="0.520833" stop-color="#1D5FE0"/>
<stop offset="1" stop-color="#CD1B9B"/>
</linearGradient>
<linearGradient id="paint3_linear" x1="68.367" y1="68.6284" x2="54.366" y2="50.2413" gradientUnits="userSpaceOnUse">
<stop stop-color="#46007E"/>
<stop offset="0.520833" stop-color="#1D5FE0"/>
<stop offset="1" stop-color="#CD1B9B"/>
</linearGradient>
<radialGradient id="paint4_radial" cx="0" cy="0" r="1" gradientUnits="userSpaceOnUse" gradientTransform="translate(82.5549 35.5578) rotate(142.988) scale(62.4526 213.96)">
<stop stop-color="#078FE1"/>
<stop offset="1" stop-color="#2A1BD0"/>
</radialGradient>
</defs>
</svg>
