<svg width="346" height="344" viewBox="0 0 346 344" fill="none" xmlns="http://www.w3.org/2000/svg">
<path d="M153.619 4.9178C183.403 11.051 202.837 37.3974 228.326 53.9802C255.525 71.6762 289.525 79.3334 308.48 105.671C329.982 135.545 356.219 176.112 340.014 209.161C322.639 244.595 264.518 231.534 234.311 256.931C209.031 278.186 214.807 327.548 184.262 340.114C154.425 352.388 121.547 329.754 92.7749 315.156C66.8642 302.01 43.6598 284.384 27.2132 260.433C11.3685 237.357 -3.09884 209.877 1.52869 182.271C5.96827 155.785 41.7396 145.827 50.6693 120.501C62.1776 87.8609 36.0329 44.966 59.0521 19.122C80.6918 -5.17299 121.753 -1.64436 153.619 4.9178Z" fill="url(#paint0_radial)"/>
<defs>
<radialGradient id="paint0_radial" cx="0" cy="0" r="1" gradientUnits="userSpaceOnUse" gradientTransform="translate(172.852 193.084) rotate(6.41582) scale(447.073 871.703)">
<stop offset="0.13663" stop-color="#0B0238"/>
<stop offset="0.824886" stop-color="#4122FF"/>
</radialGradient>
</defs>
</svg>
