<svg width="318" height="281" viewBox="0 0 318 281" fill="none" xmlns="http://www.w3.org/2000/svg">
<path d="M89.5963 110.194C89.5963 110.194 78.926 114.419 77.3568 124.682C75.7876 134.944 100.034 165.007 100.034 165.007L174.809 124.675L151.167 83.1465L89.5963 110.194Z" fill="#C7DCF9"/>
<path d="M106.129 119.894C106.129 119.894 98.2613 127.98 95.8479 136.927C93.4345 145.873 93.1238 161.85 93.5255 167.834C105.263 178.707 151.657 169.597 151.657 169.597L196.366 116.954C196.366 116.954 188.787 102.551 184.939 98.602C181.091 94.6533 168.62 89.7434 154.23 95.5392C145.785 107.536 106.129 119.894 106.129 119.894Z" fill="#9FBCED"/>
<path d="M106.129 119.894C106.129 119.894 98.2613 127.98 95.8479 136.927C93.4345 145.873 93.1238 161.85 93.5255 167.834C105.263 178.707 151.657 169.597 151.657 169.597L196.366 116.954C196.366 116.954 188.787 102.551 184.939 98.602C181.091 94.6533 168.62 89.7434 154.23 95.5392C145.785 107.536 106.129 119.894 106.129 119.894Z" fill="url(#paint0_linear)"/>
<g style="mix-blend-mode:multiply">
<path d="M102.617 124.075C102.617 124.075 119.975 129.651 139.515 122.096C159.054 114.541 162.594 93.2617 162.594 93.2617L154.221 95.5424L106.129 119.894L102.617 124.075Z" fill="#9FBCED"/>
</g>
<path d="M149.082 177.447C149.082 177.447 195.227 189.491 201.393 191.068C207.56 192.645 223.883 229.622 230.636 233.162C237.39 236.703 243.127 230.822 250.568 226.455C258.009 222.089 264.829 216.805 265.042 214.6C265.256 212.395 262.095 203.583 259.362 201.805C256.628 200.027 248.691 199.901 244.458 202.616C238.238 185.652 229.394 160.914 221.284 157.509C213.175 154.104 188.598 152.483 188.598 152.483L149.082 177.447Z" fill="url(#paint1_linear)"/>
<g style="mix-blend-mode:multiply" opacity="0.51">
<path d="M182.944 167.586C182.944 167.586 214.236 175.116 219.172 181.773C224.109 188.429 233.891 229.16 244.841 230.125C245.016 243.318 222.339 248.084 222.339 248.084L165.684 178.038L182.944 167.586Z" fill="#9FBCED"/>
</g>
<path d="M114.317 186.014C114.317 186.014 127.812 214.345 140.051 222.073C152.291 229.801 174.466 229.176 180.583 234.237C186.7 239.297 185.407 263.608 191.52 270.048C197.634 276.488 206.236 280.433 214.276 279.708C222.317 278.982 228.75 275.121 228.832 271.499C228.914 267.877 228.59 264.736 224.812 262.804C221.033 260.872 215.711 259.264 215.481 257.011C215.252 254.759 210.978 220.468 209.205 211.148C207.432 201.827 193.661 188.863 175.913 182.332C159.107 168.246 133.295 174.281 133.295 174.281L114.317 186.014Z" fill="url(#paint2_linear)"/>
<g style="mix-blend-mode:multiply">
<path d="M118.243 193.594C118.243 193.594 133.731 194.385 147.64 188.269C144.982 174.102 136.781 169.917 136.781 169.917L114.317 186.014L118.243 193.594Z" fill="#9FBCED"/>
</g>
<path d="M139.675 45.6387C127.545 39.1392 102.125 36.9465 86.4329 56.4261C70.7412 75.9057 78.5619 96.1078 85.1556 105.513C92.0599 115.383 115.792 130.468 141.122 116.3C166.451 102.133 169.106 61.4146 139.675 45.6387Z" fill="#9FBCED"/>
<path d="M139.675 45.6387C127.545 39.1392 102.125 36.9465 86.4329 56.4261C70.7412 75.9057 78.5619 96.1078 85.1556 105.513C92.0599 115.383 115.792 130.468 141.122 116.3C166.451 102.133 169.106 61.4146 139.675 45.6387Z" fill="url(#paint3_linear)"/>
<path d="M137.588 57.5507C148.362 60.1266 155.36 75.2585 151.742 89.7465C148.123 104.234 135.658 113.976 121.667 114.054C107.676 114.133 93.764 104.571 93.8393 86.69C93.9146 69.5067 114.191 51.9591 137.588 57.5507Z" fill="url(#paint4_radial)"/>
<g style="mix-blend-mode:multiply">
<path d="M106.547 170.901C118.848 165.287 109.646 152.47 121.908 149.554C138.076 151.815 142.548 151.004 142.548 151.004C142.548 151.004 111.618 177.716 106.547 170.901Z" fill="#9FBCED"/>
</g>
<g filter="url(#filter0_ddd)">
<path d="M131.194 188.873L202.39 147.619C203.389 147.04 204.197 145.49 204.197 144.153V88.8814C204.197 87.5444 203.389 86.9307 202.39 87.51L131.194 128.763C130.196 129.343 129.384 130.892 129.384 132.229V187.489C129.384 188.838 130.196 189.452 131.194 188.873Z" fill="#B1B4C4"/>
<path d="M131.846 189.251L203.042 147.998C204.041 147.419 204.852 145.866 204.852 144.532V89.2604C204.852 87.9234 204.041 87.3097 203.042 87.8858L131.846 129.142C130.848 129.718 130.036 131.271 130.036 132.608V187.88C130.036 189.217 130.848 189.831 131.846 189.251Z" fill="#E4E7F2"/>
<path d="M131.971 189.323L203.167 148.07C204.166 147.491 204.977 145.938 204.977 144.604V89.3291C204.977 87.9952 204.166 87.3815 203.167 87.9576L131.971 129.214C130.972 129.79 130.164 131.343 130.164 132.68V187.952C130.164 189.289 130.972 189.903 131.971 189.323Z" fill="#C5DBF9"/>
</g>
<path d="M106.546 170.721C114.292 170.093 118.237 165.045 120.584 162.805C121.78 161.662 121.541 160.66 120.939 157.361C120.336 154.063 122.427 150.68 125.282 149.231C126.852 153.457 128.779 154.258 130.266 154.06C131.754 153.862 133.282 144.965 138.146 145.044C143.011 145.123 146.912 151.565 147.561 154.782C148.211 157.999 145.07 167.175 141.128 173.615C137.186 180.054 131.625 188.027 119.106 190.521C106.587 193.016 99.4695 186.617 95.3677 178.528C93.9837 175.798 93.4847 172.025 93.5286 167.822C93.5286 167.822 96.3312 171.526 106.546 170.721Z" fill="#9FBCED"/>
<path d="M106.546 170.721C114.292 170.093 118.237 165.045 120.584 162.805C121.78 161.662 121.541 160.66 120.939 157.361C120.336 154.063 122.427 150.68 125.282 149.231C126.852 153.457 128.779 154.258 130.266 154.06C131.754 153.862 133.282 144.965 138.146 145.044C143.011 145.123 146.912 151.565 147.561 154.782C148.211 157.999 145.07 167.175 141.128 173.615C137.186 180.054 131.625 188.027 119.106 190.521C106.587 193.016 99.4695 186.617 95.3677 178.528C93.9837 175.798 93.4847 172.025 93.5286 167.822C93.5286 167.822 96.3312 171.526 106.546 170.721Z" fill="url(#paint5_linear)"/>
<path d="M204.971 97.388C204.971 97.388 204.996 102.048 204.251 104.219C203.088 106.017 201.591 107.458 200.383 109.785C199.175 112.112 199.875 121.335 204.146 123.276C208.418 125.217 212.415 121.443 213.782 119.177C215.148 116.911 215.038 110.643 213.688 106.163C212.338 101.683 210.056 97.4852 204.971 97.388Z" fill="#9FBCED"/>
<path d="M204.971 97.388C204.971 97.388 204.996 102.048 204.251 104.219C203.088 106.017 201.591 107.458 200.383 109.785C199.175 112.112 199.875 121.335 204.146 123.276C208.418 125.217 212.415 121.443 213.782 119.177C215.148 116.911 215.038 110.643 213.688 106.163C212.338 101.683 210.056 97.4852 204.971 97.388Z" fill="url(#paint6_linear)"/>
<g filter="url(#filter1_d)">
<path d="M245.598 51.8733L246.59 53.8838C246.649 54.0056 246.737 54.111 246.847 54.191C246.956 54.2709 247.083 54.3229 247.217 54.3424L249.436 54.6565C249.591 54.6788 249.737 54.7441 249.857 54.8451C249.977 54.9461 250.066 55.0787 250.114 55.2279C250.163 55.3771 250.168 55.5368 250.131 55.689C250.093 55.8413 250.013 55.9798 249.901 56.089L248.297 57.6597C248.199 57.7543 248.127 57.8712 248.084 58.0004C248.042 58.1296 248.032 58.2671 248.055 58.401L248.432 60.6C248.459 60.7542 248.442 60.9128 248.383 61.0578C248.324 61.2029 248.226 61.3286 248.1 61.4208C247.973 61.5129 247.824 61.5679 247.668 61.5794C247.512 61.5909 247.356 61.5585 247.217 61.4858L245.231 60.4429C245.111 60.3794 244.977 60.3462 244.842 60.3462C244.706 60.3462 244.572 60.3794 244.452 60.4429L242.466 61.4858C242.327 61.5593 242.171 61.5924 242.014 61.5814C241.858 61.5703 241.708 61.5155 241.581 61.4232C241.454 61.3309 241.356 61.2048 241.297 61.0593C241.238 60.9137 241.221 60.7546 241.248 60.6L241.628 58.401C241.651 58.2671 241.641 58.1296 241.599 58.0004C241.557 57.8712 241.484 57.7543 241.386 57.6597L239.783 56.089C239.67 55.9798 239.59 55.8413 239.553 55.689C239.515 55.5368 239.521 55.3771 239.569 55.2279C239.617 55.0787 239.706 54.9461 239.826 54.8451C239.946 54.7441 240.092 54.6788 240.247 54.6565L242.466 54.3424C242.6 54.3229 242.727 54.2709 242.837 54.191C242.946 54.111 243.034 54.0056 243.094 53.8838L244.085 51.8733C244.154 51.7313 244.262 51.6116 244.396 51.5278C244.529 51.4441 244.684 51.3997 244.842 51.3997C244.999 51.3997 245.154 51.4441 245.288 51.5278C245.421 51.6116 245.529 51.7313 245.598 51.8733Z" fill="#F5E697"/>
</g>
<g filter="url(#filter2_d)">
<path d="M98.4653 253.157L99.297 254.844C99.3465 254.946 99.4206 255.035 99.5126 255.102C99.6045 255.169 99.7116 255.212 99.8242 255.227L101.685 255.497C101.815 255.516 101.937 255.571 102.037 255.656C102.137 255.74 102.212 255.851 102.252 255.976C102.293 256.101 102.297 256.235 102.266 256.362C102.235 256.49 102.168 256.606 102.074 256.697L100.728 258.01C100.645 258.09 100.584 258.19 100.549 258.299C100.514 258.409 100.506 258.525 100.527 258.639L100.841 260.492C100.863 260.621 100.848 260.754 100.798 260.876C100.749 260.997 100.666 261.102 100.561 261.179C100.455 261.257 100.33 261.303 100.199 261.313C100.068 261.323 99.9375 261.297 99.8211 261.237L98.1577 260.36C98.057 260.308 97.945 260.28 97.8314 260.28C97.7177 260.28 97.6057 260.308 97.505 260.36L95.8479 261.23C95.7316 261.292 95.6004 261.319 95.4693 261.31C95.3382 261.3 95.2123 261.254 95.1061 261.176C94.9999 261.099 94.9175 260.993 94.8683 260.871C94.8192 260.749 94.8052 260.615 94.828 260.486L95.1418 258.632C95.1612 258.519 95.1528 258.403 95.1173 258.293C95.0817 258.184 95.0201 258.084 94.9378 258.004L93.5946 256.691C93.5007 256.599 93.4343 256.483 93.4029 256.356C93.3715 256.229 93.3763 256.095 93.4168 255.97C93.4573 255.845 93.5318 255.734 93.632 255.65C93.7322 255.565 93.854 255.51 93.9837 255.491L95.8416 255.221C95.9546 255.205 96.0619 255.162 96.1543 255.095C96.2468 255.028 96.3215 254.94 96.372 254.838L97.2037 253.151C97.2622 253.033 97.3525 252.934 97.4644 252.865C97.5762 252.796 97.7051 252.76 97.8364 252.761C97.9678 252.761 98.0963 252.799 98.2075 252.869C98.3186 252.939 98.4079 253.039 98.4653 253.157Z" fill="#F5E697"/>
</g>
<g filter="url(#filter3_d)">
<path d="M265.881 193.092L266.372 194.087C266.401 194.147 266.445 194.199 266.499 194.239C266.553 194.278 266.617 194.304 266.683 194.313L267.781 194.472C267.857 194.483 267.929 194.516 267.988 194.566C268.048 194.616 268.091 194.681 268.115 194.755C268.139 194.829 268.142 194.907 268.124 194.983C268.105 195.058 268.066 195.126 268.01 195.18L267.216 195.955C267.167 196.002 267.131 196.061 267.11 196.125C267.09 196.19 267.085 196.259 267.098 196.325L267.283 197.419C267.296 197.495 267.287 197.573 267.258 197.645C267.228 197.717 267.18 197.779 267.117 197.824C267.055 197.87 266.981 197.897 266.904 197.903C266.827 197.909 266.75 197.893 266.681 197.858L265.7 197.341C265.64 197.31 265.574 197.294 265.507 197.294C265.44 197.294 265.374 197.31 265.315 197.341L264.337 197.854C264.269 197.891 264.191 197.907 264.114 197.901C264.037 197.895 263.962 197.868 263.9 197.822C263.837 197.777 263.788 197.714 263.759 197.642C263.73 197.57 263.722 197.492 263.736 197.415L263.921 196.322C263.932 196.255 263.927 196.186 263.906 196.122C263.885 196.057 263.849 195.999 263.8 195.951L263.008 195.176C262.953 195.122 262.913 195.054 262.895 194.979C262.876 194.904 262.879 194.825 262.903 194.751C262.927 194.678 262.971 194.612 263.03 194.562C263.089 194.512 263.161 194.48 263.238 194.469L264.334 194.309C264.4 194.3 264.464 194.274 264.518 194.235C264.573 194.196 264.617 194.143 264.647 194.083L265.137 193.088C265.172 193.019 265.225 192.96 265.291 192.92C265.357 192.879 265.433 192.858 265.51 192.858C265.588 192.858 265.664 192.88 265.729 192.922C265.795 192.963 265.848 193.022 265.881 193.092Z" fill="#F5E697"/>
</g>
<g filter="url(#filter4_d)">
<path d="M63.6384 95.1835L64.1984 96.3194C64.2318 96.3883 64.2816 96.4479 64.3436 96.4929C64.4055 96.538 64.4776 96.567 64.5534 96.5774L65.8064 96.7593C65.8938 96.7721 65.9758 96.8091 66.0433 96.8661C66.1107 96.9231 66.1609 96.9978 66.1882 97.0818C66.2154 97.1659 66.2187 97.2559 66.1975 97.3417C66.1764 97.4274 66.1317 97.5056 66.0685 97.5673L65.162 98.4514C65.1063 98.5053 65.0648 98.5721 65.0412 98.6459C65.0176 98.7197 65.0126 98.7982 65.0267 98.8744L65.238 100.122C65.2525 100.209 65.2425 100.299 65.2092 100.381C65.1758 100.462 65.1204 100.533 65.0492 100.585C64.9779 100.637 64.8936 100.668 64.8057 100.675C64.7178 100.682 64.6297 100.664 64.5513 100.624L63.4313 100.034C63.3635 99.9981 63.2881 99.9796 63.2116 99.9796C63.1351 99.9796 63.0597 99.9981 62.9918 100.034L61.8761 100.619C61.7978 100.661 61.7095 100.679 61.6212 100.673C61.5329 100.666 61.4482 100.635 61.3766 100.583C61.3051 100.531 61.2496 100.46 61.2165 100.377C61.1834 100.295 61.174 100.205 61.1893 100.118L61.4007 98.8702C61.4137 98.7938 61.4081 98.7154 61.3841 98.6417C61.3602 98.568 61.3187 98.5013 61.2633 98.4472L60.3589 97.5631C60.2957 97.5014 60.251 97.4232 60.2299 97.3374C60.2087 97.2516 60.2119 97.1616 60.2392 97.0776C60.2664 96.9936 60.3166 96.9188 60.3841 96.8618C60.4515 96.8048 60.5336 96.7679 60.6209 96.7551L61.8719 96.5732C61.9479 96.5625 62.0202 96.5335 62.0824 96.4885C62.1446 96.4435 62.195 96.384 62.229 96.3151L62.789 95.1793C62.8284 95.1001 62.8892 95.0335 62.9645 94.9871C63.0398 94.9407 63.1266 94.9163 63.215 94.9168C63.3034 94.9172 63.39 94.9424 63.4648 94.9896C63.5396 95.0367 63.5998 95.1039 63.6384 95.1835Z" fill="#F5E697"/>
</g>
<g style="mix-blend-mode:soft-light" opacity="0.48">
<path d="M128.183 75.6132C135.907 73.9092 141.68 70.311 141.078 67.5765C140.475 64.842 133.726 64.0066 126.003 65.7105C118.279 67.4145 112.506 71.0127 113.108 73.7472C113.71 76.4817 120.46 77.3172 128.183 75.6132Z" fill="white"/>
</g>
<g style="mix-blend-mode:multiply">
<path d="M145.773 163.804C145.773 163.804 136.888 155.856 135.278 155.856C133.668 155.856 129.381 162.139 130.348 163.804C131.314 165.469 136.279 170.922 141.73 172.6C143.497 169.226 145.773 163.804 145.773 163.804Z" fill="#9FBCED"/>
</g>
<g style="mix-blend-mode:multiply">
<path d="M210.984 222.526C207.874 225.104 204.38 227.179 200.628 228.673C197.11 230.03 195.92 232.807 196.984 237.903C198.048 242.998 198.644 250.942 200.841 253.035C203.038 255.127 210.595 254.015 214.512 249.152C213.285 239.571 210.984 222.526 210.984 222.526Z" fill="#9FBCED"/>
</g>
<g style="mix-blend-mode:multiply">
<path d="M231.462 170.577C231.462 170.577 227.068 172.493 227.486 175.55C227.903 178.606 232.391 193.38 234.161 194.712C235.931 196.044 241.169 193.682 241.169 193.682C235.79 178.427 231.462 170.577 231.462 170.577Z" fill="#9FBCED"/>
</g>
<g filter="url(#filter5_d)">
<path d="M86.4699 224.325C86.4699 209.731 76.2197 191.971 63.5708 184.67C57.2951 181.044 51.5982 180.681 47.4633 183.024H47.4145L47.3308 183.073C46.6753 183.457 41.6687 186.399 41.5851 186.441L43.4678 186.832C41.2016 189.621 40.6786 192.633 40.6786 197.863C40.6786 212.464 50.9288 230.217 63.5708 237.518C67.5593 239.819 71.3108 240.809 74.5741 240.621L73.2353 242.922L79.5807 239.219L79.9154 239.031L80.0827 238.933C84.0294 236.486 86.4699 231.445 86.4699 224.325Z" fill="#DD990E"/>
<path d="M74.2862 243.032C83.2687 237.869 83.3014 221.071 74.3592 205.512C65.4171 189.952 50.8863 181.524 41.9038 186.686C32.9214 191.849 32.8887 208.647 41.8308 224.206C50.773 239.765 65.3037 248.194 74.2862 243.032Z" fill="#F9CB07"/>
<path d="M73.7722 224.185C73.7722 234.645 66.4367 238.871 57.3788 233.648C56.821 233.32 56.2562 232.95 55.7053 232.581C55.6827 232.573 55.6632 232.559 55.6495 232.539C47.4075 226.786 41.0063 215.037 41.0063 205.261C41.0063 194.801 48.3489 190.569 57.3997 195.792C58.3731 196.362 59.3051 197.001 60.1889 197.702C67.908 203.685 73.7722 214.842 73.7722 224.185Z" fill="#CC8B09"/>
<path d="M73.7722 224.185C73.7722 234.645 66.4366 238.871 57.3787 233.648C56.8209 233.32 56.2561 232.95 55.7052 232.581C55.6827 232.573 55.6631 232.559 55.6495 232.539C47.9025 226.563 42.0104 215.386 42.0104 206.042C42.0104 195.582 49.3459 191.35 58.3968 196.58C59.0034 196.928 59.6031 197.312 60.1888 197.73C67.9079 203.685 73.7722 214.842 73.7722 224.185Z" fill="#E8A30A"/>
<path d="M65.0979 218.816C64.5626 217.743 63.8098 216.793 62.8874 216.027C64.1426 216.027 64.6934 215.072 64.54 213.238C64.4929 212.571 64.3374 211.916 64.0798 211.299C63.8182 210.67 63.4658 210.083 63.0339 209.556C62.6039 209.01 62.1255 208.503 61.6044 208.043C61.0441 207.556 60.4524 207.107 59.8333 206.697V203.03L57.8878 201.9L57.1905 202.311L57.8878 203.336V205.484C57.5531 205.289 57.0371 204.996 56.3468 204.619V201.014L54.3944 199.885L53.6971 200.296L54.3944 200.993V203.58L53.1672 202.883L50.4895 201.321L49.7922 201.726L50.4895 202.562V203.713L51.8841 204.522C52.1886 204.688 52.4497 204.923 52.646 205.209C52.8422 205.495 52.9683 205.824 53.0137 206.167V210.351L53.216 210.484L53.0137 210.365V216.236C52.944 216.697 52.7 216.801 52.2816 216.557L50.887 215.748L50.1897 216.153L50.7266 216.85L50.5105 218.182L53.0416 219.639L53.7389 220.051L54.4362 220.448V224.179L55.5798 224.834L55.6704 225.706L56.3677 225.301V221.633C56.7233 221.85 57.2324 222.149 57.9088 222.54V226.208L59.0175 226.842L59.143 227.735L59.8403 227.33V223.607C60.4374 223.923 61.052 224.204 61.6811 224.45C62.1771 224.641 62.6947 224.77 63.2221 224.834C63.637 224.892 64.0598 224.841 64.4494 224.688C64.8039 224.506 65.0901 224.215 65.2652 223.858C65.5011 223.358 65.6406 222.819 65.6766 222.268C65.7987 221.086 65.5987 219.894 65.0979 218.816ZM57.5671 207.932C57.7484 208.029 57.9924 208.183 58.2992 208.392C58.6061 208.601 58.864 208.789 59.0802 208.957C59.3255 209.156 59.5583 209.37 59.7775 209.598C60.0114 209.824 60.2153 210.08 60.3841 210.358C60.5448 210.622 60.6757 210.902 60.7746 211.195C60.8775 211.5 60.9293 211.821 60.928 212.143C60.939 212.381 60.901 212.618 60.8165 212.841C60.7873 212.921 60.7419 212.995 60.6831 213.057C60.6244 213.12 60.5535 213.169 60.4748 213.203C60.3263 213.268 60.1688 213.311 60.0076 213.329C59.7995 213.344 59.5905 213.315 59.394 213.245C59.143 213.168 58.9268 213.099 58.7455 213.029C58.5066 212.937 58.2737 212.829 58.0482 212.708L57.4137 212.373C57.2742 212.297 57.072 212.185 56.8279 212.032L56.3887 211.774V207.269L56.8907 207.548L57.5671 207.932ZM61.702 220.288C61.6348 220.446 61.5294 220.585 61.3952 220.692C61.2454 220.788 61.0711 220.839 60.8932 220.838C60.6926 220.848 60.4916 220.836 60.2935 220.804C60.056 220.755 59.8229 220.687 59.5962 220.601C59.359 220.515 59.1263 220.418 58.8989 220.309C58.6897 220.211 58.4457 220.092 58.1598 219.939L57.4625 219.576L56.8489 219.2L56.3817 218.928V214.005L56.9883 214.319C57.323 214.5 57.595 214.653 57.8042 214.779C58.0203 214.898 58.3062 215.079 58.6827 215.323C59.0593 215.567 59.38 215.79 59.6171 216.02C59.8542 216.25 60.1471 216.473 60.4469 216.766C60.7057 217.032 60.9392 217.322 61.1442 217.631C61.333 217.927 61.4896 218.243 61.6114 218.572C61.7345 218.907 61.7982 219.261 61.7997 219.618C61.8115 219.846 61.7783 220.073 61.702 220.288Z" fill="#CC8B09"/>
<path d="M64.3796 219.2C63.8466 218.125 63.0935 217.175 62.1692 216.411C63.4243 216.411 63.9775 215.481 63.8288 213.621C63.7751 212.955 63.6175 212.301 63.3616 211.683C63.1035 211.054 62.7533 210.466 62.3226 209.94C61.9006 209.408 61.434 208.914 60.928 208.461C60.3652 207.976 59.7737 207.524 59.1569 207.109V203.434L57.2114 202.311V205.888L55.6634 205.024V201.419L53.718 200.296V203.978C53.4391 203.824 53.0207 203.594 52.4908 203.281L49.8062 201.719V204.11L51.2008 204.926C51.5042 205.091 51.7641 205.326 51.9593 205.61C52.1545 205.895 52.2792 206.222 52.3234 206.565V210.749L52.5256 210.881L52.3234 210.77V216.634C52.2606 217.094 52.0096 217.199 51.5912 216.961L50.1966 216.146L49.7992 218.593L52.3304 220.057L53.0277 220.462L53.725 220.866V224.59L55.6704 225.713V222.038C56.026 222.254 56.542 222.554 57.2184 222.944V226.612L59.1639 227.735V224.011C59.7597 224.33 60.3745 224.611 61.0047 224.855C61.4983 225.045 62.0136 225.174 62.5388 225.238C62.9535 225.304 63.3783 225.253 63.766 225.092C64.1221 224.913 64.4089 224.621 64.5819 224.262C64.8259 223.766 64.9659 223.225 64.9933 222.672C65.1152 221.48 64.9028 220.278 64.3796 219.2ZM55.6704 207.674L56.1655 207.959L56.8628 208.336C57.0441 208.441 57.2881 208.594 57.6019 208.796C57.9157 208.998 58.1667 209.194 58.3759 209.361C58.6194 209.565 58.8521 209.781 59.0732 210.009C59.3012 210.239 59.5045 210.491 59.6799 210.763C59.8381 211.027 59.9667 211.307 60.0634 211.599C60.1679 211.905 60.222 212.225 60.2238 212.548C60.2317 212.785 60.1939 213.022 60.1122 213.245C60.0514 213.408 59.9321 213.542 59.7775 213.621C59.6255 213.684 59.4661 213.726 59.3033 213.747C59.0972 213.755 58.8913 213.725 58.6967 213.656C58.4457 213.587 58.2295 213.51 58.0412 213.447C57.853 213.384 57.6228 213.266 57.3439 213.126C57.065 212.987 56.8558 212.868 56.7163 212.785L56.1237 212.45L55.6913 212.185V207.674H55.6704ZM60.9838 220.692C60.9208 220.853 60.8146 220.993 60.677 221.096C60.5302 221.2 60.3544 221.253 60.1749 221.25C59.9741 221.257 59.7731 221.243 59.5753 221.208C59.3377 221.16 59.1045 221.092 58.878 221.006C58.6409 220.92 58.4082 220.822 58.1807 220.713C57.9785 220.622 57.7274 220.497 57.4415 220.343C57.1556 220.19 56.9325 220.071 56.7442 219.981L56.1376 219.625L55.6704 219.346V214.409L56.2701 214.744L57.0859 215.197C57.2951 215.323 57.588 215.504 57.9576 215.748C58.3271 215.992 58.6548 216.215 58.8919 216.445C59.1816 216.679 59.4586 216.928 59.7217 217.192C59.9828 217.455 60.2165 217.745 60.419 218.056C60.6105 218.351 60.7672 218.667 60.8862 218.998C61.0147 219.331 61.0809 219.686 61.0814 220.044C61.0945 220.264 61.0613 220.485 60.9838 220.692Z" fill="#F9CA06"/>
</g>
<g filter="url(#filter6_d)">
<path d="M169.728 40.5061C169.728 48.8231 175.569 58.9441 182.777 63.1045C186.353 65.1708 189.6 65.3775 191.956 64.0423H191.984L192.032 64.0145C192.405 63.7959 195.258 62.119 195.306 62.0952L194.233 61.8727C195.525 60.2832 195.823 58.5666 195.823 55.5863C195.823 47.2654 189.981 37.1484 182.777 32.9879C180.504 31.6766 178.366 31.1123 176.507 31.2196L177.27 29.9083L173.654 32.0183L173.463 32.1256L173.367 32.1812C171.118 33.576 169.728 36.449 169.728 40.5061Z" fill="#DD990E"/>
<path d="M176.671 29.8457C171.552 32.7876 171.533 42.3605 176.629 51.2273C181.725 60.0941 190.006 64.8973 195.124 61.9554C200.243 59.0135 200.262 49.4407 195.166 40.5738C190.07 31.707 181.79 26.9039 176.671 29.8457Z" fill="#F9CB07"/>
<path d="M176.964 40.5856C176.964 34.6251 181.144 32.217 186.306 35.1933C186.624 35.3801 186.945 35.5907 187.259 35.8013C187.272 35.8056 187.283 35.814 187.291 35.8251C191.988 39.1034 195.636 45.7991 195.636 51.3702C195.636 57.3307 191.452 59.7428 186.294 56.7665C185.739 56.4413 185.208 56.0774 184.704 55.6777C180.305 52.2683 176.964 45.9104 176.964 40.5856Z" fill="#CC8B09"/>
<path d="M176.964 40.5855C176.964 34.625 181.144 32.2169 186.306 35.1932C186.624 35.38 186.946 35.5906 187.259 35.8012C187.272 35.8056 187.283 35.8139 187.291 35.8251C191.706 39.2305 195.064 45.6003 195.064 50.9251C195.064 56.8856 190.883 59.2977 185.726 56.3174C185.38 56.1187 185.038 55.9002 184.704 55.6617C180.305 52.2682 176.964 45.9103 176.964 40.5855Z" fill="#E8A30A"/>
<path d="M181.907 43.6453C182.212 44.2568 182.641 44.7981 183.166 45.2347C182.451 45.2347 182.137 45.7791 182.225 46.8242C182.252 47.2042 182.34 47.5774 182.487 47.9289C182.636 48.2874 182.837 48.6221 183.083 48.9223C183.328 49.2337 183.601 49.5223 183.898 49.7846C184.217 50.062 184.554 50.3182 184.907 50.5515V52.6417L186.016 53.2854L186.413 53.051L186.016 52.4669V51.243C186.206 51.3542 186.5 51.5211 186.894 51.7357V53.7901L188.006 54.4338L188.404 54.1994L188.006 53.802V52.3278L188.706 52.7251L190.232 53.6153L190.629 53.3848L190.232 52.9079V52.2523L189.437 51.7913C189.263 51.6967 189.115 51.5625 189.003 51.3995C188.891 51.2366 188.819 51.0495 188.793 50.8535V48.4693L188.678 48.3938L188.793 48.4614V45.1155C188.833 44.8533 188.972 44.7937 189.21 44.9327L190.005 45.3937L190.403 45.1632L190.097 44.7658L190.22 44.0069L188.777 43.1764L188.38 42.9419L187.983 42.7154V40.5895L187.331 40.216L187.279 39.7193L186.882 39.9497V42.0399C186.679 41.9167 186.389 41.7458 186.004 41.5233V39.4331L185.372 39.0715L185.3 38.5629L184.903 38.7934V40.9153C184.563 40.7354 184.212 40.5748 183.854 40.4345C183.571 40.3258 183.276 40.2524 182.976 40.216C182.739 40.183 182.498 40.2117 182.276 40.2994C182.074 40.4026 181.911 40.5685 181.811 40.7723C181.677 41.0569 181.598 41.3642 181.577 41.6783C181.507 42.3517 181.621 43.0314 181.907 43.6453ZM186.198 49.8482C186.095 49.7926 185.956 49.7051 185.781 49.5859C185.606 49.4667 185.459 49.3594 185.336 49.2641C185.196 49.1504 185.064 49.0283 184.939 48.8985C184.805 48.7695 184.689 48.6239 184.593 48.4654C184.502 48.3151 184.427 48.1552 184.371 47.9885C184.312 47.8144 184.282 47.6318 184.283 47.4481C184.277 47.3127 184.298 47.1774 184.347 47.0507C184.363 47.0048 184.389 46.9628 184.423 46.9273C184.456 46.8917 184.497 46.8634 184.541 46.8441C184.626 46.8069 184.716 46.7828 184.808 46.7726C184.926 46.7641 185.045 46.7803 185.157 46.8202C185.3 46.864 185.424 46.9037 185.527 46.9434C185.663 46.996 185.796 47.057 185.924 47.1262L186.286 47.317C186.365 47.3607 186.481 47.4242 186.62 47.5117L186.87 47.6587V50.2257L186.584 50.0667L186.198 49.8482ZM183.842 42.8068C183.88 42.7167 183.94 42.6375 184.017 42.5763C184.102 42.5217 184.202 42.4927 184.303 42.4929C184.417 42.4874 184.532 42.494 184.645 42.5128C184.78 42.5405 184.913 42.579 185.042 42.628C185.177 42.677 185.31 42.7327 185.439 42.7949C185.559 42.8505 185.698 42.9181 185.861 43.0055L186.258 43.2121L186.608 43.4267L186.874 43.5817V46.3871L186.528 46.2083C186.337 46.105 186.183 46.0176 186.063 45.946C185.94 45.8785 185.777 45.7752 185.563 45.6361C185.348 45.497 185.165 45.3698 185.03 45.2387C184.895 45.1076 184.728 44.9804 184.557 44.8135C184.41 44.662 184.277 44.497 184.16 44.3208C184.052 44.152 183.963 43.9721 183.894 43.7843C183.824 43.5934 183.787 43.3917 183.786 43.1883C183.78 43.0587 183.799 42.9291 183.842 42.8068Z" fill="#CC8B09"/>
<path d="M182.316 43.4268C182.62 44.0391 183.049 44.5807 183.576 45.0163C182.861 45.0163 182.545 45.5461 182.63 46.6057C182.661 46.9856 182.75 47.3583 182.896 47.7104C183.043 48.0691 183.243 48.4038 183.488 48.7038C183.729 49.0067 183.995 49.2885 184.283 49.5463C184.604 49.8232 184.941 50.0806 185.292 50.3172V52.4113L186.401 53.0511V51.0126L187.283 51.5053V53.5597L188.392 54.1995V52.1014C188.551 52.1888 188.789 52.3199 189.091 52.4987L190.621 53.3888V52.0259L189.826 51.5609C189.654 51.467 189.505 51.3334 189.394 51.171C189.283 51.0087 189.212 50.8223 189.187 50.6271V48.2429L189.071 48.1674L189.187 48.231V44.8891C189.222 44.6268 189.365 44.5672 189.604 44.7023L190.399 45.1673L190.625 43.7725L189.183 42.938L188.785 42.7075L188.388 42.4771V40.3551L187.279 39.7154V41.8095C187.077 41.6863 186.783 41.5154 186.397 41.2929V39.2027L185.288 38.563V40.6849C184.949 40.5035 184.599 40.3429 184.239 40.2041C183.958 40.0955 183.664 40.0221 183.365 39.9856C183.129 39.9483 182.887 39.9771 182.666 40.069C182.463 40.171 182.299 40.3373 182.201 40.5419C182.062 40.8247 181.982 41.1331 181.966 41.4479C181.897 42.1272 182.018 42.8124 182.316 43.4268ZM187.279 49.9953L186.997 49.8324L186.6 49.6178C186.496 49.5582 186.357 49.4708 186.179 49.3555C186 49.2403 185.857 49.129 185.737 49.0337C185.599 48.9174 185.466 48.7941 185.34 48.6641C185.21 48.5335 185.094 48.3897 184.994 48.2349C184.904 48.0845 184.831 47.9246 184.776 47.7581C184.716 47.5841 184.685 47.4016 184.684 47.2177C184.68 47.0824 184.701 46.9475 184.748 46.8203C184.783 46.7275 184.851 46.651 184.939 46.6057C185.025 46.5703 185.116 46.5463 185.209 46.5342C185.326 46.5294 185.444 46.5469 185.555 46.5859C185.698 46.6256 185.821 46.6693 185.928 46.7051C186.036 46.7408 186.167 46.8084 186.326 46.8879C186.485 46.9673 186.604 47.0349 186.683 47.0826L187.021 47.2733L187.267 47.4243V49.9953H187.279ZM184.251 42.5764C184.287 42.4849 184.348 42.4052 184.426 42.3459C184.51 42.2871 184.61 42.2565 184.712 42.2585C184.827 42.2544 184.941 42.2624 185.054 42.2824C185.189 42.31 185.322 42.3485 185.451 42.3976C185.586 42.4468 185.719 42.5025 185.849 42.5645C185.964 42.6161 186.107 42.6877 186.27 42.7751C186.433 42.8625 186.56 42.9301 186.667 42.9817L187.013 43.1844L187.279 43.3433V46.1567L186.938 45.966L186.473 45.7077C186.353 45.6362 186.187 45.5328 185.976 45.3938C185.765 45.2547 185.579 45.1275 185.443 44.9964C185.278 44.8632 185.12 44.7212 184.971 44.5712C184.822 44.4208 184.689 44.2557 184.573 44.0785C184.464 43.9105 184.375 43.7305 184.307 43.542C184.234 43.3518 184.196 43.1498 184.196 42.946C184.188 42.8202 184.207 42.6944 184.251 42.5764Z" fill="#F9CA06"/>
</g>
<g filter="url(#filter7_d)">
<path d="M291.001 106.405C291.001 114.197 285.528 123.68 278.775 127.577C275.424 129.513 272.382 129.707 270.175 128.456H270.149L270.104 128.43C269.754 128.225 267.081 126.654 267.036 126.632L268.041 126.423C266.831 124.934 266.552 123.326 266.552 120.534C266.552 112.738 272.025 103.259 278.775 99.3612C280.904 98.1326 282.907 97.6039 284.649 97.7045L283.935 96.4759L287.323 98.4528L287.501 98.5533L287.591 98.6054C289.698 99.9122 291.001 102.604 291.001 106.405Z" fill="#DD990E"/>
<path d="M284.496 96.417C289.292 99.1733 289.309 108.142 284.535 116.449C279.76 124.757 272.002 129.257 267.206 126.501C262.411 123.744 262.393 114.776 267.167 106.468C271.942 98.1609 279.7 93.6608 284.496 96.417Z" fill="#F9CB07"/>
<path d="M284.221 106.479C284.221 100.895 280.305 98.6387 275.469 101.427C275.171 101.602 274.869 101.8 274.575 101.997C274.563 102.001 274.553 102.009 274.545 102.019C270.145 105.091 266.727 111.364 266.727 116.583C266.727 122.168 270.648 124.428 275.48 121.639C276 121.334 276.497 120.994 276.969 120.619C281.09 117.425 284.221 111.468 284.221 106.479Z" fill="#CC8B09"/>
<path d="M284.221 106.479C284.221 100.895 280.305 98.6388 275.469 101.427C275.171 101.602 274.869 101.8 274.575 101.997C274.563 102.001 274.553 102.009 274.545 102.019C270.409 105.21 267.263 111.178 267.263 116.166C267.263 121.751 271.18 124.011 276.012 121.219C276.336 121.032 276.656 120.828 276.969 120.604C281.09 117.425 284.221 111.468 284.221 106.479Z" fill="#E8A30A"/>
<path d="M279.59 109.346C279.304 109.919 278.902 110.426 278.41 110.835C279.08 110.835 279.374 111.345 279.292 112.324C279.267 112.68 279.184 113.03 279.047 113.359C278.907 113.695 278.719 114.009 278.488 114.29C278.259 114.582 278.003 114.852 277.725 115.098C277.426 115.358 277.11 115.598 276.779 115.817V117.775L275.741 118.378L275.368 118.158L275.741 117.611V116.464C275.562 116.569 275.286 116.725 274.918 116.926V118.851L273.875 119.454L273.503 119.234L273.875 118.862V117.481L273.22 117.853L271.79 118.687L271.418 118.471L271.79 118.024V117.41L272.535 116.978C272.698 116.889 272.837 116.764 272.942 116.611C273.047 116.458 273.114 116.283 273.138 116.099V113.866L273.246 113.795L273.138 113.858V110.724C273.101 110.478 272.971 110.422 272.747 110.552L272.003 110.984L271.63 110.768L271.917 110.396L271.802 109.685L273.153 108.907L273.525 108.687L273.898 108.475V106.483L274.508 106.133L274.557 105.668L274.929 105.884V107.842C275.119 107.727 275.391 107.566 275.752 107.358V105.4L276.344 105.061L276.411 104.584L276.783 104.8V106.788C277.102 106.62 277.43 106.469 277.766 106.338C278.031 106.236 278.307 106.167 278.589 106.133C278.81 106.102 279.036 106.129 279.244 106.211C279.433 106.308 279.586 106.463 279.679 106.654C279.805 106.921 279.88 107.209 279.899 107.503C279.964 108.134 279.857 108.771 279.59 109.346ZM275.569 115.158C275.666 115.105 275.796 115.024 275.96 114.912C276.124 114.8 276.262 114.7 276.377 114.61C276.508 114.504 276.632 114.389 276.749 114.268C276.874 114.147 276.983 114.011 277.073 113.862C277.159 113.721 277.229 113.571 277.282 113.415C277.337 113.252 277.364 113.081 277.364 112.909C277.37 112.782 277.349 112.655 277.304 112.537C277.289 112.494 277.264 112.454 277.233 112.421C277.202 112.388 277.164 112.361 277.122 112.343C277.042 112.308 276.958 112.286 276.872 112.276C276.761 112.268 276.65 112.283 276.545 112.321C276.411 112.362 276.295 112.399 276.198 112.436C276.071 112.485 275.947 112.542 275.826 112.607L275.487 112.786C275.413 112.827 275.305 112.887 275.175 112.968L274.94 113.106V115.511L275.208 115.362L275.569 115.158ZM277.777 108.56C277.741 108.476 277.685 108.402 277.613 108.345C277.533 108.293 277.44 108.266 277.345 108.266C277.238 108.261 277.131 108.267 277.025 108.285C276.898 108.311 276.774 108.347 276.653 108.393C276.526 108.439 276.402 108.491 276.28 108.549C276.169 108.601 276.038 108.665 275.886 108.747L275.513 108.94L275.186 109.141L274.936 109.286V111.915L275.26 111.747C275.439 111.651 275.584 111.569 275.696 111.502C275.811 111.438 275.964 111.342 276.165 111.211C276.366 111.081 276.537 110.962 276.664 110.839C276.79 110.716 276.947 110.597 277.107 110.441C277.245 110.299 277.37 110.144 277.479 109.979C277.58 109.821 277.664 109.652 277.729 109.476C277.794 109.297 277.828 109.108 277.829 108.918C277.835 108.796 277.818 108.675 277.777 108.56Z" fill="#CC8B09"/>
<path d="M279.207 109.141C278.922 109.715 278.52 110.222 278.026 110.63C278.696 110.63 278.992 111.127 278.912 112.12C278.884 112.475 278.8 112.825 278.663 113.155C278.525 113.491 278.338 113.804 278.108 114.085C277.883 114.369 277.634 114.633 277.364 114.875C277.063 115.134 276.747 115.375 276.418 115.597V117.559L275.379 118.158V116.248L274.553 116.71V118.635L273.514 119.234V117.268C273.365 117.35 273.142 117.473 272.859 117.641L271.426 118.475V117.198L272.17 116.762C272.332 116.674 272.471 116.549 272.575 116.397C272.679 116.245 272.746 116.07 272.77 115.887V113.653L272.877 113.583L272.77 113.642V110.511C272.736 110.266 272.602 110.21 272.379 110.336L271.634 110.772L271.422 109.465L272.773 108.683L273.146 108.467L273.518 108.251V106.263L274.557 105.664V107.626C274.746 107.511 275.022 107.35 275.383 107.142V105.184L276.422 104.584V106.572C276.74 106.402 277.068 106.252 277.405 106.122C277.668 106.02 277.943 105.951 278.224 105.917C278.445 105.882 278.672 105.909 278.879 105.995C279.069 106.091 279.222 106.247 279.314 106.438C279.445 106.703 279.52 106.992 279.534 107.287C279.599 107.924 279.486 108.566 279.207 109.141ZM274.557 115.295L274.821 115.143L275.193 114.942C275.29 114.886 275.42 114.804 275.588 114.696C275.755 114.588 275.889 114.484 276.001 114.394C276.131 114.285 276.255 114.17 276.373 114.048C276.495 113.926 276.604 113.791 276.697 113.646C276.782 113.505 276.85 113.355 276.902 113.199C276.958 113.036 276.987 112.865 276.988 112.693C276.992 112.566 276.972 112.44 276.928 112.321C276.896 112.234 276.832 112.162 276.749 112.12C276.668 112.086 276.583 112.064 276.496 112.053C276.386 112.048 276.276 112.064 276.172 112.101C276.038 112.138 275.923 112.179 275.822 112.213C275.722 112.246 275.599 112.309 275.45 112.384C275.301 112.458 275.189 112.522 275.115 112.566L274.799 112.745L274.568 112.886V115.295H274.557ZM277.393 108.344C277.36 108.259 277.303 108.184 277.23 108.129C277.151 108.073 277.057 108.045 276.962 108.047C276.854 108.043 276.747 108.05 276.641 108.069C276.515 108.095 276.39 108.131 276.269 108.177C276.143 108.223 276.018 108.275 275.897 108.333C275.789 108.382 275.655 108.449 275.502 108.531C275.35 108.613 275.23 108.676 275.13 108.724L274.806 108.914L274.557 109.063V111.699L274.877 111.52L275.312 111.278C275.424 111.211 275.58 111.114 275.778 110.984C275.975 110.854 276.15 110.735 276.277 110.612C276.431 110.487 276.579 110.354 276.72 110.213C276.859 110.073 276.984 109.918 277.092 109.752C277.194 109.594 277.278 109.426 277.341 109.249C277.41 109.071 277.445 108.882 277.446 108.691C277.453 108.573 277.435 108.455 277.393 108.344Z" fill="#F9CA06"/>
</g>
<defs>
<filter id="filter0_ddd" x="67.3844" y="25.2917" width="175.592" height="202.25" filterUnits="userSpaceOnUse" color-interpolation-filters="sRGB">
<feFlood flood-opacity="0" result="BackgroundImageFix"/>
<feColorMatrix in="SourceAlpha" type="matrix" values="0 0 0 0 0 0 0 0 0 0 0 0 0 0 0 0 0 0 127 0"/>
<feOffset dx="-12" dy="-12"/>
<feGaussianBlur stdDeviation="25"/>
<feColorMatrix type="matrix" values="0 0 0 0 0 0 0 0 0 0.677083 0 0 0 0 1 0 0 0 0.6 0"/>
<feBlend mode="normal" in2="BackgroundImageFix" result="effect1_dropShadow"/>
<feColorMatrix in="SourceAlpha" type="matrix" values="0 0 0 0 0 0 0 0 0 0 0 0 0 0 0 0 0 0 127 0"/>
<feOffset dx="-4" dy="-4"/>
<feGaussianBlur stdDeviation="20"/>
<feColorMatrix type="matrix" values="0 0 0 0 0.470833 0 0 0 0 0.971807 0 0 0 0 1 0 0 0 0.8 0"/>
<feBlend mode="normal" in2="effect1_dropShadow" result="effect2_dropShadow"/>
<feColorMatrix in="SourceAlpha" type="matrix" values="0 0 0 0 0 0 0 0 0 0 0 0 0 0 0 0 0 0 127 0"/>
<feOffset dx="-8" dy="-8"/>
<feGaussianBlur stdDeviation="20"/>
<feColorMatrix type="matrix" values="0 0 0 0 0.0923437 0 0 0 0 0.820833 0 0 0 0 0.733414 0 0 0 1 0"/>
<feBlend mode="normal" in2="effect2_dropShadow" result="effect3_dropShadow"/>
<feBlend mode="normal" in="SourceGraphic" in2="effect3_dropShadow" result="shape"/>
</filter>
<filter id="filter1_d" x="224.528" y="36.3997" width="40.6274" height="40.1838" filterUnits="userSpaceOnUse" color-interpolation-filters="sRGB">
<feFlood flood-opacity="0" result="BackgroundImageFix"/>
<feColorMatrix in="SourceAlpha" type="matrix" values="0 0 0 0 0 0 0 0 0 0 0 0 0 0 0 0 0 0 127 0"/>
<feOffset/>
<feGaussianBlur stdDeviation="7.5"/>
<feColorMatrix type="matrix" values="0 0 0 0 0.960784 0 0 0 0 0.901961 0 0 0 0 0.592157 0 0 0 1 0"/>
<feBlend mode="normal" in2="BackgroundImageFix" result="effect1_dropShadow"/>
<feBlend mode="normal" in="SourceGraphic" in2="effect1_dropShadow" result="shape"/>
</filter>
<filter id="filter2_d" x="78.3824" y="237.761" width="38.9041" height="38.5544" filterUnits="userSpaceOnUse" color-interpolation-filters="sRGB">
<feFlood flood-opacity="0" result="BackgroundImageFix"/>
<feColorMatrix in="SourceAlpha" type="matrix" values="0 0 0 0 0 0 0 0 0 0 0 0 0 0 0 0 0 0 127 0"/>
<feOffset/>
<feGaussianBlur stdDeviation="7.5"/>
<feColorMatrix type="matrix" values="0 0 0 0 0.960784 0 0 0 0 0.901961 0 0 0 0 0.592157 0 0 0 1 0"/>
<feBlend mode="normal" in2="BackgroundImageFix" result="effect1_dropShadow"/>
<feBlend mode="normal" in="SourceGraphic" in2="effect1_dropShadow" result="shape"/>
</filter>
<filter id="filter3_d" x="247.883" y="177.858" width="35.2528" height="35.0465" filterUnits="userSpaceOnUse" color-interpolation-filters="sRGB">
<feFlood flood-opacity="0" result="BackgroundImageFix"/>
<feColorMatrix in="SourceAlpha" type="matrix" values="0 0 0 0 0 0 0 0 0 0 0 0 0 0 0 0 0 0 127 0"/>
<feOffset/>
<feGaussianBlur stdDeviation="7.5"/>
<feColorMatrix type="matrix" values="0 0 0 0 0.960784 0 0 0 0 0.901961 0 0 0 0 0.592157 0 0 0 1 0"/>
<feBlend mode="normal" in2="BackgroundImageFix" result="effect1_dropShadow"/>
<feBlend mode="normal" in="SourceGraphic" in2="effect1_dropShadow" result="shape"/>
</filter>
<filter id="filter4_d" x="45.2161" y="79.9167" width="35.9952" height="35.7598" filterUnits="userSpaceOnUse" color-interpolation-filters="sRGB">
<feFlood flood-opacity="0" result="BackgroundImageFix"/>
<feColorMatrix in="SourceAlpha" type="matrix" values="0 0 0 0 0 0 0 0 0 0 0 0 0 0 0 0 0 0 127 0"/>
<feOffset/>
<feGaussianBlur stdDeviation="7.5"/>
<feColorMatrix type="matrix" values="0 0 0 0 0.960784 0 0 0 0 0.901961 0 0 0 0 0.592157 0 0 0 1 0"/>
<feBlend mode="normal" in2="BackgroundImageFix" result="effect1_dropShadow"/>
<feBlend mode="normal" in="SourceGraphic" in2="effect1_dropShadow" result="shape"/>
</filter>
<filter id="filter5_d" x="11.1455" y="157.545" width="99.3244" height="111.005" filterUnits="userSpaceOnUse" color-interpolation-filters="sRGB">
<feFlood flood-opacity="0" result="BackgroundImageFix"/>
<feColorMatrix in="SourceAlpha" type="matrix" values="0 0 0 0 0 0 0 0 0 0 0 0 0 0 0 0 0 0 127 0"/>
<feOffset/>
<feGaussianBlur stdDeviation="12"/>
<feColorMatrix type="matrix" values="0 0 0 0 0.976471 0 0 0 0 0.796078 0 0 0 0 0.027451 0 0 0 1 0"/>
<feBlend mode="normal" in2="BackgroundImageFix" result="effect1_dropShadow"/>
<feBlend mode="normal" in="SourceGraphic" in2="effect1_dropShadow" result="shape"/>
</filter>
<filter id="filter6_d" x="145.728" y="4.98047" width="77.2483" height="83.9047" filterUnits="userSpaceOnUse" color-interpolation-filters="sRGB">
<feFlood flood-opacity="0" result="BackgroundImageFix"/>
<feColorMatrix in="SourceAlpha" type="matrix" values="0 0 0 0 0 0 0 0 0 0 0 0 0 0 0 0 0 0 127 0"/>
<feOffset/>
<feGaussianBlur stdDeviation="12"/>
<feColorMatrix type="matrix" values="0 0 0 0 0.976471 0 0 0 0 0.796078 0 0 0 0 0.027451 0 0 0 1 0"/>
<feBlend mode="normal" in2="BackgroundImageFix" result="effect1_dropShadow"/>
<feBlend mode="normal" in="SourceGraphic" in2="effect1_dropShadow" result="shape"/>
</filter>
<filter id="filter7_d" x="239.598" y="71.6064" width="75.4028" height="81.6394" filterUnits="userSpaceOnUse" color-interpolation-filters="sRGB">
<feFlood flood-opacity="0" result="BackgroundImageFix"/>
<feColorMatrix in="SourceAlpha" type="matrix" values="0 0 0 0 0 0 0 0 0 0 0 0 0 0 0 0 0 0 127 0"/>
<feOffset/>
<feGaussianBlur stdDeviation="12"/>
<feColorMatrix type="matrix" values="0 0 0 0 0.976471 0 0 0 0 0.796078 0 0 0 0 0.027451 0 0 0 1 0"/>
<feBlend mode="normal" in2="BackgroundImageFix" result="effect1_dropShadow"/>
<feBlend mode="normal" in="SourceGraphic" in2="effect1_dropShadow" result="shape"/>
</filter>
<linearGradient id="paint0_linear" x1="148.347" y1="152.688" x2="131.864" y2="94.6912" gradientUnits="userSpaceOnUse">
<stop stop-color="#005AF6"/>
<stop offset="1" stop-color="#00CCFF"/>
</linearGradient>
<linearGradient id="paint1_linear" x1="210.98" y1="213.389" x2="195.59" y2="153.512" gradientUnits="userSpaceOnUse">
<stop stop-color="#005AF6"/>
<stop offset="1" stop-color="#00CCFF"/>
</linearGradient>
<linearGradient id="paint2_linear" x1="175.444" y1="252.549" x2="150.037" y2="177.811" gradientUnits="userSpaceOnUse">
<stop stop-color="#005AF6"/>
<stop offset="1" stop-color="#00CCFF"/>
</linearGradient>
<linearGradient id="paint3_linear" x1="121.924" y1="101.405" x2="102.047" y2="45.1332" gradientUnits="userSpaceOnUse">
<stop stop-color="#005AF6"/>
<stop offset="1" stop-color="#00CCFF"/>
</linearGradient>
<radialGradient id="paint4_radial" cx="0" cy="0" r="1" gradientUnits="userSpaceOnUse" gradientTransform="translate(92.5706 71.351) rotate(19.0183) scale(55.5887 86.214)">
<stop stop-color="#30B1FF"/>
<stop offset="0.859375" stop-color="#6700CD"/>
</radialGradient>
<linearGradient id="paint5_linear" x1="122.413" y1="179.327" x2="112.25" y2="146.547" gradientUnits="userSpaceOnUse">
<stop stop-color="#005AF6"/>
<stop offset="1" stop-color="#00CCFF"/>
</linearGradient>
<linearGradient id="paint6_linear" x1="207.504" y1="117.198" x2="199.518" y2="101.87" gradientUnits="userSpaceOnUse">
<stop stop-color="#005AF6"/>
<stop offset="1" stop-color="#00CCFF"/>
</linearGradient>
</defs>
</svg>
