<svg width="1332" height="851" viewBox="0 0 1332 851" fill="none" xmlns="http://www.w3.org/2000/svg">
<path d="M86.6352 563.466L14.6265 491.466" stroke="url(#paint0_radial)" stroke-width="2" stroke-linecap="round"/>
<path d="M174.577 112.04L1.57739 35.5396" stroke="url(#paint1_radial)" stroke-width="2" stroke-linecap="round"/>
<path d="M1318.15 509.533L1246.15 437.533" stroke="url(#paint2_radial)" stroke-width="2" stroke-linecap="round"/>
<path d="M1227.11 51.9355L1054.11 128.436" stroke="url(#paint3_radial)" stroke-width="2" stroke-linecap="round"/>
<circle cx="646.48" cy="348.436" r="0.473168" transform="rotate(101.821 646.48 348.436)" fill="white"/>
<circle cx="523.526" cy="483.198" r="0.473168" transform="rotate(101.821 523.526 483.198)" fill="white"/>
<circle cx="317.208" cy="600.513" r="0.473168" transform="rotate(101.821 317.208 600.513)" fill="white"/>
<circle cx="520.722" cy="256.371" r="0.473168" transform="rotate(101.821 520.722 256.371)" fill="white"/>
<circle cx="809.921" cy="55.0302" r="0.473168" transform="rotate(14.4191 809.921 55.0302)" fill="white"/>
<circle cx="659.491" cy="367.111" r="0.946335" transform="rotate(101.821 659.491 367.111)" fill="white"/>
<circle cx="513.447" cy="635.299" r="0.946335" transform="rotate(101.821 513.447 635.299)" fill="white"/>
<circle cx="243.186" cy="180.4" r="0.946335" transform="rotate(101.821 243.186 180.4)" fill="white"/>
<circle cx="1186.48" cy="17.4945" r="0.946335" transform="rotate(14.4191 1186.48 17.4945)" fill="white"/>
<circle cx="256.31" cy="519.606" r="0.946335" transform="rotate(101.821 256.31 519.606)" fill="white"/>
<circle cx="127.82" cy="630.006" r="0.946335" transform="rotate(101.821 127.82 630.006)" fill="white"/>
<circle cx="146.689" cy="595.282" r="0.946335" transform="rotate(101.821 146.689 595.282)" fill="white"/>
<circle cx="765.536" cy="68.0466" r="1.4195" transform="rotate(14.4191 765.536 68.0466)" fill="white"/>
<circle cx="479.342" cy="297.019" r="1.4195" transform="rotate(101.821 479.342 297.019)" fill="white"/>
<circle cx="526.257" cy="197.585" r="1.4195" transform="rotate(101.821 526.257 197.585)" fill="white"/>
<circle cx="35.1016" cy="266.891" r="1.4195" transform="rotate(101.821 35.1016 266.891)" fill="white"/>
<circle cx="1168.93" cy="49.6257" r="1.4195" transform="rotate(14.4191 1168.93 49.6257)" fill="white"/>
<circle cx="945.146" cy="15.5377" r="2.36584" transform="rotate(14.4191 945.146 15.5377)" fill="white"/>
<circle cx="926.504" cy="847.451" r="2.36584" transform="rotate(71.2393 926.504 847.451)" fill="white"/>
<circle cx="720.343" cy="582.955" r="2.36584" transform="rotate(71.2393 720.343 582.955)" fill="white"/>
<circle cx="1106.35" cy="38.4195" r="2.36584" transform="rotate(14.4191 1106.35 38.4195)" fill="white"/>
<path fill-rule="evenodd" clip-rule="evenodd" d="M278.995 67.0722L284.618 74.5976L285.251 95.698L276.274 94.611L272.039 81.4431L278.995 67.0722Z" fill="url(#paint4_linear)"/>
<path opacity="0.88" fill-rule="evenodd" clip-rule="evenodd" d="M278.995 67.0722L275.81 77.8664L281.529 85.4242L285.251 95.698L284.618 74.5976L278.995 67.0722Z" fill="url(#paint5_linear)"/>
<path fill-rule="evenodd" clip-rule="evenodd" d="M272.039 81.4432L275.81 77.8664L281.529 85.4242L285.251 95.6981L274.813 101.541L272.039 81.4432Z" fill="#1C0843"/>
<path opacity="0.4" fill-rule="evenodd" clip-rule="evenodd" d="M137.515 263.643L156.731 279.896L158.884 300.926L151.892 302.8L137.593 288.013L137.515 263.643Z" fill="url(#paint6_radial)"/>
<path opacity="0.4" fill-rule="evenodd" clip-rule="evenodd" d="M137.515 263.643L139.993 276.67L156.911 285.267L156.731 279.896L137.515 263.643Z" fill="url(#paint7_linear)"/>
<path opacity="0.4" fill-rule="evenodd" clip-rule="evenodd" d="M139.993 276.67L139.726 287.53L151.892 302.799L136.205 292.339L137.515 263.643L139.993 276.67Z" fill="url(#paint8_radial)"/>
<path opacity="0.4" d="M137.41 263.691L137.618 263.586L146.222 279.987L158.985 300.86L158.782 300.983L146.016 280.101L137.41 263.691Z" fill="#00ADFF"/>
<path opacity="0.4" d="M137.535 288.127L137.645 287.911L143.406 290.95L155.362 301.801L155.201 301.972L143.259 291.137L137.535 288.127Z" fill="#00ADFF"/>
<path fill-rule="evenodd" clip-rule="evenodd" d="M775.389 126.04C775.389 126.04 789.254 113.187 797.045 83.0999L802.673 75.8932C802.673 75.8932 762.436 88.7763 746.482 90.2492L744.976 83.0345L726.808 79.1875C726.808 79.1875 719.694 54.0642 723.208 30.2025L718.344 27.6365C718.344 27.6365 702.128 42.0613 697.707 54.3419L706.179 80.0523L710.151 79.5329C710.13 79.5278 740.851 126.01 775.389 126.04Z" fill="url(#paint9_radial)"/>
<path fill-rule="evenodd" clip-rule="evenodd" d="M716.916 28.9326L711.229 70.1589L706.166 80.0599L697.694 54.3496C697.686 54.3365 701.277 40.6305 716.916 28.9326Z" fill="url(#paint10_linear)"/>
<path fill-rule="evenodd" clip-rule="evenodd" d="M746.461 90.2444L742.577 108.292L766.747 91.1964L799.52 76.8799L746.064 87.591L746.461 90.2444Z" fill="#1C0843"/>
<path fill-rule="evenodd" clip-rule="evenodd" d="M718.44 90.4707L720.657 76.9739L720.685 62.5201L713.049 81.5961L718.44 90.4707Z" fill="url(#paint11_linear)"/>
<path fill-rule="evenodd" clip-rule="evenodd" d="M744.955 83.0293L722.971 87.6648L726.787 79.1823L744.955 83.0293Z" fill="#1C0843"/>
<path d="M741.616 112.769L764.131 99.8605L791.131 89.3363L792.376 91.3853L792.317 91.4931L778.588 116.217L767.112 125.297L766.874 124.995L778.332 115.944L791.939 91.4008L790.972 89.8086L764.29 100.211L741.801 113.104L741.616 112.769Z" fill="url(#paint12_linear)"/>
<path d="M765.029 103.692L780.218 96.8416L781.114 98.3164L781.093 98.4003L775.551 114.453L762.215 124.001L761.991 123.691L775.23 114.219L780.692 98.358L780.066 97.3269L765.214 104.026L746.192 116.154L745.98 115.836L765.029 103.692Z" fill="#00ADFF"/>
<path d="M721.296 93.1137L730.693 90.4066L730.772 90.4481L738.179 95.7579L736.498 108.697L736.123 108.638L737.768 95.9356L730.625 90.8234L721.395 93.4825L721.296 93.1137Z" fill="#00ADFF"/>
<path d="M722.403 94.9067L727.599 94.0192L727.673 94.0817L731.818 97.728L731.81 97.804L731.821 104.498L731.431 104.503L731.434 97.8899L727.489 94.4257L722.468 95.2782L722.403 94.9067Z" fill="#00ADFF"/>
<path opacity="0.5" fill-rule="evenodd" clip-rule="evenodd" d="M698.557 345.435L701.51 333.631L713.922 312.163L728.714 307.107L738.861 311.329C738.861 311.329 734.209 334.114 711.922 356.417L698.557 345.435Z" fill="url(#paint13_radial)"/>
<path opacity="0.5" fill-rule="evenodd" clip-rule="evenodd" d="M711.929 356.435L718.002 325.669L738.885 311.339C738.885 311.339 735.945 333.266 711.929 356.435Z" fill="url(#paint14_linear)"/>
<path opacity="0.5" fill-rule="evenodd" clip-rule="evenodd" d="M146.978 802.141L149.931 813.945L162.343 835.413L177.135 840.469L187.282 836.247C187.282 836.247 182.63 813.462 160.343 791.158L146.978 802.141Z" fill="url(#paint15_radial)"/>
<path opacity="0.5" fill-rule="evenodd" clip-rule="evenodd" d="M160.35 791.141L166.423 821.907L187.306 836.236C187.306 836.236 184.366 814.31 160.35 791.141Z" fill="url(#paint16_linear)"/>
<path fill-rule="evenodd" clip-rule="evenodd" d="M679.487 680.439L694.32 670.891L701.471 636.56L692.172 637.603L692.059 631.218C692.059 631.218 677.604 638.048 671.685 673.958L679.487 680.439Z" fill="url(#paint17_linear)"/>
<path fill-rule="evenodd" clip-rule="evenodd" d="M691.719 632.853L692.175 637.59L701.474 636.547L692.251 668.457L678.631 678.036L671.705 673.936C671.705 673.936 671.286 660.371 676.185 649.101C681.068 637.84 691.719 632.853 691.719 632.853Z" fill="url(#paint18_radial)"/>
<path opacity="0.88" fill-rule="evenodd" clip-rule="evenodd" d="M694.324 670.878L692.238 668.453L678.618 678.032L679.487 680.439L694.324 670.878Z" fill="url(#paint19_linear)"/>
<path d="M679.139 677.499L679.456 677.626L694.611 637.401L694.294 637.274L679.139 677.499Z" fill="#00ADFF"/>
<path d="M700.175 636.634L693.357 664.012L693.685 664.1L700.502 636.721L700.175 636.634Z" fill="#00ADFF"/>
<defs>
<radialGradient id="paint0_radial" cx="0" cy="0" r="1" gradientUnits="userSpaceOnUse" gradientTransform="translate(86.0367 561.911) rotate(-48.2586) scale(248.791 68.2499)">
<stop stop-color="white"/>
<stop offset="1" stop-color="white" stop-opacity="0"/>
</radialGradient>
<radialGradient id="paint1_radial" cx="0" cy="0" r="1" gradientUnits="userSpaceOnUse" gradientTransform="translate(173.603 110.688) rotate(-144.019) scale(186.632 113.033)">
<stop stop-color="white"/>
<stop offset="0.941699" stop-color="white" stop-opacity="0"/>
</radialGradient>
<radialGradient id="paint2_radial" cx="0" cy="0" r="1" gradientUnits="userSpaceOnUse" gradientTransform="translate(1317.56 507.978) rotate(-48.2586) scale(248.791 68.2499)">
<stop stop-color="white"/>
<stop offset="1" stop-color="white" stop-opacity="0"/>
</radialGradient>
<radialGradient id="paint3_radial" cx="0" cy="0" r="1" gradientUnits="userSpaceOnUse" gradientTransform="translate(1226.13 53.2871) rotate(144.019) scale(186.632 113.033)">
<stop stop-color="white"/>
<stop offset="0.941699" stop-color="white" stop-opacity="0"/>
</radialGradient>
<linearGradient id="paint4_linear" x1="272.228" y1="82.7549" x2="285.502" y2="80.9223" gradientUnits="userSpaceOnUse">
<stop stop-color="#4F0E6F"/>
<stop offset="1" stop-color="#450086"/>
</linearGradient>
<linearGradient id="paint5_linear" x1="285.491" y1="80.9201" x2="276.405" y2="82.1746" gradientUnits="userSpaceOnUse">
<stop stop-color="#4122FF"/>
<stop offset="1" stop-color="#FF3389"/>
</linearGradient>
<radialGradient id="paint6_radial" cx="0" cy="0" r="1" gradientUnits="userSpaceOnUse" gradientTransform="translate(137.28 286.907) rotate(-62.2245) scale(30.3348 74.0773)">
<stop stop-color="#7A0676"/>
<stop offset="1" stop-color="#0A0049"/>
</radialGradient>
<linearGradient id="paint7_linear" x1="154.733" y1="272.44" x2="139.923" y2="276.408" gradientUnits="userSpaceOnUse">
<stop stop-color="#4122FF"/>
<stop offset="1" stop-color="#FF3389"/>
</linearGradient>
<radialGradient id="paint8_radial" cx="0" cy="0" r="1" gradientUnits="userSpaceOnUse" gradientTransform="translate(134.91 287.542) rotate(-75.7811) scale(25.5125 53.2457)">
<stop stop-color="#7A0676"/>
<stop offset="1" stop-color="#0A0049"/>
</radialGradient>
<radialGradient id="paint9_radial" cx="0" cy="0" r="1" gradientUnits="userSpaceOnUse" gradientTransform="translate(719.465 26.8506) rotate(36.9905) scale(122.508 206.411)">
<stop stop-color="#7A0676"/>
<stop offset="1" stop-color="#0A0049"/>
</radialGradient>
<linearGradient id="paint10_linear" x1="720.828" y1="74.5757" x2="695.425" y2="71.9136" gradientUnits="userSpaceOnUse">
<stop stop-color="#4122FF"/>
<stop offset="1" stop-color="#18D1BB"/>
</linearGradient>
<linearGradient id="paint11_linear" x1="725.461" y1="86.2053" x2="713.664" y2="66.7855" gradientUnits="userSpaceOnUse">
<stop stop-color="#FF33BA"/>
<stop offset="1" stop-color="#3F10DB" stop-opacity="0"/>
</linearGradient>
<linearGradient id="paint12_linear" x1="775.035" y1="122.634" x2="754.911" y2="110.879" gradientUnits="userSpaceOnUse">
<stop stop-color="#4122FF"/>
<stop offset="1" stop-color="#18D1BB"/>
</linearGradient>
<radialGradient id="paint13_radial" cx="0" cy="0" r="1" gradientUnits="userSpaceOnUse" gradientTransform="translate(729.551 349.038) rotate(-146.796) scale(48.2984 109.667)">
<stop stop-color="#7A0676"/>
<stop offset="1" stop-color="#0A0049"/>
</radialGradient>
<linearGradient id="paint14_linear" x1="721.166" y1="316.2" x2="744.298" y2="326.993" gradientUnits="userSpaceOnUse">
<stop stop-color="#4122FF"/>
<stop offset="1" stop-color="#18D1BB"/>
</linearGradient>
<radialGradient id="paint15_radial" cx="0" cy="0" r="1" gradientUnits="userSpaceOnUse" gradientTransform="translate(177.972 798.538) rotate(146.796) scale(48.2984 109.667)">
<stop stop-color="#7A0676"/>
<stop offset="1" stop-color="#0A0049"/>
</radialGradient>
<linearGradient id="paint16_linear" x1="169.587" y1="831.376" x2="192.718" y2="820.583" gradientUnits="userSpaceOnUse">
<stop stop-color="#4122FF"/>
<stop offset="1" stop-color="#18D1BB"/>
</linearGradient>
<linearGradient id="paint17_linear" x1="676.534" y1="653.343" x2="697.517" y2="658.965" gradientUnits="userSpaceOnUse">
<stop stop-color="#4F0E6F"/>
<stop offset="1" stop-color="#450086"/>
</linearGradient>
<radialGradient id="paint18_radial" cx="0" cy="0" r="1" gradientUnits="userSpaceOnUse" gradientTransform="translate(675.201 650.852) rotate(64.3102) scale(33.2443 80.5078)">
<stop stop-color="#7A0676"/>
<stop offset="1" stop-color="#0A0049"/>
</radialGradient>
<linearGradient id="paint19_linear" x1="692.865" y1="676.323" x2="679.999" y2="672.875" gradientUnits="userSpaceOnUse">
<stop stop-color="#4122FF"/>
<stop offset="1" stop-color="#FF3389"/>
</linearGradient>
</defs>
</svg>
