 <svg xmlns="http://www.w3.org/2000/svg">

   <symbol id="facebook" viewBox="0 0 10 15">
     <g clip-path="url(#clip0)">
       <path
         d="M8.64144 0.773438H6.67269C5.80245 0.773438 4.96785 1.11914 4.3525 1.73449C3.73714 2.34985 3.39144 3.18445 3.39144 4.05469V6.02344H1.42269V8.64844H3.39144V13.8984H6.01644V8.64844H7.98519L8.64144 6.02344H6.01644V4.05469C6.01644 3.88064 6.08558 3.71372 6.20865 3.59065C6.33172 3.46758 6.49864 3.39844 6.67269 3.39844H8.64144V0.773438Z" />
     </g>
     <defs>
       <clipPath id="clip0">
         <rect width="8.75" height="14" transform="translate(0.328941 0.335938)" />
       </clipPath>
     </defs>
   </symbol>

   <symbol id="twitter" viewBox="0 0 15 13">
     <g>
       <path
         d="M14.9108 0.727302C14.2824 1.17058 13.5866 1.50962 12.8502 1.73136C12.4549 1.27692 11.9297 0.954819 11.3454 0.808629C10.7612 0.662439 10.1461 0.699212 9.58342 0.913975C9.02074 1.12874 8.53759 1.51113 8.19932 2.00943C7.86105 2.50773 7.68398 3.0979 7.69205 3.70011V4.35636C6.53878 4.38627 5.39601 4.13049 4.36553 3.61181C3.33504 3.09314 2.44882 2.32766 1.7858 1.38355C1.7858 1.38355 -0.8392 7.2898 5.06705 9.9148C3.71552 10.8322 2.1055 11.2922 0.4733 11.2273C6.37955 14.5086 13.5983 11.2273 13.5983 3.68043C13.5977 3.49763 13.5801 3.31529 13.5458 3.13574C14.2156 2.47522 14.6882 1.64127 14.9108 0.727302Z" />
     </g>
   </symbol>

   <symbol id="in" viewBox="0 0 15 15">
     <g clip-path="url(#clip0)">
       <path
         d="M9.92109 4.71094C10.9654 4.71094 11.9669 5.12578 12.7053 5.8642C13.4438 6.60263 13.8586 7.60415 13.8586 8.64844V13.2422H11.2336V8.64844C11.2336 8.30034 11.0953 7.9665 10.8492 7.72036C10.603 7.47422 10.2692 7.33594 9.92109 7.33594C9.573 7.33594 9.23916 7.47422 8.99302 7.72036C8.74687 7.9665 8.60859 8.30034 8.60859 8.64844V13.2422H5.98359V8.64844C5.98359 7.60415 6.39844 6.60263 7.13686 5.8642C7.87528 5.12578 8.8768 4.71094 9.92109 4.71094Z" />
       <path d="M3.35859 5.36719H0.733593V13.2422H3.35859V5.36719Z" />
       <path
         d="M2.04609 3.39844C2.77097 3.39844 3.35859 2.81081 3.35859 2.08594C3.35859 1.36106 2.77097 0.773438 2.04609 0.773438C1.32122 0.773438 0.733593 1.36106 0.733593 2.08594C0.733593 2.81081 1.32122 3.39844 2.04609 3.39844Z" />
     </g>
     <defs>
       <clipPath id="clip0">
         <rect width="14" height="14" transform="translate(0.296093 0.335938)" />
       </clipPath>
     </defs>
   </symbol>

   <symbol id="arr-bottom" viewBox="0 0 10 7">
     <g>
       <path
         d="M0.279341 1.12575C-0.0931033 1.50109 -0.0931239 2.10963 0.279341 2.48499L4.32562 6.56273C4.69808 6.93809 5.30194 6.93807 5.67438 6.56273L9.72066 2.48499C10.0931 2.10966 10.0931 1.50111 9.72066 1.12575C9.34819 0.75039 8.74434 0.750411 8.3719 1.12575L5 4.52386L1.6281 1.12575C1.25564 0.75039 0.651785 0.750411 0.279341 1.12575Z"
         fill="#18AEFC" />
     </g>
   </symbol>

   <symbol id="dev-triger-1" viewBox="0 0 33 37">
     <g>
       <path opacity="0.4"
         d="M28.98 12.8038C28.1673 12.8038 27.0908 12.7858 25.7505 12.7858C22.4818 12.7858 19.7941 10.0804 19.7941 6.78102V0.992216C19.7941 0.536816 19.4306 0.166016 18.9796 0.166016H9.45869C5.01546 0.166016 1.42416 3.81282 1.42416 8.28222V27.6772C1.42416 32.3662 5.18656 36.166 9.82941 36.166H24.0075C28.4346 36.166 32.0242 32.5426 32.0242 28.0696V13.6138C32.0242 13.1566 31.6624 12.7876 31.2097 12.7894C30.4486 12.7948 29.5361 12.8038 28.98 12.8038Z"
         fill="#684EF4" />
       <path opacity="0.4"
         d="M24.0754 1.18728C23.5372 0.627481 22.5976 1.01268 22.5976 1.78848V6.53508C22.5976 8.52588 24.2374 10.1639 26.2282 10.1639C27.4828 10.1783 29.2252 10.1819 30.7048 10.1783C31.4626 10.1765 31.8478 9.27108 31.3222 8.72388C29.4232 6.74928 26.023 3.21048 24.0754 1.18728Z"
         fill="#684EF4" />
       <path fill-rule="evenodd" clip-rule="evenodd"
         d="M11.2772 17.0635H17.3702C18.11 17.0635 18.7112 16.4641 18.7112 15.7243C18.7112 14.9845 18.11 14.3833 17.3702 14.3833H11.2772C10.5374 14.3833 9.93799 14.9845 9.93799 15.7243C9.93799 16.4641 10.5374 17.0635 11.2772 17.0635ZM11.2774 26.053H21.0766C21.8164 26.053 22.4176 25.4536 22.4176 24.7138C22.4176 23.974 21.8164 23.3728 21.0766 23.3728H11.2774C10.5376 23.3728 9.93817 23.974 9.93817 24.7138C9.93817 25.4536 10.5376 26.053 11.2774 26.053Z"
         fill="#18AEFC" />
     </g>
   </symbol>
   <svg fill="none" xmlns="http://www.w3.org/2000/svg">

   </svg>

   <symbol id="dev-triger-2" viewBox="0 0 32 37">
     <g>
       <path opacity="0.4"
         d="M27.3832 13.7006C26.6091 13.7006 25.5839 13.6834 24.3075 13.6834C21.1944 13.6834 18.6347 11.1068 18.6347 7.96455V2.45141C18.6347 2.01769 18.2867 1.66455 17.859 1.66455H8.79141C4.55977 1.66455 1.13948 5.13769 1.13948 9.39427V27.8657C1.13948 32.3314 4.72272 35.9503 9.14447 35.9503H22.6457C26.8638 35.9503 30.2823 32.4994 30.2823 28.2394V14.472C30.2823 14.0366 29.9361 13.6851 29.5049 13.6868C28.7818 13.692 27.9111 13.7006 27.3832 13.7006Z"
         fill="#684EF4" />
       <path opacity="0.4"
         d="M22.7124 2.63705C22.1998 2.1039 21.305 2.47076 21.305 3.20962V7.73019C21.305 9.62619 22.8667 11.1862 24.761 11.1862C25.9575 11.1999 27.617 11.2033 29.0261 11.1999C29.7478 11.1982 30.1147 10.3359 29.6141 9.81476C27.8055 7.93419 24.5672 4.5639 22.7124 2.63705Z"
         fill="#684EF4" />
       <path
         d="M21.0341 20.3225C20.5353 20.8179 19.7278 20.8214 19.2273 20.3191L16.5033 17.5814V25.8562C16.5033 26.5608 15.9307 27.1334 15.2261 27.1334C14.5215 27.1334 13.9507 26.5608 13.9507 25.8562V17.5814L11.2233 20.3191C10.7261 20.8214 9.91697 20.8179 9.41811 20.3225C8.91925 19.8271 8.91754 19.0179 9.41468 18.5174L14.321 13.5888C14.3227 13.5871 14.3227 13.5871 14.3227 13.5871C14.4393 13.4705 14.5798 13.3762 14.7341 13.3128C14.8884 13.2477 15.0564 13.2134 15.2261 13.2134C15.3975 13.2134 15.5655 13.2477 15.7198 13.3128C15.8724 13.3762 16.0113 13.4705 16.1278 13.5854C16.1295 13.5871 16.1313 13.5871 16.1313 13.5888L21.0375 18.5174C21.5347 19.0179 21.5347 19.8271 21.0341 20.3225Z"
         fill="#18AEFC" />
     </g>
   </symbol>

   <symbol id="dev-triger-3" viewBox="0 0 37 37">
     <g>
       <path opacity="0.4"
         d="M26.0564 1.56689H11.1669C5.345 1.56689 1.42941 5.64689 1.42941 11.7155V25.7212C1.42941 31.7726 5.345 35.8526 11.1669 35.8526H26.0564C31.8783 35.8526 35.7767 31.7726 35.7767 25.7212V11.7155C35.7767 5.64689 31.8783 1.56689 26.0564 1.56689Z"
         fill="#684EF4" />
       <path
         d="M16.5647 24.278C16.18 24.278 15.7953 24.1323 15.5017 23.8391L11.4264 19.7711C10.839 19.1848 10.839 18.2351 11.4264 17.6505C12.0137 17.0643 12.9634 17.0625 13.5508 17.6488L16.5647 20.6574L23.654 13.5808C24.2413 12.9945 25.191 12.9945 25.7784 13.5808C26.3657 14.1671 26.3657 15.1168 25.7784 15.7031L17.6278 23.8391C17.3341 24.1323 16.9494 24.278 16.5647 24.278Z"
         fill="#18AEFC" />
     </g>
   </symbol>

   <symbol id="dev-triger-4" viewBox="0 0 45 33">
     <g>
       <path
         d="M21.8074 21.4214C15.3017 21.4214 9.81241 22.4826 9.81241 26.5781C9.81241 30.6753 15.3371 31.6992 21.8074 31.6992C28.3132 31.6992 33.8025 30.638 33.8025 26.5425C33.8025 22.4453 28.2777 21.4214 21.8074 21.4214Z"
         fill="#18AEFC" />
       <path opacity="0.4"
         d="M21.8074 17.5195C26.2127 17.5195 29.745 13.9732 29.745 9.55051C29.745 5.12613 26.2127 1.58154 21.8074 1.58154C17.4022 1.58154 13.8698 5.12613 13.8698 9.55051C13.8698 13.9732 17.4022 17.5195 21.8074 17.5195Z"
         fill="#684EF4" />
       <path opacity="0.4"
         d="M39.041 11.4061C40.1807 6.93086 36.8392 2.91162 32.5842 2.91162C32.1216 2.91162 31.6792 2.96248 31.2469 3.04893C31.1895 3.06249 31.1254 3.09131 31.0916 3.14216C31.0528 3.20658 31.0815 3.29303 31.1237 3.34897C32.4019 5.14924 33.1364 7.34109 33.1364 9.69397C33.1364 11.9485 32.4627 14.0505 31.2807 15.7949C31.1591 15.9746 31.2672 16.217 31.4816 16.2543C31.7788 16.3068 32.0827 16.3339 32.3934 16.3424C35.4918 16.4238 38.2727 14.4218 39.041 11.4061Z"
         fill="#684EF4" />
       <path
         d="M42.287 21.943C41.7196 20.7292 40.3503 19.8969 38.2684 19.4884C37.2857 19.2476 34.6263 18.9086 32.1527 18.9544C32.1155 18.9595 32.0952 18.9849 32.0919 19.0019C32.0868 19.0256 32.0969 19.0663 32.1459 19.0917C33.289 19.6596 37.7078 22.1294 37.1523 27.3387C37.1286 27.5641 37.3093 27.7591 37.5339 27.7252C38.6213 27.5692 41.4191 26.9657 42.287 25.0858C42.7665 24.0924 42.7665 22.938 42.287 21.943Z"
         fill="#18AEFC" />
       <path opacity="0.4"
         d="M12.5594 3.04942C12.1288 2.96127 11.6848 2.91211 11.2221 2.91211C6.96712 2.91211 3.6256 6.93134 4.76702 11.4066C5.53359 14.4223 8.31453 16.4243 11.4129 16.3429C11.7236 16.3344 12.0292 16.3056 12.3247 16.2547C12.5391 16.2175 12.6472 15.975 12.5256 15.7954C11.3437 14.0493 10.67 11.949 10.67 9.69446C10.67 7.33988 11.4062 5.14803 12.6843 3.34946C12.7249 3.29352 12.7553 3.20707 12.7147 3.14265C12.681 3.0901 12.6185 3.06298 12.5594 3.04942Z"
         fill="#684EF4" />
       <path
         d="M5.53833 19.4879C3.45642 19.8965 2.08874 20.7288 1.52141 21.9425C1.04019 22.9376 1.04019 24.092 1.52141 25.0871C2.38929 26.9653 5.18712 27.5705 6.27451 27.7248C6.49908 27.7587 6.67806 27.5654 6.65442 27.3383C6.0989 22.1307 10.5177 19.6609 11.6625 19.093C11.7098 19.0658 11.7199 19.0269 11.7148 19.0014C11.7114 18.9845 11.6929 18.9591 11.6557 18.9557C9.1804 18.9082 6.52272 19.2472 5.53833 19.4879Z"
         fill="#18AEFC" />
     </g>
   </symbol>

   <symbol id="template" width="0" height="0" viewbox="0 0 0 0">
     <g>
       <path
         d="M 23 12.3 C 23 6.1 18.1 1 12 1 C 5.9 1 1 6.1 1 12.3 V 27.7 C 1 33.9 5.9 39 12 39 C 18.1 39 23 33.9 23 27.7 V 12.3 Z"
         stroke="white" stroke-width="2" />
       <path d="M 11 10 H 13 V 18 H 11 V 10 Z" />
     </g>
   </symbol>

 </svg>