 <svg xmlns="http://www.w3.org/2000/svg">

   <symbol id="facebook" viewBox="0 0 10 15">
     <g clip-path="url(#clip0)">
       <path
         d="M8.64144 0.773438H6.67269C5.80245 0.773438 4.96785 1.11914 4.3525 1.73449C3.73714 2.34985 3.39144 3.18445 3.39144 4.05469V6.02344H1.42269V8.64844H3.39144V13.8984H6.01644V8.64844H7.98519L8.64144 6.02344H6.01644V4.05469C6.01644 3.88064 6.08558 3.71372 6.20865 3.59065C6.33172 3.46758 6.49864 3.39844 6.67269 3.39844H8.64144V0.773438Z" />
     </g>
     <defs>
       <clipPath id="clip0">
         <rect width="8.75" height="14" transform="translate(0.328941 0.335938)" />
       </clipPath>
     </defs>
   </symbol>

   <symbol id="twitter" viewBox="0 0 15 13">
     <g>
       <path
         d="M14.9108 0.727302C14.2824 1.17058 13.5866 1.50962 12.8502 1.73136C12.4549 1.27692 11.9297 0.954819 11.3454 0.808629C10.7612 0.662439 10.1461 0.699212 9.58342 0.913975C9.02074 1.12874 8.53759 1.51113 8.19932 2.00943C7.86105 2.50773 7.68398 3.0979 7.69205 3.70011V4.35636C6.53878 4.38627 5.39601 4.13049 4.36553 3.61181C3.33504 3.09314 2.44882 2.32766 1.7858 1.38355C1.7858 1.38355 -0.8392 7.2898 5.06705 9.9148C3.71552 10.8322 2.1055 11.2922 0.4733 11.2273C6.37955 14.5086 13.5983 11.2273 13.5983 3.68043C13.5977 3.49763 13.5801 3.31529 13.5458 3.13574C14.2156 2.47522 14.6882 1.64127 14.9108 0.727302Z" />
     </g>
   </symbol>

   <symbol id="in" viewBox="0 0 15 15">
     <g clip-path="url(#clip0)">
       <path
         d="M9.92109 4.71094C10.9654 4.71094 11.9669 5.12578 12.7053 5.8642C13.4438 6.60263 13.8586 7.60415 13.8586 8.64844V13.2422H11.2336V8.64844C11.2336 8.30034 11.0953 7.9665 10.8492 7.72036C10.603 7.47422 10.2692 7.33594 9.92109 7.33594C9.573 7.33594 9.23916 7.47422 8.99302 7.72036C8.74687 7.9665 8.60859 8.30034 8.60859 8.64844V13.2422H5.98359V8.64844C5.98359 7.60415 6.39844 6.60263 7.13686 5.8642C7.87528 5.12578 8.8768 4.71094 9.92109 4.71094Z" />
       <path d="M3.35859 5.36719H0.733593V13.2422H3.35859V5.36719Z" />
       <path
         d="M2.04609 3.39844C2.77097 3.39844 3.35859 2.81081 3.35859 2.08594C3.35859 1.36106 2.77097 0.773438 2.04609 0.773438C1.32122 0.773438 0.733593 1.36106 0.733593 2.08594C0.733593 2.81081 1.32122 3.39844 2.04609 3.39844Z" />
     </g>
     <defs>
       <clipPath id="clip0">
         <rect width="14" height="14" transform="translate(0.296093 0.335938)" />
       </clipPath>
     </defs>
   </symbol>



   

   <symbol id="template" width="0" height="0" viewbox="0 0 0 0">
     <g>
       <path
         d="M 23 12.3 C 23 6.1 18.1 1 12 1 C 5.9 1 1 6.1 1 12.3 V 27.7 C 1 33.9 5.9 39 12 39 C 18.1 39 23 33.9 23 27.7 V 12.3 Z"
         stroke="white" stroke-width="2" />
       <path d="M 11 10 H 13 V 18 H 11 V 10 Z" />
     </g>
   </symbol>

 </svg>