<svg width="196" height="197" viewBox="0 0 196 197" fill="none" xmlns="http://www.w3.org/2000/svg">
<g opacity="0.4">
<path d="M6.84598 157.472L45.7542 196.579C46.3127 197.141 47.2181 197.141 47.7766 196.579L93.613 150.509C94.1715 149.948 94.1715 149.038 93.613 148.477L54.7048 109.37C54.1462 108.808 53.2409 108.808 52.6824 109.37L6.84636 155.44C6.28745 156.001 6.28745 156.911 6.84598 157.472Z" fill="url(#paint0_radial)"/>
<path d="M54.7048 109.37L66.4142 121.139L18.5559 169.242L6.84642 157.472C6.2879 156.911 6.2879 156.001 6.84642 155.44L52.6824 109.37C53.2405 108.808 54.1463 108.808 54.7048 109.37Z" fill="url(#paint1_radial)"/>
<path d="M118.275 88.781L132.69 74.2923C133.844 73.1326 133.844 71.2526 132.69 70.0926C131.536 68.9325 129.665 68.9329 128.512 70.0926L114.097 84.5813C112.943 85.741 112.943 87.6209 114.097 88.781C115.25 89.9411 117.121 89.9407 118.275 88.781Z" fill="#2C5871"/>
<path d="M74.4261 132.854L87.2859 119.928C88.4397 118.769 88.4397 116.889 87.2859 115.729C86.1321 114.569 84.2613 114.569 83.1075 115.729L70.2477 128.654C69.0939 129.814 69.0939 131.694 70.2477 132.854C71.4015 134.014 73.2723 134.013 74.4261 132.854Z" fill="#2C5871"/>
<path d="M87.777 112.626L123.767 148.8C127.365 152.416 133.198 152.416 136.796 148.8L148.045 137.494C151.643 133.878 151.643 128.015 148.045 124.399L112.055 88.2246L87.777 112.626Z" fill="#9EBECC"/>
<path d="M87.777 112.626L123.767 148.8C127.365 152.416 133.198 152.416 136.796 148.8L148.045 137.494C151.643 133.878 151.643 128.015 148.045 124.399L112.055 88.2246L87.777 112.626Z" fill="url(#paint2_linear)"/>
<path d="M136.797 148.8C133.199 152.416 127.366 152.416 123.768 148.8L87.7771 112.626L100.504 99.835L143.008 142.557L136.797 148.8Z" fill="#84AAB7"/>
<path d="M136.797 148.8C133.199 152.416 127.366 152.416 123.768 148.8L87.7771 112.626L100.504 99.835L143.008 142.557L136.797 148.8Z" fill="url(#paint3_linear)"/>
<path d="M85.2557 101.039L50.2941 65.8994L65.5687 50.5469L100.53 85.6869L85.2557 101.039Z" fill="#9EBECC"/>
<path d="M85.2557 101.039L50.2941 65.8994L65.5687 50.5469L100.53 85.6869L85.2557 101.039Z" fill="url(#paint4_linear)"/>
<path d="M108.814 54.9836L147.722 94.0904C148.281 94.6517 149.186 94.6517 149.745 94.0904L195.581 48.0205C196.14 47.4591 196.14 46.5491 195.581 45.9878L156.673 6.88099C156.114 6.31962 155.209 6.31962 154.65 6.88099L108.814 52.9509C108.256 53.5122 108.256 54.4222 108.814 54.9836Z" fill="url(#paint5_radial)"/>
<path d="M156.673 6.88099L168.289 18.5567L120.431 66.6593L108.814 54.9836C108.256 54.4222 108.256 53.5122 108.814 52.9509L154.65 6.88099C155.209 6.31962 156.114 6.31962 156.673 6.88099Z" fill="url(#paint6_radial)"/>
<path d="M54.188 90.0737L109.747 145.916C111.473 147.651 114.271 147.651 115.997 145.916L145.176 116.589C146.901 114.854 146.901 112.042 145.176 110.307L89.6165 54.4645C87.8908 52.7299 85.0924 52.7299 83.3667 54.4645L54.188 83.792C52.4619 85.527 52.4619 88.3392 54.188 90.0737Z" fill="#301270"/>
<path d="M115.997 145.916C114.271 147.651 111.473 147.651 109.747 145.916L54.188 90.0736C52.4623 88.3391 52.4623 85.5265 54.188 83.7919L63.9463 73.9839L125.755 136.108L115.997 145.916Z" fill="#180F44"/>
<path d="M65.1425 0.495989C65.9032 -0.26854 67.1833 -0.132333 67.7483 0.788026C79.323 19.6415 76.9814 44.6797 60.7172 61.0269C44.4531 77.374 19.542 79.7276 0.784187 68.0939C-0.1315 67.526 -0.267395 66.2397 0.493629 65.4748L65.1425 0.495989Z" fill="url(#paint7_radial)"/>
<path d="M74.0724 17.0918L17.0051 74.4503C11.3452 73.3472 5.84228 71.2302 0.786865 68.0952C-0.129585 67.5269 -0.267014 66.2394 0.494781 65.4742L65.1418 0.496909C65.9032 -0.268389 67.1841 -0.130643 67.7495 0.790485C70.8686 5.87208 72.9752 11.4031 74.0724 17.0918Z" fill="url(#paint8_radial)"/>
<path d="M126.179 72.437L140.043 58.5028L121.667 40.0329L125.845 35.8332L144.221 54.303L155.996 42.4684L137.62 23.9989V23.9985L141.798 19.7988L160.174 38.2687L174.038 24.3344L178.216 28.5342L164.352 42.4684L182.729 60.9383L178.55 65.138L160.174 46.6685L148.4 58.5028L166.776 76.9726L162.597 81.1724L144.221 62.7025L130.358 76.6367L126.179 72.437Z" fill="#00CCFF"/>
<path d="M24.2111 174.926V174.925L38.0747 160.991L19.6985 142.521L23.8769 138.321L42.253 156.791L54.0276 144.957L35.6515 126.487V126.487L39.8299 122.287L58.206 140.757L72.0695 126.823L76.2479 131.022V131.023L62.3844 144.957L80.7605 163.427L76.5821 167.627L58.206 149.157L46.4314 160.991L64.8076 179.461L60.6292 183.661L42.253 165.191L28.3895 179.125L24.2111 174.926Z" fill="#00CCFF"/>
<path d="M138.473 48.5253L134.294 52.725L121.667 40.0327L122.956 38.7372L125.845 35.833L138.473 48.5253Z" fill="#00CCFF"/>
<path d="M137.62 23.9985L141.798 19.7988L154.426 32.4911L150.247 36.6908L137.62 23.9989V23.9985Z" fill="#00CCFF"/>
<path d="M52.5503 135.073L48.3719 139.273L35.6515 126.487V126.487L38.5405 123.583L39.8299 122.287L52.5503 135.073Z" fill="#00CCFF"/>
<path d="M36.5978 151.108L32.419 155.307L19.6985 142.521L23.8769 138.322L36.5978 151.108Z" fill="#00CCFF"/>
<path d="M96.4735 79.7049L89.1491 72.4085C86.8179 70.0861 86.2485 66.5159 87.7399 63.571L99.7231 75.1354L96.4735 79.7049Z" fill="url(#paint9_linear)"/>
<path d="M98.2615 81.8879L101.711 77.2022L116.692 92.1262L113.358 97.0132L98.2615 81.8879Z" fill="url(#paint10_linear)"/>
<path d="M115.346 99.08L118.639 94.3666L135.501 111.233C136.518 112.251 136.614 113.873 135.723 115.008C134.672 116.347 132.694 116.468 131.494 115.266L115.346 99.08Z" fill="url(#paint11_linear)"/>
</g>
<defs>
<radialGradient id="paint0_radial" cx="0" cy="0" r="1" gradientUnits="userSpaceOnUse" gradientTransform="translate(50.2295 136.632) rotate(102.047) scale(61.728 58.6831)">
<stop stop-color="#00CCFF"/>
<stop offset="1" stop-color="#684EF4"/>
</radialGradient>
<radialGradient id="paint1_radial" cx="0" cy="0" r="1" gradientUnits="userSpaceOnUse" gradientTransform="translate(36.4209 127.904) rotate(102.047) scale(42.2679 40.1828)">
<stop stop-color="#00CCFF"/>
<stop offset="1" stop-color="#684EF4"/>
</radialGradient>
<linearGradient id="paint2_linear" x1="117.136" y1="135.367" x2="133.096" y2="91.8081" gradientUnits="userSpaceOnUse">
<stop stop-color="#684EF4"/>
<stop offset="1" stop-color="#00CCFF"/>
</linearGradient>
<linearGradient id="paint3_linear" x1="113.529" y1="138.329" x2="125.856" y2="102.19" gradientUnits="userSpaceOnUse">
<stop stop-color="#684EF4"/>
<stop offset="1" stop-color="#00CCFF"/>
</linearGradient>
<linearGradient id="paint4_linear" x1="80.3326" y1="73.2191" x2="66.8035" y2="82.9808" gradientUnits="userSpaceOnUse">
<stop stop-color="#684EF4"/>
<stop offset="1" stop-color="#00CCFF"/>
</linearGradient>
<radialGradient id="paint5_radial" cx="0" cy="0" r="1" gradientUnits="userSpaceOnUse" gradientTransform="translate(152.198 34.1428) rotate(102.047) scale(61.7279 58.6828)">
<stop stop-color="#00CCFF"/>
<stop offset="1" stop-color="#684EF4"/>
</radialGradient>
<radialGradient id="paint6_radial" cx="0" cy="0" r="1" gradientUnits="userSpaceOnUse" gradientTransform="translate(138.342 25.3863) rotate(102.047) scale(42.2024 40.1205)">
<stop stop-color="#00CCFF"/>
<stop offset="1" stop-color="#684EF4"/>
</radialGradient>
<radialGradient id="paint7_radial" cx="0" cy="0" r="1" gradientUnits="userSpaceOnUse" gradientTransform="translate(79.4612 106.494) rotate(-86.3508) scale(88.387 138.801)">
<stop stop-color="#30B1FF"/>
<stop offset="0.859375" stop-color="#6700CD"/>
</radialGradient>
<radialGradient id="paint8_radial" cx="0" cy="0" r="1" gradientUnits="userSpaceOnUse" gradientTransform="translate(-6.94868 20.548) rotate(22.5458) scale(78.4543 124.273)">
<stop stop-color="#30B1FF"/>
<stop offset="0.859375" stop-color="#6700CD"/>
</radialGradient>
<linearGradient id="paint9_linear" x1="107.347" y1="95.2407" x2="121.622" y2="84.5928" gradientUnits="userSpaceOnUse">
<stop stop-color="#684EF4"/>
<stop offset="1" stop-color="#00CCFF"/>
</linearGradient>
<linearGradient id="paint10_linear" x1="107.347" y1="95.2407" x2="121.622" y2="84.5928" gradientUnits="userSpaceOnUse">
<stop stop-color="#684EF4"/>
<stop offset="1" stop-color="#00CCFF"/>
</linearGradient>
<linearGradient id="paint11_linear" x1="107.347" y1="95.2407" x2="121.622" y2="84.5928" gradientUnits="userSpaceOnUse">
<stop stop-color="#684EF4"/>
<stop offset="1" stop-color="#00CCFF"/>
</linearGradient>
</defs>
</svg>
