<svg width="1302" height="617" viewBox="0 0 1302 617" fill="none" xmlns="http://www.w3.org/2000/svg">
<circle cx="694.78" cy="497.002" r="0.473168" transform="rotate(101.821 694.78 497.002)" fill="white"/>
<circle cx="516.633" cy="513.387" r="0.473168" transform="rotate(101.821 516.633 513.387)" fill="white"/>
<circle cx="1186" cy="254.501" r="0.473168" transform="rotate(146.821 1186 254.501)" fill="white"/>
<circle cx="241.421" cy="322.366" r="0.473168" transform="rotate(101.821 241.421 322.366)" fill="white"/>
<circle cx="513.829" cy="286.56" r="0.473168" transform="rotate(101.821 513.829 286.56)" fill="white"/>
<circle cx="803.028" cy="85.2196" r="0.473168" transform="rotate(14.4191 803.028 85.2196)" fill="white"/>
<circle cx="707.792" cy="515.679" r="0.946335" transform="rotate(101.821 707.792 515.679)" fill="white"/>
<circle cx="1300.16" cy="417.86" r="0.946335" transform="rotate(146.821 1300.16 417.86)" fill="white"/>
<circle cx="85.0652" cy="194.281" r="0.946335" transform="rotate(101.821 85.0652 194.281)" fill="white"/>
<circle cx="1179.59" cy="47.6839" r="0.946335" transform="rotate(14.4191 1179.59 47.6839)" fill="white"/>
<circle cx="249.417" cy="549.796" r="0.946335" transform="rotate(101.821 249.417 549.796)" fill="white"/>
<circle cx="1031.23" cy="141.438" r="0.946335" transform="rotate(146.821 1031.23 141.438)" fill="white"/>
<circle cx="1069.12" cy="130.227" r="0.946335" transform="rotate(146.821 1069.12 130.227)" fill="white"/>
<circle cx="199.204" cy="498.68" r="0.946335" transform="rotate(101.821 199.204 498.68)" fill="white"/>
<circle cx="562.236" cy="540.334" r="1.4195" transform="rotate(101.821 562.236 540.334)" fill="white"/>
<circle cx="758.643" cy="98.2356" r="1.4195" transform="rotate(14.4191 758.643 98.2356)" fill="white"/>
<circle cx="472.45" cy="327.208" r="1.4195" transform="rotate(101.821 472.45 327.208)" fill="white"/>
<circle cx="244.954" cy="300.868" r="1.4195" transform="rotate(101.821 244.954 300.868)" fill="white"/>
<circle cx="634.008" cy="4.71483" r="1.4195" transform="rotate(101.821 634.008 4.71483)" fill="white"/>
<circle cx="28.2078" cy="297.08" r="1.4195" transform="rotate(101.821 28.2078 297.08)" fill="white"/>
<circle cx="1162.04" cy="79.8147" r="1.4195" transform="rotate(14.4191 1162.04 79.8147)" fill="white"/>
<circle cx="463.523" cy="195.961" r="2.36584" transform="rotate(101.821 463.523 195.961)" fill="white"/>
<circle cx="938.253" cy="45.7271" r="2.36584" transform="rotate(14.4191 938.253 45.7271)" fill="white"/>
<circle cx="2.80028" cy="400.958" r="2.36584" transform="rotate(101.821 2.80028 400.958)" fill="white"/>
<circle cx="1155.64" cy="404.863" r="2.36584" transform="rotate(71.2393 1155.64 404.863)" fill="white"/>
<circle cx="713.45" cy="613.144" r="2.36584" transform="rotate(71.2393 713.45 613.144)" fill="white"/>
<circle cx="204.072" cy="514.685" r="2.36584" transform="rotate(101.821 204.072 514.685)" fill="white"/>
<circle cx="744.233" cy="340.582" r="2.36584" transform="rotate(101.821 744.233 340.582)" fill="white"/>
<circle cx="612.122" cy="3.03416" r="2.36584" transform="rotate(101.821 612.122 3.03416)" fill="white"/>
<circle cx="1099.46" cy="68.609" r="2.36584" transform="rotate(14.4191 1099.46 68.609)" fill="white"/>
</svg>
